<svg viewBox="0 0 1000 1000" xmlns="http://www.w3.org/2000/svg">
  <!-- Background -->
  <rect width="1000" height="1000" fill="#f8f6f0"/>
<g id="circles">
  <circle cx="500" cy="500" r="480" fill="none" stroke="#000" stroke-width="3"/>
  <circle cx="500" cy="500" r="458" fill="none" stroke="#000" stroke-width="2"/>
</g>
<g id="spokes">
 <path d="
  M 500.00 20.00 L 500.00 42.00
  M 575.09 25.91 L 571.65 47.64
  M 648.33 43.49 L 641.53 64.42
  M 717.92 72.32 L 707.93 91.92
  M 782.14 111.67 L 769.21 129.47
  M 839.41 160.59 L 823.85 176.15
  M 888.33 217.86 L 870.53 230.79
  M 927.68 282.08 L 908.08 292.07
  M 956.51 351.67 L 935.58 358.47
  M 974.09 424.91 L 952.36 428.35
  M 980.00 500.00 L 958.00 500.00
  M 974.09 575.09 L 952.36 571.65
  M 956.51 648.33 L 935.58 641.53
  M 927.68 717.92 L 908.08 707.93
  M 888.33 782.14 L 870.53 769.21
  M 839.41 839.41 L 823.85 823.85
  M 782.14 888.33 L 769.21 870.53
  M 717.92 927.68 L 707.93 908.08
  M 648.33 956.51 L 641.53 935.58
  M 575.09 974.09 L 571.65 952.36
  M 500.00 980.00 L 500.00 958.00
  M 424.91 974.09 L 428.35 952.36
  M 351.67 956.51 L 358.47 935.58
  M 282.08 927.68 L 292.07 908.08
  M 217.86 888.33 L 230.79 870.53
  M 160.59 839.41 L 176.15 823.85
  M 111.67 782.14 L 129.47 769.21
  M 72.32 717.92 L 91.92 707.93
  M 43.49 648.33 L 64.42 641.53
  M 25.91 575.09 L 47.64 571.65
  M 20.00 500.00 L 42.00 500.00
  M 25.91 424.91 L 47.64 428.35
  M 43.49 351.67 L 64.42 358.47
  M 72.32 282.08 L 91.92 292.07
  M 111.67 217.86 L 129.47 230.79
  M 160.59 160.59 L 176.15 176.15
  M 217.86 111.67 L 230.79 129.47
  M 282.08 72.32 L 292.07 91.92
  M 351.67 43.49 L 358.47 64.42
  M 424.91 25.91 L 428.35 47.64
  Z" fill="none" stroke="#000" stroke-width="3" stroke-linejoin="bevel" />
</g>
<g id="inner heptagon">
<path d="
  M 500.00  42.00  
  L 858.08 214.44  
  L 946.52 601.91  
  L 698.72 912.64  
  L 301.28 912.64  
  L  53.48 601.91  
  L 141.92 214.44  
Z" fill="none" stroke="#000" stroke-width="3" stroke-linejoin="bevel" />
</g>
<g id="outer heptagon">
  <path d="
    M 500.00  66.40 
    L 839.00 229.65 
    L 922.73 596.49 
    L 688.13 890.66 
    L 311.87 890.66 
    L  77.27 596.49 
    L 161.00 229.65 
Z
" fill="none" stroke="#000" stroke-width="3" stroke-linejoin="bevel" />
</g>
<g id="outer heptagram">
  <path d="
    M 500.00  66.40 
    L 922.73 596.49 
    L 311.87 890.66 
    L 161.00 229.65 
    L 839.00 229.65 
    L 688.13 890.66 
    L  77.27 596.49 
Z
" fill="none" stroke="#000" stroke-width="3" stroke-linejoin="bevel" />
</g>
<g id="inner heptagram">
  <path d="
    M 500.00 101.66 
    L 888.35 588.64 
    L 327.17 858.89 
    L 188.57 251.64 
    L 811.43 251.64 
    L 672.83 858.89 
    L 111.65 588.64 
Z
" fill="none" stroke="#000" stroke-width="3" stroke-linejoin="bevel" />
</g>
<g id="inner2 heptagon">
  <path d="
    M 604.10 283.83 
    L 733.92 446.61 
    L 687.59 649.60 
    L 500.00 739.94 
    L 312.41 649.60 
    L 266.08 446.61 
    L 395.90 283.83 
Z
" fill="none" stroke="#000" stroke-width="3" stroke-linejoin="bevel" />
</g>
<g id="inner3 heptagon">
  <path d="
    M 593.52 305.81 
    L 710.13 452.04 
    L 668.51 634.39 
    L 500.00 715.54 
    L 331.49 634.39 
    L 289.87 452.04 
    L 406.48 305.81 
Z
" fill="none" stroke="#000" stroke-width="3" stroke-linejoin="bevel" />
</g>
<g id="outer pentagram">
  <path d="
    M 500.00 307.78 
    L 615.61 659.12 
    L 304.45 436.46 
    L 695.55 436.46 
    L 384.39 659.12 
Z
" fill="none" stroke="#000" stroke-width="3" stroke-linejoin="bevel" />
</g>
<g id="inner pentagram">
  <path d="
    M 500.00 378.97 
    L 573.76 601.53 
    L 372.15 458.46 
    L 627.85 458.46 
    L 426.24 601.53 
Z
" fill="none" stroke="#000" stroke-width="3" stroke-linejoin="miter" />
</g>
<g id="inner pentagram">
<text x="960.58" y="536.25" font-family="'Brush Script MT', 'Lucida Handwriting', cursive" font-size="11" font-weight="bold" text-anchor="middle" dominant-baseline="text-bottom" transform="rotate(94.5, 960.58, 536.25)" fill="#000">a</text><text x="969.55" y="536.95" font-family="'Brush Script MT', 'Lucida Handwriting', cursive" font-size="11" font-weight="bold" text-anchor="middle" dominant-baseline="text-bottom" transform="rotate(94.5, 969.55, 536.95)" fill="#000">6</text>
<text x="953.61" y="608.90" font-family="'Brush Script MT', 'Lucida Handwriting', cursive" font-size="15" font-weight="bold" text-anchor="middle" dominant-baseline="text-bottom" transform="rotate(103.5, 953.61, 608.90)" fill="#000">h</text>
<text x="926.83" y="676.80" font-family="'Brush Script MT', 'Lucida Handwriting', cursive" font-size="11" font-weight="bold" text-anchor="middle" dominant-baseline="text-bottom" transform="rotate(112.5, 926.83, 676.80)" fill="#000">a</text><text x="935.15" y="680.24" font-family="'Brush Script MT', 'Lucida Handwriting', cursive" font-size="11" font-weight="bold" text-anchor="middle" dominant-baseline="text-bottom" transform="rotate(112.5, 935.15, 680.24)" fill="#000">18</text>
<text x="893.92" y="741.39" font-family="'Brush Script MT', 'Lucida Handwriting', cursive" font-size="11" font-weight="bold" text-anchor="middle" dominant-baseline="text-bottom" transform="rotate(121.5, 893.92, 741.39)" fill="#000">e</text><text x="901.59" y="746.10" font-family="'Brush Script MT', 'Lucida Handwriting', cursive" font-size="11" font-weight="bold" text-anchor="middle" dominant-baseline="text-bottom" transform="rotate(121.5, 901.59, 746.10)" fill="#000">26</text>
<text x="851.31" y="800.04" font-family="'Brush Script MT', 'Lucida Handwriting', cursive" font-size="11" font-weight="bold" text-anchor="middle" dominant-baseline="text-bottom" transform="rotate(130.5, 851.31, 800.04)" fill="#000">30</text><text x="858.15" y="805.89" font-family="'Brush Script MT', 'Lucida Handwriting', cursive" font-size="11" font-weight="bold" text-anchor="middle" dominant-baseline="text-bottom" transform="rotate(130.5, 858.15, 805.89)" fill="#000">e</text>
<text x="802.97" y="854.73" font-family="'Brush Script MT', 'Lucida Handwriting', cursive" font-size="15" font-weight="bold" text-anchor="middle" dominant-baseline="text-bottom" transform="rotate(139.5, 802.97, 854.73)" fill="#000">n</text>
<text x="741.39" y="893.92" font-family="'Brush Script MT', 'Lucida Handwriting', cursive" font-size="11" font-weight="bold" text-anchor="middle" dominant-baseline="text-bottom" transform="rotate(148.5, 741.39, 893.92)" fill="#000">e</text><text x="746.10" y="901.59" font-family="'Brush Script MT', 'Lucida Handwriting', cursive" font-size="11" font-weight="bold" text-anchor="middle" dominant-baseline="text-bottom" transform="rotate(148.5, 746.10, 901.59)" fill="#000">l</text>
<text x="676.80" y="926.83" font-family="'Brush Script MT', 'Lucida Handwriting', cursive" font-size="11" font-weight="bold" text-anchor="middle" dominant-baseline="text-bottom" transform="rotate(157.5, 676.80, 926.83)" fill="#000">G</text><text x="680.24" y="935.15" font-family="'Brush Script MT', 'Lucida Handwriting', cursive" font-size="11" font-weight="bold" text-anchor="middle" dominant-baseline="text-bottom" transform="rotate(157.5, 680.24, 935.15)" fill="#000">7</text>
<text x="607.85" y="949.23" font-family="'Brush Script MT', 'Lucida Handwriting', cursive" font-size="11" font-weight="bold" text-anchor="middle" dominant-baseline="text-bottom" transform="rotate(166.5, 607.85, 949.23)" fill="#000">i</text><text x="609.95" y="957.99" font-family="'Brush Script MT', 'Lucida Handwriting', cursive" font-size="11" font-weight="bold" text-anchor="middle" dominant-baseline="text-bottom" transform="rotate(166.5, 609.95, 957.99)" fill="#000">13</text>
<text x="536.25" y="960.58" font-family="'Brush Script MT', 'Lucida Handwriting', cursive" font-size="11" font-weight="bold" text-anchor="middle" dominant-baseline="text-bottom" transform="rotate(175.5, 536.25, 960.58)" fill="#000">12</text><text x="536.95" y="969.55" font-family="'Brush Script MT', 'Lucida Handwriting', cursive" font-size="11" font-weight="bold" text-anchor="middle" dominant-baseline="text-bottom" transform="rotate(175.5, 536.95, 969.55)" fill="#000">H</text>
<text x="463.75" y="960.58" font-family="'Brush Script MT', 'Lucida Handwriting', cursive" font-size="11" font-weight="bold" text-anchor="middle" dominant-baseline="text-bottom" transform="rotate(184.5, 463.75, 960.58)" fill="#000">og</text><text x="463.05" y="969.55" font-family="'Brush Script MT', 'Lucida Handwriting', cursive" font-size="11" font-weight="bold" text-anchor="middle" dominant-baseline="text-bottom" transform="rotate(184.5, 463.05, 969.55)" fill="#000">y</text>
<text x="392.15" y="949.23" font-family="'Brush Script MT', 'Lucida Handwriting', cursive" font-size="11" font-weight="bold" text-anchor="middle" dominant-baseline="text-bottom" transform="rotate(193.5, 392.15, 949.23)" fill="#000">15</text><text x="390.05" y="957.99" font-family="'Brush Script MT', 'Lucida Handwriting', cursive" font-size="11" font-weight="bold" text-anchor="middle" dominant-baseline="text-bottom" transform="rotate(193.5, 390.05, 957.99)" fill="#000">t</text>
<text x="323.20" y="926.83" font-family="'Brush Script MT', 'Lucida Handwriting', cursive" font-size="11" font-weight="bold" text-anchor="middle" dominant-baseline="text-bottom" transform="rotate(202.5, 323.20, 926.83)" fill="#000">11</text><text x="319.76" y="935.15" font-family="'Brush Script MT', 'Lucida Handwriting', cursive" font-size="11" font-weight="bold" text-anchor="middle" dominant-baseline="text-bottom" transform="rotate(202.5, 319.76, 935.15)" fill="#000">a</text>
<text x="258.61" y="893.92" font-family="'Brush Script MT', 'Lucida Handwriting', cursive" font-size="11" font-weight="bold" text-anchor="middle" dominant-baseline="text-bottom" transform="rotate(211.5, 258.61, 893.92)" fill="#000">8</text><text x="253.90" y="901.59" font-family="'Brush Script MT', 'Lucida Handwriting', cursive" font-size="11" font-weight="bold" text-anchor="middle" dominant-baseline="text-bottom" transform="rotate(211.5, 253.90, 901.59)" fill="#000">a</text>
<text x="199.96" y="851.31" font-family="'Brush Script MT', 'Lucida Handwriting', cursive" font-size="11" font-weight="bold" text-anchor="middle" dominant-baseline="text-bottom" transform="rotate(220.5, 199.96, 851.31)" fill="#000">21</text><text x="194.11" y="858.15" font-family="'Brush Script MT', 'Lucida Handwriting', cursive" font-size="11" font-weight="bold" text-anchor="middle" dominant-baseline="text-bottom" transform="rotate(220.5, 194.11, 858.15)" fill="#000">e</text>
<text x="148.69" y="800.04" font-family="'Brush Script MT', 'Lucida Handwriting', cursive" font-size="11" font-weight="bold" text-anchor="middle" dominant-baseline="text-bottom" transform="rotate(229.5, 148.69, 800.04)" fill="#000">b</text><text x="141.85" y="805.89" font-family="'Brush Script MT', 'Lucida Handwriting', cursive" font-size="11" font-weight="bold" text-anchor="middle" dominant-baseline="text-bottom" transform="rotate(229.5, 141.85, 805.89)" fill="#000">10</text>
<text x="106.08" y="741.39" font-family="'Brush Script MT', 'Lucida Handwriting', cursive" font-size="11" font-weight="bold" text-anchor="middle" dominant-baseline="text-bottom" transform="rotate(238.5, 106.08, 741.39)" fill="#000">A</text><text x=" 98.41" y="746.10" font-family="'Brush Script MT', 'Lucida Handwriting', cursive" font-size="11" font-weight="bold" text-anchor="middle" dominant-baseline="text-bottom" transform="rotate(238.5,  98.41, 746.10)" fill="#000">11</text>
<text x=" 73.17" y="676.80" font-family="'Brush Script MT', 'Lucida Handwriting', cursive" font-size="11" font-weight="bold" text-anchor="middle" dominant-baseline="text-bottom" transform="rotate(247.5,  73.17, 676.80)" fill="#000">J</text><text x=" 64.85" y="680.24" font-family="'Brush Script MT', 'Lucida Handwriting', cursive" font-size="11" font-weight="bold" text-anchor="middle" dominant-baseline="text-bottom" transform="rotate(247.5,  64.85, 680.24)" fill="#000">15</text>
<text x=" 50.77" y="607.85" font-family="'Brush Script MT', 'Lucida Handwriting', cursive" font-size="11" font-weight="bold" text-anchor="middle" dominant-baseline="text-bottom" transform="rotate(256.5,  50.77, 607.85)" fill="#000">a</text><text x=" 42.01" y="609.95" font-family="'Brush Script MT', 'Lucida Handwriting', cursive" font-size="11" font-weight="bold" text-anchor="middle" dominant-baseline="text-bottom" transform="rotate(256.5,  42.01, 609.95)" fill="#000">8</text>
<text x=" 39.42" y="536.25" font-family="'Brush Script MT', 'Lucida Handwriting', cursive" font-size="11" font-weight="bold" text-anchor="middle" dominant-baseline="text-bottom" transform="rotate(265.5,  39.42, 536.25)" fill="#000">16</text><text x=" 30.45" y="536.95" font-family="'Brush Script MT', 'Lucida Handwriting', cursive" font-size="11" font-weight="bold" text-anchor="middle" dominant-baseline="text-bottom" transform="rotate(265.5,  30.45, 536.95)" fill="#000">*</text>
<text x=" 34.94" y="463.40" font-family="'Brush Script MT', 'Lucida Handwriting', cursive" font-size="15" font-weight="bold" text-anchor="middle" dominant-baseline="text-bottom" transform="rotate(274.5,  34.94, 463.40)" fill="#000">n</text>
<text x=" 50.77" y="392.15" font-family="'Brush Script MT', 'Lucida Handwriting', cursive" font-size="11" font-weight="bold" text-anchor="middle" dominant-baseline="text-bottom" transform="rotate(283.5,  50.77, 392.15)" fill="#000">A</text><text x=" 42.01" y="390.05" font-family="'Brush Script MT', 'Lucida Handwriting', cursive" font-size="11" font-weight="bold" text-anchor="middle" dominant-baseline="text-bottom" transform="rotate(283.5,  42.01, 390.05)" fill="#000">6</text>
<text x=" 73.17" y="323.20" font-family="'Brush Script MT', 'Lucida Handwriting', cursive" font-size="11" font-weight="bold" text-anchor="middle" dominant-baseline="text-bottom" transform="rotate(292.5,  73.17, 323.20)" fill="#000">10</text><text x=" 64.85" y="319.76" font-family="'Brush Script MT', 'Lucida Handwriting', cursive" font-size="11" font-weight="bold" text-anchor="middle" dominant-baseline="text-bottom" transform="rotate(292.5,  64.85, 319.76)" fill="#000">a</text>
<text x="106.08" y="258.61" font-family="'Brush Script MT', 'Lucida Handwriting', cursive" font-size="11" font-weight="bold" text-anchor="middle" dominant-baseline="text-bottom" transform="rotate(301.5, 106.08, 258.61)" fill="#000">G</text><text x=" 98.41" y="253.90" font-family="'Brush Script MT', 'Lucida Handwriting', cursive" font-size="11" font-weight="bold" text-anchor="middle" dominant-baseline="text-bottom" transform="rotate(301.5,  98.41, 253.90)" fill="#000">5</text>
<text x="148.69" y="199.96" font-family="'Brush Script MT', 'Lucida Handwriting', cursive" font-size="11" font-weight="bold" text-anchor="middle" dominant-baseline="text-bottom" transform="rotate(310.5, 148.69, 199.96)" fill="#000">14</text><text x="141.85" y="194.11" font-family="'Brush Script MT', 'Lucida Handwriting', cursive" font-size="11" font-weight="bold" text-anchor="middle" dominant-baseline="text-bottom" transform="rotate(310.5, 141.85, 194.11)" fill="#000">h</text>
<text x="199.96" y="148.69" font-family="'Brush Script MT', 'Lucida Handwriting', cursive" font-size="11" font-weight="bold" text-anchor="middle" dominant-baseline="text-bottom" transform="rotate(319.5, 199.96, 148.69)" fill="#000">17</text><text x="194.11" y="141.85" font-family="'Brush Script MT', 'Lucida Handwriting', cursive" font-size="11" font-weight="bold" text-anchor="middle" dominant-baseline="text-bottom" transform="rotate(319.5, 194.11, 141.85)" fill="#000">a</text>
<text x="256.25" y="102.24" font-family="'Brush Script MT', 'Lucida Handwriting', cursive" font-size="15" font-weight="bold" text-anchor="middle" dominant-baseline="text-bottom" transform="rotate(328.5, 256.25, 102.24)" fill="#000">s</text>
<text x="323.20" y=" 73.17" font-family="'Brush Script MT', 'Lucida Handwriting', cursive" font-size="11" font-weight="bold" text-anchor="middle" dominant-baseline="text-bottom" transform="rotate(337.5, 323.20,  73.17)" fill="#000">5</text><text x="319.76" y=" 64.85" font-family="'Brush Script MT', 'Lucida Handwriting', cursive" font-size="11" font-weight="bold" text-anchor="middle" dominant-baseline="text-bottom" transform="rotate(337.5, 319.76,  64.85)" fill="#000">a</text>
<text x="392.15" y=" 50.77" font-family="'Brush Script MT', 'Lucida Handwriting', cursive" font-size="11" font-weight="bold" text-anchor="middle" dominant-baseline="text-bottom" transform="rotate(346.5, 392.15,  50.77)" fill="#000">24</text><text x="390.05" y=" 42.01" font-family="'Brush Script MT', 'Lucida Handwriting', cursive" font-size="11" font-weight="bold" text-anchor="middle" dominant-baseline="text-bottom" transform="rotate(346.5, 390.05,  42.01)" fill="#000">a</text>
<text x="463.75" y=" 39.42" font-family="'Brush Script MT', 'Lucida Handwriting', cursive" font-size="11" font-weight="bold" text-anchor="middle" dominant-baseline="text-bottom" transform="rotate(355.5, 463.75,  39.42)" fill="#000">w</text><text x="463.05" y=" 30.45" font-family="'Brush Script MT', 'Lucida Handwriting', cursive" font-size="11" font-weight="bold" text-anchor="middle" dominant-baseline="text-bottom" transform="rotate(355.5, 463.05,  30.45)" fill="#000">6</text>
<text x="536.25" y=" 39.42" font-family="'Brush Script MT', 'Lucida Handwriting', cursive" font-size="11" font-weight="bold" text-anchor="middle" dominant-baseline="text-bottom" transform="rotate(364.5, 536.25,  39.42)" fill="#000">t</text><text x="536.95" y=" 30.45" font-family="'Brush Script MT', 'Lucida Handwriting', cursive" font-size="11" font-weight="bold" text-anchor="middle" dominant-baseline="text-bottom" transform="rotate(364.5, 536.95,  30.45)" fill="#000">4</text>
<text x="607.85" y=" 50.77" font-family="'Brush Script MT', 'Lucida Handwriting', cursive" font-size="11" font-weight="bold" text-anchor="middle" dominant-baseline="text-bottom" transform="rotate(373.49999999999994, 607.85,  50.77)" fill="#000">G</text><text x="609.95" y=" 42.01" font-family="'Brush Script MT', 'Lucida Handwriting', cursive" font-size="11" font-weight="bold" text-anchor="middle" dominant-baseline="text-bottom" transform="rotate(373.49999999999994, 609.95,  42.01)" fill="#000">9</text>
<text x="676.80" y=" 73.17" font-family="'Brush Script MT', 'Lucida Handwriting', cursive" font-size="11" font-weight="bold" text-anchor="middle" dominant-baseline="text-bottom" transform="rotate(382.50000000000006, 676.80,  73.17)" fill="#000">n</text><text x="680.24" y=" 64.85" font-family="'Brush Script MT', 'Lucida Handwriting', cursive" font-size="11" font-weight="bold" text-anchor="middle" dominant-baseline="text-bottom" transform="rotate(382.50000000000006, 680.24,  64.85)" fill="#000">7</text>
<text x="741.39" y="106.08" font-family="'Brush Script MT', 'Lucida Handwriting', cursive" font-size="11" font-weight="bold" text-anchor="middle" dominant-baseline="text-bottom" transform="rotate(391.5, 741.39, 106.08)" fill="#000">9</text><text x="746.10" y=" 98.41" font-family="'Brush Script MT', 'Lucida Handwriting', cursive" font-size="11" font-weight="bold" text-anchor="middle" dominant-baseline="text-bottom" transform="rotate(391.5, 746.10,  98.41)" fill="#000">t</text>
<text x="800.04" y="148.69" font-family="'Brush Script MT', 'Lucida Handwriting', cursive" font-size="11" font-weight="bold" text-anchor="middle" dominant-baseline="text-bottom" transform="rotate(400.5, 800.04, 148.69)" fill="#000">h</text><text x="805.89" y="141.85" font-family="'Brush Script MT', 'Lucida Handwriting', cursive" font-size="11" font-weight="bold" text-anchor="middle" dominant-baseline="text-bottom" transform="rotate(400.5, 805.89, 141.85)" fill="#000">22</text>
<text x="854.73" y="197.03" font-family="'Brush Script MT', 'Lucida Handwriting', cursive" font-size="15" font-weight="bold" text-anchor="middle" dominant-baseline="text-bottom" transform="rotate(409.5, 854.73, 197.03)" fill="#000">n</text>
<text x="893.92" y="258.61" font-family="'Brush Script MT', 'Lucida Handwriting', cursive" font-size="11" font-weight="bold" text-anchor="middle" dominant-baseline="text-bottom" transform="rotate(418.5, 893.92, 258.61)" fill="#000">m</text><text x="901.59" y="253.90" font-family="'Brush Script MT', 'Lucida Handwriting', cursive" font-size="11" font-weight="bold" text-anchor="middle" dominant-baseline="text-bottom" transform="rotate(418.5, 901.59, 253.90)" fill="#000">6</text>
<text x="926.83" y="323.20" font-family="'Brush Script MT', 'Lucida Handwriting', cursive" font-size="11" font-weight="bold" text-anchor="middle" dominant-baseline="text-bottom" transform="rotate(427.49999999999994, 926.83, 323.20)" fill="#000">a</text><text x="935.15" y="319.76" font-family="'Brush Script MT', 'Lucida Handwriting', cursive" font-size="11" font-weight="bold" text-anchor="middle" dominant-baseline="text-bottom" transform="rotate(427.49999999999994, 935.15, 319.76)" fill="#000">22</text>
<text x="949.23" y="392.15" font-family="'Brush Script MT', 'Lucida Handwriting', cursive" font-size="11" font-weight="bold" text-anchor="middle" dominant-baseline="text-bottom" transform="rotate(436.50000000000006, 949.23, 392.15)" fill="#000">a</text><text x="957.99" y="390.05" font-family="'Brush Script MT', 'Lucida Handwriting', cursive" font-size="11" font-weight="bold" text-anchor="middle" dominant-baseline="text-bottom" transform="rotate(436.50000000000006, 957.99, 390.05)" fill="#000">20</text>
<text x="960.58" y="463.75" font-family="'Brush Script MT', 'Lucida Handwriting', cursive" font-size="11" font-weight="bold" text-anchor="middle" dominant-baseline="text-bottom" transform="rotate(445.49999999999994, 960.58, 463.75)" fill="#000">n</text><text x="969.55" y="463.05" font-family="'Brush Script MT', 'Lucida Handwriting', cursive" font-size="11" font-weight="bold" text-anchor="middle" dominant-baseline="text-bottom" transform="rotate(445.49999999999994, 969.55, 463.05)" fill="#000">14</text>
</g>
<g id="first cross">
<text x="500.0" y="500.0" font-family="'DejaVu Sans', 'DejaVu Serif', 'FreeSerif', 'Noto Sans Symbols', 'Noto Serif'" font-size="36" font-weight="bold" text-anchor="middle" dominant-baseline="middle" fill="#000">&#x2720;</text>
</g>
</svg>
