<?xml version="1.0" encoding="utf-8"?>
<!DOCTYPE svg PUBLIC "-//W3C//DTD SVG 1.1//EN" "http://www,w3.org/Graphics/SVG/1.1/DTD/svg11.dtd">
<svg xmlns="http://www.w3.org/2000/svg" width="1000" height="800">
<defs> <style type="text/css"> <![CDATA[ path {fill:yellow; stroke:black; stroke-width:3 } line {stroke:black} ]]> </style> </defs>
<g transform= "scale(  0.4000)" >
<path d="M 1515.544457, 400.000000 A 50 50 0 0 0 1472.243187, 425.000000 A 50 50 0 0 0 1472.243187, 475.000000 A 50 50 0 0 0 1515.544457, 500.000000 L 1515.544457, 550.000000 A 50 50 0 0 0 1472.243187, 575.000000 A 50 50 0 0 0 1472.243187, 625.000000 A 50 50 0 0 0 1515.544457, 650.000000 A 50 50 0 0 0 1558.845727, 625.000000 L 1602.146997, 650.000000 A 50 50 0 0 0 1602.146997, 700.000000 A 50 50 0 0 0 1645.448268, 725.000000 A 50 50 0 0 0 1688.749538, 700.000000 A 50 50 0 0 0 1688.749538, 650.000000 A 50 50 0 0 0 1645.448268, 625.000000 L 1645.448268, 575.000000 A 50 50 0 0 1 1602.146997, 550.000000 A 50 50 0 0 1 1602.146997, 500.000000 L 1558.845727, 475.000000 A 50 50 0 0 0 1558.845727, 425.000000 A 50 50 0 0 0 1515.544457, 400.000000 "  style="fill:rgb(250,250,150)"/>
<path d="M 1472.243187, 475.000000 L 1428.941917, 500.000000 A 50 50 0 0 1 1428.941917, 550.000000 A 50 50 0 0 1 1385.640646, 575.000000 L 1385.640646, 625.000000 A 50 50 0 0 1 1428.941917, 650.000000 A 50 50 0 0 1 1428.941917, 700.000000 A 50 50 0 0 1 1385.640646, 725.000000 L 1385.640646, 775.000000 A 50 50 0 0 1 1428.941917, 800.000000 L 1472.243187, 775.000000 A 50 50 0 0 1 1472.243187, 725.000000 A 50 50 0 0 1 1515.544457, 700.000000 A 50 50 0 0 1 1558.845727, 725.000000 L 1602.146997, 700.000000 A 50 50 0 0 1 1602.146997, 650.000000 L 1558.845727, 625.000000 A 50 50 0 0 1 1515.544457, 650.000000 A 50 50 0 0 1 1472.243187, 625.000000 A 50 50 0 0 1 1472.243187, 575.000000 A 50 50 0 0 1 1515.544457, 550.000000 L 1515.544457, 500.000000 A 50 50 0 0 1 1472.243187, 475.000000 "  style="fill:rgb(150,150,250)"/>
<path d="M 1515.544457, 700.000000 A 50 50 0 0 0 1472.243187, 725.000000 A 50 50 0 0 0 1472.243187, 775.000000 L 1428.941917, 800.000000 A 50 50 0 0 0 1385.640646, 775.000000 A 50 50 0 0 0 1342.339376, 800.000000 L 1299.038106, 775.000000 A 50 50 0 0 1 1255.736836, 800.000000 L 1255.736836, 850.000000 A 50 50 0 0 1 1299.038106, 875.000000 L 1342.339376, 850.000000 A 50 50 0 0 0 1385.640646, 875.000000 A 50 50 0 0 0 1428.941917, 850.000000 L 1472.243187, 875.000000 A 50 50 0 0 1 1515.544457, 850.000000 L 1515.544457, 800.000000 A 50 50 0 0 0 1558.845727, 775.000000 L 1602.146997, 800.000000 A 50 50 0 0 1 1645.448268, 775.000000 L 1645.448268, 725.000000 A 50 50 0 0 1 1602.146997, 700.000000 L 1558.845727, 725.000000 A 50 50 0 0 0 1515.544457, 700.000000 "  style="fill:rgb(250,150,150)"/>
<path d="M 1385.640646, 325.000000 A 50 50 0 0 0 1342.339376, 350.000000 A 50 50 0 0 0 1342.339376, 400.000000 L 1299.038106, 425.000000 A 50 50 0 0 0 1255.736836, 400.000000 A 50 50 0 0 0 1212.435566, 425.000000 A 50 50 0 0 0 1212.435566, 475.000000 A 50 50 0 0 0 1255.736836, 500.000000 L 1255.736836, 550.000000 A 50 50 0 0 1 1299.038106, 575.000000 L 1342.339376, 550.000000 A 50 50 0 0 1 1342.339376, 500.000000 A 50 50 0 0 1 1385.640646, 475.000000 A 50 50 0 0 1 1428.941917, 500.000000 L 1472.243187, 475.000000 A 50 50 0 0 1 1472.243187, 425.000000 L 1428.941917, 400.000000 A 50 50 0 0 0 1428.941917, 350.000000 A 50 50 0 0 0 1385.640646, 325.000000 "  style="fill:rgb(150,250,150)"/>
<path d="M 1255.736836, 100.000000 A 50 50 0 0 0 1212.435566, 125.000000 A 50 50 0 0 0 1212.435566, 175.000000 A 50 50 0 0 0 1255.736836, 200.000000 L 1255.736836, 250.000000 A 50 50 0 0 1 1299.038106, 275.000000 A 50 50 0 0 1 1299.038106, 325.000000 L 1342.339376, 350.000000 A 50 50 0 0 1 1385.640646, 325.000000 A 50 50 0 0 1 1428.941917, 350.000000 A 50 50 0 0 1 1428.941917, 400.000000 L 1472.243187, 425.000000 A 50 50 0 0 1 1515.544457, 400.000000 L 1515.544457, 350.000000 A 50 50 0 0 1 1472.243187, 325.000000 A 50 50 0 0 1 1472.243187, 275.000000 L 1428.941917, 250.000000 A 50 50 0 0 1 1385.640646, 275.000000 A 50 50 0 0 1 1342.339376, 250.000000 A 50 50 0 0 1 1342.339376, 200.000000 L 1299.038106, 175.000000 A 50 50 0 0 0 1299.038106, 125.000000 A 50 50 0 0 0 1255.736836, 100.000000 "  style="fill:rgb(250,150,150)"/>
<path d="M 1385.640646, 475.000000 A 50 50 0 0 0 1342.339376, 500.000000 A 50 50 0 0 0 1342.339376, 550.000000 L 1299.038106, 575.000000 A 50 50 0 0 0 1255.736836, 550.000000 A 50 50 0 0 0 1212.435566, 575.000000 A 50 50 0 0 0 1212.435566, 625.000000 L 1169.134295, 650.000000 A 50 50 0 0 1 1169.134295, 700.000000 L 1212.435566, 725.000000 A 50 50 0 0 1 1255.736836, 700.000000 L 1255.736836, 650.000000 A 50 50 0 0 0 1299.038106, 625.000000 L 1342.339376, 650.000000 A 50 50 0 0 0 1342.339376, 700.000000 A 50 50 0 0 0 1385.640646, 725.000000 A 50 50 0 0 0 1428.941917, 700.000000 A 50 50 0 0 0 1428.941917, 650.000000 A 50 50 0 0 0 1385.640646, 625.000000 L 1385.640646, 575.000000 A 50 50 0 0 0 1428.941917, 550.000000 A 50 50 0 0 0 1428.941917, 500.000000 A 50 50 0 0 0 1385.640646, 475.000000 "  style="fill:rgb(250,150,150)"/>
<path d="M 1299.038106, 625.000000 A 50 50 0 0 1 1255.736836, 650.000000 L 1255.736836, 700.000000 A 50 50 0 0 0 1212.435566, 725.000000 L 1169.134295, 700.000000 A 50 50 0 0 1 1125.833025, 725.000000 L 1125.833025, 775.000000 A 50 50 0 0 1 1169.134295, 800.000000 A 50 50 0 0 1 1169.134295, 850.000000 L 1212.435566, 875.000000 A 50 50 0 0 1 1255.736836, 850.000000 L 1255.736836, 800.000000 A 50 50 0 0 0 1299.038106, 775.000000 L 1342.339376, 800.000000 A 50 50 0 0 1 1385.640646, 775.000000 L 1385.640646, 725.000000 A 50 50 0 0 1 1342.339376, 700.000000 A 50 50 0 0 1 1342.339376, 650.000000 L 1299.038106, 625.000000 "  style="fill:rgb(250,250,150)"/>
<path d="M 1212.435566, 175.000000 L 1169.134295, 200.000000 A 50 50 0 0 1 1169.134295, 250.000000 A 50 50 0 0 1 1125.833025, 275.000000 L 1125.833025, 325.000000 A 50 50 0 0 0 1082.531755, 350.000000 A 50 50 0 0 0 1082.531755, 400.000000 A 50 50 0 0 0 1125.833025, 425.000000 A 50 50 0 0 0 1169.134295, 400.000000 A 50 50 0 0 0 1169.134295, 350.000000 L 1212.435566, 325.000000 A 50 50 0 0 0 1255.736836, 350.000000 L 1255.736836, 400.000000 A 50 50 0 0 1 1299.038106, 425.000000 L 1342.339376, 400.000000 A 50 50 0 0 1 1342.339376, 350.000000 L 1299.038106, 325.000000 A 50 50 0 0 0 1299.038106, 275.000000 A 50 50 0 0 0 1255.736836, 250.000000 L 1255.736836, 200.000000 A 50 50 0 0 1 1212.435566, 175.000000 "  style="fill:rgb(250,250,150)"/>
<path d="M 1082.531755, 550.000000 L 1039.230485, 575.000000 A 50 50 0 0 1 1039.230485, 625.000000 L 1082.531755, 650.000000 A 50 50 0 0 0 1082.531755, 700.000000 L 1039.230485, 725.000000 A 50 50 0 0 1 1039.230485, 775.000000 L 1082.531755, 800.000000 A 50 50 0 0 0 1082.531755, 850.000000 A 50 50 0 0 0 1125.833025, 875.000000 A 50 50 0 0 0 1169.134295, 850.000000 A 50 50 0 0 0 1169.134295, 800.000000 A 50 50 0 0 0 1125.833025, 775.000000 L 1125.833025, 725.000000 A 50 50 0 0 0 1169.134295, 700.000000 A 50 50 0 0 0 1169.134295, 650.000000 L 1212.435566, 625.000000 A 50 50 0 0 1 1212.435566, 575.000000 L 1169.134295, 550.000000 A 50 50 0 0 1 1125.833025, 575.000000 A 50 50 0 0 1 1082.531755, 550.000000 "  style="fill:rgb(150,250,150)"/>
<path d="M 1212.435566, 325.000000 L 1169.134295, 350.000000 A 50 50 0 0 1 1169.134295, 400.000000 A 50 50 0 0 1 1125.833025, 425.000000 A 50 50 0 0 1 1082.531755, 400.000000 L 1039.230485, 425.000000 A 50 50 0 0 1 1039.230485, 475.000000 L 1082.531755, 500.000000 A 50 50 0 0 0 1082.531755, 550.000000 A 50 50 0 0 0 1125.833025, 575.000000 A 50 50 0 0 0 1169.134295, 550.000000 L 1212.435566, 575.000000 A 50 50 0 0 1 1255.736836, 550.000000 L 1255.736836, 500.000000 A 50 50 0 0 1 1212.435566, 475.000000 A 50 50 0 0 1 1212.435566, 425.000000 A 50 50 0 0 1 1255.736836, 400.000000 L 1255.736836, 350.000000 A 50 50 0 0 1 1212.435566, 325.000000 "  style="fill:rgb(150,150,250)"/>
<path d="M 1039.230485, 475.000000 A 50 50 0 0 1 995.929215, 500.000000 L 995.929215, 550.000000 A 50 50 0 0 0 952.627944, 575.000000 A 50 50 0 0 0 952.627944, 625.000000 A 50 50 0 0 0 995.929215, 650.000000 L 995.929215, 700.000000 A 50 50 0 0 0 952.627944, 725.000000 L 909.326674, 700.000000 A 50 50 0 0 1 866.025404, 725.000000 L 866.025404, 775.000000 A 50 50 0 0 1 909.326674, 800.000000 L 952.627944, 775.000000 A 50 50 0 0 0 995.929215, 800.000000 A 50 50 0 0 0 1039.230485, 775.000000 A 50 50 0 0 0 1039.230485, 725.000000 L 1082.531755, 700.000000 A 50 50 0 0 1 1082.531755, 650.000000 L 1039.230485, 625.000000 A 50 50 0 0 0 1039.230485, 575.000000 L 1082.531755, 550.000000 A 50 50 0 0 1 1082.531755, 500.000000 L 1039.230485, 475.000000 "  style="fill:rgb(250,250,150)"/>
<path d="M 909.326674, 100.000000 A 50 50 0 0 1 866.025404, 125.000000 L 866.025404, 175.000000 A 50 50 0 0 1 909.326674, 200.000000 L 952.627944, 175.000000 A 50 50 0 0 0 995.929215, 200.000000 L 995.929215, 250.000000 A 50 50 0 0 1 1039.230485, 275.000000 L 1082.531755, 250.000000 A 50 50 0 0 1 1082.531755, 200.000000 A 50 50 0 0 1 1125.833025, 175.000000 A 50 50 0 0 1 1169.134295, 200.000000 L 1212.435566, 175.000000 A 50 50 0 0 1 1212.435566, 125.000000 L 1169.134295, 100.000000 A 50 50 0 0 1 1125.833025, 125.000000 A 50 50 0 0 1 1082.531755, 100.000000 L 1039.230485, 125.000000 A 50 50 0 0 0 995.929215, 100.000000 A 50 50 0 0 0 952.627944, 125.000000 L 909.326674, 100.000000 "  style="fill:rgb(150,150,250)"/>
<path d="M 1125.833025, 175.000000 A 50 50 0 0 0 1082.531755, 200.000000 A 50 50 0 0 0 1082.531755, 250.000000 L 1039.230485, 275.000000 A 50 50 0 0 0 995.929215, 250.000000 A 50 50 0 0 0 952.627944, 275.000000 A 50 50 0 0 0 952.627944, 325.000000 L 909.326674, 350.000000 A 50 50 0 0 0 866.025404, 325.000000 A 50 50 0 0 0 822.724134, 350.000000 A 50 50 0 0 0 822.724134, 400.000000 A 50 50 0 0 0 866.025404, 425.000000 A 50 50 0 0 0 909.326674, 400.000000 L 952.627944, 425.000000 A 50 50 0 0 1 995.929215, 400.000000 L 995.929215, 350.000000 A 50 50 0 0 0 1039.230485, 325.000000 L 1082.531755, 350.000000 A 50 50 0 0 1 1125.833025, 325.000000 L 1125.833025, 275.000000 A 50 50 0 0 0 1169.134295, 250.000000 A 50 50 0 0 0 1169.134295, 200.000000 A 50 50 0 0 0 1125.833025, 175.000000 "  style="fill:rgb(150,250,150)"/>
<path d="M 822.724134, 100.000000 L 779.422864, 125.000000 A 50 50 0 0 1 779.422864, 175.000000 L 822.724134, 200.000000 A 50 50 0 0 0 822.724134, 250.000000 L 779.422864, 275.000000 A 50 50 0 0 1 779.422864, 325.000000 L 822.724134, 350.000000 A 50 50 0 0 1 866.025404, 325.000000 A 50 50 0 0 1 909.326674, 350.000000 L 952.627944, 325.000000 A 50 50 0 0 1 952.627944, 275.000000 A 50 50 0 0 1 995.929215, 250.000000 L 995.929215, 200.000000 A 50 50 0 0 1 952.627944, 175.000000 L 909.326674, 200.000000 A 50 50 0 0 0 866.025404, 175.000000 L 866.025404, 125.000000 A 50 50 0 0 1 822.724134, 100.000000 "  style="fill:rgb(250,250,150)"/>
<path d="M 1039.230485, 325.000000 A 50 50 0 0 1 995.929215, 350.000000 L 995.929215, 400.000000 A 50 50 0 0 0 952.627944, 425.000000 A 50 50 0 0 0 952.627944, 475.000000 L 909.326674, 500.000000 A 50 50 0 0 0 866.025404, 475.000000 A 50 50 0 0 0 822.724134, 500.000000 L 779.422864, 475.000000 A 50 50 0 0 1 736.121593, 500.000000 L 736.121593, 550.000000 A 50 50 0 0 1 779.422864, 575.000000 L 822.724134, 550.000000 A 50 50 0 0 0 866.025404, 575.000000 A 50 50 0 0 0 909.326674, 550.000000 L 952.627944, 575.000000 A 50 50 0 0 1 995.929215, 550.000000 L 995.929215, 500.000000 A 50 50 0 0 0 1039.230485, 475.000000 A 50 50 0 0 0 1039.230485, 425.000000 L 1082.531755, 400.000000 A 50 50 0 0 1 1082.531755, 350.000000 L 1039.230485, 325.000000 "  style="fill:rgb(250,150,150)"/>
<path d="M 779.422864, 625.000000 A 50 50 0 0 1 736.121593, 650.000000 L 736.121593, 700.000000 A 50 50 0 0 0 692.820323, 725.000000 A 50 50 0 0 0 692.820323, 775.000000 A 50 50 0 0 0 736.121593, 800.000000 A 50 50 0 0 0 779.422864, 775.000000 L 822.724134, 800.000000 A 50 50 0 0 1 866.025404, 775.000000 L 866.025404, 725.000000 A 50 50 0 0 0 909.326674, 700.000000 L 952.627944, 725.000000 A 50 50 0 0 1 995.929215, 700.000000 L 995.929215, 650.000000 A 50 50 0 0 1 952.627944, 625.000000 L 909.326674, 650.000000 A 50 50 0 0 0 866.025404, 625.000000 A 50 50 0 0 0 822.724134, 650.000000 L 779.422864, 625.000000 "  style="fill:rgb(150,250,150)"/>
<path d="M 692.820323, 775.000000 L 649.519053, 800.000000 A 50 50 0 0 1 649.519053, 850.000000 L 692.820323, 875.000000 A 50 50 0 0 1 736.121593, 850.000000 A 50 50 0 0 1 779.422864, 875.000000 L 822.724134, 850.000000 A 50 50 0 0 0 866.025404, 875.000000 A 50 50 0 0 0 909.326674, 850.000000 L 952.627944, 875.000000 A 50 50 0 0 1 995.929215, 850.000000 A 50 50 0 0 1 1039.230485, 875.000000 L 1082.531755, 850.000000 A 50 50 0 0 1 1082.531755, 800.000000 L 1039.230485, 775.000000 A 50 50 0 0 1 995.929215, 800.000000 A 50 50 0 0 1 952.627944, 775.000000 L 909.326674, 800.000000 A 50 50 0 0 0 866.025404, 775.000000 A 50 50 0 0 0 822.724134, 800.000000 L 779.422864, 775.000000 A 50 50 0 0 1 736.121593, 800.000000 A 50 50 0 0 1 692.820323, 775.000000 "  style="fill:rgb(250,150,150)"/>
<path d="M 649.519053, 250.000000 A 50 50 0 0 1 606.217783, 275.000000 L 606.217783, 325.000000 A 50 50 0 0 1 649.519053, 350.000000 A 50 50 0 0 1 649.519053, 400.000000 L 692.820323, 425.000000 A 50 50 0 0 1 736.121593, 400.000000 A 50 50 0 0 1 779.422864, 425.000000 A 50 50 0 0 1 779.422864, 475.000000 L 822.724134, 500.000000 A 50 50 0 0 1 866.025404, 475.000000 A 50 50 0 0 1 909.326674, 500.000000 L 952.627944, 475.000000 A 50 50 0 0 1 952.627944, 425.000000 L 909.326674, 400.000000 A 50 50 0 0 1 866.025404, 425.000000 A 50 50 0 0 1 822.724134, 400.000000 A 50 50 0 0 1 822.724134, 350.000000 L 779.422864, 325.000000 A 50 50 0 0 1 736.121593, 350.000000 A 50 50 0 0 1 692.820323, 325.000000 A 50 50 0 0 1 692.820323, 275.000000 L 649.519053, 250.000000 "  style="fill:rgb(150,150,250)"/>
<path d="M 649.519053, 550.000000 A 50 50 0 0 1 606.217783, 575.000000 L 606.217783, 625.000000 A 50 50 0 0 0 562.916513, 650.000000 A 50 50 0 0 0 562.916513, 700.000000 A 50 50 0 0 0 606.217783, 725.000000 A 50 50 0 0 0 649.519053, 700.000000 A 50 50 0 0 0 649.519053, 650.000000 L 692.820323, 625.000000 A 50 50 0 0 0 736.121593, 650.000000 A 50 50 0 0 0 779.422864, 625.000000 L 822.724134, 650.000000 A 50 50 0 0 1 866.025404, 625.000000 A 50 50 0 0 1 909.326674, 650.000000 L 952.627944, 625.000000 A 50 50 0 0 1 952.627944, 575.000000 L 909.326674, 550.000000 A 50 50 0 0 1 866.025404, 575.000000 A 50 50 0 0 1 822.724134, 550.000000 L 779.422864, 575.000000 A 50 50 0 0 0 736.121593, 550.000000 A 50 50 0 0 0 692.820323, 575.000000 L 649.519053, 550.000000 "  style="fill:rgb(150,150,250)"/>
<path d="M 606.217783, 175.000000 A 50 50 0 0 0 562.916513, 200.000000 A 50 50 0 0 0 562.916513, 250.000000 L 519.615242, 275.000000 A 50 50 0 0 1 519.615242, 325.000000 L 562.916513, 350.000000 A 50 50 0 0 0 562.916513, 400.000000 A 50 50 0 0 0 606.217783, 425.000000 A 50 50 0 0 0 649.519053, 400.000000 A 50 50 0 0 0 649.519053, 350.000000 A 50 50 0 0 0 606.217783, 325.000000 L 606.217783, 275.000000 A 50 50 0 0 0 649.519053, 250.000000 L 692.820323, 275.000000 A 50 50 0 0 0 692.820323, 325.000000 A 50 50 0 0 0 736.121593, 350.000000 A 50 50 0 0 0 779.422864, 325.000000 A 50 50 0 0 0 779.422864, 275.000000 A 50 50 0 0 0 736.121593, 250.000000 L 736.121593, 200.000000 A 50 50 0 0 1 692.820323, 175.000000 L 649.519053, 200.000000 A 50 50 0 0 0 606.217783, 175.000000 "  style="fill:rgb(150,250,150)"/>
<path d="M 562.916513, 550.000000 L 519.615242, 575.000000 A 50 50 0 0 1 519.615242, 625.000000 A 50 50 0 0 1 476.313972, 650.000000 L 476.313972, 700.000000 A 50 50 0 0 1 519.615242, 725.000000 A 50 50 0 0 1 519.615242, 775.000000 L 562.916513, 800.000000 A 50 50 0 0 1 606.217783, 775.000000 A 50 50 0 0 1 649.519053, 800.000000 L 692.820323, 775.000000 A 50 50 0 0 1 692.820323, 725.000000 A 50 50 0 0 1 736.121593, 700.000000 L 736.121593, 650.000000 A 50 50 0 0 1 692.820323, 625.000000 L 649.519053, 650.000000 A 50 50 0 0 1 649.519053, 700.000000 A 50 50 0 0 1 606.217783, 725.000000 A 50 50 0 0 1 562.916513, 700.000000 A 50 50 0 0 1 562.916513, 650.000000 A 50 50 0 0 1 606.217783, 625.000000 L 606.217783, 575.000000 A 50 50 0 0 1 562.916513, 550.000000 "  style="fill:rgb(250,250,150)"/>
<path d="M 476.313972, 400.000000 A 50 50 0 0 0 433.012702, 425.000000 A 50 50 0 0 0 433.012702, 475.000000 A 50 50 0 0 0 476.313972, 500.000000 L 476.313972, 550.000000 A 50 50 0 0 1 519.615242, 575.000000 L 562.916513, 550.000000 A 50 50 0 0 0 606.217783, 575.000000 A 50 50 0 0 0 649.519053, 550.000000 L 692.820323, 575.000000 A 50 50 0 0 1 736.121593, 550.000000 L 736.121593, 500.000000 A 50 50 0 0 0 779.422864, 475.000000 A 50 50 0 0 0 779.422864, 425.000000 A 50 50 0 0 0 736.121593, 400.000000 A 50 50 0 0 0 692.820323, 425.000000 A 50 50 0 0 0 692.820323, 475.000000 L 649.519053, 500.000000 A 50 50 0 0 0 606.217783, 475.000000 A 50 50 0 0 0 562.916513, 500.000000 L 519.615242, 475.000000 A 50 50 0 0 0 519.615242, 425.000000 A 50 50 0 0 0 476.313972, 400.000000 "  style="fill:rgb(150,250,150)"/>
<path d="M 519.615242, 175.000000 A 50 50 0 0 1 476.313972, 200.000000 L 476.313972, 250.000000 A 50 50 0 0 0 433.012702, 275.000000 A 50 50 0 0 0 433.012702, 325.000000 A 50 50 0 0 0 476.313972, 350.000000 L 476.313972, 400.000000 A 50 50 0 0 1 519.615242, 425.000000 A 50 50 0 0 1 519.615242, 475.000000 L 562.916513, 500.000000 A 50 50 0 0 1 606.217783, 475.000000 A 50 50 0 0 1 649.519053, 500.000000 L 692.820323, 475.000000 A 50 50 0 0 1 692.820323, 425.000000 L 649.519053, 400.000000 A 50 50 0 0 1 606.217783, 425.000000 A 50 50 0 0 1 562.916513, 400.000000 A 50 50 0 0 1 562.916513, 350.000000 L 519.615242, 325.000000 A 50 50 0 0 0 519.615242, 275.000000 L 562.916513, 250.000000 A 50 50 0 0 1 562.916513, 200.000000 L 519.615242, 175.000000 "  style="fill:rgb(250,250,150)"/>
<path d="M 476.313972, 100.000000 A 50 50 0 0 0 433.012702, 125.000000 A 50 50 0 0 0 433.012702, 175.000000 A 50 50 0 0 0 476.313972, 200.000000 A 50 50 0 0 0 519.615242, 175.000000 L 562.916513, 200.000000 A 50 50 0 0 1 606.217783, 175.000000 A 50 50 0 0 1 649.519053, 200.000000 L 692.820323, 175.000000 A 50 50 0 0 0 736.121593, 200.000000 L 736.121593, 250.000000 A 50 50 0 0 1 779.422864, 275.000000 L 822.724134, 250.000000 A 50 50 0 0 1 822.724134, 200.000000 L 779.422864, 175.000000 A 50 50 0 0 0 779.422864, 125.000000 A 50 50 0 0 0 736.121593, 100.000000 A 50 50 0 0 0 692.820323, 125.000000 L 649.519053, 100.000000 A 50 50 0 0 1 606.217783, 125.000000 A 50 50 0 0 1 562.916513, 100.000000 L 519.615242, 125.000000 A 50 50 0 0 0 476.313972, 100.000000 "  style="fill:rgb(250,150,150)"/>
<path d="M 346.410162, 625.000000 A 50 50 0 0 0 303.108891, 650.000000 A 50 50 0 0 0 303.108891, 700.000000 A 50 50 0 0 0 346.410162, 725.000000 A 50 50 0 0 0 389.711432, 700.000000 L 433.012702, 725.000000 A 50 50 0 0 0 433.012702, 775.000000 A 50 50 0 0 0 476.313972, 800.000000 L 476.313972, 850.000000 A 50 50 0 0 1 519.615242, 875.000000 L 562.916513, 850.000000 A 50 50 0 0 0 606.217783, 875.000000 A 50 50 0 0 0 649.519053, 850.000000 A 50 50 0 0 0 649.519053, 800.000000 A 50 50 0 0 0 606.217783, 775.000000 A 50 50 0 0 0 562.916513, 800.000000 L 519.615242, 775.000000 A 50 50 0 0 0 519.615242, 725.000000 A 50 50 0 0 0 476.313972, 700.000000 L 476.313972, 650.000000 A 50 50 0 0 1 433.012702, 625.000000 L 389.711432, 650.000000 A 50 50 0 0 0 346.410162, 625.000000 "  style="fill:rgb(150,250,150)"/>
<path d="M 303.108891, 550.000000 L 259.807621, 575.000000 A 50 50 0 0 1 259.807621, 625.000000 A 50 50 0 0 1 216.506351, 650.000000 L 216.506351, 700.000000 A 50 50 0 0 1 259.807621, 725.000000 A 50 50 0 0 1 259.807621, 775.000000 L 303.108891, 800.000000 A 50 50 0 0 1 346.410162, 775.000000 A 50 50 0 0 1 389.711432, 800.000000 A 50 50 0 0 1 389.711432, 850.000000 L 433.012702, 875.000000 A 50 50 0 0 1 476.313972, 850.000000 L 476.313972, 800.000000 A 50 50 0 0 1 433.012702, 775.000000 A 50 50 0 0 1 433.012702, 725.000000 L 389.711432, 700.000000 A 50 50 0 0 1 346.410162, 725.000000 A 50 50 0 0 1 303.108891, 700.000000 A 50 50 0 0 1 303.108891, 650.000000 A 50 50 0 0 1 346.410162, 625.000000 L 346.410162, 575.000000 A 50 50 0 0 1 303.108891, 550.000000 "  style="fill:rgb(250,150,150)"/>
<path d="M 433.012702, 175.000000 L 389.711432, 200.000000 A 50 50 0 0 1 389.711432, 250.000000 A 50 50 0 0 1 346.410162, 275.000000 A 50 50 0 0 1 303.108891, 250.000000 L 259.807621, 275.000000 A 50 50 0 0 1 259.807621, 325.000000 A 50 50 0 0 1 216.506351, 350.000000 L 216.506351, 400.000000 A 50 50 0 0 1 259.807621, 425.000000 L 303.108891, 400.000000 A 50 50 0 0 0 346.410162, 425.000000 A 50 50 0 0 0 389.711432, 400.000000 A 50 50 0 0 0 389.711432, 350.000000 L 433.012702, 325.000000 A 50 50 0 0 1 433.012702, 275.000000 A 50 50 0 0 1 476.313972, 250.000000 L 476.313972, 200.000000 A 50 50 0 0 1 433.012702, 175.000000 "  style="fill:rgb(150,150,250)"/>
<path d="M 259.807621, 475.000000 A 50 50 0 0 1 216.506351, 500.000000 L 216.506351, 550.000000 A 50 50 0 0 0 173.205081, 575.000000 A 50 50 0 0 0 173.205081, 625.000000 A 50 50 0 0 0 216.506351, 650.000000 A 50 50 0 0 0 259.807621, 625.000000 A 50 50 0 0 0 259.807621, 575.000000 L 303.108891, 550.000000 A 50 50 0 0 0 346.410162, 575.000000 L 346.410162, 625.000000 A 50 50 0 0 1 389.711432, 650.000000 L 433.012702, 625.000000 A 50 50 0 0 0 476.313972, 650.000000 A 50 50 0 0 0 519.615242, 625.000000 A 50 50 0 0 0 519.615242, 575.000000 A 50 50 0 0 0 476.313972, 550.000000 A 50 50 0 0 0 433.012702, 575.000000 L 389.711432, 550.000000 A 50 50 0 0 0 389.711432, 500.000000 A 50 50 0 0 0 346.410162, 475.000000 A 50 50 0 0 0 303.108891, 500.000000 L 259.807621, 475.000000 "  style="fill:rgb(150,150,250)"/>
<path d="M 433.012702, 325.000000 L 389.711432, 350.000000 A 50 50 0 0 1 389.711432, 400.000000 A 50 50 0 0 1 346.410162, 425.000000 A 50 50 0 0 1 303.108891, 400.000000 L 259.807621, 425.000000 A 50 50 0 0 0 216.506351, 400.000000 A 50 50 0 0 0 173.205081, 425.000000 A 50 50 0 0 0 173.205081, 475.000000 A 50 50 0 0 0 216.506351, 500.000000 A 50 50 0 0 0 259.807621, 475.000000 L 303.108891, 500.000000 A 50 50 0 0 1 346.410162, 475.000000 A 50 50 0 0 1 389.711432, 500.000000 A 50 50 0 0 1 389.711432, 550.000000 L 433.012702, 575.000000 A 50 50 0 0 1 476.313972, 550.000000 L 476.313972, 500.000000 A 50 50 0 0 1 433.012702, 475.000000 A 50 50 0 0 1 433.012702, 425.000000 A 50 50 0 0 1 476.313972, 400.000000 L 476.313972, 350.000000 A 50 50 0 0 1 433.012702, 325.000000 "  style="fill:rgb(250,150,150)"/>
<path d="M 129.903811, 700.000000 A 50 50 0 0 1  86.602540, 725.000000 L  86.602540, 775.000000 A 50 50 0 0 0  43.301270, 800.000000 A 50 50 0 0 0  43.301270, 850.000000 A 50 50 0 0 0  86.602540, 875.000000 A 50 50 0 0 0 129.903811, 850.000000 L 173.205081, 875.000000 A 50 50 0 0 1 216.506351, 850.000000 A 50 50 0 0 1 259.807621, 875.000000 L 303.108891, 850.000000 A 50 50 0 0 0 346.410162, 875.000000 A 50 50 0 0 0 389.711432, 850.000000 A 50 50 0 0 0 389.711432, 800.000000 A 50 50 0 0 0 346.410162, 775.000000 A 50 50 0 0 0 303.108891, 800.000000 L 259.807621, 775.000000 A 50 50 0 0 1 216.506351, 800.000000 A 50 50 0 0 1 173.205081, 775.000000 A 50 50 0 0 1 173.205081, 725.000000 L 129.903811, 700.000000 "  style="fill:rgb(250,250,150)"/>
<path d="M 173.205081, 475.000000 L 129.903811, 500.000000 A 50 50 0 0 1 129.903811, 550.000000 A 50 50 0 0 1  86.602540, 575.000000 L  86.602540, 625.000000 A 50 50 0 0 0  43.301270, 650.000000 A 50 50 0 0 0  43.301270, 700.000000 A 50 50 0 0 0  86.602540, 725.000000 A 50 50 0 0 0 129.903811, 700.000000 L 173.205081, 725.000000 A 50 50 0 0 0 173.205081, 775.000000 A 50 50 0 0 0 216.506351, 800.000000 A 50 50 0 0 0 259.807621, 775.000000 A 50 50 0 0 0 259.807621, 725.000000 A 50 50 0 0 0 216.506351, 700.000000 L 216.506351, 650.000000 A 50 50 0 0 1 173.205081, 625.000000 A 50 50 0 0 1 173.205081, 575.000000 A 50 50 0 0 1 216.506351, 550.000000 L 216.506351, 500.000000 A 50 50 0 0 1 173.205081, 475.000000 "  style="fill:rgb(150,250,150)"/>
<path d="M 1602.146997, 850.000000 L 1558.845727, 875.000000 A 50 50 0 0 1 1558.845727, 925.000000 L 1602.146997, 950.000000 A 50 50 0 0 0 1602.146997, 1000.000000 L 1558.845727, 1025.000000 A 50 50 0 0 0 1515.544457, 1000.000000 L 1515.544457, 950.000000 A 50 50 0 0 1 1472.243187, 925.000000 L 1428.941917, 950.000000 A 50 50 0 0 1 1428.941917, 1000.000000 L 1472.243187, 1025.000000 A 50 50 0 0 0 1472.243187, 1075.000000 A 50 50 0 0 0 1515.544457, 1100.000000 A 50 50 0 0 0 1558.845727, 1075.000000 L 1602.146997, 1100.000000 A 50 50 0 0 1 1645.448268, 1075.000000 L 1645.448268, 1025.000000 A 50 50 0 0 0 1688.749538, 1000.000000 A 50 50 0 0 0 1688.749538, 950.000000 A 50 50 0 0 0 1645.448268, 925.000000 L 1645.448268, 875.000000 A 50 50 0 0 1 1602.146997, 850.000000 "  style="fill:rgb(250,150,150)"/>
<path d="M 1558.845727, 775.000000 A 50 50 0 0 1 1515.544457, 800.000000 L 1515.544457, 850.000000 A 50 50 0 0 0 1472.243187, 875.000000 L 1428.941917, 850.000000 A 50 50 0 0 1 1385.640646, 875.000000 L 1385.640646, 925.000000 A 50 50 0 0 1 1428.941917, 950.000000 L 1472.243187, 925.000000 A 50 50 0 0 0 1515.544457, 950.000000 L 1515.544457, 1000.000000 A 50 50 0 0 1 1558.845727, 1025.000000 L 1602.146997, 1000.000000 A 50 50 0 0 1 1602.146997, 950.000000 L 1558.845727, 925.000000 A 50 50 0 0 0 1558.845727, 875.000000 L 1602.146997, 850.000000 A 50 50 0 0 0 1645.448268, 875.000000 A 50 50 0 0 0 1688.749538, 850.000000 A 50 50 0 0 0 1688.749538, 800.000000 A 50 50 0 0 0 1645.448268, 775.000000 A 50 50 0 0 0 1602.146997, 800.000000 L 1558.845727, 775.000000 "  style="fill:rgb(150,250,150)"/>
<path d="M 1515.544457, 1150.000000 A 50 50 0 0 0 1472.243187, 1175.000000 A 50 50 0 0 0 1472.243187, 1225.000000 L 1428.941917, 1250.000000 A 50 50 0 0 0 1385.640646, 1225.000000 A 50 50 0 0 0 1342.339376, 1250.000000 A 50 50 0 0 0 1342.339376, 1300.000000 L 1299.038106, 1325.000000 A 50 50 0 0 1 1299.038106, 1375.000000 L 1342.339376, 1400.000000 A 50 50 0 0 1 1385.640646, 1375.000000 A 50 50 0 0 1 1428.941917, 1400.000000 L 1472.243187, 1375.000000 A 50 50 0 0 1 1472.243187, 1325.000000 A 50 50 0 0 1 1515.544457, 1300.000000 L 1515.544457, 1250.000000 A 50 50 0 0 0 1558.845727, 1225.000000 A 50 50 0 0 0 1558.845727, 1175.000000 A 50 50 0 0 0 1515.544457, 1150.000000 "  style="fill:rgb(150,150,250)"/>
<path d="M 1342.339376, 850.000000 L 1299.038106, 875.000000 A 50 50 0 0 1 1299.038106, 925.000000 L 1342.339376, 950.000000 A 50 50 0 0 0 1342.339376, 1000.000000 A 50 50 0 0 0 1385.640646, 1025.000000 L 1385.640646, 1075.000000 A 50 50 0 0 1 1428.941917, 1100.000000 A 50 50 0 0 1 1428.941917, 1150.000000 L 1472.243187, 1175.000000 A 50 50 0 0 1 1515.544457, 1150.000000 A 50 50 0 0 1 1558.845727, 1175.000000 L 1602.146997, 1150.000000 A 50 50 0 0 1 1602.146997, 1100.000000 L 1558.845727, 1075.000000 A 50 50 0 0 1 1515.544457, 1100.000000 A 50 50 0 0 1 1472.243187, 1075.000000 A 50 50 0 0 1 1472.243187, 1025.000000 L 1428.941917, 1000.000000 A 50 50 0 0 0 1428.941917, 950.000000 A 50 50 0 0 0 1385.640646, 925.000000 L 1385.640646, 875.000000 A 50 50 0 0 1 1342.339376, 850.000000 "  style="fill:rgb(250,250,150)"/>
<path d="M 1342.339376, 1000.000000 L 1299.038106, 1025.000000 A 50 50 0 0 1 1299.038106, 1075.000000 A 50 50 0 0 1 1255.736836, 1100.000000 A 50 50 0 0 1 1212.435566, 1075.000000 L 1169.134295, 1100.000000 A 50 50 0 0 1 1169.134295, 1150.000000 L 1212.435566, 1175.000000 A 50 50 0 0 1 1255.736836, 1150.000000 A 50 50 0 0 1 1299.038106, 1175.000000 L 1342.339376, 1150.000000 A 50 50 0 0 0 1385.640646, 1175.000000 L 1385.640646, 1225.000000 A 50 50 0 0 1 1428.941917, 1250.000000 L 1472.243187, 1225.000000 A 50 50 0 0 1 1472.243187, 1175.000000 L 1428.941917, 1150.000000 A 50 50 0 0 0 1428.941917, 1100.000000 A 50 50 0 0 0 1385.640646, 1075.000000 L 1385.640646, 1025.000000 A 50 50 0 0 1 1342.339376, 1000.000000 "  style="fill:rgb(150,250,150)"/>
<path d="M 1342.339376, 1150.000000 L 1299.038106, 1175.000000 A 50 50 0 0 1 1299.038106, 1225.000000 A 50 50 0 0 1 1255.736836, 1250.000000 L 1255.736836, 1300.000000 A 50 50 0 0 0 1212.435566, 1325.000000 L 1169.134295, 1300.000000 A 50 50 0 0 1 1125.833025, 1325.000000 L 1125.833025, 1375.000000 A 50 50 0 0 1 1169.134295, 1400.000000 L 1212.435566, 1375.000000 A 50 50 0 0 0 1255.736836, 1400.000000 L 1255.736836, 1450.000000 A 50 50 0 0 1 1299.038106, 1475.000000 L 1342.339376, 1450.000000 A 50 50 0 0 1 1342.339376, 1400.000000 L 1299.038106, 1375.000000 A 50 50 0 0 0 1299.038106, 1325.000000 L 1342.339376, 1300.000000 A 50 50 0 0 1 1342.339376, 1250.000000 A 50 50 0 0 1 1385.640646, 1225.000000 L 1385.640646, 1175.000000 A 50 50 0 0 1 1342.339376, 1150.000000 "  style="fill:rgb(250,150,150)"/>
<path d="M 1125.833025, 1375.000000 A 50 50 0 0 0 1082.531755, 1400.000000 A 50 50 0 0 0 1082.531755, 1450.000000 L 1039.230485, 1475.000000 A 50 50 0 0 1 1039.230485, 1525.000000 L 1082.531755, 1550.000000 A 50 50 0 0 1 1125.833025, 1525.000000 A 50 50 0 0 1 1169.134295, 1550.000000 L 1212.435566, 1525.000000 A 50 50 0 0 0 1255.736836, 1550.000000 A 50 50 0 0 0 1299.038106, 1525.000000 A 50 50 0 0 0 1299.038106, 1475.000000 A 50 50 0 0 0 1255.736836, 1450.000000 L 1255.736836, 1400.000000 A 50 50 0 0 1 1212.435566, 1375.000000 L 1169.134295, 1400.000000 A 50 50 0 0 0 1125.833025, 1375.000000 "  style="fill:rgb(150,250,150)"/>
<path d="M 1082.531755, 1000.000000 L 1039.230485, 1025.000000 A 50 50 0 0 1 1039.230485, 1075.000000 L 1082.531755, 1100.000000 A 50 50 0 0 0 1082.531755, 1150.000000 A 50 50 0 0 0 1125.833025, 1175.000000 L 1125.833025, 1225.000000 A 50 50 0 0 1 1169.134295, 1250.000000 L 1212.435566, 1225.000000 A 50 50 0 0 0 1255.736836, 1250.000000 A 50 50 0 0 0 1299.038106, 1225.000000 A 50 50 0 0 0 1299.038106, 1175.000000 A 50 50 0 0 0 1255.736836, 1150.000000 A 50 50 0 0 0 1212.435566, 1175.000000 L 1169.134295, 1150.000000 A 50 50 0 0 0 1169.134295, 1100.000000 L 1212.435566, 1075.000000 A 50 50 0 0 1 1212.435566, 1025.000000 L 1169.134295, 1000.000000 A 50 50 0 0 1 1125.833025, 1025.000000 A 50 50 0 0 1 1082.531755, 1000.000000 "  style="fill:rgb(250,250,150)"/>
<path d="M 1082.531755, 850.000000 L 1039.230485, 875.000000 A 50 50 0 0 1 1039.230485, 925.000000 L 1082.531755, 950.000000 A 50 50 0 0 1 1125.833025, 925.000000 A 50 50 0 0 1 1169.134295, 950.000000 L 1212.435566, 925.000000 A 50 50 0 0 0 1255.736836, 950.000000 L 1255.736836, 1000.000000 A 50 50 0 0 0 1212.435566, 1025.000000 A 50 50 0 0 0 1212.435566, 1075.000000 A 50 50 0 0 0 1255.736836, 1100.000000 A 50 50 0 0 0 1299.038106, 1075.000000 A 50 50 0 0 0 1299.038106, 1025.000000 L 1342.339376, 1000.000000 A 50 50 0 0 1 1342.339376, 950.000000 L 1299.038106, 925.000000 A 50 50 0 0 0 1299.038106, 875.000000 A 50 50 0 0 0 1255.736836, 850.000000 A 50 50 0 0 0 1212.435566, 875.000000 L 1169.134295, 850.000000 A 50 50 0 0 1 1125.833025, 875.000000 A 50 50 0 0 1 1082.531755, 850.000000 "  style="fill:rgb(150,150,250)"/>
<path d="M 995.929215, 850.000000 A 50 50 0 0 0 952.627944, 875.000000 A 50 50 0 0 0 952.627944, 925.000000 A 50 50 0 0 0 995.929215, 950.000000 L 995.929215, 1000.000000 A 50 50 0 0 0 952.627944, 1025.000000 A 50 50 0 0 0 952.627944, 1075.000000 A 50 50 0 0 0 995.929215, 1100.000000 A 50 50 0 0 0 1039.230485, 1075.000000 A 50 50 0 0 0 1039.230485, 1025.000000 L 1082.531755, 1000.000000 A 50 50 0 0 0 1125.833025, 1025.000000 A 50 50 0 0 0 1169.134295, 1000.000000 L 1212.435566, 1025.000000 A 50 50 0 0 1 1255.736836, 1000.000000 L 1255.736836, 950.000000 A 50 50 0 0 1 1212.435566, 925.000000 L 1169.134295, 950.000000 A 50 50 0 0 0 1125.833025, 925.000000 A 50 50 0 0 0 1082.531755, 950.000000 L 1039.230485, 925.000000 A 50 50 0 0 0 1039.230485, 875.000000 A 50 50 0 0 0 995.929215, 850.000000 "  style="fill:rgb(150,250,150)"/>
<path d="M 1125.833025, 1225.000000 A 50 50 0 0 0 1082.531755, 1250.000000 A 50 50 0 0 0 1082.531755, 1300.000000 L 1039.230485, 1325.000000 A 50 50 0 0 0 995.929215, 1300.000000 A 50 50 0 0 0 952.627944, 1325.000000 A 50 50 0 0 0 952.627944, 1375.000000 L 909.326674, 1400.000000 A 50 50 0 0 1 909.326674, 1450.000000 L 952.627944, 1475.000000 A 50 50 0 0 1 995.929215, 1450.000000 L 995.929215, 1400.000000 A 50 50 0 0 0 1039.230485, 1375.000000 L 1082.531755, 1400.000000 A 50 50 0 0 1 1125.833025, 1375.000000 L 1125.833025, 1325.000000 A 50 50 0 0 0 1169.134295, 1300.000000 L 1212.435566, 1325.000000 A 50 50 0 0 1 1255.736836, 1300.000000 L 1255.736836, 1250.000000 A 50 50 0 0 1 1212.435566, 1225.000000 L 1169.134295, 1250.000000 A 50 50 0 0 0 1125.833025, 1225.000000 "  style="fill:rgb(150,150,250)"/>
<path d="M 866.025404, 1075.000000 A 50 50 0 0 0 822.724134, 1100.000000 A 50 50 0 0 0 822.724134, 1150.000000 A 50 50 0 0 0 866.025404, 1175.000000 A 50 50 0 0 0 909.326674, 1150.000000 L 952.627944, 1175.000000 A 50 50 0 0 1 995.929215, 1150.000000 A 50 50 0 0 1 1039.230485, 1175.000000 A 50 50 0 0 1 1039.230485, 1225.000000 A 50 50 0 0 1 995.929215, 1250.000000 L 995.929215, 1300.000000 A 50 50 0 0 1 1039.230485, 1325.000000 L 1082.531755, 1300.000000 A 50 50 0 0 1 1082.531755, 1250.000000 A 50 50 0 0 1 1125.833025, 1225.000000 L 1125.833025, 1175.000000 A 50 50 0 0 1 1082.531755, 1150.000000 A 50 50 0 0 1 1082.531755, 1100.000000 L 1039.230485, 1075.000000 A 50 50 0 0 1 995.929215, 1100.000000 A 50 50 0 0 1 952.627944, 1075.000000 L 909.326674, 1100.000000 A 50 50 0 0 0 866.025404, 1075.000000 "  style="fill:rgb(250,150,150)"/>
<path d="M 866.025404, 1375.000000 A 50 50 0 0 0 822.724134, 1400.000000 A 50 50 0 0 0 822.724134, 1450.000000 L 779.422864, 1475.000000 A 50 50 0 0 1 779.422864, 1525.000000 L 822.724134, 1550.000000 A 50 50 0 0 1 866.025404, 1525.000000 A 50 50 0 0 1 909.326674, 1550.000000 L 952.627944, 1525.000000 A 50 50 0 0 0 995.929215, 1550.000000 A 50 50 0 0 0 1039.230485, 1525.000000 A 50 50 0 0 0 1039.230485, 1475.000000 L 1082.531755, 1450.000000 A 50 50 0 0 1 1082.531755, 1400.000000 L 1039.230485, 1375.000000 A 50 50 0 0 1 995.929215, 1400.000000 L 995.929215, 1450.000000 A 50 50 0 0 0 952.627944, 1475.000000 L 909.326674, 1450.000000 A 50 50 0 0 0 909.326674, 1400.000000 A 50 50 0 0 0 866.025404, 1375.000000 "  style="fill:rgb(250,150,150)"/>
<path d="M 822.724134, 1150.000000 L 779.422864, 1175.000000 A 50 50 0 0 1 779.422864, 1225.000000 L 822.724134, 1250.000000 A 50 50 0 0 1 866.025404, 1225.000000 A 50 50 0 0 1 909.326674, 1250.000000 A 50 50 0 0 1 909.326674, 1300.000000 A 50 50 0 0 1 866.025404, 1325.000000 L 866.025404, 1375.000000 A 50 50 0 0 1 909.326674, 1400.000000 L 952.627944, 1375.000000 A 50 50 0 0 1 952.627944, 1325.000000 A 50 50 0 0 1 995.929215, 1300.000000 L 995.929215, 1250.000000 A 50 50 0 0 0 1039.230485, 1225.000000 A 50 50 0 0 0 1039.230485, 1175.000000 A 50 50 0 0 0 995.929215, 1150.000000 A 50 50 0 0 0 952.627944, 1175.000000 L 909.326674, 1150.000000 A 50 50 0 0 1 866.025404, 1175.000000 A 50 50 0 0 1 822.724134, 1150.000000 "  style="fill:rgb(150,250,150)"/>
<path d="M 822.724134, 850.000000 L 779.422864, 875.000000 A 50 50 0 0 1 779.422864, 925.000000 L 822.724134, 950.000000 A 50 50 0 0 0 822.724134, 1000.000000 A 50 50 0 0 0 866.025404, 1025.000000 L 866.025404, 1075.000000 A 50 50 0 0 1 909.326674, 1100.000000 L 952.627944, 1075.000000 A 50 50 0 0 1 952.627944, 1025.000000 A 50 50 0 0 1 995.929215, 1000.000000 L 995.929215, 950.000000 A 50 50 0 0 1 952.627944, 925.000000 A 50 50 0 0 1 952.627944, 875.000000 L 909.326674, 850.000000 A 50 50 0 0 1 866.025404, 875.000000 A 50 50 0 0 1 822.724134, 850.000000 "  style="fill:rgb(250,250,150)"/>
<path d="M 692.820323, 1225.000000 L 649.519053, 1250.000000 A 50 50 0 0 1 649.519053, 1300.000000 L 692.820323, 1325.000000 A 50 50 0 0 0 692.820323, 1375.000000 L 649.519053, 1400.000000 A 50 50 0 0 1 649.519053, 1450.000000 L 692.820323, 1475.000000 A 50 50 0 0 1 736.121593, 1450.000000 L 736.121593, 1400.000000 A 50 50 0 0 0 779.422864, 1375.000000 A 50 50 0 0 0 779.422864, 1325.000000 L 822.724134, 1300.000000 A 50 50 0 0 0 866.025404, 1325.000000 A 50 50 0 0 0 909.326674, 1300.000000 A 50 50 0 0 0 909.326674, 1250.000000 A 50 50 0 0 0 866.025404, 1225.000000 A 50 50 0 0 0 822.724134, 1250.000000 L 779.422864, 1225.000000 A 50 50 0 0 1 736.121593, 1250.000000 A 50 50 0 0 1 692.820323, 1225.000000 "  style="fill:rgb(250,150,150)"/>
<path d="M 736.121593, 1000.000000 A 50 50 0 0 0 692.820323, 1025.000000 A 50 50 0 0 0 692.820323, 1075.000000 L 649.519053, 1100.000000 A 50 50 0 0 0 606.217783, 1075.000000 A 50 50 0 0 0 562.916513, 1100.000000 A 50 50 0 0 0 562.916513, 1150.000000 A 50 50 0 0 0 606.217783, 1175.000000 A 50 50 0 0 0 649.519053, 1150.000000 L 692.820323, 1175.000000 A 50 50 0 0 0 692.820323, 1225.000000 A 50 50 0 0 0 736.121593, 1250.000000 A 50 50 0 0 0 779.422864, 1225.000000 A 50 50 0 0 0 779.422864, 1175.000000 L 822.724134, 1150.000000 A 50 50 0 0 1 822.724134, 1100.000000 L 779.422864, 1075.000000 A 50 50 0 0 0 779.422864, 1025.000000 A 50 50 0 0 0 736.121593, 1000.000000 "  style="fill:rgb(250,250,150)"/>
<path d="M 606.217783, 925.000000 A 50 50 0 0 0 562.916513, 950.000000 A 50 50 0 0 0 562.916513, 1000.000000 A 50 50 0 0 0 606.217783, 1025.000000 L 606.217783, 1075.000000 A 50 50 0 0 1 649.519053, 1100.000000 L 692.820323, 1075.000000 A 50 50 0 0 1 692.820323, 1025.000000 A 50 50 0 0 1 736.121593, 1000.000000 A 50 50 0 0 1 779.422864, 1025.000000 A 50 50 0 0 1 779.422864, 1075.000000 L 822.724134, 1100.000000 A 50 50 0 0 1 866.025404, 1075.000000 L 866.025404, 1025.000000 A 50 50 0 0 1 822.724134, 1000.000000 A 50 50 0 0 1 822.724134, 950.000000 L 779.422864, 925.000000 A 50 50 0 0 1 736.121593, 950.000000 A 50 50 0 0 1 692.820323, 925.000000 L 649.519053, 950.000000 A 50 50 0 0 0 606.217783, 925.000000 "  style="fill:rgb(150,250,150)"/>
<path d="M 822.724134, 1300.000000 L 779.422864, 1325.000000 A 50 50 0 0 1 779.422864, 1375.000000 A 50 50 0 0 1 736.121593, 1400.000000 L 736.121593, 1450.000000 A 50 50 0 0 0 692.820323, 1475.000000 L 649.519053, 1450.000000 A 50 50 0 0 1 606.217783, 1475.000000 A 50 50 0 0 1 562.916513, 1450.000000 L 519.615242, 1475.000000 A 50 50 0 0 1 519.615242, 1525.000000 L 562.916513, 1550.000000 A 50 50 0 0 1 606.217783, 1525.000000 A 50 50 0 0 1 649.519053, 1550.000000 L 692.820323, 1525.000000 A 50 50 0 0 0 736.121593, 1550.000000 A 50 50 0 0 0 779.422864, 1525.000000 A 50 50 0 0 0 779.422864, 1475.000000 L 822.724134, 1450.000000 A 50 50 0 0 1 822.724134, 1400.000000 A 50 50 0 0 1 866.025404, 1375.000000 L 866.025404, 1325.000000 A 50 50 0 0 1 822.724134, 1300.000000 "  style="fill:rgb(250,250,150)"/>
<path d="M 649.519053, 1300.000000 A 50 50 0 0 1 606.217783, 1325.000000 L 606.217783, 1375.000000 A 50 50 0 0 0 562.916513, 1400.000000 L 519.615242, 1375.000000 A 50 50 0 0 1 476.313972, 1400.000000 A 50 50 0 0 1 433.012702, 1375.000000 L 389.711432, 1400.000000 A 50 50 0 0 1 389.711432, 1450.000000 L 433.012702, 1475.000000 A 50 50 0 0 0 433.012702, 1525.000000 A 50 50 0 0 0 476.313972, 1550.000000 A 50 50 0 0 0 519.615242, 1525.000000 A 50 50 0 0 0 519.615242, 1475.000000 L 562.916513, 1450.000000 A 50 50 0 0 0 606.217783, 1475.000000 A 50 50 0 0 0 649.519053, 1450.000000 A 50 50 0 0 0 649.519053, 1400.000000 L 692.820323, 1375.000000 A 50 50 0 0 1 692.820323, 1325.000000 L 649.519053, 1300.000000 "  style="fill:rgb(150,150,250)"/>
<path d="M 433.012702, 1075.000000 L 389.711432, 1100.000000 A 50 50 0 0 1 389.711432, 1150.000000 L 433.012702, 1175.000000 A 50 50 0 0 1 476.313972, 1150.000000 A 50 50 0 0 1 519.615242, 1175.000000 A 50 50 0 0 1 519.615242, 1225.000000 L 562.916513, 1250.000000 A 50 50 0 0 0 562.916513, 1300.000000 A 50 50 0 0 0 606.217783, 1325.000000 A 50 50 0 0 0 649.519053, 1300.000000 A 50 50 0 0 0 649.519053, 1250.000000 L 692.820323, 1225.000000 A 50 50 0 0 1 692.820323, 1175.000000 L 649.519053, 1150.000000 A 50 50 0 0 1 606.217783, 1175.000000 A 50 50 0 0 1 562.916513, 1150.000000 A 50 50 0 0 1 562.916513, 1100.000000 L 519.615242, 1075.000000 A 50 50 0 0 1 476.313972, 1100.000000 A 50 50 0 0 1 433.012702, 1075.000000 "  style="fill:rgb(150,250,150)"/>
<path d="M 389.711432, 850.000000 A 50 50 0 0 1 346.410162, 875.000000 L 346.410162, 925.000000 A 50 50 0 0 1 389.711432, 950.000000 L 433.012702, 925.000000 A 50 50 0 0 0 476.313972, 950.000000 A 50 50 0 0 0 519.615242, 925.000000 L 562.916513, 950.000000 A 50 50 0 0 1 606.217783, 925.000000 A 50 50 0 0 1 649.519053, 950.000000 L 692.820323, 925.000000 A 50 50 0 0 0 736.121593, 950.000000 A 50 50 0 0 0 779.422864, 925.000000 A 50 50 0 0 0 779.422864, 875.000000 A 50 50 0 0 0 736.121593, 850.000000 A 50 50 0 0 0 692.820323, 875.000000 L 649.519053, 850.000000 A 50 50 0 0 1 606.217783, 875.000000 A 50 50 0 0 1 562.916513, 850.000000 L 519.615242, 875.000000 A 50 50 0 0 0 476.313972, 850.000000 A 50 50 0 0 0 433.012702, 875.000000 L 389.711432, 850.000000 "  style="fill:rgb(150,150,250)"/>
<path d="M 303.108891, 1150.000000 L 259.807621, 1175.000000 A 50 50 0 0 1 259.807621, 1225.000000 L 303.108891, 1250.000000 A 50 50 0 0 0 303.108891, 1300.000000 A 50 50 0 0 0 346.410162, 1325.000000 A 50 50 0 0 0 389.711432, 1300.000000 L 433.012702, 1325.000000 A 50 50 0 0 1 476.313972, 1300.000000 A 50 50 0 0 1 519.615242, 1325.000000 A 50 50 0 0 1 519.615242, 1375.000000 L 562.916513, 1400.000000 A 50 50 0 0 1 606.217783, 1375.000000 L 606.217783, 1325.000000 A 50 50 0 0 1 562.916513, 1300.000000 A 50 50 0 0 1 562.916513, 1250.000000 L 519.615242, 1225.000000 A 50 50 0 0 1 476.313972, 1250.000000 A 50 50 0 0 1 433.012702, 1225.000000 L 389.711432, 1250.000000 A 50 50 0 0 0 346.410162, 1225.000000 L 346.410162, 1175.000000 A 50 50 0 0 1 303.108891, 1150.000000 "  style="fill:rgb(250,250,150)"/>
<path d="M 519.615242, 925.000000 A 50 50 0 0 1 476.313972, 950.000000 L 476.313972, 1000.000000 A 50 50 0 0 0 433.012702, 1025.000000 L 389.711432, 1000.000000 A 50 50 0 0 1 346.410162, 1025.000000 A 50 50 0 0 1 303.108891, 1000.000000 L 259.807621, 1025.000000 A 50 50 0 0 1 259.807621, 1075.000000 L 303.108891, 1100.000000 A 50 50 0 0 1 346.410162, 1075.000000 A 50 50 0 0 1 389.711432, 1100.000000 L 433.012702, 1075.000000 A 50 50 0 0 0 476.313972, 1100.000000 A 50 50 0 0 0 519.615242, 1075.000000 L 562.916513, 1100.000000 A 50 50 0 0 1 606.217783, 1075.000000 L 606.217783, 1025.000000 A 50 50 0 0 1 562.916513, 1000.000000 A 50 50 0 0 1 562.916513, 950.000000 L 519.615242, 925.000000 "  style="fill:rgb(250,150,150)"/>
<path d="M 216.506351, 1150.000000 A 50 50 0 0 0 173.205081, 1175.000000 A 50 50 0 0 0 173.205081, 1225.000000 A 50 50 0 0 0 216.506351, 1250.000000 L 216.506351, 1300.000000 A 50 50 0 0 1 259.807621, 1325.000000 A 50 50 0 0 1 259.807621, 1375.000000 L 303.108891, 1400.000000 A 50 50 0 0 1 346.410162, 1375.000000 A 50 50 0 0 1 389.711432, 1400.000000 L 433.012702, 1375.000000 A 50 50 0 0 0 476.313972, 1400.000000 A 50 50 0 0 0 519.615242, 1375.000000 A 50 50 0 0 0 519.615242, 1325.000000 A 50 50 0 0 0 476.313972, 1300.000000 A 50 50 0 0 0 433.012702, 1325.000000 L 389.711432, 1300.000000 A 50 50 0 0 1 346.410162, 1325.000000 A 50 50 0 0 1 303.108891, 1300.000000 A 50 50 0 0 1 303.108891, 1250.000000 L 259.807621, 1225.000000 A 50 50 0 0 0 259.807621, 1175.000000 A 50 50 0 0 0 216.506351, 1150.000000 "  style="fill:rgb(250,150,150)"/>
<path d="M 173.205081, 1075.000000 L 129.903811, 1100.000000 A 50 50 0 0 1 129.903811, 1150.000000 L 173.205081, 1175.000000 A 50 50 0 0 1 216.506351, 1150.000000 A 50 50 0 0 1 259.807621, 1175.000000 L 303.108891, 1150.000000 A 50 50 0 0 0 346.410162, 1175.000000 L 346.410162, 1225.000000 A 50 50 0 0 1 389.711432, 1250.000000 L 433.012702, 1225.000000 A 50 50 0 0 0 476.313972, 1250.000000 A 50 50 0 0 0 519.615242, 1225.000000 A 50 50 0 0 0 519.615242, 1175.000000 A 50 50 0 0 0 476.313972, 1150.000000 A 50 50 0 0 0 433.012702, 1175.000000 L 389.711432, 1150.000000 A 50 50 0 0 0 389.711432, 1100.000000 A 50 50 0 0 0 346.410162, 1075.000000 A 50 50 0 0 0 303.108891, 1100.000000 L 259.807621, 1075.000000 A 50 50 0 0 1 216.506351, 1100.000000 A 50 50 0 0 1 173.205081, 1075.000000 "  style="fill:rgb(150,150,250)"/>
<path d="M 173.205081, 925.000000 L 129.903811, 950.000000 A 50 50 0 0 1 129.903811, 1000.000000 L 173.205081, 1025.000000 A 50 50 0 0 0 173.205081, 1075.000000 A 50 50 0 0 0 216.506351, 1100.000000 A 50 50 0 0 0 259.807621, 1075.000000 A 50 50 0 0 0 259.807621, 1025.000000 L 303.108891, 1000.000000 A 50 50 0 0 0 346.410162, 1025.000000 A 50 50 0 0 0 389.711432, 1000.000000 L 433.012702, 1025.000000 A 50 50 0 0 1 476.313972, 1000.000000 L 476.313972, 950.000000 A 50 50 0 0 1 433.012702, 925.000000 L 389.711432, 950.000000 A 50 50 0 0 0 346.410162, 925.000000 A 50 50 0 0 0 303.108891, 950.000000 L 259.807621, 925.000000 A 50 50 0 0 1 216.506351, 950.000000 A 50 50 0 0 1 173.205081, 925.000000 "  style="fill:rgb(250,250,150)"/>
<path d="M 129.903811, 850.000000 A 50 50 0 0 1  86.602540, 875.000000 L  86.602540, 925.000000 A 50 50 0 0 0  43.301270, 950.000000 A 50 50 0 0 0  43.301270, 1000.000000 A 50 50 0 0 0  86.602540, 1025.000000 L  86.602540, 1075.000000 A 50 50 0 0 1 129.903811, 1100.000000 L 173.205081, 1075.000000 A 50 50 0 0 1 173.205081, 1025.000000 L 129.903811, 1000.000000 A 50 50 0 0 0 129.903811, 950.000000 L 173.205081, 925.000000 A 50 50 0 0 0 216.506351, 950.000000 A 50 50 0 0 0 259.807621, 925.000000 L 303.108891, 950.000000 A 50 50 0 0 1 346.410162, 925.000000 L 346.410162, 875.000000 A 50 50 0 0 1 303.108891, 850.000000 L 259.807621, 875.000000 A 50 50 0 0 0 216.506351, 850.000000 A 50 50 0 0 0 173.205081, 875.000000 L 129.903811, 850.000000 "  style="fill:rgb(150,250,150)"/>
</g>
</svg>
