<?xml version="1.0" encoding="UTF-8" standalone="no"?>
<svg
   xmlns:dc="http://purl.org/dc/elements/1.1/"
   xmlns:cc="http://creativecommons.org/ns#"
   xmlns:rdf="http://www.w3.org/1999/02/22-rdf-syntax-ns#"
   xmlns:svg="http://www.w3.org/2000/svg"
   xmlns="http://www.w3.org/2000/svg"
   xmlns:xlink="http://www.w3.org/1999/xlink"
   version="1.0"
   id="svg2"
   height="1000"
   width="1000">
  <defs
     id="defs4" />
  <metadata
     id="metadata7">
    <rdf:RDF>
      <cc:Work
         rdf:about="">
        <dc:format>image/svg+xml</dc:format>
        <dc:type
           rdf:resource="http://purl.org/dc/dcmitype/StillImage" />
        <cc:license
           rdf:resource="http://creativecommons.org/licenses/by-sa/2.5/nl/" />
        <dc:title></dc:title>
      </cc:Work>
      <cc:License
         rdf:about="http://creativecommons.org/licenses/by-sa/2.5/nl/">
        <cc:permits
           rdf:resource="http://web.resource.org/cc/Reproduction" />
        <cc:permits
           rdf:resource="http://web.resource.org/cc/Distribution" />
        <cc:requires
           rdf:resource="http://web.resource.org/cc/Notice" />
        <cc:requires
           rdf:resource="http://web.resource.org/cc/Attribution" />
        <cc:permits
           rdf:resource="http://web.resource.org/cc/DerivativeWorks" />
        <cc:requires
           rdf:resource="http://web.resource.org/cc/ShareAlike" />
      </cc:License>
    </rdf:RDF>
  </metadata>
  <g id="layer2">
    <g transform="matrix(1,0,0,1,500,500)" id="slots_circle">
      <g id="g4184">
        <ellipse
           ry="90"
           rx="90"
           cy="0"
           cx="0"
           id="circle"
           style="opacity:0.0;fill:#00ff00;fill-opacity:0;stroke:none;stroke-width:4;stroke-linejoin:round;stroke-miterlimit:4;stroke-dasharray:none;stroke-dashoffset:0;stroke-opacity:1" />
        <g transform="matrix(1.00000, 0.00000, 0.00000, 1.00000, 0, 0)" style="fill:none;stroke:#000000;stroke-width:50" id="slots_inner">

<path d="M  450.000,    0.000 A 450 450 0 0 1  449.931    7.854" id="slot_inner_01" />
<path d="M  449.723,   15.791 A 450 450 0 0 1  449.379   23.637" id="slot_inner_02" />
<path d="M  448.892,   31.563 A 450 450 0 0 1  448.273   39.392" id="slot_inner_03" />
<path d="M  447.508,   47.296 A 450 450 0 0 1  446.614   55.098" id="slot_inner_04" />
<path d="M  445.572,   62.970 A 450 450 0 0 1  444.406   70.737" id="slot_inner_05" />
<path d="M  443.088,   78.567 A 450 450 0 0 1  441.650   86.288" id="slot_inner_06" />
<path d="M  440.058,   94.067 A 450 450 0 0 1  438.350  101.733" id="slot_inner_07" />
<path d="M  436.486,  109.452 A 450 450 0 0 1  434.510  117.053" id="slot_inner_08" />
<path d="M  432.377,  124.701 A 450 450 0 0 1  430.135  132.228" id="slot_inner_09" />
<path d="M  427.735,  139.797 A 450 450 0 0 1  425.230  147.241" id="slot_inner_10" />
<path d="M  422.565,  154.721 A 450 450 0 0 1  419.801  162.072" id="slot_inner_11" />
<path d="M  416.876,  169.454 A 450 450 0 0 1  413.855  176.703" id="slot_inner_12" />
<path d="M  410.673,  183.978 A 450 450 0 0 1  407.399  191.117" id="slot_inner_13" />
<path d="M  403.964,  198.276 A 450 450 0 0 1  400.442  205.296" id="slot_inner_14" />
<path d="M  396.757,  212.329 A 450 450 0 0 1  392.991  219.221" id="slot_inner_15" />
<path d="M  389.062,  226.121 A 450 450 0 0 1  385.056  232.877" id="slot_inner_16" />
<path d="M  380.887,  239.635 A 450 450 0 0 1  376.647  246.246" id="slot_inner_17" />
<path d="M  372.244,  252.853 A 450 450 0 0 1  367.774  259.311" id="slot_inner_18" />
<path d="M  363.141,  265.760 A 450 450 0 0 1  358.448  272.057" id="slot_inner_19" />
<path d="M  353.592,  278.339 A 450 450 0 0 1  348.680  284.468" id="slot_inner_20" />
<path d="M  343.607,  290.576 A 450 450 0 0 1  338.483  296.528" id="slot_inner_21" />
<path d="M  333.198,  302.455 A 450 450 0 0 1  327.869  308.224" id="slot_inner_22" />
<path d="M  322.380,  313.961 A 450 450 0 0 1  316.851  319.539" id="slot_inner_23" />
<path d="M  311.164,  325.080 A 450 450 0 0 1  305.443  330.461" id="slot_inner_24" />
<path d="M  299.565,  335.799 A 450 450 0 0 1  293.659  340.976" id="slot_inner_25" />
<path d="M  287.597,  346.104 A 450 450 0 0 1  281.512  351.071" id="slot_inner_26" />
<path d="M  275.274,  355.983 A 450 450 0 0 1  269.019  360.733" id="slot_inner_27" />
<path d="M  262.613,  365.424 A 450 450 0 0 1  256.195  369.951" id="slot_inner_28" />
<path d="M  249.628,  374.414 A 450 450 0 0 1  243.055  378.714" id="slot_inner_29" />
<path d="M  236.335,  382.943 A 450 450 0 0 1  229.616  387.010" id="slot_inner_30" />
<path d="M  222.752,  391.001 A 450 450 0 0 1  215.894  394.829" id="slot_inner_31" />
<path d="M  208.894,  398.577 A 450 450 0 0 1  201.906  402.162" id="slot_inner_32" />
<path d="M  194.779,  405.662 A 450 450 0 0 1  187.669  408.999" id="slot_inner_33" />
<path d="M  180.423,  412.247 A 450 450 0 0 1  173.201  415.333" id="slot_inner_34" />
<path d="M  165.846,  418.324 A 450 450 0 0 1  158.520  421.155" id="slot_inner_35" />
<path d="M  151.064,  423.886 A 450 450 0 0 1  143.643  426.458" id="slot_inner_36" />
<path d="M  136.096,  428.926 A 450 450 0 0 1  128.590  431.236" id="slot_inner_37" />
<path d="M  120.961,  433.438 A 450 450 0 0 1  113.378  435.483" id="slot_inner_38" />
<path d="M  105.677,  437.416 A 450 450 0 0 1   98.026  439.193" id="slot_inner_39" />
<path d="M   90.262,  440.855 A 450 450 0 0 1   82.554  442.363" id="slot_inner_40" />
<path d="M   74.736,  443.751 A 450 450 0 0 1   66.980  444.987" id="slot_inner_41" />
<path d="M   59.118,  446.100 A 450 450 0 0 1   51.324  447.064" id="slot_inner_42" />
<path d="M   43.428,  447.900 A 450 450 0 0 1   35.604  448.589" id="slot_inner_43" />
<path d="M   27.684,  449.148 A 450 450 0 0 1   19.841  449.562" id="slot_inner_44" />
<path d="M   11.905,  449.842 A 450 450 0 0 1    4.053  449.982" id="slot_inner_45" />
<path d="M   -3.888,  449.983 A 450 450 0 0 1  -11.740  449.847" id="slot_inner_46" />
<path d="M  -19.676,  449.570 A 450 450 0 0 1  -27.519  449.158" id="slot_inner_47" />
<path d="M  -35.440,  448.602 A 450 450 0 0 1  -43.263  447.915" id="slot_inner_48" />
<path d="M  -51.160,  447.082 A 450 450 0 0 1  -58.955  446.121" id="slot_inner_49" />
<path d="M  -66.817,  445.012 A 450 450 0 0 1  -74.574  443.778" id="slot_inner_50" />
<path d="M  -82.392,  442.393 A 450 450 0 0 1  -90.100  440.888" id="slot_inner_51" />
<path d="M  -97.866,  439.229 A 450 450 0 0 1 -105.516  437.454" id="slot_inner_52" />
<path d="M -113.218,  435.525 A 450 450 0 0 1 -120.802  433.482" id="slot_inner_53" />
<path d="M -128.432,  431.283 A 450 450 0 0 1 -135.939  428.976" id="slot_inner_54" />
<path d="M -143.487,  426.511 A 450 450 0 0 1 -150.909  423.942" id="slot_inner_55" />
<path d="M -158.366,  421.213 A 450 450 0 0 1 -165.693  418.385" id="slot_inner_56" />
<path d="M -173.049,  415.396 A 450 450 0 0 1 -180.272  412.313" id="slot_inner_57" />
<path d="M -187.519,  409.068 A 450 450 0 0 1 -194.630  405.733" id="slot_inner_58" />
<path d="M -201.758,  402.236 A 450 450 0 0 1 -208.748  398.653" id="slot_inner_59" />
<path d="M -215.749,  394.908 A 450 450 0 0 1 -222.608  391.082" id="slot_inner_60" />
<path d="M -229.474,  387.094 A 450 450 0 0 1 -236.195  383.030" id="slot_inner_61" />
<path d="M -242.916,  378.803 A 450 450 0 0 1 -249.490  374.506" id="slot_inner_62" />
<path d="M -256.060,  370.045 A 450 450 0 0 1 -262.479  365.520" id="slot_inner_63" />
<path d="M -268.887,  360.832 A 450 450 0 0 1 -275.144  356.084" id="slot_inner_64" />
<path d="M -281.384,  351.174 A 450 450 0 0 1 -287.470  346.210" id="slot_inner_65" />
<path d="M -293.534,  341.084 A 450 450 0 0 1 -299.442  335.909" id="slot_inner_66" />
<path d="M -305.322,  330.573 A 450 450 0 0 1 -311.045  325.194" id="slot_inner_67" />
<path d="M -316.734,  319.655 A 450 450 0 0 1 -322.265  314.079" id="slot_inner_68" />
<path d="M -327.756,  308.344 A 450 450 0 0 1 -333.088  302.577" id="slot_inner_69" />
<path d="M -338.375,  296.652 A 450 450 0 0 1 -343.500  290.702" id="slot_inner_70" />
<path d="M -348.576,  284.596 A 450 450 0 0 1 -353.490  278.469" id="slot_inner_71" />
<path d="M -358.348,  272.188 A 450 450 0 0 1 -363.044  265.893" id="slot_inner_72" />
<path d="M -367.679,  259.446 A 450 450 0 0 1 -372.151  252.989" id="slot_inner_73" />
<path d="M -376.557,  246.384 A 450 450 0 0 1 -380.799  239.774" id="slot_inner_74" />
<path d="M -384.971,  233.018 A 450 450 0 0 1 -388.979  226.264" id="slot_inner_75" />
<path d="M -392.911,  219.365 A 450 450 0 0 1 -396.679  212.475" id="slot_inner_76" />
<path d="M -400.367,  205.443 A 450 450 0 0 1 -403.891  198.424" id="slot_inner_77" />
<path d="M -407.329,  191.267 A 450 450 0 0 1 -410.605  184.129" id="slot_inner_78" />
<path d="M -413.790,  176.855 A 450 450 0 0 1 -416.814  169.607" id="slot_inner_79" />
<path d="M -419.741,  162.226 A 450 450 0 0 1 -422.509  154.875" id="slot_inner_80" />
<path d="M -425.176,  147.396 A 450 450 0 0 1 -427.683  139.954" id="slot_inner_81" />
<path d="M -430.086,  132.386 A 450 450 0 0 1 -432.331  124.860" id="slot_inner_82" />
<path d="M -434.467,  117.212 A 450 450 0 0 1 -436.446  109.612" id="slot_inner_83" />
<path d="M -438.312,  101.894 A 450 450 0 0 1 -440.024   94.229" id="slot_inner_84" />
<path d="M -441.618,   86.450 A 450 450 0 0 1 -443.059   78.729" id="slot_inner_85" />
<path d="M -444.380,   70.900 A 450 450 0 0 1 -445.549   63.133" id="slot_inner_86" />
<path d="M -446.594,   55.262 A 450 450 0 0 1 -447.490   47.460" id="slot_inner_87" />
<path d="M -448.258,   39.557 A 450 450 0 0 1 -448.880   31.727" id="slot_inner_88" />
<path d="M -449.370,   23.802 A 450 450 0 0 1 -449.717   15.956" id="slot_inner_89" />
<path d="M -449.929,    8.018 A 450 450 0 0 1 -450.000    0.165" id="slot_inner_90" />
<path d="M -449.933,   -7.775 A 450 450 0 0 1 -449.729  -15.626" id="slot_inner_91" />
<path d="M -449.383,  -23.559 A 450 450 0 0 1 -448.903  -31.398" id="slot_inner_92" />
<path d="M -448.279,  -39.314 A 450 450 0 0 1 -447.525  -47.132" id="slot_inner_93" />
<path d="M -446.624,  -55.020 A 450 450 0 0 1 -445.595  -62.807" id="slot_inner_94" />
<path d="M -444.418,  -70.659 A 450 450 0 0 1 -443.117  -78.405" id="slot_inner_95" />
<path d="M -441.665,  -86.211 A 450 450 0 0 1 -440.093  -93.906" id="slot_inner_96" />
<path d="M -438.367, -101.656 A 450 450 0 0 1 -436.526 -109.292" id="slot_inner_97" />
<path d="M -434.530, -116.977 A 450 450 0 0 1 -432.422 -124.543" id="slot_inner_98" />
<path d="M -430.158, -132.153 A 450 450 0 0 1 -427.786 -139.640" id="slot_inner_99" />
<path d="M -425.255, -147.166 A 450 450 0 0 1 -422.622 -154.566" id="slot_inner_100" />
<path d="M -419.829, -161.999 A 450 450 0 0 1 -416.938 -169.301" id="slot_inner_101" />
<path d="M -413.886, -176.631 A 450 450 0 0 1 -410.740 -183.828" id="slot_inner_102" />
<path d="M -407.433, -191.046 A 450 450 0 0 1 -404.036 -198.128" id="slot_inner_103" />
<path d="M -400.478, -205.226 A 450 450 0 0 1 -396.835 -212.184" id="slot_inner_104" />
<path d="M -393.029, -219.153 A 450 450 0 0 1 -389.145 -225.979" id="slot_inner_105" />
<path d="M -385.097, -232.810 A 450 450 0 0 1 -380.975 -239.495" id="slot_inner_106" />
<path d="M -376.690, -246.180 A 450 450 0 0 1 -372.336 -252.717" id="slot_inner_107" />
<path d="M -367.819, -259.247 A 450 450 0 0 1 -363.239 -265.627" id="slot_inner_108" />
<path d="M -358.495, -271.995 A 450 450 0 0 1 -353.694 -278.210" id="slot_inner_109" />
<path d="M -348.730, -284.407 A 450 450 0 0 1 -343.713 -290.450" id="slot_inner_110" />
<path d="M -338.535, -296.469 A 450 450 0 0 1 -333.309 -302.332" id="slot_inner_111" />
<path d="M -327.923, -308.166 A 450 450 0 0 1 -322.495 -313.843" id="slot_inner_112" />
<path d="M -316.907, -319.484 A 450 450 0 0 1 -311.283 -324.966" id="slot_inner_113" />
<path d="M -305.501, -330.408 A 450 450 0 0 1 -299.688 -335.689" id="slot_inner_114" />
<path d="M -293.718, -340.925 A 450 450 0 0 1 -287.723 -345.999" id="slot_inner_115" />
<path d="M -281.574, -351.022 A 450 450 0 0 1 -275.405 -355.882" id="slot_inner_116" />
<path d="M -269.082, -360.686 A 450 450 0 0 1 -262.747 -365.328" id="slot_inner_117" />
<path d="M -256.260, -369.907 A 450 450 0 0 1 -249.765 -374.323" id="slot_inner_118" />
<path d="M -243.121, -378.671 A 450 450 0 0 1 -236.476 -382.857" id="slot_inner_119" />
<path d="M -229.684, -386.970 A 450 450 0 0 1 -222.895 -390.919" id="slot_inner_120" />
<path d="M -215.963, -394.791 A 450 450 0 0 1 -209.040 -398.500" id="slot_inner_121" />
<path d="M -201.976, -402.126 A 450 450 0 0 1 -194.927 -405.590" id="slot_inner_122" />
<path d="M -187.740, -408.966 A 450 450 0 0 1 -180.574 -412.181" id="slot_inner_123" />
<path d="M -173.274, -415.303 A 450 450 0 0 1 -165.999 -418.263" id="slot_inner_124" />
<path d="M -158.593, -421.127 A 450 450 0 0 1 -151.220 -423.831" id="slot_inner_125" />
<path d="M -143.718, -426.433 A 450 450 0 0 1 -136.254 -428.876" id="slot_inner_126" />
<path d="M -128.665, -431.214 A 450 450 0 0 1 -121.120 -433.394" id="slot_inner_127" />
<path d="M -113.454, -435.463 A 450 450 0 0 1 -105.837 -437.377" id="slot_inner_128" />
<path d="M  -98.103, -439.176 A 450 450 0 0 1  -90.424 -440.821" id="slot_inner_129" />
<path d="M  -82.631, -442.348 A 450 450 0 0 1  -74.899 -443.723" id="slot_inner_130" />
<path d="M  -67.058, -444.976 A 450 450 0 0 1  -59.282 -446.078" id="slot_inner_131" />
<path d="M  -51.402, -447.055 A 450 450 0 0 1  -43.592 -447.884" id="slot_inner_132" />
<path d="M  -35.682, -448.583 A 450 450 0 0 1  -27.848 -449.137" id="slot_inner_133" />
<path d="M  -19.919, -449.559 A 450 450 0 0 1  -12.070 -449.838" id="slot_inner_134" />
<path d="M   -4.131, -449.981 A 450 450 0 0 1    3.723 -449.985" id="slot_inner_135" />
<path d="M   11.662, -449.849 A 450 450 0 0 1   19.511 -449.577" id="slot_inner_136" />
<path d="M   27.440, -449.163 A 450 450 0 0 1   35.275 -448.615" id="slot_inner_137" />
<path d="M   43.185, -447.923 A 450 450 0 0 1   50.996 -447.101" id="slot_inner_138" />
<path d="M   58.877, -446.132 A 450 450 0 0 1   66.654 -445.036" id="slot_inner_139" />
<path d="M   74.496, -443.791 A 450 450 0 0 1   82.230 -442.423" id="slot_inner_140" />
<path d="M   90.023, -440.903 A 450 450 0 0 1   97.705 -439.265" id="slot_inner_141" />
<path d="M  105.440, -437.473 A 450 450 0 0 1  113.059 -435.566" id="slot_inner_142" />
<path d="M  120.726, -433.503 A 450 450 0 0 1  128.274 -431.330" id="slot_inner_143" />
<path d="M  135.864, -429.000 A 450 450 0 0 1  143.331 -426.563" id="slot_inner_144" />
<path d="M  150.835, -423.968 A 450 450 0 0 1  158.211 -421.271" id="slot_inner_145" />
<path d="M  165.620, -418.414 A 450 450 0 0 1  172.897 -415.460" id="slot_inner_146" />
<path d="M  180.200, -412.344 A 450 450 0 0 1  187.369 -409.137" id="slot_inner_147" />
<path d="M  194.559, -405.767 A 450 450 0 0 1  201.611 -402.310" id="slot_inner_148" />
<path d="M  208.678, -398.690 A 450 450 0 0 1  215.604 -394.987" id="slot_inner_149" />
<path d="M  222.540, -391.121 A 450 450 0 0 1  229.332 -387.178" id="slot_inner_150" />
<path d="M  236.128, -383.071 A 450 450 0 0 1  242.778 -378.892" id="slot_inner_151" />
<path d="M  249.425, -374.549 A 450 450 0 0 1  255.924 -370.139" id="slot_inner_152" />
<path d="M  262.415, -365.566 A 450 450 0 0 1  268.755 -360.930" id="slot_inner_153" />
<path d="M  275.082, -356.132 A 450 450 0 0 1  281.255 -351.277" id="slot_inner_154" />
<path d="M  287.409, -346.260 A 450 450 0 0 1  293.409 -341.191" id="slot_inner_155" />
<path d="M  299.383, -335.961 A 450 450 0 0 1  305.201 -330.685" id="slot_inner_156" />
<path d="M  310.988, -325.248 A 450 450 0 0 1  316.617 -319.771" id="slot_inner_157" />
<path d="M  322.210, -314.135 A 450 450 0 0 1  327.643 -308.464" id="slot_inner_158" />
<path d="M  333.035, -302.635 A 450 450 0 0 1  338.266 -296.776" id="slot_inner_159" />
<path d="M  343.450, -290.762 A 450 450 0 0 1  348.472 -284.723" id="slot_inner_160" />
<path d="M  353.441, -278.531 A 450 450 0 0 1  358.248 -272.320" id="slot_inner_161" />
<path d="M  362.998, -265.956 A 450 450 0 0 1  367.584 -259.581" id="slot_inner_162" />
<path d="M  372.107, -253.054 A 450 450 0 0 1  376.467 -246.522" id="slot_inner_163" />
<path d="M  380.758, -239.841 A 450 450 0 0 1  384.885 -233.159" id="slot_inner_164" />
<path d="M  388.939, -226.332 A 450 450 0 0 1  392.830 -219.509" id="slot_inner_165" />
<path d="M  396.642, -212.544 A 450 450 0 0 1  400.291 -205.589" id="slot_inner_166" />
<path d="M  403.856, -198.494 A 450 450 0 0 1  407.259 -191.416" id="slot_inner_167" />
<path d="M  410.573, -184.200 A 450 450 0 0 1  413.725 -177.007" id="slot_inner_168" />
<path d="M  416.784, -169.679 A 450 450 0 0 1  419.682 -162.380" id="slot_inner_169" />
<path d="M  422.482, -154.949 A 450 450 0 0 1  425.122 -147.552" id="slot_inner_170" />
<path d="M  427.659, -140.028 A 450 450 0 0 1  430.038 -132.543" id="slot_inner_171" />
<path d="M  432.309, -124.935 A 450 450 0 0 1  434.424 -117.371" id="slot_inner_172" />
<path d="M  436.427, -109.688 A 450 450 0 0 1  438.275 -102.054" id="slot_inner_173" />
<path d="M  440.007,  -94.305 A 450 450 0 0 1  441.586  -86.612" id="slot_inner_174" />
<path d="M  443.046,  -78.807 A 450 450 0 0 1  444.354  -71.063" id="slot_inner_175" />
<path d="M  445.538,  -63.211 A 450 450 0 0 1  446.574  -55.426" id="slot_inner_176" />
<path d="M  447.482,  -47.538 A 450 450 0 0 1  448.244  -39.721" id="slot_inner_177" />
<path d="M  448.875,  -31.806 A 450 450 0 0 1  449.361  -23.967" id="slot_inner_178" />
<path d="M  449.714,  -16.034 A 450 450 0 0 1  449.926   -8.183" id="slot_inner_179" />
<path d="M  450.000,   -0.243 A 450 450 0 0 1  449.936    7.610" id="slot_inner_180" />

        </g>
        <g transform="matrix(1,0,0,1,0,0)" style="fill:none;stroke:#000000;stroke-width:50" id="slots_outer">

<path d="M  475.000,    0.000 A 475 475 0 0 1  474.928    8.290" id="slot_outer_01" />
<path d="M  474.711,   16.577 A 475 475 0 0 1  474.349   24.860" id="slot_outer_02" />
<path d="M  473.843,   33.134 A 475 475 0 0 1  473.192   41.399" id="slot_outer_03" />
<path d="M  472.398,   49.651 A 475 475 0 0 1  471.459   57.888" id="slot_outer_04" />
<path d="M  470.377,   66.107 A 475 475 0 0 1  469.152   74.306" id="slot_outer_05" />
<path d="M  467.784,   82.483 A 475 475 0 0 1  466.273   90.634" id="slot_outer_06" />
<path d="M  464.620,   98.758 A 475 475 0 0 1  462.826  106.852" id="slot_outer_07" />
<path d="M  460.890,  114.913 A 475 475 0 0 1  458.815  122.939" id="slot_outer_08" />
<path d="M  456.599,  130.928 A 475 475 0 0 1  454.245  138.877" id="slot_outer_09" />
<path d="M  451.752,  146.783 A 475 475 0 0 1  449.121  154.645" id="slot_outer_10" />
<path d="M  446.354,  162.460 A 475 475 0 0 1  443.451  170.225" id="slot_outer_11" />
<path d="M  440.412,  177.938 A 475 475 0 0 1  437.240  185.597" id="slot_outer_12" />
<path d="M  433.934,  193.200 A 475 475 0 0 1  430.496  200.744" id="slot_outer_13" />
<path d="M  426.927,  208.226 A 475 475 0 0 1  423.228  215.645" id="slot_outer_14" />
<path d="M  419.400,  222.999 A 475 475 0 0 1  415.444  230.285" id="slot_outer_15" />
<path d="M  411.362,  237.500 A 475 475 0 0 1  407.154  244.643" id="slot_outer_16" />
<path d="M  402.823,  251.712 A 475 475 0 0 1  398.369  258.704" id="slot_outer_17" />
<path d="M  393.793,  265.617 A 475 475 0 0 1  389.097  272.449" id="slot_outer_18" />
<path d="M  384.283,  279.198 A 475 475 0 0 1  379.352  285.862" id="slot_outer_19" />
<path d="M  374.305,  292.439 A 475 475 0 0 1  369.144  298.927" id="slot_outer_20" />
<path d="M  363.871,  305.324 A 475 475 0 0 1  358.487  311.628" id="slot_outer_21" />
<path d="M  352.994,  317.837 A 475 475 0 0 1  347.393  323.949" id="slot_outer_22" />
<path d="M  341.686,  329.963 A 475 475 0 0 1  335.876  335.876" id="slot_outer_23" />
<path d="M  329.963,  341.686 A 475 475 0 0 1  323.949  347.393" id="slot_outer_24" />
<path d="M  317.837,  352.994 A 475 475 0 0 1  311.628  358.487" id="slot_outer_25" />
<path d="M  305.324,  363.871 A 475 475 0 0 1  298.927  369.144" id="slot_outer_26" />
<path d="M  292.439,  374.305 A 475 475 0 0 1  285.862  379.352" id="slot_outer_27" />
<path d="M  279.198,  384.283 A 475 475 0 0 1  272.449  389.097" id="slot_outer_28" />
<path d="M  265.617,  393.793 A 475 475 0 0 1  258.704  398.369" id="slot_outer_29" />
<path d="M  251.712,  402.823 A 475 475 0 0 1  244.643  407.154" id="slot_outer_30" />
<path d="M  237.500,  411.362 A 475 475 0 0 1  230.285  415.444" id="slot_outer_31" />
<path d="M  222.999,  419.400 A 475 475 0 0 1  215.645  423.228" id="slot_outer_32" />
<path d="M  208.226,  426.927 A 475 475 0 0 1  200.744  430.496" id="slot_outer_33" />
<path d="M  193.200,  433.934 A 475 475 0 0 1  185.597  437.240" id="slot_outer_34" />
<path d="M  177.938,  440.412 A 475 475 0 0 1  170.225  443.451" id="slot_outer_35" />
<path d="M  162.460,  446.354 A 475 475 0 0 1  154.645  449.121" id="slot_outer_36" />
<path d="M  146.783,  451.752 A 475 475 0 0 1  138.877  454.245" id="slot_outer_37" />
<path d="M  130.928,  456.599 A 475 475 0 0 1  122.939  458.815" id="slot_outer_38" />
<path d="M  114.913,  460.890 A 475 475 0 0 1  106.852  462.826" id="slot_outer_39" />
<path d="M   98.758,  464.620 A 475 475 0 0 1   90.634  466.273" id="slot_outer_40" />
<path d="M   82.483,  467.784 A 475 475 0 0 1   74.306  469.152" id="slot_outer_41" />
<path d="M   66.107,  470.377 A 475 475 0 0 1   57.888  471.459" id="slot_outer_42" />
<path d="M   49.651,  472.398 A 475 475 0 0 1   41.399  473.192" id="slot_outer_43" />
<path d="M   33.134,  473.843 A 475 475 0 0 1   24.860  474.349" id="slot_outer_44" />
<path d="M   16.577,  474.711 A 475 475 0 0 1    8.290  474.928" id="slot_outer_45" />
<path d="M    0.000,  475.000 A 475 475 0 0 1   -8.290  474.928" id="slot_outer_46" />
<path d="M  -16.577,  474.711 A 475 475 0 0 1  -24.860  474.349" id="slot_outer_47" />
<path d="M  -33.134,  473.843 A 475 475 0 0 1  -41.399  473.192" id="slot_outer_48" />
<path d="M  -49.651,  472.398 A 475 475 0 0 1  -57.888  471.459" id="slot_outer_49" />
<path d="M  -66.107,  470.377 A 475 475 0 0 1  -74.306  469.152" id="slot_outer_50" />
<path d="M  -82.483,  467.784 A 475 475 0 0 1  -90.634  466.273" id="slot_outer_51" />
<path d="M  -98.758,  464.620 A 475 475 0 0 1 -106.852  462.826" id="slot_outer_52" />
<path d="M -114.913,  460.890 A 475 475 0 0 1 -122.939  458.815" id="slot_outer_53" />
<path d="M -130.928,  456.599 A 475 475 0 0 1 -138.877  454.245" id="slot_outer_54" />
<path d="M -146.783,  451.752 A 475 475 0 0 1 -154.645  449.121" id="slot_outer_55" />
<path d="M -162.460,  446.354 A 475 475 0 0 1 -170.225  443.451" id="slot_outer_56" />
<path d="M -177.938,  440.412 A 475 475 0 0 1 -185.597  437.240" id="slot_outer_57" />
<path d="M -193.200,  433.934 A 475 475 0 0 1 -200.744  430.496" id="slot_outer_58" />
<path d="M -208.226,  426.927 A 475 475 0 0 1 -215.645  423.228" id="slot_outer_59" />
<path d="M -222.999,  419.400 A 475 475 0 0 1 -230.285  415.444" id="slot_outer_60" />
<path d="M -237.500,  411.362 A 475 475 0 0 1 -244.643  407.154" id="slot_outer_61" />
<path d="M -251.712,  402.823 A 475 475 0 0 1 -258.704  398.369" id="slot_outer_62" />
<path d="M -265.617,  393.793 A 475 475 0 0 1 -272.449  389.097" id="slot_outer_63" />
<path d="M -279.198,  384.283 A 475 475 0 0 1 -285.862  379.352" id="slot_outer_64" />
<path d="M -292.439,  374.305 A 475 475 0 0 1 -298.927  369.144" id="slot_outer_65" />
<path d="M -305.324,  363.871 A 475 475 0 0 1 -311.628  358.487" id="slot_outer_66" />
<path d="M -317.837,  352.994 A 475 475 0 0 1 -323.949  347.393" id="slot_outer_67" />
<path d="M -329.963,  341.686 A 475 475 0 0 1 -335.876  335.876" id="slot_outer_68" />
<path d="M -341.686,  329.963 A 475 475 0 0 1 -347.393  323.949" id="slot_outer_69" />
<path d="M -352.994,  317.837 A 475 475 0 0 1 -358.487  311.628" id="slot_outer_70" />
<path d="M -363.871,  305.324 A 475 475 0 0 1 -369.144  298.927" id="slot_outer_71" />
<path d="M -374.305,  292.439 A 475 475 0 0 1 -379.352  285.862" id="slot_outer_72" />
<path d="M -384.283,  279.198 A 475 475 0 0 1 -389.097  272.449" id="slot_outer_73" />
<path d="M -393.793,  265.617 A 475 475 0 0 1 -398.369  258.704" id="slot_outer_74" />
<path d="M -402.823,  251.712 A 475 475 0 0 1 -407.154  244.643" id="slot_outer_75" />
<path d="M -411.362,  237.500 A 475 475 0 0 1 -415.444  230.285" id="slot_outer_76" />
<path d="M -419.400,  222.999 A 475 475 0 0 1 -423.228  215.645" id="slot_outer_77" />
<path d="M -426.927,  208.226 A 475 475 0 0 1 -430.496  200.744" id="slot_outer_78" />
<path d="M -433.934,  193.200 A 475 475 0 0 1 -437.240  185.597" id="slot_outer_79" />
<path d="M -440.412,  177.938 A 475 475 0 0 1 -443.451  170.225" id="slot_outer_80" />
<path d="M -446.354,  162.460 A 475 475 0 0 1 -449.121  154.645" id="slot_outer_81" />
<path d="M -451.752,  146.783 A 475 475 0 0 1 -454.245  138.877" id="slot_outer_82" />
<path d="M -456.599,  130.928 A 475 475 0 0 1 -458.815  122.939" id="slot_outer_83" />
<path d="M -460.890,  114.913 A 475 475 0 0 1 -462.826  106.852" id="slot_outer_84" />
<path d="M -464.620,   98.758 A 475 475 0 0 1 -466.273   90.634" id="slot_outer_85" />
<path d="M -467.784,   82.483 A 475 475 0 0 1 -469.152   74.306" id="slot_outer_86" />
<path d="M -470.377,   66.107 A 475 475 0 0 1 -471.459   57.888" id="slot_outer_87" />
<path d="M -472.398,   49.651 A 475 475 0 0 1 -473.192   41.399" id="slot_outer_88" />
<path d="M -473.843,   33.134 A 475 475 0 0 1 -474.349   24.860" id="slot_outer_89" />
<path d="M -474.711,   16.577 A 475 475 0 0 1 -474.928    8.290" id="slot_outer_90" />
<path d="M -475.000,    0.000 A 475 475 0 0 1 -474.928   -8.290" id="slot_outer_91" />
<path d="M -474.711,  -16.577 A 475 475 0 0 1 -474.349  -24.860" id="slot_outer_92" />
<path d="M -473.843,  -33.134 A 475 475 0 0 1 -473.192  -41.399" id="slot_outer_93" />
<path d="M -472.398,  -49.651 A 475 475 0 0 1 -471.459  -57.888" id="slot_outer_94" />
<path d="M -470.377,  -66.107 A 475 475 0 0 1 -469.152  -74.306" id="slot_outer_95" />
<path d="M -467.784,  -82.483 A 475 475 0 0 1 -466.273  -90.634" id="slot_outer_96" />
<path d="M -464.620,  -98.758 A 475 475 0 0 1 -462.826 -106.852" id="slot_outer_97" />
<path d="M -460.890, -114.913 A 475 475 0 0 1 -458.815 -122.939" id="slot_outer_98" />
<path d="M -456.599, -130.928 A 475 475 0 0 1 -454.245 -138.877" id="slot_outer_99" />
<path d="M -451.752, -146.783 A 475 475 0 0 1 -449.121 -154.645" id="slot_outer_100" />
<path d="M -446.354, -162.460 A 475 475 0 0 1 -443.451 -170.225" id="slot_outer_101" />
<path d="M -440.412, -177.938 A 475 475 0 0 1 -437.240 -185.597" id="slot_outer_102" />
<path d="M -433.934, -193.200 A 475 475 0 0 1 -430.496 -200.744" id="slot_outer_103" />
<path d="M -426.927, -208.226 A 475 475 0 0 1 -423.228 -215.645" id="slot_outer_104" />
<path d="M -419.400, -222.999 A 475 475 0 0 1 -415.444 -230.285" id="slot_outer_105" />
<path d="M -411.362, -237.500 A 475 475 0 0 1 -407.154 -244.643" id="slot_outer_106" />
<path d="M -402.823, -251.712 A 475 475 0 0 1 -398.369 -258.704" id="slot_outer_107" />
<path d="M -393.793, -265.617 A 475 475 0 0 1 -389.097 -272.449" id="slot_outer_108" />
<path d="M -384.283, -279.198 A 475 475 0 0 1 -379.352 -285.862" id="slot_outer_109" />
<path d="M -374.305, -292.439 A 475 475 0 0 1 -369.144 -298.927" id="slot_outer_110" />
<path d="M -363.871, -305.324 A 475 475 0 0 1 -358.487 -311.628" id="slot_outer_111" />
<path d="M -352.994, -317.837 A 475 475 0 0 1 -347.393 -323.949" id="slot_outer_112" />
<path d="M -341.686, -329.963 A 475 475 0 0 1 -335.876 -335.876" id="slot_outer_113" />
<path d="M -329.963, -341.686 A 475 475 0 0 1 -323.949 -347.393" id="slot_outer_114" />
<path d="M -317.837, -352.994 A 475 475 0 0 1 -311.628 -358.487" id="slot_outer_115" />
<path d="M -305.324, -363.871 A 475 475 0 0 1 -298.927 -369.144" id="slot_outer_116" />
<path d="M -292.439, -374.305 A 475 475 0 0 1 -285.862 -379.352" id="slot_outer_117" />
<path d="M -279.198, -384.283 A 475 475 0 0 1 -272.449 -389.097" id="slot_outer_118" />
<path d="M -265.617, -393.793 A 475 475 0 0 1 -258.704 -398.369" id="slot_outer_119" />
<path d="M -251.712, -402.823 A 475 475 0 0 1 -244.643 -407.154" id="slot_outer_120" />
<path d="M -237.500, -411.362 A 475 475 0 0 1 -230.285 -415.444" id="slot_outer_121" />
<path d="M -222.999, -419.400 A 475 475 0 0 1 -215.645 -423.228" id="slot_outer_122" />
<path d="M -208.226, -426.927 A 475 475 0 0 1 -200.744 -430.496" id="slot_outer_123" />
<path d="M -193.200, -433.934 A 475 475 0 0 1 -185.597 -437.240" id="slot_outer_124" />
<path d="M -177.938, -440.412 A 475 475 0 0 1 -170.225 -443.451" id="slot_outer_125" />
<path d="M -162.460, -446.354 A 475 475 0 0 1 -154.645 -449.121" id="slot_outer_126" />
<path d="M -146.783, -451.752 A 475 475 0 0 1 -138.877 -454.245" id="slot_outer_127" />
<path d="M -130.928, -456.599 A 475 475 0 0 1 -122.939 -458.815" id="slot_outer_128" />
<path d="M -114.913, -460.890 A 475 475 0 0 1 -106.852 -462.826" id="slot_outer_129" />
<path d="M  -98.758, -464.620 A 475 475 0 0 1  -90.634 -466.273" id="slot_outer_130" />
<path d="M  -82.483, -467.784 A 475 475 0 0 1  -74.306 -469.152" id="slot_outer_131" />
<path d="M  -66.107, -470.377 A 475 475 0 0 1  -57.888 -471.459" id="slot_outer_132" />
<path d="M  -49.651, -472.398 A 475 475 0 0 1  -41.399 -473.192" id="slot_outer_133" />
<path d="M  -33.134, -473.843 A 475 475 0 0 1  -24.860 -474.349" id="slot_outer_134" />
<path d="M  -16.577, -474.711 A 475 475 0 0 1   -8.290 -474.928" id="slot_outer_135" />
<path d="M   -0.000, -475.000 A 475 475 0 0 1    8.290 -474.928" id="slot_outer_136" />
<path d="M   16.577, -474.711 A 475 475 0 0 1   24.860 -474.349" id="slot_outer_137" />
<path d="M   33.134, -473.843 A 475 475 0 0 1   41.399 -473.192" id="slot_outer_138" />
<path d="M   49.651, -472.398 A 475 475 0 0 1   57.888 -471.459" id="slot_outer_139" />
<path d="M   66.107, -470.377 A 475 475 0 0 1   74.306 -469.152" id="slot_outer_140" />
<path d="M   82.483, -467.784 A 475 475 0 0 1   90.634 -466.273" id="slot_outer_141" />
<path d="M   98.758, -464.620 A 475 475 0 0 1  106.852 -462.826" id="slot_outer_142" />
<path d="M  114.913, -460.890 A 475 475 0 0 1  122.939 -458.815" id="slot_outer_143" />
<path d="M  130.928, -456.599 A 475 475 0 0 1  138.877 -454.245" id="slot_outer_144" />
<path d="M  146.783, -451.752 A 475 475 0 0 1  154.645 -449.121" id="slot_outer_145" />
<path d="M  162.460, -446.354 A 475 475 0 0 1  170.225 -443.451" id="slot_outer_146" />
<path d="M  177.938, -440.412 A 475 475 0 0 1  185.597 -437.240" id="slot_outer_147" />
<path d="M  193.200, -433.934 A 475 475 0 0 1  200.744 -430.496" id="slot_outer_148" />
<path d="M  208.226, -426.927 A 475 475 0 0 1  215.645 -423.228" id="slot_outer_149" />
<path d="M  222.999, -419.400 A 475 475 0 0 1  230.285 -415.444" id="slot_outer_150" />
<path d="M  237.500, -411.362 A 475 475 0 0 1  244.643 -407.154" id="slot_outer_151" />
<path d="M  251.712, -402.823 A 475 475 0 0 1  258.704 -398.369" id="slot_outer_152" />
<path d="M  265.617, -393.793 A 475 475 0 0 1  272.449 -389.097" id="slot_outer_153" />
<path d="M  279.198, -384.283 A 475 475 0 0 1  285.862 -379.352" id="slot_outer_154" />
<path d="M  292.439, -374.305 A 475 475 0 0 1  298.927 -369.144" id="slot_outer_155" />
<path d="M  305.324, -363.871 A 475 475 0 0 1  311.628 -358.487" id="slot_outer_156" />
<path d="M  317.837, -352.994 A 475 475 0 0 1  323.949 -347.393" id="slot_outer_157" />
<path d="M  329.963, -341.686 A 475 475 0 0 1  335.876 -335.876" id="slot_outer_158" />
<path d="M  341.686, -329.963 A 475 475 0 0 1  347.393 -323.949" id="slot_outer_159" />
<path d="M  352.994, -317.837 A 475 475 0 0 1  358.487 -311.628" id="slot_outer_160" />
<path d="M  363.871, -305.324 A 475 475 0 0 1  369.144 -298.927" id="slot_outer_161" />
<path d="M  374.305, -292.439 A 475 475 0 0 1  379.352 -285.862" id="slot_outer_162" />
<path d="M  384.283, -279.198 A 475 475 0 0 1  389.097 -272.449" id="slot_outer_163" />
<path d="M  393.793, -265.617 A 475 475 0 0 1  398.369 -258.704" id="slot_outer_164" />
<path d="M  402.823, -251.712 A 475 475 0 0 1  407.154 -244.643" id="slot_outer_165" />
<path d="M  411.362, -237.500 A 475 475 0 0 1  415.444 -230.285" id="slot_outer_166" />
<path d="M  419.400, -222.999 A 475 475 0 0 1  423.228 -215.645" id="slot_outer_167" />
<path d="M  426.927, -208.226 A 475 475 0 0 1  430.496 -200.744" id="slot_outer_168" />
<path d="M  433.934, -193.200 A 475 475 0 0 1  437.240 -185.597" id="slot_outer_169" />
<path d="M  440.412, -177.938 A 475 475 0 0 1  443.451 -170.225" id="slot_outer_170" />
<path d="M  446.354, -162.460 A 475 475 0 0 1  449.121 -154.645" id="slot_outer_171" />
<path d="M  451.752, -146.783 A 475 475 0 0 1  454.245 -138.877" id="slot_outer_172" />
<path d="M  456.599, -130.928 A 475 475 0 0 1  458.815 -122.939" id="slot_outer_173" />
<path d="M  460.890, -114.913 A 475 475 0 0 1  462.826 -106.852" id="slot_outer_174" />
<path d="M  464.620,  -98.758 A 475 475 0 0 1  466.273  -90.634" id="slot_outer_175" />
<path d="M  467.784,  -82.483 A 475 475 0 0 1  469.152  -74.306" id="slot_outer_176" />
<path d="M  470.377,  -66.107 A 475 475 0 0 1  471.459  -57.888" id="slot_outer_177" />
<path d="M  472.398,  -49.651 A 475 475 0 0 1  473.192  -41.399" id="slot_outer_178" />
<path d="M  473.843,  -33.134 A 475 475 0 0 1  474.349  -24.860" id="slot_outer_179" />
<path d="M  474.711,  -16.577 A 475 475 0 0 1  474.928   -8.290" id="slot_outer_180" />

        </g>
      </g>
    </g>
  </g>
</svg>
