<?xml version="1.0" encoding="utf-8" ?>
<svg baseProfile="full" height="225" version="1.1" width="400" xmlns="http://www.w3.org/2000/svg" xmlns:ev="http://www.w3.org/2001/xml-events" xmlns:xlink="http://www.w3.org/1999/xlink"><defs /><rect fill="white" height="225" width="400" x="0" y="0" /><path d="M 50,100 C 55.0,82.5 70.0,82.5 62.5,100 C 67.5,117.5 70.0,117.5 75,100 C 80.0,82.5 95.0,82.5 87.5,100 C 92.5,117.5 95.0,117.5 100,100 C 105.0,82.5 120.0,82.5 112.5,100 C 117.5,117.5 120.0,117.5 125,100 C 130.0,82.5 145.0,82.5 137.5,100 C 142.5,117.5 145.0,117.5 150,100 C 155.0,82.5 170.0,82.5 162.5,100 C 167.5,117.5 170.0,117.5 175,100 C 180.0,82.5 195.0,82.5 187.5,100 C 192.5,117.5 195.0,117.5 200,100 C 205.0,82.5 220.0,82.5 212.5,100 C 217.5,117.5 220.0,117.5 225,100 C 230.0,82.5 245.0,82.5 237.5,100 C 242.5,117.5 245.0,117.5 250,100 C 255.0,82.5 270.0,82.5 262.5,100 C 267.5,117.5 270.0,117.5 275,100 C 280.0,82.5 295.0,82.5 287.5,100 C 292.5,117.5 295.0,117.5 300,100 " fill="none" stroke="#8B7355" stroke-linecap="round" stroke-linejoin="round" stroke-width="0.5" /><circle cx="50" cy="100" fill="#8B7355" fill-opacity="0.5" r="3" /><circle cx="75" cy="100" fill="#8B7355" fill-opacity="0.5" r="3" /><circle cx="100" cy="100" fill="#8B7355" fill-opacity="0.5" r="3" /><circle cx="125" cy="100" fill="#8B7355" fill-opacity="0.5" r="3" /><circle cx="150" cy="100" fill="#8B7355" fill-opacity="0.5" r="3" /><circle cx="175" cy="100" fill="#8B7355" fill-opacity="0.5" r="3" /><circle cx="200" cy="100" fill="#8B7355" fill-opacity="0.5" r="3" /><circle cx="225" cy="100" fill="#8B7355" fill-opacity="0.5" r="3" /><circle cx="250" cy="100" fill="#8B7355" fill-opacity="0.5" r="3" /><circle cx="275" cy="100" fill="#8B7355" fill-opacity="0.5" r="3" /><circle cx="300" cy="100" fill="#8B7355" fill-opacity="0.5" r="3" /></svg>