<?xml version="1.0" encoding="utf-8" ?>
<svg baseProfile="full" height="600" version="1.1" width="800" xmlns="http://www.w3.org/2000/svg" xmlns:ev="http://www.w3.org/2001/xml-events" xmlns:xlink="http://www.w3.org/1999/xlink"><defs /><rect fill="#FFF9F0" height="600" width="800" x="0" y="0" /><rect fill="none" height="520" stroke="#8B7355" stroke-width="2" width="720" x="40" y="40" /><g transform="translate(50,50) rotate(0)"><path d="M 0,0 Q 24.0,8.0 40.0,24.0 T 64.0,48.0" fill="none" stroke="#8B7355" stroke-width="2" /><path d="M 8.0,4.0 Q 20.0,12.0 32.0,28.0" fill="none" stroke="#8B7355" stroke-width="1.5" /><path d="M 0.0,0.0 q 6.4,9.6 0,12.0 q -6.4,-2.4 0,-12.0" fill="#D4C4B0" fill-opacity="0.3" stroke="#8B7355" stroke-width="1" /><path d="M 20.0,6.0 q 6.4,9.6 0,12.0 q -6.4,-2.4 0,-12.0" fill="#D4C4B0" fill-opacity="0.3" stroke="#8B7355" stroke-width="1" /><path d="M 40.0,12.0 q 6.4,9.6 0,12.0 q -6.4,-2.4 0,-12.0" fill="#D4C4B0" fill-opacity="0.3" stroke="#8B7355" stroke-width="1" /><circle cx="48.0" cy="0.0" fill="#8B7355" r="2" /><circle cx="41.569219381653056" cy="23.999999999999996" fill="#8B7355" r="2" /><circle cx="24.000000000000007" cy="41.569219381653056" fill="#8B7355" r="2" /><circle cx="2.9391523179536475e-15" cy="48.0" fill="#8B7355" r="2" /></g><g transform="translate(750,50) rotate(90)"><path d="M 0,0 Q 24.0,8.0 40.0,24.0 T 64.0,48.0" fill="none" stroke="#8B7355" stroke-width="2" /><path d="M 8.0,4.0 Q 20.0,12.0 32.0,28.0" fill="none" stroke="#8B7355" stroke-width="1.5" /><path d="M 0.0,0.0 q 6.4,9.6 0,12.0 q -6.4,-2.4 0,-12.0" fill="#D4C4B0" fill-opacity="0.3" stroke="#8B7355" stroke-width="1" /><path d="M 20.0,6.0 q 6.4,9.6 0,12.0 q -6.4,-2.4 0,-12.0" fill="#D4C4B0" fill-opacity="0.3" stroke="#8B7355" stroke-width="1" /><path d="M 40.0,12.0 q 6.4,9.6 0,12.0 q -6.4,-2.4 0,-12.0" fill="#D4C4B0" fill-opacity="0.3" stroke="#8B7355" stroke-width="1" /><circle cx="48.0" cy="0.0" fill="#8B7355" r="2" /><circle cx="41.569219381653056" cy="23.999999999999996" fill="#8B7355" r="2" /><circle cx="24.000000000000007" cy="41.569219381653056" fill="#8B7355" r="2" /><circle cx="2.9391523179536475e-15" cy="48.0" fill="#8B7355" r="2" /></g><g transform="translate(750,550) rotate(180)"><path d="M 0,0 Q 24.0,8.0 40.0,24.0 T 64.0,48.0" fill="none" stroke="#8B7355" stroke-width="2" /><path d="M 8.0,4.0 Q 20.0,12.0 32.0,28.0" fill="none" stroke="#8B7355" stroke-width="1.5" /><path d="M 0.0,0.0 q 6.4,9.6 0,12.0 q -6.4,-2.4 0,-12.0" fill="#D4C4B0" fill-opacity="0.3" stroke="#8B7355" stroke-width="1" /><path d="M 20.0,6.0 q 6.4,9.6 0,12.0 q -6.4,-2.4 0,-12.0" fill="#D4C4B0" fill-opacity="0.3" stroke="#8B7355" stroke-width="1" /><path d="M 40.0,12.0 q 6.4,9.6 0,12.0 q -6.4,-2.4 0,-12.0" fill="#D4C4B0" fill-opacity="0.3" stroke="#8B7355" stroke-width="1" /><circle cx="48.0" cy="0.0" fill="#8B7355" r="2" /><circle cx="41.569219381653056" cy="23.999999999999996" fill="#8B7355" r="2" /><circle cx="24.000000000000007" cy="41.569219381653056" fill="#8B7355" r="2" /><circle cx="2.9391523179536475e-15" cy="48.0" fill="#8B7355" r="2" /></g><g transform="translate(50,550) rotate(270)"><path d="M 0,0 Q 24.0,8.0 40.0,24.0 T 64.0,48.0" fill="none" stroke="#8B7355" stroke-width="2" /><path d="M 8.0,4.0 Q 20.0,12.0 32.0,28.0" fill="none" stroke="#8B7355" stroke-width="1.5" /><path d="M 0.0,0.0 q 6.4,9.6 0,12.0 q -6.4,-2.4 0,-12.0" fill="#D4C4B0" fill-opacity="0.3" stroke="#8B7355" stroke-width="1" /><path d="M 20.0,6.0 q 6.4,9.6 0,12.0 q -6.4,-2.4 0,-12.0" fill="#D4C4B0" fill-opacity="0.3" stroke="#8B7355" stroke-width="1" /><path d="M 40.0,12.0 q 6.4,9.6 0,12.0 q -6.4,-2.4 0,-12.0" fill="#D4C4B0" fill-opacity="0.3" stroke="#8B7355" stroke-width="1" /><circle cx="48.0" cy="0.0" fill="#8B7355" r="2" /><circle cx="41.569219381653056" cy="23.999999999999996" fill="#8B7355" r="2" /><circle cx="24.000000000000007" cy="41.569219381653056" fill="#8B7355" r="2" /><circle cx="2.9391523179536475e-15" cy="48.0" fill="#8B7355" r="2" /></g><g><line stroke="#8B7355" stroke-width="3" x1="120" x2="680" y1="45" y2="45" /><line stroke="#8B7355" stroke-width="1" x1="120" x2="680" y1="37" y2="37" /><circle cx="200.0" cy="45.0" fill="#8B7355" opacity="0.6" r="3" /><line opacity="0.4" stroke="#8B7355" stroke-width="0.5" x1="200.0" x2="200.0" y1="45.0" y2="51.0" /><circle cx="280.0" cy="45.0" fill="#8B7355" opacity="0.6" r="3" /><line opacity="0.4" stroke="#8B7355" stroke-width="0.5" x1="280.0" x2="280.0" y1="45.0" y2="51.0" /><circle cx="360.0" cy="45.0" fill="#8B7355" opacity="0.6" r="3" /><line opacity="0.4" stroke="#8B7355" stroke-width="0.5" x1="360.0" x2="360.0" y1="45.0" y2="51.0" /><circle cx="440.0" cy="45.0" fill="#8B7355" opacity="0.6" r="3" /><line opacity="0.4" stroke="#8B7355" stroke-width="0.5" x1="440.0" x2="440.0" y1="45.0" y2="51.0" /><circle cx="520.0" cy="45.0" fill="#8B7355" opacity="0.6" r="3" /><line opacity="0.4" stroke="#8B7355" stroke-width="0.5" x1="520.0" x2="520.0" y1="45.0" y2="51.0" /><circle cx="600.0" cy="45.0" fill="#8B7355" opacity="0.6" r="3" /><line opacity="0.4" stroke="#8B7355" stroke-width="0.5" x1="600.0" x2="600.0" y1="45.0" y2="51.0" /></g><g><line stroke="#8B7355" stroke-width="3" x1="120" x2="680" y1="555" y2="555" /><line stroke="#8B7355" stroke-width="1" x1="120" x2="680" y1="563" y2="563" /><circle cx="200.0" cy="555.0" fill="#8B7355" opacity="0.6" r="3" /><line opacity="0.4" stroke="#8B7355" stroke-width="0.5" x1="200.0" x2="200.0" y1="555.0" y2="561.0" /><circle cx="280.0" cy="555.0" fill="#8B7355" opacity="0.6" r="3" /><line opacity="0.4" stroke="#8B7355" stroke-width="0.5" x1="280.0" x2="280.0" y1="555.0" y2="561.0" /><circle cx="360.0" cy="555.0" fill="#8B7355" opacity="0.6" r="3" /><line opacity="0.4" stroke="#8B7355" stroke-width="0.5" x1="360.0" x2="360.0" y1="555.0" y2="561.0" /><circle cx="440.0" cy="555.0" fill="#8B7355" opacity="0.6" r="3" /><line opacity="0.4" stroke="#8B7355" stroke-width="0.5" x1="440.0" x2="440.0" y1="555.0" y2="561.0" /><circle cx="520.0" cy="555.0" fill="#8B7355" opacity="0.6" r="3" /><line opacity="0.4" stroke="#8B7355" stroke-width="0.5" x1="520.0" x2="520.0" y1="555.0" y2="561.0" /><circle cx="600.0" cy="555.0" fill="#8B7355" opacity="0.6" r="3" /><line opacity="0.4" stroke="#8B7355" stroke-width="0.5" x1="600.0" x2="600.0" y1="555.0" y2="561.0" /></g><g><line stroke="#8B7355" stroke-width="3" x1="45" x2="45" y1="120" y2="480" /><line stroke="#8B7355" stroke-width="1" x1="37" x2="37" y1="120" y2="480" /><circle cx="45.0" cy="192.0" fill="#8B7355" opacity="0.6" r="3" /><line opacity="0.4" stroke="#8B7355" stroke-width="0.5" x1="45.0" x2="39.0" y1="192.0" y2="192.0" /><circle cx="45.0" cy="264.0" fill="#8B7355" opacity="0.6" r="3" /><line opacity="0.4" stroke="#8B7355" stroke-width="0.5" x1="45.0" x2="39.0" y1="264.0" y2="264.0" /><circle cx="45.0" cy="336.0" fill="#8B7355" opacity="0.6" r="3" /><line opacity="0.4" stroke="#8B7355" stroke-width="0.5" x1="45.0" x2="39.0" y1="336.0" y2="336.0" /><circle cx="45.0" cy="408.0" fill="#8B7355" opacity="0.6" r="3" /><line opacity="0.4" stroke="#8B7355" stroke-width="0.5" x1="45.0" x2="39.0" y1="408.0" y2="408.0" /></g><g><line stroke="#8B7355" stroke-width="3" x1="755" x2="755" y1="120" y2="480" /><line stroke="#8B7355" stroke-width="1" x1="763" x2="763" y1="120" y2="480" /><circle cx="755.0" cy="192.0" fill="#8B7355" opacity="0.6" r="3" /><line opacity="0.4" stroke="#8B7355" stroke-width="0.5" x1="755.0" x2="749.0" y1="192.0" y2="192.0" /><circle cx="755.0" cy="264.0" fill="#8B7355" opacity="0.6" r="3" /><line opacity="0.4" stroke="#8B7355" stroke-width="0.5" x1="755.0" x2="749.0" y1="264.0" y2="264.0" /><circle cx="755.0" cy="336.0" fill="#8B7355" opacity="0.6" r="3" /><line opacity="0.4" stroke="#8B7355" stroke-width="0.5" x1="755.0" x2="749.0" y1="336.0" y2="336.0" /><circle cx="755.0" cy="408.0" fill="#8B7355" opacity="0.6" r="3" /><line opacity="0.4" stroke="#8B7355" stroke-width="0.5" x1="755.0" x2="749.0" y1="408.0" y2="408.0" /></g><circle cx="400.0" cy="45" fill="none" r="15" stroke="#8B7355" stroke-width="2" /><circle cx="400.0" cy="45" fill="#D4C4B0" fill-opacity="0.3" r="10" /><circle cx="400.0" cy="555" fill="none" r="15" stroke="#8B7355" stroke-width="2" /><circle cx="400.0" cy="555" fill="#D4C4B0" fill-opacity="0.3" r="10" /><circle cx="700.0" cy="300.0" fill="#8B7355" opacity="0.5" r="4" /><circle cx="612.1320343559643" cy="441.4213562373095" fill="#8B7355" opacity="0.5" r="4" /><circle cx="400.0" cy="500.0" fill="#8B7355" opacity="0.5" r="4" /><circle cx="187.86796564403576" cy="441.4213562373095" fill="#8B7355" opacity="0.5" r="4" /><circle cx="100.0" cy="300.0" fill="#8B7355" opacity="0.5" r="4" /><circle cx="187.8679656440357" cy="158.57864376269052" fill="#8B7355" opacity="0.5" r="4" /><circle cx="399.99999999999994" cy="100.0" fill="#8B7355" opacity="0.5" r="4" /><circle cx="612.1320343559642" cy="158.57864376269046" fill="#8B7355" opacity="0.5" r="4" /><g><rect fill="none" height="440" opacity="0.3" stroke="#D4AF37" stroke-dasharray="5,5" stroke-width="1" width="640" x="80" y="80" /><text fill="#CCC" font-family="serif" font-size="24px" font-style="italic" text-anchor="middle" x="400.0" y="300.0">Certificate Text Area</text></g></svg>