<?xml version="1.0" encoding="utf-8" ?>
<svg baseProfile="full" height="250" version="1.1" width="430" xmlns="http://www.w3.org/2000/svg" xmlns:ev="http://www.w3.org/2001/xml-events" xmlns:xlink="http://www.w3.org/1999/xlink"><defs /><rect fill="white" height="250" width="430" x="0" y="0" /><path d="M 50,100 C 70.0,65.0 65.0,65.0 67.5,100 C 87.5,135.0 65.0,135.0 85,100 C 105.0,65.0 100.0,65.0 102.5,100 C 122.5,135.0 100.0,135.0 120,100 C 140.0,65.0 135.0,65.0 137.5,100 C 157.5,135.0 135.0,135.0 155,100 C 175.0,65.0 170.0,65.0 172.5,100 C 192.5,135.0 170.0,135.0 190,100 C 210.0,65.0 205.0,65.0 207.5,100 C 227.5,135.0 205.0,135.0 225,100 C 245.0,65.0 240.0,65.0 242.5,100 C 262.5,135.0 240.0,135.0 260,100 C 280.0,65.0 275.0,65.0 277.5,100 C 297.5,135.0 275.0,135.0 295,100 C 315.0,65.0 310.0,65.0 312.5,100 C 332.5,135.0 310.0,135.0 330,100 " fill="none" stroke="#D4AF37" stroke-linecap="round" stroke-linejoin="round" stroke-width="3" /><circle cx="50" cy="100" fill="#D4AF37" fill-opacity="0.5" r="3" /><circle cx="85" cy="100" fill="#D4AF37" fill-opacity="0.5" r="3" /><circle cx="120" cy="100" fill="#D4AF37" fill-opacity="0.5" r="3" /><circle cx="155" cy="100" fill="#D4AF37" fill-opacity="0.5" r="3" /><circle cx="190" cy="100" fill="#D4AF37" fill-opacity="0.5" r="3" /><circle cx="225" cy="100" fill="#D4AF37" fill-opacity="0.5" r="3" /><circle cx="260" cy="100" fill="#D4AF37" fill-opacity="0.5" r="3" /><circle cx="295" cy="100" fill="#D4AF37" fill-opacity="0.5" r="3" /><circle cx="330" cy="100" fill="#D4AF37" fill-opacity="0.5" r="3" /></svg>