<?xml version="1.0" encoding="utf-8" ?>
<svg baseProfile="full" height="230" version="1.1" width="420" xmlns="http://www.w3.org/2000/svg" xmlns:ev="http://www.w3.org/2001/xml-events" xmlns:xlink="http://www.w3.org/1999/xlink"><defs /><rect fill="white" height="230" width="420" x="0" y="0" /><path d="M 50,100 C 60.0,79.0 58.0,79.0 59.0,100 C 69.0,121.0 58.0,121.0 68,100 C 78.0,79.0 76.0,79.0 77.0,100 C 87.0,121.0 76.0,121.0 86,100 C 96.0,79.0 94.0,79.0 95.0,100 C 105.0,121.0 94.0,121.0 104,100 C 114.0,79.0 112.0,79.0 113.0,100 C 123.0,121.0 112.0,121.0 122,100 C 132.0,79.0 130.0,79.0 131.0,100 C 141.0,121.0 130.0,121.0 140,100 C 150.0,79.0 148.0,79.0 149.0,100 C 159.0,121.0 148.0,121.0 158,100 C 168.0,79.0 166.0,79.0 167.0,100 C 177.0,121.0 166.0,121.0 176,100 C 186.0,79.0 184.0,79.0 185.0,100 C 195.0,121.0 184.0,121.0 194,100 C 204.0,79.0 202.0,79.0 203.0,100 C 213.0,121.0 202.0,121.0 212,100 C 222.0,79.0 220.0,79.0 221.0,100 C 231.0,121.0 220.0,121.0 230,100 C 240.0,79.0 238.0,79.0 239.0,100 C 249.0,121.0 238.0,121.0 248,100 C 258.0,79.0 256.0,79.0 257.0,100 C 267.0,121.0 256.0,121.0 266,100 C 276.0,79.0 274.0,79.0 275.0,100 C 285.0,121.0 274.0,121.0 284,100 C 294.0,79.0 292.0,79.0 293.0,100 C 303.0,121.0 292.0,121.0 302,100 C 312.0,79.0 310.0,79.0 311.0,100 C 321.0,121.0 310.0,121.0 320,100 " fill="none" stroke="#2C5F8D" stroke-linecap="round" stroke-linejoin="round" stroke-width="1.5" /><circle cx="50" cy="100" fill="#2C5F8D" fill-opacity="0.5" r="3" /><circle cx="68" cy="100" fill="#2C5F8D" fill-opacity="0.5" r="3" /><circle cx="86" cy="100" fill="#2C5F8D" fill-opacity="0.5" r="3" /><circle cx="104" cy="100" fill="#2C5F8D" fill-opacity="0.5" r="3" /><circle cx="122" cy="100" fill="#2C5F8D" fill-opacity="0.5" r="3" /><circle cx="140" cy="100" fill="#2C5F8D" fill-opacity="0.5" r="3" /><circle cx="158" cy="100" fill="#2C5F8D" fill-opacity="0.5" r="3" /><circle cx="176" cy="100" fill="#2C5F8D" fill-opacity="0.5" r="3" /><circle cx="194" cy="100" fill="#2C5F8D" fill-opacity="0.5" r="3" /><circle cx="212" cy="100" fill="#2C5F8D" fill-opacity="0.5" r="3" /><circle cx="230" cy="100" fill="#2C5F8D" fill-opacity="0.5" r="3" /><circle cx="248" cy="100" fill="#2C5F8D" fill-opacity="0.5" r="3" /><circle cx="266" cy="100" fill="#2C5F8D" fill-opacity="0.5" r="3" /><circle cx="284" cy="100" fill="#2C5F8D" fill-opacity="0.5" r="3" /><circle cx="302" cy="100" fill="#2C5F8D" fill-opacity="0.5" r="3" /><circle cx="320" cy="100" fill="#2C5F8D" fill-opacity="0.5" r="3" /></svg>