<svg width="612" height="792" 
     viewBox="0 0 612 792" 
     xmlns="http://www.w3.org/2000/svg">
  <rect width="612" height="792" fill="white"/>
  <text x="306.0" y="66" font-family="sans-serif" font-size="20" font-weight="bold" text-anchor="middle">Week 31, 2026: Jul 27 - Aug 02</text>
  <rect x="36" y="86" width="540" height="670" fill="none" stroke="#000000" stroke-width="2"/>
  <text x="130.28571428571428" y="71" font-family="sans-serif" font-size="12" font-weight="bold" text-anchor="middle">Mon</text>
  <text x="130.28571428571428" y="84" font-family="sans-serif" font-size="10" text-anchor="middle" fill="#666666">07/27</text>
  <text x="198.85714285714286" y="71" font-family="sans-serif" font-size="12" font-weight="bold" text-anchor="middle">Tue</text>
  <text x="198.85714285714286" y="84" font-family="sans-serif" font-size="10" text-anchor="middle" fill="#666666">07/28</text>
  <text x="267.42857142857144" y="71" font-family="sans-serif" font-size="12" font-weight="bold" text-anchor="middle">Wed</text>
  <text x="267.42857142857144" y="84" font-family="sans-serif" font-size="10" text-anchor="middle" fill="#666666">07/29</text>
  <text x="336.0" y="71" font-family="sans-serif" font-size="12" font-weight="bold" text-anchor="middle">Thu</text>
  <text x="336.0" y="84" font-family="sans-serif" font-size="10" text-anchor="middle" fill="#666666">07/30</text>
  <text x="404.57142857142856" y="71" font-family="sans-serif" font-size="12" font-weight="bold" text-anchor="middle">Fri</text>
  <text x="404.57142857142856" y="84" font-family="sans-serif" font-size="10" text-anchor="middle" fill="#666666">07/31</text>
  <text x="473.1428571428571" y="71" font-family="sans-serif" font-size="12" font-weight="bold" text-anchor="middle">Sat</text>
  <text x="473.1428571428571" y="84" font-family="sans-serif" font-size="10" text-anchor="middle" fill="#666666">08/01</text>
  <text x="541.7142857142858" y="71" font-family="sans-serif" font-size="12" font-weight="bold" text-anchor="middle">Sun</text>
  <text x="541.7142857142858" y="84" font-family="sans-serif" font-size="10" text-anchor="middle" fill="#666666">08/02</text>
  <line x1="96.0" y1="86" x2="96.0" y2="756" stroke="#000000" stroke-width="1"/>
  <line x1="164.57142857142856" y1="86" x2="164.57142857142856" y2="756" stroke="#000000" stroke-width="1"/>
  <line x1="233.14285714285714" y1="86" x2="233.14285714285714" y2="756" stroke="#000000" stroke-width="1"/>
  <line x1="301.7142857142857" y1="86" x2="301.7142857142857" y2="756" stroke="#000000" stroke-width="1"/>
  <line x1="370.2857142857143" y1="86" x2="370.2857142857143" y2="756" stroke="#000000" stroke-width="1"/>
  <line x1="438.85714285714283" y1="86" x2="438.85714285714283" y2="756" stroke="#000000" stroke-width="1"/>
  <line x1="507.42857142857144" y1="86" x2="507.42857142857144" y2="756" stroke="#000000" stroke-width="1"/>
  <line x1="576.0" y1="86" x2="576.0" y2="756" stroke="#000000" stroke-width="1"/>
  <line x1="96" y1="86" x2="96" y2="756" stroke="#000000" stroke-width="2"/>
  <line x1="96" y1="86.0" x2="576" y2="86.0" stroke="#666666" stroke-width="1.5" opacity="1"/>
  <text x="91" y="101.0" font-family="sans-serif" font-size="10" text-anchor="end" fill="#666666">08:00</text>
  <line x1="96" y1="153.0" x2="576" y2="153.0" stroke="#666666" stroke-width="1.5" opacity="1"/>
  <text x="91" y="168.0" font-family="sans-serif" font-size="10" text-anchor="end" fill="#666666">09:00</text>
  <line x1="96" y1="220.0" x2="576" y2="220.0" stroke="#666666" stroke-width="1.5" opacity="1"/>
  <text x="91" y="235.0" font-family="sans-serif" font-size="10" text-anchor="end" fill="#666666">10:00</text>
  <line x1="96" y1="287.0" x2="576" y2="287.0" stroke="#666666" stroke-width="1.5" opacity="1"/>
  <text x="91" y="302.0" font-family="sans-serif" font-size="10" text-anchor="end" fill="#666666">11:00</text>
  <line x1="96" y1="354.0" x2="576" y2="354.0" stroke="#666666" stroke-width="1.5" opacity="1"/>
  <text x="91" y="369.0" font-family="sans-serif" font-size="10" text-anchor="end" fill="#666666">12:00</text>
  <line x1="96" y1="421.0" x2="576" y2="421.0" stroke="#666666" stroke-width="1.5" opacity="1"/>
  <text x="91" y="436.0" font-family="sans-serif" font-size="10" text-anchor="end" fill="#666666">13:00</text>
  <line x1="96" y1="488.0" x2="576" y2="488.0" stroke="#666666" stroke-width="1.5" opacity="1"/>
  <text x="91" y="503.0" font-family="sans-serif" font-size="10" text-anchor="end" fill="#666666">14:00</text>
  <line x1="96" y1="555.0" x2="576" y2="555.0" stroke="#666666" stroke-width="1.5" opacity="1"/>
  <text x="91" y="570.0" font-family="sans-serif" font-size="10" text-anchor="end" fill="#666666">15:00</text>
  <line x1="96" y1="622.0" x2="576" y2="622.0" stroke="#666666" stroke-width="1.5" opacity="1"/>
  <text x="91" y="637.0" font-family="sans-serif" font-size="10" text-anchor="end" fill="#666666">16:00</text>
  <line x1="96" y1="689.0" x2="576" y2="689.0" stroke="#666666" stroke-width="1.5" opacity="1"/>
  <text x="91" y="704.0" font-family="sans-serif" font-size="10" text-anchor="end" fill="#666666">17:00</text>
  <line x1="96" y1="756.0" x2="576" y2="756.0" stroke="#666666" stroke-width="1.5" opacity="1"/>
</svg>