<svg width="612" height="792" 
     viewBox="0 0 612 792" 
     xmlns="http://www.w3.org/2000/svg">
  <rect width="612" height="792" fill="white"/>
<g fill="none" stroke="#000000" stroke-width="0.05">
  <path d="M    80    80  c     9   -40     -9   -40    2 0.0"/>
  <path d="M    82    80  c     9    40     -9    40    2 0.0"/>
  <path d="M    84    80  c     9   -40     -9   -40    2 0.0"/>
  <path d="M    86    80  c     9    40     -9    40    2 0.0"/>
  <path d="M    88    80  c     9   -40     -9   -40    2 0.0"/>
  <path d="M    90    80  c     9    40     -9    40    2 0.0"/>
  <path d="M    92    80  c     9   -40     -9   -40    2 0.0"/>
  <path d="M    94    80  c     9    40     -9    40    2 0.0"/>
  <path d="M    96    80  c     9   -40     -9   -40    2 0.0"/>
  <path d="M    98    80  c     9    40     -9    40    2 0.0"/>
  <path d="M   100    80  c     9   -40     -9   -40    2 0.0"/>
  <path d="M   102    80  c     9    40     -9    40    2 0.0"/>
  <path d="M   104    80  c     9   -40     -9   -40    2 0.0"/>
  <path d="M   106    80  c     9    40     -9    40    2 0.0"/>
  <path d="M   108    80  c     9   -40     -9   -40    2 0.0"/>
  <path d="M   110    80  c     9    40     -9    40    2 0.0"/>
  <path d="M   112    80  c     9   -40     -9   -40    2 0.0"/>
  <path d="M   114    80  c     9    40     -9    40    2 0.0"/>
  <path d="M   116    80  c     9   -40     -9   -40    2 0.0"/>
  <path d="M   118    80  c     9    40     -9    40    2 0.0"/>
  <path d="M   120    80  c     9   -40     -9   -40    2 0.0"/>
  <path d="M   122    80  c     9    40     -9    40    2 0.0"/>
  <path d="M   124    80  c     9   -40     -9   -40    2 0.0"/>
  <path d="M   126    80  c     9    40     -9    40    2 0.0"/>
  <path d="M   128    80  c     9   -40     -9   -40    2 0.0"/>
  <path d="M   130    80  c     9    40     -9    40    2 0.0"/>
  <path d="M   132    80  c     9   -40     -9   -40    2 0.0"/>
  <path d="M   134    80  c     9    40     -9    40    2 0.0"/>
  <path d="M   136    80  c     9   -40     -9   -40    2 0.0"/>
  <path d="M   138    80  c     9    40     -9    40    2 0.0"/>
  <path d="M   140    80  c     9   -40     -9   -40    2 0.0"/>
  <path d="M   142    80  c     9    40     -9    40    2 0.0"/>
  <path d="M   144    80  c     9   -40     -9   -40    2 0.0"/>
  <path d="M   146    80  c     9    40     -9    40    2 0.0"/>
  <path d="M   148    80  c     9   -40     -9   -40    2 0.0"/>
  <path d="M   150    80  c     9    40     -9    40    2 0.0"/>
  <path d="M   152    80  c     9   -40     -9   -40    2 0.0"/>
  <path d="M   154    80  c     9    40     -9    40    2 0.0"/>
  <path d="M   156    80  c     9   -40     -9   -40    2 0.0"/>
  <path d="M   158    80  c     9    40     -9    40    2 0.0"/>
  <path d="M   160    80  c     9   -40     -9   -40    2 0.0"/>
  <path d="M   162    80  c     9    40     -9    40    2 0.0"/>
  <path d="M   164    80  c     9   -40     -9   -40    2 0.0"/>
  <path d="M   166    80  c     9    40     -9    40    2 0.0"/>
  <path d="M   168    80  c     9   -40     -9   -40    2 0.0"/>
  <path d="M   170    80  c     9    40     -9    40    2 0.0"/>
  <path d="M   172    80  c     9   -40     -9   -40    2 0.0"/>
  <path d="M   174    80  c     9    40     -9    40    2 0.0"/>
  <path d="M   176    80  c     9   -40     -9   -40    2 0.0"/>
  <path d="M   178    80  c     9    40     -9    40    2 0.0"/>
  <path d="M   180    80  c     9   -40     -9   -40    2 0.0"/>
  <path d="M   182    80  c     9    40     -9    40    2 0.0"/>
  <path d="M   184    80  c     9   -40     -9   -40    2 0.0"/>
  <path d="M   186    80  c     9    40     -9    40    2 0.0"/>
  <path d="M   188    80  c     9   -40     -9   -40    2 0.0"/>
  <path d="M   190    80  c     9    40     -9    40    2 0.0"/>
  <path d="M   192    80  c     9   -40     -9   -40    2 0.0"/>
  <path d="M   194    80  c     9    40     -9    40    2 0.0"/>
  <path d="M   196    80  c     9   -40     -9   -40    2 0.0"/>
  <path d="M   198    80  c     9    40     -9    40    2 0.0"/>
  <path d="M   200    80  c     9   -40     -9   -40    2 0.0"/>
  <path d="M   202    80  c     9    40     -9    40    2 0.0"/>
  <path d="M   204    80  c     9   -40     -9   -40    2 0.0"/>
  <path d="M   206    80  c     9    40     -9    40    2 0.0"/>
  <path d="M   208    80  c     9   -40     -9   -40    2 0.0"/>
  <path d="M   210    80  c     9    40     -9    40    2 0.0"/>
  <path d="M   212    80  c     9   -40     -9   -40    2 0.0"/>
  <path d="M   214    80  c     9    40     -9    40    2 0.0"/>
  <path d="M   216    80  c     9   -40     -9   -40    2 0.0"/>
  <path d="M   218    80  c     9    40     -9    40    2 0.0"/>
  <path d="M   220    80  c     9   -40     -9   -40    2 0.0"/>
  <path d="M   222    80  c     9    40     -9    40    2 0.0"/>
  <path d="M   224    80  c     9   -40     -9   -40    2 0.0"/>
  <path d="M   226    80  c     9    40     -9    40    2 0.0"/>
  <path d="M   228    80  c     9   -40     -9   -40    2 0.0"/>
  <path d="M   230    80  c     9    40     -9    40    2 0.0"/>
  <path d="M   232    80  c     9   -40     -9   -40    2 0.0"/>
  <path d="M   234    80  c     9    40     -9    40    2 0.0"/>
  <path d="M   236    80  c     9   -40     -9   -40    2 0.0"/>
  <path d="M   238    80  c     9    40     -9    40    2 0.0"/>
  <path d="M   240    80  c     9   -40     -9   -40    2 0.0"/>
  <path d="M   242    80  c     9    40     -9    40    2 0.0"/>
  <path d="M   244    80  c     9   -40     -9   -40    2 0.0"/>
  <path d="M   246    80  c     9    40     -9    40    2 0.0"/>
  <path d="M   248    80  c     9   -40     -9   -40    2 0.0"/>
  <path d="M   250    80  c     9    40     -9    40    2 0.0"/>
  <path d="M   252    80  c     9   -40     -9   -40    2 0.0"/>
  <path d="M   254    80  c     9    40     -9    40    2 0.0"/>
  <path d="M   256    80  c     9   -40     -9   -40    2 0.0"/>
  <path d="M   258    80  c     9    40     -9    40    2 0.0"/>
  <path d="M   260    80  c     9   -40     -9   -40    2 0.0"/>
  <path d="M   262    80  c     9    40     -9    40    2 0.0"/>
  <path d="M   264    80  c     9   -40     -9   -40    2 0.0"/>
  <path d="M   266    80  c     9    40     -9    40    2 0.0"/>
  <path d="M   268    80  c     9   -40     -9   -40    2 0.0"/>
  <path d="M   270    80  c     9    40     -9    40    2 0.0"/>
  <path d="M   272    80  c     9   -40     -9   -40    2 0.0"/>
  <path d="M   274    80  c     9    40     -9    40    2 0.0"/>
  <path d="M   276    80  c     9   -40     -9   -40    2 0.0"/>
  <path d="M   278    80  c     9    40     -9    40    2 0.0"/>
  <path d="M   280    80  c     9   -40     -9   -40    2 0.0"/>
  <path d="M   282    80  c     9    40     -9    40    2 0.0"/>
  <path d="M   284    80  c     9   -40     -9   -40    2 0.0"/>
  <path d="M   286    80  c     9    40     -9    40    2 0.0"/>
  <path d="M   288    80  c     9   -40     -9   -40    2 0.0"/>
  <path d="M   290    80  c     9    40     -9    40    2 0.0"/>
  <path d="M   292    80  c     9   -40     -9   -40    2 0.0"/>
  <path d="M   294    80  c     9    40     -9    40    2 0.0"/>
  <path d="M   296    80  c     9   -40     -9   -40    2 0.0"/>
  <path d="M   298    80  c     9    40     -9    40    2 0.0"/>
  <path d="M   300    80  c     9   -40     -9   -40    2 0.0"/>
  <path d="M   302    80  c     9    40     -9    40    2 0.0"/>
  <path d="M   304    80  c     9   -40     -9   -40    2 0.0"/>
  <path d="M   306    80  c     9    40     -9    40    2 0.0"/>
  <path d="M   308    80  c     9   -40     -9   -40    2 0.0"/>
  <path d="M   310    80  c     9    40     -9    40    2 0.0"/>
  <path d="M   312    80  c     9   -40     -9   -40    2 0.0"/>
  <path d="M   314    80  c     9    40     -9    40    2 0.0"/>
  <path d="M   316    80  c     9   -40     -9   -40    2 0.0"/>
  <path d="M   318    80  c     9    40     -9    40    2 0.0"/>
  <path d="M   320    80  c     9   -40     -9   -40    2 0.0"/>
  <path d="M   322    80  c     9    40     -9    40    2 0.0"/>
  <path d="M   324    80  c     9   -40     -9   -40    2 0.0"/>
  <path d="M   326    80  c     9    40     -9    40    2 0.0"/>
  <path d="M   328    80  c     9   -40     -9   -40    2 0.0"/>
  <path d="M   330    80  c     9    40     -9    40    2 0.0"/>
  <path d="M   332    80  c     9   -40     -9   -40    2 0.0"/>
  <path d="M   334    80  c     9    40     -9    40    2 0.0"/>
  <path d="M   336    80  c     9   -40     -9   -40    2 0.0"/>
  <path d="M   338    80  c     9    40     -9    40    2 0.0"/>
  <path d="M   340    80  c     9   -40     -9   -40    2 0.0"/>
  <path d="M   342    80  c     9    40     -9    40    2 0.0"/>
  <path d="M   344    80  c     9   -40     -9   -40    2 0.0"/>
  <path d="M   346    80  c     9    40     -9    40    2 0.0"/>
  <path d="M   348    80  c     9   -40     -9   -40    2 0.0"/>
  <path d="M   350    80  c     9    40     -9    40    2 0.0"/>
  <path d="M   352    80  c     9   -40     -9   -40    2 0.0"/>
  <path d="M   354    80  c     9    40     -9    40    2 0.0"/>
  <path d="M   356    80  c     9   -40     -9   -40    2 0.0"/>
  <path d="M   358    80  c     9    40     -9    40    2 0.0"/>
  <path d="M   360    80  c     9   -40     -9   -40    2 0.0"/>
  <path d="M   362    80  c     9    40     -9    40    2 0.0"/>
  <path d="M   364    80  c     9   -40     -9   -40    2 0.0"/>
  <path d="M   366    80  c     9    40     -9    40    2 0.0"/>
  <path d="M   368    80  c     9   -40     -9   -40    2 0.0"/>
  <path d="M   370    80  c     9    40     -9    40    2 0.0"/>
  <path d="M   372    80  c     9   -40     -9   -40    2 0.0"/>
  <path d="M   374    80  c     9    40     -9    40    2 0.0"/>
  <path d="M   376    80  c     9   -40     -9   -40    2 0.0"/>
  <path d="M   378    80  c     9    40     -9    40    2 0.0"/>
  <path d="M   380    80  c     9   -40     -9   -40    2 0.0"/>
  <path d="M   382    80  c     9    40     -9    40    2 0.0"/>
  <path d="M   384    80  c     9   -40     -9   -40    2 0.0"/>
  <path d="M   386    80  c     9    40     -9    40    2 0.0"/>
  <path d="M   388    80  c     9   -40     -9   -40    2 0.0"/>
  <path d="M   390    80  c     9    40     -9    40    2 0.0"/>
  <path d="M   392    80  c     9   -40     -9   -40    2 0.0"/>
  <path d="M   394    80  c     9    40     -9    40    2 0.0"/>
  <path d="M   396    80  c     9   -40     -9   -40    2 0.0"/>
  <path d="M   398    80  c     9    40     -9    40    2 0.0"/>
  <path d="M   400    80  c     9   -40     -9   -40    2 0.0"/>
  <path d="M   402    80  c     9    40     -9    40    2 0.0"/>
  <path d="M   404    80  c     9   -40     -9   -40    2 0.0"/>
  <path d="M   406    80  c     9    40     -9    40    2 0.0"/>
  <path d="M   408    80  c     9   -40     -9   -40    2 0.0"/>
  <path d="M   410    80  c     9    40     -9    40    2 0.0"/>
  <path d="M   412    80  c     9   -40     -9   -40    2 0.0"/>
  <path d="M   414    80  c     9    40     -9    40    2 0.0"/>
  <path d="M   416    80  c     9   -40     -9   -40    2 0.0"/>
  <path d="M   418    80  c     9    40     -9    40    2 0.0"/>
  <path d="M   420    80  c     9   -40     -9   -40    2 0.0"/>
  <path d="M   422    80  c     9    40     -9    40    2 0.0"/>
  <path d="M   424    80  c     9   -40     -9   -40    2 0.0"/>
  <path d="M   426    80  c     9    40     -9    40    2 0.0"/>
  <path d="M   428    80  c     9   -40     -9   -40    2 0.0"/>
  <path d="M   430    80  c     9    40     -9    40    2 0.0"/>
  <path d="M   432    80  c     9   -40     -9   -40    2 0.0"/>
  <path d="M   434    80  c     9    40     -9    40    2 0.0"/>
  <path d="M   436    80  c     9   -40     -9   -40    2 0.0"/>
  <path d="M   438    80  c     9    40     -9    40    2 0.0"/>
  <path d="M   440    80  c     9   -40     -9   -40    2 0.0"/>
  <path d="M   442    80  c     9    40     -9    40    2 0.0"/>
  <path d="M   444    80  c     9   -40     -9   -40    2 0.0"/>
  <path d="M   446    80  c     9    40     -9    40    2 0.0"/>
  <path d="M   448    80  c     9   -40     -9   -40    2 0.0"/>
  <path d="M   450    80  c     9    40     -9    40    2 0.0"/>
  <path d="M   452    80  c     9   -40     -9   -40    2 0.0"/>
  <path d="M   454    80  c     9    40     -9    40    2 0.0"/>
  <path d="M   456    80  c     9   -40     -9   -40    2 0.0"/>
  <path d="M   458    80  c     9    40     -9    40    2 0.0"/>
  <path d="M   460    80  c     9   -40     -9   -40    2 0.0"/>
  <path d="M   462    80  c     9    40     -9    40    2 0.0"/>
  <path d="M   464    80  c     9   -40     -9   -40    2 0.0"/>
  <path d="M   466    80  c     9    40     -9    40    2 0.0"/>
  <path d="M   468    80  c     9   -40     -9   -40    2 0.0"/>
  <path d="M   470    80  c     9    40     -9    40    2 0.0"/>
  <path d="M   472    80  c     9   -40     -9   -40    2 0.0"/>
  <path d="M   474    80  c     9    40     -9    40    2 0.0"/>
  <path d="M   476    80  c     9   -40     -9   -40    2 0.0"/>
  <path d="M   478    80  c     9    40     -9    40    2 0.0"/>
  <path d="M   480    80  c     9   -40     -9   -40    2 0.0"/>
  <path d="M   482    80  c     9    40     -9    40    2 0.0"/>
  <path d="M   484    80  c     9   -40     -9   -40    2 0.0"/>
  <path d="M   486    80  c     9    40     -9    40    2 0.0"/>
  <path d="M   488    80  c     9   -40     -9   -40    2 0.0"/>
  <path d="M   490    80  c     9    40     -9    40    2 0.0"/>
  <path d="M   492    80  c     9   -40     -9   -40    2 0.0"/>
  <path d="M   494    80  c     9    40     -9    40    2 0.0"/>
  <path d="M   496    80  c     9   -40     -9   -40    2 0.0"/>
  <path d="M   498    80  c     9    40     -9    40    2 0.0"/>
  <path d="M   500    80  c     9   -40     -9   -40    2 0.0"/>
  <path d="M   502    80  c     9    40     -9    40    2 0.0"/>
  <path d="M   504    80  c     9   -40     -9   -40    2 0.0"/>
  <path d="M   506    80  c     9    40     -9    40    2 0.0"/>
  <path d="M   508    80  c     9   -40     -9   -40    2 0.0"/>
  <path d="M   510    80  c     9    40     -9    40    2 0.0"/>
  <path d="M   512    80  c     9   -40     -9   -40    2 0.0"/>
  <path d="M   514    80  c     9    40     -9    40    2 0.0"/>
  <path d="M   516    80  c     9   -40     -9   -40    2 0.0"/>
  <path d="M   518    80  c     9    40     -9    40    2 0.0"/>
  <path d="M   520    80  c     9   -40     -9   -40    2 0.0"/>
  <path d="M   522    80  c     9    40     -9    40    2 0.0"/>
  <path d="M   524    80  c     9   -40     -9   -40    2 0.0"/>
  <path d="M   526    80  c     9    40     -9    40    2 0.0"/>
  <path d="M   528    80  c     9   -40     -9   -40    2 0.0"/>
  <path d="M   530    80  c     9    40     -9    40    2 0.0"/>
  <path d="M   532    80  c     9   -40     -9   -40    2 0.0"/>
  <path d="M   534    80  c     9    40     -9    40    2 0.0"/>
</g>
</svg>