<svg width="612" height="792" 
     viewBox="0 0 612 792" 
     xmlns="http://www.w3.org/2000/svg">
  <rect width="612" height="792" fill="white"/>
<polygon points="50.0,36 29.0,43.0 36.0,64 64.0,64 71.0,43.0" fill="none" stroke-width="0.3"  stroke="#dd0000" />
<polygon points="50.0,120 29.0,127.0 36.0,148 64.0,148 71.0,127.0" fill="none" stroke-width="0.3"  stroke="#dd0000" />
<polygon points="50.0,204 29.0,211.0 36.0,232 64.0,232 71.0,211.0" fill="none" stroke-width="0.3"  stroke="#dd0000" />
<polygon points="50.0,288 29.0,295.0 36.0,316 64.0,316 71.0,295.0" fill="none" stroke-width="0.3"  stroke="#dd0000" />
<polygon points="50.0,372 29.0,379.0 36.0,400 64.0,400 71.0,379.0" fill="none" stroke-width="0.3"  stroke="#dd0000" />
<polygon points="50.0,456 29.0,463.0 36.0,484 64.0,484 71.0,463.0" fill="none" stroke-width="0.3"  stroke="#dd0000" />
<polygon points="50.0,540 29.0,547.0 36.0,568 64.0,568 71.0,547.0" fill="none" stroke-width="0.3"  stroke="#dd0000" />
<polygon points="50.0,624 29.0,631.0 36.0,652 64.0,652 71.0,631.0" fill="none" stroke-width="0.3"  stroke="#dd0000" />
<polygon points="50.0,708 29.0,715.0 36.0,736 64.0,736 71.0,715.0" fill="none" stroke-width="0.3"  stroke="#dd0000" />
<polygon points="92.0,78.0 71.0,85.0 78.0,106.0 106.0,106.0 113.0,85.0" fill="none" stroke-width="0.3"  stroke="#dd0000" />
<polygon points="92.0,162.0 71.0,169.0 78.0,190.0 106.0,190.0 113.0,169.0" fill="none" stroke-width="0.3"  stroke="#dd0000" />
<polygon points="92.0,246.0 71.0,253.0 78.0,274.0 106.0,274.0 113.0,253.0" fill="none" stroke-width="0.3"  stroke="#dd0000" />
<polygon points="92.0,330.0 71.0,337.0 78.0,358.0 106.0,358.0 113.0,337.0" fill="none" stroke-width="0.3"  stroke="#dd0000" />
<polygon points="92.0,414.0 71.0,421.0 78.0,442.0 106.0,442.0 113.0,421.0" fill="none" stroke-width="0.3"  stroke="#dd0000" />
<polygon points="92.0,498.0 71.0,505.0 78.0,526.0 106.0,526.0 113.0,505.0" fill="none" stroke-width="0.3"  stroke="#dd0000" />
<polygon points="92.0,582.0 71.0,589.0 78.0,610.0 106.0,610.0 113.0,589.0" fill="none" stroke-width="0.3"  stroke="#dd0000" />
<polygon points="92.0,666.0 71.0,673.0 78.0,694.0 106.0,694.0 113.0,673.0" fill="none" stroke-width="0.3"  stroke="#dd0000" />
<polygon points="134.0,36 113.0,43.0 120.0,64 148.0,64 155.0,43.0" fill="none" stroke-width="0.3"  stroke="#dd0000" />
<polygon points="134.0,120 113.0,127.0 120.0,148 148.0,148 155.0,127.0" fill="none" stroke-width="0.3"  stroke="#dd0000" />
<polygon points="134.0,204 113.0,211.0 120.0,232 148.0,232 155.0,211.0" fill="none" stroke-width="0.3"  stroke="#dd0000" />
<polygon points="134.0,288 113.0,295.0 120.0,316 148.0,316 155.0,295.0" fill="none" stroke-width="0.3"  stroke="#dd0000" />
<polygon points="134.0,372 113.0,379.0 120.0,400 148.0,400 155.0,379.0" fill="none" stroke-width="0.3"  stroke="#dd0000" />
<polygon points="134.0,456 113.0,463.0 120.0,484 148.0,484 155.0,463.0" fill="none" stroke-width="0.3"  stroke="#dd0000" />
<polygon points="134.0,540 113.0,547.0 120.0,568 148.0,568 155.0,547.0" fill="none" stroke-width="0.3"  stroke="#dd0000" />
<polygon points="134.0,624 113.0,631.0 120.0,652 148.0,652 155.0,631.0" fill="none" stroke-width="0.3"  stroke="#dd0000" />
<polygon points="134.0,708 113.0,715.0 120.0,736 148.0,736 155.0,715.0" fill="none" stroke-width="0.3"  stroke="#dd0000" />
<polygon points="176.0,78.0 155.0,85.0 162.0,106.0 190.0,106.0 197.0,85.0" fill="none" stroke-width="0.3"  stroke="#dd0000" />
<polygon points="176.0,162.0 155.0,169.0 162.0,190.0 190.0,190.0 197.0,169.0" fill="none" stroke-width="0.3"  stroke="#dd0000" />
<polygon points="176.0,246.0 155.0,253.0 162.0,274.0 190.0,274.0 197.0,253.0" fill="none" stroke-width="0.3"  stroke="#dd0000" />
<polygon points="176.0,330.0 155.0,337.0 162.0,358.0 190.0,358.0 197.0,337.0" fill="none" stroke-width="0.3"  stroke="#dd0000" />
<polygon points="176.0,414.0 155.0,421.0 162.0,442.0 190.0,442.0 197.0,421.0" fill="none" stroke-width="0.3"  stroke="#dd0000" />
<polygon points="176.0,498.0 155.0,505.0 162.0,526.0 190.0,526.0 197.0,505.0" fill="none" stroke-width="0.3"  stroke="#dd0000" />
<polygon points="176.0,582.0 155.0,589.0 162.0,610.0 190.0,610.0 197.0,589.0" fill="none" stroke-width="0.3"  stroke="#dd0000" />
<polygon points="176.0,666.0 155.0,673.0 162.0,694.0 190.0,694.0 197.0,673.0" fill="none" stroke-width="0.3"  stroke="#dd0000" />
<polygon points="218.0,36 197.0,43.0 204.0,64 232.0,64 239.0,43.0" fill="none" stroke-width="0.3"  stroke="#dd0000" />
<polygon points="218.0,120 197.0,127.0 204.0,148 232.0,148 239.0,127.0" fill="none" stroke-width="0.3"  stroke="#dd0000" />
<polygon points="218.0,204 197.0,211.0 204.0,232 232.0,232 239.0,211.0" fill="none" stroke-width="0.3"  stroke="#dd0000" />
<polygon points="218.0,288 197.0,295.0 204.0,316 232.0,316 239.0,295.0" fill="none" stroke-width="0.3"  stroke="#dd0000" />
<polygon points="218.0,372 197.0,379.0 204.0,400 232.0,400 239.0,379.0" fill="none" stroke-width="0.3"  stroke="#dd0000" />
<polygon points="218.0,456 197.0,463.0 204.0,484 232.0,484 239.0,463.0" fill="none" stroke-width="0.3"  stroke="#dd0000" />
<polygon points="218.0,540 197.0,547.0 204.0,568 232.0,568 239.0,547.0" fill="none" stroke-width="0.3"  stroke="#dd0000" />
<polygon points="218.0,624 197.0,631.0 204.0,652 232.0,652 239.0,631.0" fill="none" stroke-width="0.3"  stroke="#dd0000" />
<polygon points="218.0,708 197.0,715.0 204.0,736 232.0,736 239.0,715.0" fill="none" stroke-width="0.3"  stroke="#dd0000" />
<polygon points="260.0,78.0 239.0,85.0 246.0,106.0 274.0,106.0 281.0,85.0" fill="none" stroke-width="0.3"  stroke="#dd0000" />
<polygon points="260.0,162.0 239.0,169.0 246.0,190.0 274.0,190.0 281.0,169.0" fill="none" stroke-width="0.3"  stroke="#dd0000" />
<polygon points="260.0,246.0 239.0,253.0 246.0,274.0 274.0,274.0 281.0,253.0" fill="none" stroke-width="0.3"  stroke="#dd0000" />
<polygon points="260.0,330.0 239.0,337.0 246.0,358.0 274.0,358.0 281.0,337.0" fill="none" stroke-width="0.3"  stroke="#dd0000" />
<polygon points="260.0,414.0 239.0,421.0 246.0,442.0 274.0,442.0 281.0,421.0" fill="none" stroke-width="0.3"  stroke="#dd0000" />
<polygon points="260.0,498.0 239.0,505.0 246.0,526.0 274.0,526.0 281.0,505.0" fill="none" stroke-width="0.3"  stroke="#dd0000" />
<polygon points="260.0,582.0 239.0,589.0 246.0,610.0 274.0,610.0 281.0,589.0" fill="none" stroke-width="0.3"  stroke="#dd0000" />
<polygon points="260.0,666.0 239.0,673.0 246.0,694.0 274.0,694.0 281.0,673.0" fill="none" stroke-width="0.3"  stroke="#dd0000" />
<polygon points="302.0,36 281.0,43.0 288.0,64 316.0,64 323.0,43.0" fill="none" stroke-width="0.3"  stroke="#dd0000" />
<polygon points="302.0,120 281.0,127.0 288.0,148 316.0,148 323.0,127.0" fill="none" stroke-width="0.3"  stroke="#dd0000" />
<polygon points="302.0,204 281.0,211.0 288.0,232 316.0,232 323.0,211.0" fill="none" stroke-width="0.3"  stroke="#dd0000" />
<polygon points="302.0,288 281.0,295.0 288.0,316 316.0,316 323.0,295.0" fill="none" stroke-width="0.3"  stroke="#dd0000" />
<polygon points="302.0,372 281.0,379.0 288.0,400 316.0,400 323.0,379.0" fill="none" stroke-width="0.3"  stroke="#dd0000" />
<polygon points="302.0,456 281.0,463.0 288.0,484 316.0,484 323.0,463.0" fill="none" stroke-width="0.3"  stroke="#dd0000" />
<polygon points="302.0,540 281.0,547.0 288.0,568 316.0,568 323.0,547.0" fill="none" stroke-width="0.3"  stroke="#dd0000" />
<polygon points="302.0,624 281.0,631.0 288.0,652 316.0,652 323.0,631.0" fill="none" stroke-width="0.3"  stroke="#dd0000" />
<polygon points="302.0,708 281.0,715.0 288.0,736 316.0,736 323.0,715.0" fill="none" stroke-width="0.3"  stroke="#dd0000" />
<polygon points="344.0,78.0 323.0,85.0 330.0,106.0 358.0,106.0 365.0,85.0" fill="none" stroke-width="0.3"  stroke="#dd0000" />
<polygon points="344.0,162.0 323.0,169.0 330.0,190.0 358.0,190.0 365.0,169.0" fill="none" stroke-width="0.3"  stroke="#dd0000" />
<polygon points="344.0,246.0 323.0,253.0 330.0,274.0 358.0,274.0 365.0,253.0" fill="none" stroke-width="0.3"  stroke="#dd0000" />
<polygon points="344.0,330.0 323.0,337.0 330.0,358.0 358.0,358.0 365.0,337.0" fill="none" stroke-width="0.3"  stroke="#dd0000" />
<polygon points="344.0,414.0 323.0,421.0 330.0,442.0 358.0,442.0 365.0,421.0" fill="none" stroke-width="0.3"  stroke="#dd0000" />
<polygon points="344.0,498.0 323.0,505.0 330.0,526.0 358.0,526.0 365.0,505.0" fill="none" stroke-width="0.3"  stroke="#dd0000" />
<polygon points="344.0,582.0 323.0,589.0 330.0,610.0 358.0,610.0 365.0,589.0" fill="none" stroke-width="0.3"  stroke="#dd0000" />
<polygon points="344.0,666.0 323.0,673.0 330.0,694.0 358.0,694.0 365.0,673.0" fill="none" stroke-width="0.3"  stroke="#dd0000" />
<polygon points="386.0,36 365.0,43.0 372.0,64 400.0,64 407.0,43.0" fill="none" stroke-width="0.3"  stroke="#dd0000" />
<polygon points="386.0,120 365.0,127.0 372.0,148 400.0,148 407.0,127.0" fill="none" stroke-width="0.3"  stroke="#dd0000" />
<polygon points="386.0,204 365.0,211.0 372.0,232 400.0,232 407.0,211.0" fill="none" stroke-width="0.3"  stroke="#dd0000" />
<polygon points="386.0,288 365.0,295.0 372.0,316 400.0,316 407.0,295.0" fill="none" stroke-width="0.3"  stroke="#dd0000" />
<polygon points="386.0,372 365.0,379.0 372.0,400 400.0,400 407.0,379.0" fill="none" stroke-width="0.3"  stroke="#dd0000" />
<polygon points="386.0,456 365.0,463.0 372.0,484 400.0,484 407.0,463.0" fill="none" stroke-width="0.3"  stroke="#dd0000" />
<polygon points="386.0,540 365.0,547.0 372.0,568 400.0,568 407.0,547.0" fill="none" stroke-width="0.3"  stroke="#dd0000" />
<polygon points="386.0,624 365.0,631.0 372.0,652 400.0,652 407.0,631.0" fill="none" stroke-width="0.3"  stroke="#dd0000" />
<polygon points="386.0,708 365.0,715.0 372.0,736 400.0,736 407.0,715.0" fill="none" stroke-width="0.3"  stroke="#dd0000" />
<polygon points="428.0,78.0 407.0,85.0 414.0,106.0 442.0,106.0 449.0,85.0" fill="none" stroke-width="0.3"  stroke="#dd0000" />
<polygon points="428.0,162.0 407.0,169.0 414.0,190.0 442.0,190.0 449.0,169.0" fill="none" stroke-width="0.3"  stroke="#dd0000" />
<polygon points="428.0,246.0 407.0,253.0 414.0,274.0 442.0,274.0 449.0,253.0" fill="none" stroke-width="0.3"  stroke="#dd0000" />
<polygon points="428.0,330.0 407.0,337.0 414.0,358.0 442.0,358.0 449.0,337.0" fill="none" stroke-width="0.3"  stroke="#dd0000" />
<polygon points="428.0,414.0 407.0,421.0 414.0,442.0 442.0,442.0 449.0,421.0" fill="none" stroke-width="0.3"  stroke="#dd0000" />
<polygon points="428.0,498.0 407.0,505.0 414.0,526.0 442.0,526.0 449.0,505.0" fill="none" stroke-width="0.3"  stroke="#dd0000" />
<polygon points="428.0,582.0 407.0,589.0 414.0,610.0 442.0,610.0 449.0,589.0" fill="none" stroke-width="0.3"  stroke="#dd0000" />
<polygon points="428.0,666.0 407.0,673.0 414.0,694.0 442.0,694.0 449.0,673.0" fill="none" stroke-width="0.3"  stroke="#dd0000" />
<polygon points="470.0,36 449.0,43.0 456.0,64 484.0,64 491.0,43.0" fill="none" stroke-width="0.3"  stroke="#dd0000" />
<polygon points="470.0,120 449.0,127.0 456.0,148 484.0,148 491.0,127.0" fill="none" stroke-width="0.3"  stroke="#dd0000" />
<polygon points="470.0,204 449.0,211.0 456.0,232 484.0,232 491.0,211.0" fill="none" stroke-width="0.3"  stroke="#dd0000" />
<polygon points="470.0,288 449.0,295.0 456.0,316 484.0,316 491.0,295.0" fill="none" stroke-width="0.3"  stroke="#dd0000" />
<polygon points="470.0,372 449.0,379.0 456.0,400 484.0,400 491.0,379.0" fill="none" stroke-width="0.3"  stroke="#dd0000" />
<polygon points="470.0,456 449.0,463.0 456.0,484 484.0,484 491.0,463.0" fill="none" stroke-width="0.3"  stroke="#dd0000" />
<polygon points="470.0,540 449.0,547.0 456.0,568 484.0,568 491.0,547.0" fill="none" stroke-width="0.3"  stroke="#dd0000" />
<polygon points="470.0,624 449.0,631.0 456.0,652 484.0,652 491.0,631.0" fill="none" stroke-width="0.3"  stroke="#dd0000" />
<polygon points="470.0,708 449.0,715.0 456.0,736 484.0,736 491.0,715.0" fill="none" stroke-width="0.3"  stroke="#dd0000" />
<polygon points="512.0,78.0 491.0,85.0 498.0,106.0 526.0,106.0 533.0,85.0" fill="none" stroke-width="0.3"  stroke="#dd0000" />
<polygon points="512.0,162.0 491.0,169.0 498.0,190.0 526.0,190.0 533.0,169.0" fill="none" stroke-width="0.3"  stroke="#dd0000" />
<polygon points="512.0,246.0 491.0,253.0 498.0,274.0 526.0,274.0 533.0,253.0" fill="none" stroke-width="0.3"  stroke="#dd0000" />
<polygon points="512.0,330.0 491.0,337.0 498.0,358.0 526.0,358.0 533.0,337.0" fill="none" stroke-width="0.3"  stroke="#dd0000" />
<polygon points="512.0,414.0 491.0,421.0 498.0,442.0 526.0,442.0 533.0,421.0" fill="none" stroke-width="0.3"  stroke="#dd0000" />
<polygon points="512.0,498.0 491.0,505.0 498.0,526.0 526.0,526.0 533.0,505.0" fill="none" stroke-width="0.3"  stroke="#dd0000" />
<polygon points="512.0,582.0 491.0,589.0 498.0,610.0 526.0,610.0 533.0,589.0" fill="none" stroke-width="0.3"  stroke="#dd0000" />
<polygon points="512.0,666.0 491.0,673.0 498.0,694.0 526.0,694.0 533.0,673.0" fill="none" stroke-width="0.3"  stroke="#dd0000" />
<polygon points="554.0,36 533.0,43.0 540.0,64 568.0,64 575.0,43.0" fill="none" stroke-width="0.3"  stroke="#dd0000" />
<polygon points="554.0,120 533.0,127.0 540.0,148 568.0,148 575.0,127.0" fill="none" stroke-width="0.3"  stroke="#dd0000" />
<polygon points="554.0,204 533.0,211.0 540.0,232 568.0,232 575.0,211.0" fill="none" stroke-width="0.3"  stroke="#dd0000" />
<polygon points="554.0,288 533.0,295.0 540.0,316 568.0,316 575.0,295.0" fill="none" stroke-width="0.3"  stroke="#dd0000" />
<polygon points="554.0,372 533.0,379.0 540.0,400 568.0,400 575.0,379.0" fill="none" stroke-width="0.3"  stroke="#dd0000" />
<polygon points="554.0,456 533.0,463.0 540.0,484 568.0,484 575.0,463.0" fill="none" stroke-width="0.3"  stroke="#dd0000" />
<polygon points="554.0,540 533.0,547.0 540.0,568 568.0,568 575.0,547.0" fill="none" stroke-width="0.3"  stroke="#dd0000" />
<polygon points="554.0,624 533.0,631.0 540.0,652 568.0,652 575.0,631.0" fill="none" stroke-width="0.3"  stroke="#dd0000" />
<polygon points="554.0,708 533.0,715.0 540.0,736 568.0,736 575.0,715.0" fill="none" stroke-width="0.3"  stroke="#dd0000" />
<polygon points="50.0,92.0 71.0,85.0 64.0,64.0 36.0,64.0 29.0,85.0" fill="none" stroke-width="0.3"  stroke="#00dd00" />
<polygon points="50.0,176.0 71.0,169.0 64.0,148.0 36.0,148.0 29.0,169.0" fill="none" stroke-width="0.3"  stroke="#00dd00" />
<polygon points="50.0,260.0 71.0,253.0 64.0,232.0 36.0,232.0 29.0,253.0" fill="none" stroke-width="0.3"  stroke="#00dd00" />
<polygon points="50.0,344.0 71.0,337.0 64.0,316.0 36.0,316.0 29.0,337.0" fill="none" stroke-width="0.3"  stroke="#00dd00" />
<polygon points="50.0,428.0 71.0,421.0 64.0,400.0 36.0,400.0 29.0,421.0" fill="none" stroke-width="0.3"  stroke="#00dd00" />
<polygon points="50.0,512.0 71.0,505.0 64.0,484.0 36.0,484.0 29.0,505.0" fill="none" stroke-width="0.3"  stroke="#00dd00" />
<polygon points="50.0,596.0 71.0,589.0 64.0,568.0 36.0,568.0 29.0,589.0" fill="none" stroke-width="0.3"  stroke="#00dd00" />
<polygon points="50.0,680.0 71.0,673.0 64.0,652.0 36.0,652.0 29.0,673.0" fill="none" stroke-width="0.3"  stroke="#00dd00" />
<polygon points="92.0,134.0 113.0,127.0 106.0,106.0 78.0,106.0 71.0,127.0" fill="none" stroke-width="0.3"  stroke="#00dd00" />
<polygon points="92.0,218.0 113.0,211.0 106.0,190.0 78.0,190.0 71.0,211.0" fill="none" stroke-width="0.3"  stroke="#00dd00" />
<polygon points="92.0,302.0 113.0,295.0 106.0,274.0 78.0,274.0 71.0,295.0" fill="none" stroke-width="0.3"  stroke="#00dd00" />
<polygon points="92.0,386.0 113.0,379.0 106.0,358.0 78.0,358.0 71.0,379.0" fill="none" stroke-width="0.3"  stroke="#00dd00" />
<polygon points="92.0,470.0 113.0,463.0 106.0,442.0 78.0,442.0 71.0,463.0" fill="none" stroke-width="0.3"  stroke="#00dd00" />
<polygon points="92.0,554.0 113.0,547.0 106.0,526.0 78.0,526.0 71.0,547.0" fill="none" stroke-width="0.3"  stroke="#00dd00" />
<polygon points="92.0,638.0 113.0,631.0 106.0,610.0 78.0,610.0 71.0,631.0" fill="none" stroke-width="0.3"  stroke="#00dd00" />
<polygon points="92.0,722.0 113.0,715.0 106.0,694.0 78.0,694.0 71.0,715.0" fill="none" stroke-width="0.3"  stroke="#00dd00" />
<polygon points="134.0,92.0 155.0,85.0 148.0,64.0 120.0,64.0 113.0,85.0" fill="none" stroke-width="0.3"  stroke="#00dd00" />
<polygon points="134.0,176.0 155.0,169.0 148.0,148.0 120.0,148.0 113.0,169.0" fill="none" stroke-width="0.3"  stroke="#00dd00" />
<polygon points="134.0,260.0 155.0,253.0 148.0,232.0 120.0,232.0 113.0,253.0" fill="none" stroke-width="0.3"  stroke="#00dd00" />
<polygon points="134.0,344.0 155.0,337.0 148.0,316.0 120.0,316.0 113.0,337.0" fill="none" stroke-width="0.3"  stroke="#00dd00" />
<polygon points="134.0,428.0 155.0,421.0 148.0,400.0 120.0,400.0 113.0,421.0" fill="none" stroke-width="0.3"  stroke="#00dd00" />
<polygon points="134.0,512.0 155.0,505.0 148.0,484.0 120.0,484.0 113.0,505.0" fill="none" stroke-width="0.3"  stroke="#00dd00" />
<polygon points="134.0,596.0 155.0,589.0 148.0,568.0 120.0,568.0 113.0,589.0" fill="none" stroke-width="0.3"  stroke="#00dd00" />
<polygon points="134.0,680.0 155.0,673.0 148.0,652.0 120.0,652.0 113.0,673.0" fill="none" stroke-width="0.3"  stroke="#00dd00" />
<polygon points="176.0,134.0 197.0,127.0 190.0,106.0 162.0,106.0 155.0,127.0" fill="none" stroke-width="0.3"  stroke="#00dd00" />
<polygon points="176.0,218.0 197.0,211.0 190.0,190.0 162.0,190.0 155.0,211.0" fill="none" stroke-width="0.3"  stroke="#00dd00" />
<polygon points="176.0,302.0 197.0,295.0 190.0,274.0 162.0,274.0 155.0,295.0" fill="none" stroke-width="0.3"  stroke="#00dd00" />
<polygon points="176.0,386.0 197.0,379.0 190.0,358.0 162.0,358.0 155.0,379.0" fill="none" stroke-width="0.3"  stroke="#00dd00" />
<polygon points="176.0,470.0 197.0,463.0 190.0,442.0 162.0,442.0 155.0,463.0" fill="none" stroke-width="0.3"  stroke="#00dd00" />
<polygon points="176.0,554.0 197.0,547.0 190.0,526.0 162.0,526.0 155.0,547.0" fill="none" stroke-width="0.3"  stroke="#00dd00" />
<polygon points="176.0,638.0 197.0,631.0 190.0,610.0 162.0,610.0 155.0,631.0" fill="none" stroke-width="0.3"  stroke="#00dd00" />
<polygon points="176.0,722.0 197.0,715.0 190.0,694.0 162.0,694.0 155.0,715.0" fill="none" stroke-width="0.3"  stroke="#00dd00" />
<polygon points="218.0,92.0 239.0,85.0 232.0,64.0 204.0,64.0 197.0,85.0" fill="none" stroke-width="0.3"  stroke="#00dd00" />
<polygon points="218.0,176.0 239.0,169.0 232.0,148.0 204.0,148.0 197.0,169.0" fill="none" stroke-width="0.3"  stroke="#00dd00" />
<polygon points="218.0,260.0 239.0,253.0 232.0,232.0 204.0,232.0 197.0,253.0" fill="none" stroke-width="0.3"  stroke="#00dd00" />
<polygon points="218.0,344.0 239.0,337.0 232.0,316.0 204.0,316.0 197.0,337.0" fill="none" stroke-width="0.3"  stroke="#00dd00" />
<polygon points="218.0,428.0 239.0,421.0 232.0,400.0 204.0,400.0 197.0,421.0" fill="none" stroke-width="0.3"  stroke="#00dd00" />
<polygon points="218.0,512.0 239.0,505.0 232.0,484.0 204.0,484.0 197.0,505.0" fill="none" stroke-width="0.3"  stroke="#00dd00" />
<polygon points="218.0,596.0 239.0,589.0 232.0,568.0 204.0,568.0 197.0,589.0" fill="none" stroke-width="0.3"  stroke="#00dd00" />
<polygon points="218.0,680.0 239.0,673.0 232.0,652.0 204.0,652.0 197.0,673.0" fill="none" stroke-width="0.3"  stroke="#00dd00" />
<polygon points="260.0,134.0 281.0,127.0 274.0,106.0 246.0,106.0 239.0,127.0" fill="none" stroke-width="0.3"  stroke="#00dd00" />
<polygon points="260.0,218.0 281.0,211.0 274.0,190.0 246.0,190.0 239.0,211.0" fill="none" stroke-width="0.3"  stroke="#00dd00" />
<polygon points="260.0,302.0 281.0,295.0 274.0,274.0 246.0,274.0 239.0,295.0" fill="none" stroke-width="0.3"  stroke="#00dd00" />
<polygon points="260.0,386.0 281.0,379.0 274.0,358.0 246.0,358.0 239.0,379.0" fill="none" stroke-width="0.3"  stroke="#00dd00" />
<polygon points="260.0,470.0 281.0,463.0 274.0,442.0 246.0,442.0 239.0,463.0" fill="none" stroke-width="0.3"  stroke="#00dd00" />
<polygon points="260.0,554.0 281.0,547.0 274.0,526.0 246.0,526.0 239.0,547.0" fill="none" stroke-width="0.3"  stroke="#00dd00" />
<polygon points="260.0,638.0 281.0,631.0 274.0,610.0 246.0,610.0 239.0,631.0" fill="none" stroke-width="0.3"  stroke="#00dd00" />
<polygon points="260.0,722.0 281.0,715.0 274.0,694.0 246.0,694.0 239.0,715.0" fill="none" stroke-width="0.3"  stroke="#00dd00" />
<polygon points="302.0,92.0 323.0,85.0 316.0,64.0 288.0,64.0 281.0,85.0" fill="none" stroke-width="0.3"  stroke="#00dd00" />
<polygon points="302.0,176.0 323.0,169.0 316.0,148.0 288.0,148.0 281.0,169.0" fill="none" stroke-width="0.3"  stroke="#00dd00" />
<polygon points="302.0,260.0 323.0,253.0 316.0,232.0 288.0,232.0 281.0,253.0" fill="none" stroke-width="0.3"  stroke="#00dd00" />
<polygon points="302.0,344.0 323.0,337.0 316.0,316.0 288.0,316.0 281.0,337.0" fill="none" stroke-width="0.3"  stroke="#00dd00" />
<polygon points="302.0,428.0 323.0,421.0 316.0,400.0 288.0,400.0 281.0,421.0" fill="none" stroke-width="0.3"  stroke="#00dd00" />
<polygon points="302.0,512.0 323.0,505.0 316.0,484.0 288.0,484.0 281.0,505.0" fill="none" stroke-width="0.3"  stroke="#00dd00" />
<polygon points="302.0,596.0 323.0,589.0 316.0,568.0 288.0,568.0 281.0,589.0" fill="none" stroke-width="0.3"  stroke="#00dd00" />
<polygon points="302.0,680.0 323.0,673.0 316.0,652.0 288.0,652.0 281.0,673.0" fill="none" stroke-width="0.3"  stroke="#00dd00" />
<polygon points="344.0,134.0 365.0,127.0 358.0,106.0 330.0,106.0 323.0,127.0" fill="none" stroke-width="0.3"  stroke="#00dd00" />
<polygon points="344.0,218.0 365.0,211.0 358.0,190.0 330.0,190.0 323.0,211.0" fill="none" stroke-width="0.3"  stroke="#00dd00" />
<polygon points="344.0,302.0 365.0,295.0 358.0,274.0 330.0,274.0 323.0,295.0" fill="none" stroke-width="0.3"  stroke="#00dd00" />
<polygon points="344.0,386.0 365.0,379.0 358.0,358.0 330.0,358.0 323.0,379.0" fill="none" stroke-width="0.3"  stroke="#00dd00" />
<polygon points="344.0,470.0 365.0,463.0 358.0,442.0 330.0,442.0 323.0,463.0" fill="none" stroke-width="0.3"  stroke="#00dd00" />
<polygon points="344.0,554.0 365.0,547.0 358.0,526.0 330.0,526.0 323.0,547.0" fill="none" stroke-width="0.3"  stroke="#00dd00" />
<polygon points="344.0,638.0 365.0,631.0 358.0,610.0 330.0,610.0 323.0,631.0" fill="none" stroke-width="0.3"  stroke="#00dd00" />
<polygon points="344.0,722.0 365.0,715.0 358.0,694.0 330.0,694.0 323.0,715.0" fill="none" stroke-width="0.3"  stroke="#00dd00" />
<polygon points="386.0,92.0 407.0,85.0 400.0,64.0 372.0,64.0 365.0,85.0" fill="none" stroke-width="0.3"  stroke="#00dd00" />
<polygon points="386.0,176.0 407.0,169.0 400.0,148.0 372.0,148.0 365.0,169.0" fill="none" stroke-width="0.3"  stroke="#00dd00" />
<polygon points="386.0,260.0 407.0,253.0 400.0,232.0 372.0,232.0 365.0,253.0" fill="none" stroke-width="0.3"  stroke="#00dd00" />
<polygon points="386.0,344.0 407.0,337.0 400.0,316.0 372.0,316.0 365.0,337.0" fill="none" stroke-width="0.3"  stroke="#00dd00" />
<polygon points="386.0,428.0 407.0,421.0 400.0,400.0 372.0,400.0 365.0,421.0" fill="none" stroke-width="0.3"  stroke="#00dd00" />
<polygon points="386.0,512.0 407.0,505.0 400.0,484.0 372.0,484.0 365.0,505.0" fill="none" stroke-width="0.3"  stroke="#00dd00" />
<polygon points="386.0,596.0 407.0,589.0 400.0,568.0 372.0,568.0 365.0,589.0" fill="none" stroke-width="0.3"  stroke="#00dd00" />
<polygon points="386.0,680.0 407.0,673.0 400.0,652.0 372.0,652.0 365.0,673.0" fill="none" stroke-width="0.3"  stroke="#00dd00" />
<polygon points="428.0,134.0 449.0,127.0 442.0,106.0 414.0,106.0 407.0,127.0" fill="none" stroke-width="0.3"  stroke="#00dd00" />
<polygon points="428.0,218.0 449.0,211.0 442.0,190.0 414.0,190.0 407.0,211.0" fill="none" stroke-width="0.3"  stroke="#00dd00" />
<polygon points="428.0,302.0 449.0,295.0 442.0,274.0 414.0,274.0 407.0,295.0" fill="none" stroke-width="0.3"  stroke="#00dd00" />
<polygon points="428.0,386.0 449.0,379.0 442.0,358.0 414.0,358.0 407.0,379.0" fill="none" stroke-width="0.3"  stroke="#00dd00" />
<polygon points="428.0,470.0 449.0,463.0 442.0,442.0 414.0,442.0 407.0,463.0" fill="none" stroke-width="0.3"  stroke="#00dd00" />
<polygon points="428.0,554.0 449.0,547.0 442.0,526.0 414.0,526.0 407.0,547.0" fill="none" stroke-width="0.3"  stroke="#00dd00" />
<polygon points="428.0,638.0 449.0,631.0 442.0,610.0 414.0,610.0 407.0,631.0" fill="none" stroke-width="0.3"  stroke="#00dd00" />
<polygon points="428.0,722.0 449.0,715.0 442.0,694.0 414.0,694.0 407.0,715.0" fill="none" stroke-width="0.3"  stroke="#00dd00" />
<polygon points="470.0,92.0 491.0,85.0 484.0,64.0 456.0,64.0 449.0,85.0" fill="none" stroke-width="0.3"  stroke="#00dd00" />
<polygon points="470.0,176.0 491.0,169.0 484.0,148.0 456.0,148.0 449.0,169.0" fill="none" stroke-width="0.3"  stroke="#00dd00" />
<polygon points="470.0,260.0 491.0,253.0 484.0,232.0 456.0,232.0 449.0,253.0" fill="none" stroke-width="0.3"  stroke="#00dd00" />
<polygon points="470.0,344.0 491.0,337.0 484.0,316.0 456.0,316.0 449.0,337.0" fill="none" stroke-width="0.3"  stroke="#00dd00" />
<polygon points="470.0,428.0 491.0,421.0 484.0,400.0 456.0,400.0 449.0,421.0" fill="none" stroke-width="0.3"  stroke="#00dd00" />
<polygon points="470.0,512.0 491.0,505.0 484.0,484.0 456.0,484.0 449.0,505.0" fill="none" stroke-width="0.3"  stroke="#00dd00" />
<polygon points="470.0,596.0 491.0,589.0 484.0,568.0 456.0,568.0 449.0,589.0" fill="none" stroke-width="0.3"  stroke="#00dd00" />
<polygon points="470.0,680.0 491.0,673.0 484.0,652.0 456.0,652.0 449.0,673.0" fill="none" stroke-width="0.3"  stroke="#00dd00" />
<polygon points="512.0,134.0 533.0,127.0 526.0,106.0 498.0,106.0 491.0,127.0" fill="none" stroke-width="0.3"  stroke="#00dd00" />
<polygon points="512.0,218.0 533.0,211.0 526.0,190.0 498.0,190.0 491.0,211.0" fill="none" stroke-width="0.3"  stroke="#00dd00" />
<polygon points="512.0,302.0 533.0,295.0 526.0,274.0 498.0,274.0 491.0,295.0" fill="none" stroke-width="0.3"  stroke="#00dd00" />
<polygon points="512.0,386.0 533.0,379.0 526.0,358.0 498.0,358.0 491.0,379.0" fill="none" stroke-width="0.3"  stroke="#00dd00" />
<polygon points="512.0,470.0 533.0,463.0 526.0,442.0 498.0,442.0 491.0,463.0" fill="none" stroke-width="0.3"  stroke="#00dd00" />
<polygon points="512.0,554.0 533.0,547.0 526.0,526.0 498.0,526.0 491.0,547.0" fill="none" stroke-width="0.3"  stroke="#00dd00" />
<polygon points="512.0,638.0 533.0,631.0 526.0,610.0 498.0,610.0 491.0,631.0" fill="none" stroke-width="0.3"  stroke="#00dd00" />
<polygon points="512.0,722.0 533.0,715.0 526.0,694.0 498.0,694.0 491.0,715.0" fill="none" stroke-width="0.3"  stroke="#00dd00" />
<polygon points="554.0,92.0 575.0,85.0 568.0,64.0 540.0,64.0 533.0,85.0" fill="none" stroke-width="0.3"  stroke="#00dd00" />
<polygon points="554.0,176.0 575.0,169.0 568.0,148.0 540.0,148.0 533.0,169.0" fill="none" stroke-width="0.3"  stroke="#00dd00" />
<polygon points="554.0,260.0 575.0,253.0 568.0,232.0 540.0,232.0 533.0,253.0" fill="none" stroke-width="0.3"  stroke="#00dd00" />
<polygon points="554.0,344.0 575.0,337.0 568.0,316.0 540.0,316.0 533.0,337.0" fill="none" stroke-width="0.3"  stroke="#00dd00" />
<polygon points="554.0,428.0 575.0,421.0 568.0,400.0 540.0,400.0 533.0,421.0" fill="none" stroke-width="0.3"  stroke="#00dd00" />
<polygon points="554.0,512.0 575.0,505.0 568.0,484.0 540.0,484.0 533.0,505.0" fill="none" stroke-width="0.3"  stroke="#00dd00" />
<polygon points="554.0,596.0 575.0,589.0 568.0,568.0 540.0,568.0 533.0,589.0" fill="none" stroke-width="0.3"  stroke="#00dd00" />
<polygon points="554.0,680.0 575.0,673.0 568.0,652.0 540.0,652.0 533.0,673.0" fill="none" stroke-width="0.3"  stroke="#00dd00" />
<polygon points="64.0,64 71.0,85.0 92.0,78.0 92.0,50.0 71.0,43.0" fill="none" stroke-width="0.3"  stroke="#0000dd" />
<polygon points="148.0,64 155.0,85.0 176.0,78.0 176.0,50.0 155.0,43.0" fill="none" stroke-width="0.3"  stroke="#0000dd" />
<polygon points="232.0,64 239.0,85.0 260.0,78.0 260.0,50.0 239.0,43.0" fill="none" stroke-width="0.3"  stroke="#0000dd" />
<polygon points="316.0,64 323.0,85.0 344.0,78.0 344.0,50.0 323.0,43.0" fill="none" stroke-width="0.3"  stroke="#0000dd" />
<polygon points="400.0,64 407.0,85.0 428.0,78.0 428.0,50.0 407.0,43.0" fill="none" stroke-width="0.3"  stroke="#0000dd" />
<polygon points="484.0,64 491.0,85.0 512.0,78.0 512.0,50.0 491.0,43.0" fill="none" stroke-width="0.3"  stroke="#0000dd" />
<polygon points="106.0,106.0 113.0,127.0 134.0,120.0 134.0,92.0 113.0,85.0" fill="none" stroke-width="0.3"  stroke="#0000dd" />
<polygon points="190.0,106.0 197.0,127.0 218.0,120.0 218.0,92.0 197.0,85.0" fill="none" stroke-width="0.3"  stroke="#0000dd" />
<polygon points="274.0,106.0 281.0,127.0 302.0,120.0 302.0,92.0 281.0,85.0" fill="none" stroke-width="0.3"  stroke="#0000dd" />
<polygon points="358.0,106.0 365.0,127.0 386.0,120.0 386.0,92.0 365.0,85.0" fill="none" stroke-width="0.3"  stroke="#0000dd" />
<polygon points="442.0,106.0 449.0,127.0 470.0,120.0 470.0,92.0 449.0,85.0" fill="none" stroke-width="0.3"  stroke="#0000dd" />
<polygon points="526.0,106.0 533.0,127.0 554.0,120.0 554.0,92.0 533.0,85.0" fill="none" stroke-width="0.3"  stroke="#0000dd" />
<polygon points="64.0,148.0 71.0,169.0 92.0,162.0 92.0,134.0 71.0,127.0" fill="none" stroke-width="0.3"  stroke="#0000dd" />
<polygon points="148.0,148.0 155.0,169.0 176.0,162.0 176.0,134.0 155.0,127.0" fill="none" stroke-width="0.3"  stroke="#0000dd" />
<polygon points="232.0,148.0 239.0,169.0 260.0,162.0 260.0,134.0 239.0,127.0" fill="none" stroke-width="0.3"  stroke="#0000dd" />
<polygon points="316.0,148.0 323.0,169.0 344.0,162.0 344.0,134.0 323.0,127.0" fill="none" stroke-width="0.3"  stroke="#0000dd" />
<polygon points="400.0,148.0 407.0,169.0 428.0,162.0 428.0,134.0 407.0,127.0" fill="none" stroke-width="0.3"  stroke="#0000dd" />
<polygon points="484.0,148.0 491.0,169.0 512.0,162.0 512.0,134.0 491.0,127.0" fill="none" stroke-width="0.3"  stroke="#0000dd" />
<polygon points="106.0,190.0 113.0,211.0 134.0,204.0 134.0,176.0 113.0,169.0" fill="none" stroke-width="0.3"  stroke="#0000dd" />
<polygon points="190.0,190.0 197.0,211.0 218.0,204.0 218.0,176.0 197.0,169.0" fill="none" stroke-width="0.3"  stroke="#0000dd" />
<polygon points="274.0,190.0 281.0,211.0 302.0,204.0 302.0,176.0 281.0,169.0" fill="none" stroke-width="0.3"  stroke="#0000dd" />
<polygon points="358.0,190.0 365.0,211.0 386.0,204.0 386.0,176.0 365.0,169.0" fill="none" stroke-width="0.3"  stroke="#0000dd" />
<polygon points="442.0,190.0 449.0,211.0 470.0,204.0 470.0,176.0 449.0,169.0" fill="none" stroke-width="0.3"  stroke="#0000dd" />
<polygon points="526.0,190.0 533.0,211.0 554.0,204.0 554.0,176.0 533.0,169.0" fill="none" stroke-width="0.3"  stroke="#0000dd" />
<polygon points="64.0,232.0 71.0,253.0 92.0,246.0 92.0,218.0 71.0,211.0" fill="none" stroke-width="0.3"  stroke="#0000dd" />
<polygon points="148.0,232.0 155.0,253.0 176.0,246.0 176.0,218.0 155.0,211.0" fill="none" stroke-width="0.3"  stroke="#0000dd" />
<polygon points="232.0,232.0 239.0,253.0 260.0,246.0 260.0,218.0 239.0,211.0" fill="none" stroke-width="0.3"  stroke="#0000dd" />
<polygon points="316.0,232.0 323.0,253.0 344.0,246.0 344.0,218.0 323.0,211.0" fill="none" stroke-width="0.3"  stroke="#0000dd" />
<polygon points="400.0,232.0 407.0,253.0 428.0,246.0 428.0,218.0 407.0,211.0" fill="none" stroke-width="0.3"  stroke="#0000dd" />
<polygon points="484.0,232.0 491.0,253.0 512.0,246.0 512.0,218.0 491.0,211.0" fill="none" stroke-width="0.3"  stroke="#0000dd" />
<polygon points="106.0,274.0 113.0,295.0 134.0,288.0 134.0,260.0 113.0,253.0" fill="none" stroke-width="0.3"  stroke="#0000dd" />
<polygon points="190.0,274.0 197.0,295.0 218.0,288.0 218.0,260.0 197.0,253.0" fill="none" stroke-width="0.3"  stroke="#0000dd" />
<polygon points="274.0,274.0 281.0,295.0 302.0,288.0 302.0,260.0 281.0,253.0" fill="none" stroke-width="0.3"  stroke="#0000dd" />
<polygon points="358.0,274.0 365.0,295.0 386.0,288.0 386.0,260.0 365.0,253.0" fill="none" stroke-width="0.3"  stroke="#0000dd" />
<polygon points="442.0,274.0 449.0,295.0 470.0,288.0 470.0,260.0 449.0,253.0" fill="none" stroke-width="0.3"  stroke="#0000dd" />
<polygon points="526.0,274.0 533.0,295.0 554.0,288.0 554.0,260.0 533.0,253.0" fill="none" stroke-width="0.3"  stroke="#0000dd" />
<polygon points="64.0,316.0 71.0,337.0 92.0,330.0 92.0,302.0 71.0,295.0" fill="none" stroke-width="0.3"  stroke="#0000dd" />
<polygon points="148.0,316.0 155.0,337.0 176.0,330.0 176.0,302.0 155.0,295.0" fill="none" stroke-width="0.3"  stroke="#0000dd" />
<polygon points="232.0,316.0 239.0,337.0 260.0,330.0 260.0,302.0 239.0,295.0" fill="none" stroke-width="0.3"  stroke="#0000dd" />
<polygon points="316.0,316.0 323.0,337.0 344.0,330.0 344.0,302.0 323.0,295.0" fill="none" stroke-width="0.3"  stroke="#0000dd" />
<polygon points="400.0,316.0 407.0,337.0 428.0,330.0 428.0,302.0 407.0,295.0" fill="none" stroke-width="0.3"  stroke="#0000dd" />
<polygon points="484.0,316.0 491.0,337.0 512.0,330.0 512.0,302.0 491.0,295.0" fill="none" stroke-width="0.3"  stroke="#0000dd" />
<polygon points="106.0,358.0 113.0,379.0 134.0,372.0 134.0,344.0 113.0,337.0" fill="none" stroke-width="0.3"  stroke="#0000dd" />
<polygon points="190.0,358.0 197.0,379.0 218.0,372.0 218.0,344.0 197.0,337.0" fill="none" stroke-width="0.3"  stroke="#0000dd" />
<polygon points="274.0,358.0 281.0,379.0 302.0,372.0 302.0,344.0 281.0,337.0" fill="none" stroke-width="0.3"  stroke="#0000dd" />
<polygon points="358.0,358.0 365.0,379.0 386.0,372.0 386.0,344.0 365.0,337.0" fill="none" stroke-width="0.3"  stroke="#0000dd" />
<polygon points="442.0,358.0 449.0,379.0 470.0,372.0 470.0,344.0 449.0,337.0" fill="none" stroke-width="0.3"  stroke="#0000dd" />
<polygon points="526.0,358.0 533.0,379.0 554.0,372.0 554.0,344.0 533.0,337.0" fill="none" stroke-width="0.3"  stroke="#0000dd" />
<polygon points="64.0,400.0 71.0,421.0 92.0,414.0 92.0,386.0 71.0,379.0" fill="none" stroke-width="0.3"  stroke="#0000dd" />
<polygon points="148.0,400.0 155.0,421.0 176.0,414.0 176.0,386.0 155.0,379.0" fill="none" stroke-width="0.3"  stroke="#0000dd" />
<polygon points="232.0,400.0 239.0,421.0 260.0,414.0 260.0,386.0 239.0,379.0" fill="none" stroke-width="0.3"  stroke="#0000dd" />
<polygon points="316.0,400.0 323.0,421.0 344.0,414.0 344.0,386.0 323.0,379.0" fill="none" stroke-width="0.3"  stroke="#0000dd" />
<polygon points="400.0,400.0 407.0,421.0 428.0,414.0 428.0,386.0 407.0,379.0" fill="none" stroke-width="0.3"  stroke="#0000dd" />
<polygon points="484.0,400.0 491.0,421.0 512.0,414.0 512.0,386.0 491.0,379.0" fill="none" stroke-width="0.3"  stroke="#0000dd" />
<polygon points="106.0,442.0 113.0,463.0 134.0,456.0 134.0,428.0 113.0,421.0" fill="none" stroke-width="0.3"  stroke="#0000dd" />
<polygon points="190.0,442.0 197.0,463.0 218.0,456.0 218.0,428.0 197.0,421.0" fill="none" stroke-width="0.3"  stroke="#0000dd" />
<polygon points="274.0,442.0 281.0,463.0 302.0,456.0 302.0,428.0 281.0,421.0" fill="none" stroke-width="0.3"  stroke="#0000dd" />
<polygon points="358.0,442.0 365.0,463.0 386.0,456.0 386.0,428.0 365.0,421.0" fill="none" stroke-width="0.3"  stroke="#0000dd" />
<polygon points="442.0,442.0 449.0,463.0 470.0,456.0 470.0,428.0 449.0,421.0" fill="none" stroke-width="0.3"  stroke="#0000dd" />
<polygon points="526.0,442.0 533.0,463.0 554.0,456.0 554.0,428.0 533.0,421.0" fill="none" stroke-width="0.3"  stroke="#0000dd" />
<polygon points="64.0,484.0 71.0,505.0 92.0,498.0 92.0,470.0 71.0,463.0" fill="none" stroke-width="0.3"  stroke="#0000dd" />
<polygon points="148.0,484.0 155.0,505.0 176.0,498.0 176.0,470.0 155.0,463.0" fill="none" stroke-width="0.3"  stroke="#0000dd" />
<polygon points="232.0,484.0 239.0,505.0 260.0,498.0 260.0,470.0 239.0,463.0" fill="none" stroke-width="0.3"  stroke="#0000dd" />
<polygon points="316.0,484.0 323.0,505.0 344.0,498.0 344.0,470.0 323.0,463.0" fill="none" stroke-width="0.3"  stroke="#0000dd" />
<polygon points="400.0,484.0 407.0,505.0 428.0,498.0 428.0,470.0 407.0,463.0" fill="none" stroke-width="0.3"  stroke="#0000dd" />
<polygon points="484.0,484.0 491.0,505.0 512.0,498.0 512.0,470.0 491.0,463.0" fill="none" stroke-width="0.3"  stroke="#0000dd" />
<polygon points="106.0,526.0 113.0,547.0 134.0,540.0 134.0,512.0 113.0,505.0" fill="none" stroke-width="0.3"  stroke="#0000dd" />
<polygon points="190.0,526.0 197.0,547.0 218.0,540.0 218.0,512.0 197.0,505.0" fill="none" stroke-width="0.3"  stroke="#0000dd" />
<polygon points="274.0,526.0 281.0,547.0 302.0,540.0 302.0,512.0 281.0,505.0" fill="none" stroke-width="0.3"  stroke="#0000dd" />
<polygon points="358.0,526.0 365.0,547.0 386.0,540.0 386.0,512.0 365.0,505.0" fill="none" stroke-width="0.3"  stroke="#0000dd" />
<polygon points="442.0,526.0 449.0,547.0 470.0,540.0 470.0,512.0 449.0,505.0" fill="none" stroke-width="0.3"  stroke="#0000dd" />
<polygon points="526.0,526.0 533.0,547.0 554.0,540.0 554.0,512.0 533.0,505.0" fill="none" stroke-width="0.3"  stroke="#0000dd" />
<polygon points="64.0,568.0 71.0,589.0 92.0,582.0 92.0,554.0 71.0,547.0" fill="none" stroke-width="0.3"  stroke="#0000dd" />
<polygon points="148.0,568.0 155.0,589.0 176.0,582.0 176.0,554.0 155.0,547.0" fill="none" stroke-width="0.3"  stroke="#0000dd" />
<polygon points="232.0,568.0 239.0,589.0 260.0,582.0 260.0,554.0 239.0,547.0" fill="none" stroke-width="0.3"  stroke="#0000dd" />
<polygon points="316.0,568.0 323.0,589.0 344.0,582.0 344.0,554.0 323.0,547.0" fill="none" stroke-width="0.3"  stroke="#0000dd" />
<polygon points="400.0,568.0 407.0,589.0 428.0,582.0 428.0,554.0 407.0,547.0" fill="none" stroke-width="0.3"  stroke="#0000dd" />
<polygon points="484.0,568.0 491.0,589.0 512.0,582.0 512.0,554.0 491.0,547.0" fill="none" stroke-width="0.3"  stroke="#0000dd" />
<polygon points="106.0,610.0 113.0,631.0 134.0,624.0 134.0,596.0 113.0,589.0" fill="none" stroke-width="0.3"  stroke="#0000dd" />
<polygon points="190.0,610.0 197.0,631.0 218.0,624.0 218.0,596.0 197.0,589.0" fill="none" stroke-width="0.3"  stroke="#0000dd" />
<polygon points="274.0,610.0 281.0,631.0 302.0,624.0 302.0,596.0 281.0,589.0" fill="none" stroke-width="0.3"  stroke="#0000dd" />
<polygon points="358.0,610.0 365.0,631.0 386.0,624.0 386.0,596.0 365.0,589.0" fill="none" stroke-width="0.3"  stroke="#0000dd" />
<polygon points="442.0,610.0 449.0,631.0 470.0,624.0 470.0,596.0 449.0,589.0" fill="none" stroke-width="0.3"  stroke="#0000dd" />
<polygon points="526.0,610.0 533.0,631.0 554.0,624.0 554.0,596.0 533.0,589.0" fill="none" stroke-width="0.3"  stroke="#0000dd" />
<polygon points="64.0,652.0 71.0,673.0 92.0,666.0 92.0,638.0 71.0,631.0" fill="none" stroke-width="0.3"  stroke="#0000dd" />
<polygon points="148.0,652.0 155.0,673.0 176.0,666.0 176.0,638.0 155.0,631.0" fill="none" stroke-width="0.3"  stroke="#0000dd" />
<polygon points="232.0,652.0 239.0,673.0 260.0,666.0 260.0,638.0 239.0,631.0" fill="none" stroke-width="0.3"  stroke="#0000dd" />
<polygon points="316.0,652.0 323.0,673.0 344.0,666.0 344.0,638.0 323.0,631.0" fill="none" stroke-width="0.3"  stroke="#0000dd" />
<polygon points="400.0,652.0 407.0,673.0 428.0,666.0 428.0,638.0 407.0,631.0" fill="none" stroke-width="0.3"  stroke="#0000dd" />
<polygon points="484.0,652.0 491.0,673.0 512.0,666.0 512.0,638.0 491.0,631.0" fill="none" stroke-width="0.3"  stroke="#0000dd" />
<polygon points="106.0,694.0 113.0,715.0 134.0,708.0 134.0,680.0 113.0,673.0" fill="none" stroke-width="0.3"  stroke="#0000dd" />
<polygon points="190.0,694.0 197.0,715.0 218.0,708.0 218.0,680.0 197.0,673.0" fill="none" stroke-width="0.3"  stroke="#0000dd" />
<polygon points="274.0,694.0 281.0,715.0 302.0,708.0 302.0,680.0 281.0,673.0" fill="none" stroke-width="0.3"  stroke="#0000dd" />
<polygon points="358.0,694.0 365.0,715.0 386.0,708.0 386.0,680.0 365.0,673.0" fill="none" stroke-width="0.3"  stroke="#0000dd" />
<polygon points="442.0,694.0 449.0,715.0 470.0,708.0 470.0,680.0 449.0,673.0" fill="none" stroke-width="0.3"  stroke="#0000dd" />
<polygon points="526.0,694.0 533.0,715.0 554.0,708.0 554.0,680.0 533.0,673.0" fill="none" stroke-width="0.3"  stroke="#0000dd" />
<polygon points="64.0,736.0 71.0,757.0 92.0,750.0 92.0,722.0 71.0,715.0" fill="none" stroke-width="0.3"  stroke="#0000dd" />
<polygon points="148.0,736.0 155.0,757.0 176.0,750.0 176.0,722.0 155.0,715.0" fill="none" stroke-width="0.3"  stroke="#0000dd" />
<polygon points="232.0,736.0 239.0,757.0 260.0,750.0 260.0,722.0 239.0,715.0" fill="none" stroke-width="0.3"  stroke="#0000dd" />
<polygon points="316.0,736.0 323.0,757.0 344.0,750.0 344.0,722.0 323.0,715.0" fill="none" stroke-width="0.3"  stroke="#0000dd" />
<polygon points="400.0,736.0 407.0,757.0 428.0,750.0 428.0,722.0 407.0,715.0" fill="none" stroke-width="0.3"  stroke="#0000dd" />
<polygon points="484.0,736.0 491.0,757.0 512.0,750.0 512.0,722.0 491.0,715.0" fill="none" stroke-width="0.3"  stroke="#0000dd" />
<polygon points="120.0,64 113.0,43.0 92.0,50.0 92.0,78.0 113.0,85.0" fill="none" stroke-width="0.3"  stroke="#dd00dd" />
<polygon points="204.0,64 197.0,43.0 176.0,50.0 176.0,78.0 197.0,85.0" fill="none" stroke-width="0.3"  stroke="#dd00dd" />
<polygon points="288.0,64 281.0,43.0 260.0,50.0 260.0,78.0 281.0,85.0" fill="none" stroke-width="0.3"  stroke="#dd00dd" />
<polygon points="372.0,64 365.0,43.0 344.0,50.0 344.0,78.0 365.0,85.0" fill="none" stroke-width="0.3"  stroke="#dd00dd" />
<polygon points="456.0,64 449.0,43.0 428.0,50.0 428.0,78.0 449.0,85.0" fill="none" stroke-width="0.3"  stroke="#dd00dd" />
<polygon points="540.0,64 533.0,43.0 512.0,50.0 512.0,78.0 533.0,85.0" fill="none" stroke-width="0.3"  stroke="#dd00dd" />
<polygon points="78.0,106.0 71.0,85.0 50.0,92.0 50.0,120.0 71.0,127.0" fill="none" stroke-width="0.3"  stroke="#dd00dd" />
<polygon points="162.0,106.0 155.0,85.0 134.0,92.0 134.0,120.0 155.0,127.0" fill="none" stroke-width="0.3"  stroke="#dd00dd" />
<polygon points="246.0,106.0 239.0,85.0 218.0,92.0 218.0,120.0 239.0,127.0" fill="none" stroke-width="0.3"  stroke="#dd00dd" />
<polygon points="330.0,106.0 323.0,85.0 302.0,92.0 302.0,120.0 323.0,127.0" fill="none" stroke-width="0.3"  stroke="#dd00dd" />
<polygon points="414.0,106.0 407.0,85.0 386.0,92.0 386.0,120.0 407.0,127.0" fill="none" stroke-width="0.3"  stroke="#dd00dd" />
<polygon points="498.0,106.0 491.0,85.0 470.0,92.0 470.0,120.0 491.0,127.0" fill="none" stroke-width="0.3"  stroke="#dd00dd" />
<polygon points="120.0,148.0 113.0,127.0 92.0,134.0 92.0,162.0 113.0,169.0" fill="none" stroke-width="0.3"  stroke="#dd00dd" />
<polygon points="204.0,148.0 197.0,127.0 176.0,134.0 176.0,162.0 197.0,169.0" fill="none" stroke-width="0.3"  stroke="#dd00dd" />
<polygon points="288.0,148.0 281.0,127.0 260.0,134.0 260.0,162.0 281.0,169.0" fill="none" stroke-width="0.3"  stroke="#dd00dd" />
<polygon points="372.0,148.0 365.0,127.0 344.0,134.0 344.0,162.0 365.0,169.0" fill="none" stroke-width="0.3"  stroke="#dd00dd" />
<polygon points="456.0,148.0 449.0,127.0 428.0,134.0 428.0,162.0 449.0,169.0" fill="none" stroke-width="0.3"  stroke="#dd00dd" />
<polygon points="540.0,148.0 533.0,127.0 512.0,134.0 512.0,162.0 533.0,169.0" fill="none" stroke-width="0.3"  stroke="#dd00dd" />
<polygon points="78.0,190.0 71.0,169.0 50.0,176.0 50.0,204.0 71.0,211.0" fill="none" stroke-width="0.3"  stroke="#dd00dd" />
<polygon points="162.0,190.0 155.0,169.0 134.0,176.0 134.0,204.0 155.0,211.0" fill="none" stroke-width="0.3"  stroke="#dd00dd" />
<polygon points="246.0,190.0 239.0,169.0 218.0,176.0 218.0,204.0 239.0,211.0" fill="none" stroke-width="0.3"  stroke="#dd00dd" />
<polygon points="330.0,190.0 323.0,169.0 302.0,176.0 302.0,204.0 323.0,211.0" fill="none" stroke-width="0.3"  stroke="#dd00dd" />
<polygon points="414.0,190.0 407.0,169.0 386.0,176.0 386.0,204.0 407.0,211.0" fill="none" stroke-width="0.3"  stroke="#dd00dd" />
<polygon points="498.0,190.0 491.0,169.0 470.0,176.0 470.0,204.0 491.0,211.0" fill="none" stroke-width="0.3"  stroke="#dd00dd" />
<polygon points="120.0,232.0 113.0,211.0 92.0,218.0 92.0,246.0 113.0,253.0" fill="none" stroke-width="0.3"  stroke="#dd00dd" />
<polygon points="204.0,232.0 197.0,211.0 176.0,218.0 176.0,246.0 197.0,253.0" fill="none" stroke-width="0.3"  stroke="#dd00dd" />
<polygon points="288.0,232.0 281.0,211.0 260.0,218.0 260.0,246.0 281.0,253.0" fill="none" stroke-width="0.3"  stroke="#dd00dd" />
<polygon points="372.0,232.0 365.0,211.0 344.0,218.0 344.0,246.0 365.0,253.0" fill="none" stroke-width="0.3"  stroke="#dd00dd" />
<polygon points="456.0,232.0 449.0,211.0 428.0,218.0 428.0,246.0 449.0,253.0" fill="none" stroke-width="0.3"  stroke="#dd00dd" />
<polygon points="540.0,232.0 533.0,211.0 512.0,218.0 512.0,246.0 533.0,253.0" fill="none" stroke-width="0.3"  stroke="#dd00dd" />
<polygon points="78.0,274.0 71.0,253.0 50.0,260.0 50.0,288.0 71.0,295.0" fill="none" stroke-width="0.3"  stroke="#dd00dd" />
<polygon points="162.0,274.0 155.0,253.0 134.0,260.0 134.0,288.0 155.0,295.0" fill="none" stroke-width="0.3"  stroke="#dd00dd" />
<polygon points="246.0,274.0 239.0,253.0 218.0,260.0 218.0,288.0 239.0,295.0" fill="none" stroke-width="0.3"  stroke="#dd00dd" />
<polygon points="330.0,274.0 323.0,253.0 302.0,260.0 302.0,288.0 323.0,295.0" fill="none" stroke-width="0.3"  stroke="#dd00dd" />
<polygon points="414.0,274.0 407.0,253.0 386.0,260.0 386.0,288.0 407.0,295.0" fill="none" stroke-width="0.3"  stroke="#dd00dd" />
<polygon points="498.0,274.0 491.0,253.0 470.0,260.0 470.0,288.0 491.0,295.0" fill="none" stroke-width="0.3"  stroke="#dd00dd" />
<polygon points="120.0,316.0 113.0,295.0 92.0,302.0 92.0,330.0 113.0,337.0" fill="none" stroke-width="0.3"  stroke="#dd00dd" />
<polygon points="204.0,316.0 197.0,295.0 176.0,302.0 176.0,330.0 197.0,337.0" fill="none" stroke-width="0.3"  stroke="#dd00dd" />
<polygon points="288.0,316.0 281.0,295.0 260.0,302.0 260.0,330.0 281.0,337.0" fill="none" stroke-width="0.3"  stroke="#dd00dd" />
<polygon points="372.0,316.0 365.0,295.0 344.0,302.0 344.0,330.0 365.0,337.0" fill="none" stroke-width="0.3"  stroke="#dd00dd" />
<polygon points="456.0,316.0 449.0,295.0 428.0,302.0 428.0,330.0 449.0,337.0" fill="none" stroke-width="0.3"  stroke="#dd00dd" />
<polygon points="540.0,316.0 533.0,295.0 512.0,302.0 512.0,330.0 533.0,337.0" fill="none" stroke-width="0.3"  stroke="#dd00dd" />
<polygon points="78.0,358.0 71.0,337.0 50.0,344.0 50.0,372.0 71.0,379.0" fill="none" stroke-width="0.3"  stroke="#dd00dd" />
<polygon points="162.0,358.0 155.0,337.0 134.0,344.0 134.0,372.0 155.0,379.0" fill="none" stroke-width="0.3"  stroke="#dd00dd" />
<polygon points="246.0,358.0 239.0,337.0 218.0,344.0 218.0,372.0 239.0,379.0" fill="none" stroke-width="0.3"  stroke="#dd00dd" />
<polygon points="330.0,358.0 323.0,337.0 302.0,344.0 302.0,372.0 323.0,379.0" fill="none" stroke-width="0.3"  stroke="#dd00dd" />
<polygon points="414.0,358.0 407.0,337.0 386.0,344.0 386.0,372.0 407.0,379.0" fill="none" stroke-width="0.3"  stroke="#dd00dd" />
<polygon points="498.0,358.0 491.0,337.0 470.0,344.0 470.0,372.0 491.0,379.0" fill="none" stroke-width="0.3"  stroke="#dd00dd" />
<polygon points="120.0,400.0 113.0,379.0 92.0,386.0 92.0,414.0 113.0,421.0" fill="none" stroke-width="0.3"  stroke="#dd00dd" />
<polygon points="204.0,400.0 197.0,379.0 176.0,386.0 176.0,414.0 197.0,421.0" fill="none" stroke-width="0.3"  stroke="#dd00dd" />
<polygon points="288.0,400.0 281.0,379.0 260.0,386.0 260.0,414.0 281.0,421.0" fill="none" stroke-width="0.3"  stroke="#dd00dd" />
<polygon points="372.0,400.0 365.0,379.0 344.0,386.0 344.0,414.0 365.0,421.0" fill="none" stroke-width="0.3"  stroke="#dd00dd" />
<polygon points="456.0,400.0 449.0,379.0 428.0,386.0 428.0,414.0 449.0,421.0" fill="none" stroke-width="0.3"  stroke="#dd00dd" />
<polygon points="540.0,400.0 533.0,379.0 512.0,386.0 512.0,414.0 533.0,421.0" fill="none" stroke-width="0.3"  stroke="#dd00dd" />
<polygon points="78.0,442.0 71.0,421.0 50.0,428.0 50.0,456.0 71.0,463.0" fill="none" stroke-width="0.3"  stroke="#dd00dd" />
<polygon points="162.0,442.0 155.0,421.0 134.0,428.0 134.0,456.0 155.0,463.0" fill="none" stroke-width="0.3"  stroke="#dd00dd" />
<polygon points="246.0,442.0 239.0,421.0 218.0,428.0 218.0,456.0 239.0,463.0" fill="none" stroke-width="0.3"  stroke="#dd00dd" />
<polygon points="330.0,442.0 323.0,421.0 302.0,428.0 302.0,456.0 323.0,463.0" fill="none" stroke-width="0.3"  stroke="#dd00dd" />
<polygon points="414.0,442.0 407.0,421.0 386.0,428.0 386.0,456.0 407.0,463.0" fill="none" stroke-width="0.3"  stroke="#dd00dd" />
<polygon points="498.0,442.0 491.0,421.0 470.0,428.0 470.0,456.0 491.0,463.0" fill="none" stroke-width="0.3"  stroke="#dd00dd" />
<polygon points="120.0,484.0 113.0,463.0 92.0,470.0 92.0,498.0 113.0,505.0" fill="none" stroke-width="0.3"  stroke="#dd00dd" />
<polygon points="204.0,484.0 197.0,463.0 176.0,470.0 176.0,498.0 197.0,505.0" fill="none" stroke-width="0.3"  stroke="#dd00dd" />
<polygon points="288.0,484.0 281.0,463.0 260.0,470.0 260.0,498.0 281.0,505.0" fill="none" stroke-width="0.3"  stroke="#dd00dd" />
<polygon points="372.0,484.0 365.0,463.0 344.0,470.0 344.0,498.0 365.0,505.0" fill="none" stroke-width="0.3"  stroke="#dd00dd" />
<polygon points="456.0,484.0 449.0,463.0 428.0,470.0 428.0,498.0 449.0,505.0" fill="none" stroke-width="0.3"  stroke="#dd00dd" />
<polygon points="540.0,484.0 533.0,463.0 512.0,470.0 512.0,498.0 533.0,505.0" fill="none" stroke-width="0.3"  stroke="#dd00dd" />
<polygon points="78.0,526.0 71.0,505.0 50.0,512.0 50.0,540.0 71.0,547.0" fill="none" stroke-width="0.3"  stroke="#dd00dd" />
<polygon points="162.0,526.0 155.0,505.0 134.0,512.0 134.0,540.0 155.0,547.0" fill="none" stroke-width="0.3"  stroke="#dd00dd" />
<polygon points="246.0,526.0 239.0,505.0 218.0,512.0 218.0,540.0 239.0,547.0" fill="none" stroke-width="0.3"  stroke="#dd00dd" />
<polygon points="330.0,526.0 323.0,505.0 302.0,512.0 302.0,540.0 323.0,547.0" fill="none" stroke-width="0.3"  stroke="#dd00dd" />
<polygon points="414.0,526.0 407.0,505.0 386.0,512.0 386.0,540.0 407.0,547.0" fill="none" stroke-width="0.3"  stroke="#dd00dd" />
<polygon points="498.0,526.0 491.0,505.0 470.0,512.0 470.0,540.0 491.0,547.0" fill="none" stroke-width="0.3"  stroke="#dd00dd" />
<polygon points="120.0,568.0 113.0,547.0 92.0,554.0 92.0,582.0 113.0,589.0" fill="none" stroke-width="0.3"  stroke="#dd00dd" />
<polygon points="204.0,568.0 197.0,547.0 176.0,554.0 176.0,582.0 197.0,589.0" fill="none" stroke-width="0.3"  stroke="#dd00dd" />
<polygon points="288.0,568.0 281.0,547.0 260.0,554.0 260.0,582.0 281.0,589.0" fill="none" stroke-width="0.3"  stroke="#dd00dd" />
<polygon points="372.0,568.0 365.0,547.0 344.0,554.0 344.0,582.0 365.0,589.0" fill="none" stroke-width="0.3"  stroke="#dd00dd" />
<polygon points="456.0,568.0 449.0,547.0 428.0,554.0 428.0,582.0 449.0,589.0" fill="none" stroke-width="0.3"  stroke="#dd00dd" />
<polygon points="540.0,568.0 533.0,547.0 512.0,554.0 512.0,582.0 533.0,589.0" fill="none" stroke-width="0.3"  stroke="#dd00dd" />
<polygon points="78.0,610.0 71.0,589.0 50.0,596.0 50.0,624.0 71.0,631.0" fill="none" stroke-width="0.3"  stroke="#dd00dd" />
<polygon points="162.0,610.0 155.0,589.0 134.0,596.0 134.0,624.0 155.0,631.0" fill="none" stroke-width="0.3"  stroke="#dd00dd" />
<polygon points="246.0,610.0 239.0,589.0 218.0,596.0 218.0,624.0 239.0,631.0" fill="none" stroke-width="0.3"  stroke="#dd00dd" />
<polygon points="330.0,610.0 323.0,589.0 302.0,596.0 302.0,624.0 323.0,631.0" fill="none" stroke-width="0.3"  stroke="#dd00dd" />
<polygon points="414.0,610.0 407.0,589.0 386.0,596.0 386.0,624.0 407.0,631.0" fill="none" stroke-width="0.3"  stroke="#dd00dd" />
<polygon points="498.0,610.0 491.0,589.0 470.0,596.0 470.0,624.0 491.0,631.0" fill="none" stroke-width="0.3"  stroke="#dd00dd" />
<polygon points="120.0,652.0 113.0,631.0 92.0,638.0 92.0,666.0 113.0,673.0" fill="none" stroke-width="0.3"  stroke="#dd00dd" />
<polygon points="204.0,652.0 197.0,631.0 176.0,638.0 176.0,666.0 197.0,673.0" fill="none" stroke-width="0.3"  stroke="#dd00dd" />
<polygon points="288.0,652.0 281.0,631.0 260.0,638.0 260.0,666.0 281.0,673.0" fill="none" stroke-width="0.3"  stroke="#dd00dd" />
<polygon points="372.0,652.0 365.0,631.0 344.0,638.0 344.0,666.0 365.0,673.0" fill="none" stroke-width="0.3"  stroke="#dd00dd" />
<polygon points="456.0,652.0 449.0,631.0 428.0,638.0 428.0,666.0 449.0,673.0" fill="none" stroke-width="0.3"  stroke="#dd00dd" />
<polygon points="540.0,652.0 533.0,631.0 512.0,638.0 512.0,666.0 533.0,673.0" fill="none" stroke-width="0.3"  stroke="#dd00dd" />
<polygon points="78.0,694.0 71.0,673.0 50.0,680.0 50.0,708.0 71.0,715.0" fill="none" stroke-width="0.3"  stroke="#dd00dd" />
<polygon points="162.0,694.0 155.0,673.0 134.0,680.0 134.0,708.0 155.0,715.0" fill="none" stroke-width="0.3"  stroke="#dd00dd" />
<polygon points="246.0,694.0 239.0,673.0 218.0,680.0 218.0,708.0 239.0,715.0" fill="none" stroke-width="0.3"  stroke="#dd00dd" />
<polygon points="330.0,694.0 323.0,673.0 302.0,680.0 302.0,708.0 323.0,715.0" fill="none" stroke-width="0.3"  stroke="#dd00dd" />
<polygon points="414.0,694.0 407.0,673.0 386.0,680.0 386.0,708.0 407.0,715.0" fill="none" stroke-width="0.3"  stroke="#dd00dd" />
<polygon points="498.0,694.0 491.0,673.0 470.0,680.0 470.0,708.0 491.0,715.0" fill="none" stroke-width="0.3"  stroke="#dd00dd" />
<polygon points="120.0,736.0 113.0,715.0 92.0,722.0 92.0,750.0 113.0,757.0" fill="none" stroke-width="0.3"  stroke="#dd00dd" />
<polygon points="204.0,736.0 197.0,715.0 176.0,722.0 176.0,750.0 197.0,757.0" fill="none" stroke-width="0.3"  stroke="#dd00dd" />
<polygon points="288.0,736.0 281.0,715.0 260.0,722.0 260.0,750.0 281.0,757.0" fill="none" stroke-width="0.3"  stroke="#dd00dd" />
<polygon points="372.0,736.0 365.0,715.0 344.0,722.0 344.0,750.0 365.0,757.0" fill="none" stroke-width="0.3"  stroke="#dd00dd" />
<polygon points="456.0,736.0 449.0,715.0 428.0,722.0 428.0,750.0 449.0,757.0" fill="none" stroke-width="0.3"  stroke="#dd00dd" />
<polygon points="540.0,736.0 533.0,715.0 512.0,722.0 512.0,750.0 533.0,757.0" fill="none" stroke-width="0.3"  stroke="#dd00dd" />
</svg>