<svg width="612" height="792" 
     viewBox="0 0 612 792" 
     xmlns="http://www.w3.org/2000/svg">
  <rect width="612" height="792" fill="white"/>
  <line x1="72" y1="72" x2="540" y2="72" stroke="#0066cc" stroke-width="0.5" opacity="0.2"/>
  <line x1="72" y1="82.8" x2="540" y2="82.8" stroke="#0066cc" stroke-width="0.5" opacity="0.3"/>
  <line x1="72" y1="108.0" x2="540" y2="108.0" stroke="#000000" stroke-width="1" opacity="0.5"/>
  <line x1="72" y1="156.0" x2="540" y2="156.0" stroke="#000000" stroke-width="1.5" opacity="0.7"/>
  <line x1="72" y1="192.0" x2="540" y2="192.0" stroke="#0066cc" stroke-width="0.5" opacity="0.2"/>
  <line x1="72" y1="108.0" x2="105.60996183406607" y2="156.0" stroke="#cc0000" stroke-width="0.3" opacity="0.15"/>
  <line x1="108" y1="108.0" x2="141.60996183406607" y2="156.0" stroke="#cc0000" stroke-width="0.3" opacity="0.15"/>
  <line x1="144" y1="108.0" x2="177.60996183406607" y2="156.0" stroke="#cc0000" stroke-width="0.3" opacity="0.15"/>
  <line x1="180" y1="108.0" x2="213.60996183406607" y2="156.0" stroke="#cc0000" stroke-width="0.3" opacity="0.15"/>
  <line x1="216" y1="108.0" x2="249.60996183406607" y2="156.0" stroke="#cc0000" stroke-width="0.3" opacity="0.15"/>
  <line x1="252" y1="108.0" x2="285.6099618340661" y2="156.0" stroke="#cc0000" stroke-width="0.3" opacity="0.15"/>
  <line x1="288" y1="108.0" x2="321.6099618340661" y2="156.0" stroke="#cc0000" stroke-width="0.3" opacity="0.15"/>
  <line x1="324" y1="108.0" x2="357.6099618340661" y2="156.0" stroke="#cc0000" stroke-width="0.3" opacity="0.15"/>
  <line x1="360" y1="108.0" x2="393.6099618340661" y2="156.0" stroke="#cc0000" stroke-width="0.3" opacity="0.15"/>
  <line x1="396" y1="108.0" x2="429.6099618340661" y2="156.0" stroke="#cc0000" stroke-width="0.3" opacity="0.15"/>
  <line x1="432" y1="108.0" x2="465.6099618340661" y2="156.0" stroke="#cc0000" stroke-width="0.3" opacity="0.15"/>
  <line x1="468" y1="108.0" x2="501.6099618340661" y2="156.0" stroke="#cc0000" stroke-width="0.3" opacity="0.15"/>
  <line x1="504" y1="108.0" x2="537.6099618340661" y2="156.0" stroke="#cc0000" stroke-width="0.3" opacity="0.15"/>
  <line x1="540" y1="108.0" x2="573.6099618340661" y2="156.0" stroke="#cc0000" stroke-width="0.3" opacity="0.15"/>
  <line x1="72" y1="216.0" x2="540" y2="216.0" stroke="#0066cc" stroke-width="0.5" opacity="0.2"/>
  <line x1="72" y1="226.8" x2="540" y2="226.8" stroke="#0066cc" stroke-width="0.5" opacity="0.3"/>
  <line x1="72" y1="252.0" x2="540" y2="252.0" stroke="#000000" stroke-width="1" opacity="0.5"/>
  <line x1="72" y1="300.0" x2="540" y2="300.0" stroke="#000000" stroke-width="1.5" opacity="0.7"/>
  <line x1="72" y1="336.0" x2="540" y2="336.0" stroke="#0066cc" stroke-width="0.5" opacity="0.2"/>
  <line x1="72" y1="252.0" x2="105.60996183406607" y2="300.0" stroke="#cc0000" stroke-width="0.3" opacity="0.15"/>
  <line x1="108" y1="252.0" x2="141.60996183406607" y2="300.0" stroke="#cc0000" stroke-width="0.3" opacity="0.15"/>
  <line x1="144" y1="252.0" x2="177.60996183406607" y2="300.0" stroke="#cc0000" stroke-width="0.3" opacity="0.15"/>
  <line x1="180" y1="252.0" x2="213.60996183406607" y2="300.0" stroke="#cc0000" stroke-width="0.3" opacity="0.15"/>
  <line x1="216" y1="252.0" x2="249.60996183406607" y2="300.0" stroke="#cc0000" stroke-width="0.3" opacity="0.15"/>
  <line x1="252" y1="252.0" x2="285.6099618340661" y2="300.0" stroke="#cc0000" stroke-width="0.3" opacity="0.15"/>
  <line x1="288" y1="252.0" x2="321.6099618340661" y2="300.0" stroke="#cc0000" stroke-width="0.3" opacity="0.15"/>
  <line x1="324" y1="252.0" x2="357.6099618340661" y2="300.0" stroke="#cc0000" stroke-width="0.3" opacity="0.15"/>
  <line x1="360" y1="252.0" x2="393.6099618340661" y2="300.0" stroke="#cc0000" stroke-width="0.3" opacity="0.15"/>
  <line x1="396" y1="252.0" x2="429.6099618340661" y2="300.0" stroke="#cc0000" stroke-width="0.3" opacity="0.15"/>
  <line x1="432" y1="252.0" x2="465.6099618340661" y2="300.0" stroke="#cc0000" stroke-width="0.3" opacity="0.15"/>
  <line x1="468" y1="252.0" x2="501.6099618340661" y2="300.0" stroke="#cc0000" stroke-width="0.3" opacity="0.15"/>
  <line x1="504" y1="252.0" x2="537.6099618340661" y2="300.0" stroke="#cc0000" stroke-width="0.3" opacity="0.15"/>
  <line x1="540" y1="252.0" x2="573.6099618340661" y2="300.0" stroke="#cc0000" stroke-width="0.3" opacity="0.15"/>
  <line x1="72" y1="360.0" x2="540" y2="360.0" stroke="#0066cc" stroke-width="0.5" opacity="0.2"/>
  <line x1="72" y1="370.8" x2="540" y2="370.8" stroke="#0066cc" stroke-width="0.5" opacity="0.3"/>
  <line x1="72" y1="396.0" x2="540" y2="396.0" stroke="#000000" stroke-width="1" opacity="0.5"/>
  <line x1="72" y1="444.0" x2="540" y2="444.0" stroke="#000000" stroke-width="1.5" opacity="0.7"/>
  <line x1="72" y1="480.0" x2="540" y2="480.0" stroke="#0066cc" stroke-width="0.5" opacity="0.2"/>
  <line x1="72" y1="396.0" x2="105.60996183406607" y2="444.0" stroke="#cc0000" stroke-width="0.3" opacity="0.15"/>
  <line x1="108" y1="396.0" x2="141.60996183406607" y2="444.0" stroke="#cc0000" stroke-width="0.3" opacity="0.15"/>
  <line x1="144" y1="396.0" x2="177.60996183406607" y2="444.0" stroke="#cc0000" stroke-width="0.3" opacity="0.15"/>
  <line x1="180" y1="396.0" x2="213.60996183406607" y2="444.0" stroke="#cc0000" stroke-width="0.3" opacity="0.15"/>
  <line x1="216" y1="396.0" x2="249.60996183406607" y2="444.0" stroke="#cc0000" stroke-width="0.3" opacity="0.15"/>
  <line x1="252" y1="396.0" x2="285.6099618340661" y2="444.0" stroke="#cc0000" stroke-width="0.3" opacity="0.15"/>
  <line x1="288" y1="396.0" x2="321.6099618340661" y2="444.0" stroke="#cc0000" stroke-width="0.3" opacity="0.15"/>
  <line x1="324" y1="396.0" x2="357.6099618340661" y2="444.0" stroke="#cc0000" stroke-width="0.3" opacity="0.15"/>
  <line x1="360" y1="396.0" x2="393.6099618340661" y2="444.0" stroke="#cc0000" stroke-width="0.3" opacity="0.15"/>
  <line x1="396" y1="396.0" x2="429.6099618340661" y2="444.0" stroke="#cc0000" stroke-width="0.3" opacity="0.15"/>
  <line x1="432" y1="396.0" x2="465.6099618340661" y2="444.0" stroke="#cc0000" stroke-width="0.3" opacity="0.15"/>
  <line x1="468" y1="396.0" x2="501.6099618340661" y2="444.0" stroke="#cc0000" stroke-width="0.3" opacity="0.15"/>
  <line x1="504" y1="396.0" x2="537.6099618340661" y2="444.0" stroke="#cc0000" stroke-width="0.3" opacity="0.15"/>
  <line x1="540" y1="396.0" x2="573.6099618340661" y2="444.0" stroke="#cc0000" stroke-width="0.3" opacity="0.15"/>
  <line x1="72" y1="504.0" x2="540" y2="504.0" stroke="#0066cc" stroke-width="0.5" opacity="0.2"/>
  <line x1="72" y1="514.8" x2="540" y2="514.8" stroke="#0066cc" stroke-width="0.5" opacity="0.3"/>
  <line x1="72" y1="540.0" x2="540" y2="540.0" stroke="#000000" stroke-width="1" opacity="0.5"/>
  <line x1="72" y1="588.0" x2="540" y2="588.0" stroke="#000000" stroke-width="1.5" opacity="0.7"/>
  <line x1="72" y1="624.0" x2="540" y2="624.0" stroke="#0066cc" stroke-width="0.5" opacity="0.2"/>
  <line x1="72" y1="540.0" x2="105.60996183406607" y2="588.0" stroke="#cc0000" stroke-width="0.3" opacity="0.15"/>
  <line x1="108" y1="540.0" x2="141.60996183406607" y2="588.0" stroke="#cc0000" stroke-width="0.3" opacity="0.15"/>
  <line x1="144" y1="540.0" x2="177.60996183406607" y2="588.0" stroke="#cc0000" stroke-width="0.3" opacity="0.15"/>
  <line x1="180" y1="540.0" x2="213.60996183406607" y2="588.0" stroke="#cc0000" stroke-width="0.3" opacity="0.15"/>
  <line x1="216" y1="540.0" x2="249.60996183406607" y2="588.0" stroke="#cc0000" stroke-width="0.3" opacity="0.15"/>
  <line x1="252" y1="540.0" x2="285.6099618340661" y2="588.0" stroke="#cc0000" stroke-width="0.3" opacity="0.15"/>
  <line x1="288" y1="540.0" x2="321.6099618340661" y2="588.0" stroke="#cc0000" stroke-width="0.3" opacity="0.15"/>
  <line x1="324" y1="540.0" x2="357.6099618340661" y2="588.0" stroke="#cc0000" stroke-width="0.3" opacity="0.15"/>
  <line x1="360" y1="540.0" x2="393.6099618340661" y2="588.0" stroke="#cc0000" stroke-width="0.3" opacity="0.15"/>
  <line x1="396" y1="540.0" x2="429.6099618340661" y2="588.0" stroke="#cc0000" stroke-width="0.3" opacity="0.15"/>
  <line x1="432" y1="540.0" x2="465.6099618340661" y2="588.0" stroke="#cc0000" stroke-width="0.3" opacity="0.15"/>
  <line x1="468" y1="540.0" x2="501.6099618340661" y2="588.0" stroke="#cc0000" stroke-width="0.3" opacity="0.15"/>
  <line x1="504" y1="540.0" x2="537.6099618340661" y2="588.0" stroke="#cc0000" stroke-width="0.3" opacity="0.15"/>
  <line x1="540" y1="540.0" x2="573.6099618340661" y2="588.0" stroke="#cc0000" stroke-width="0.3" opacity="0.15"/>
</svg>