<svg width="612" height="792" 
     viewBox="0 0 612 792" 
     xmlns="http://www.w3.org/2000/svg">
  <rect width="612" height="792" fill="white"/>
<polygon points="61.11473670974872,36 86.22947341949744,50.5 61.11473670974872,65.0 36.0,50.5" fill="#ffffff" stroke="black" />
<polygon points="36.0,50.5 61.11473670974872,65.0 61.11473670974872,94.0 36.0,79.5" fill="#dddddd" stroke="black" />
<polygon points="86.22947341949744,50.5 61.11473670974872,65.0 61.11473670974872,94.0 86.22947341949744,79.5" fill="#bbbbbb" stroke="black" /><polygon points="111.34421012924616,36 136.45894683899488,50.5 111.34421012924616,65.0 86.22947341949745,50.5" fill="#ffffff" stroke="black" />
<polygon points="86.22947341949745,50.5 111.34421012924616,65.0 111.34421012924616,94.0 86.22947341949745,79.5" fill="#dddddd" stroke="black" />
<polygon points="136.45894683899488,50.5 111.34421012924616,65.0 111.34421012924616,94.0 136.45894683899488,79.5" fill="#bbbbbb" stroke="black" /><polygon points="161.5736835487436,36 186.6884202584923,50.5 161.5736835487436,65.0 136.45894683899488,50.5" fill="#ffffff" stroke="black" />
<polygon points="136.45894683899488,50.5 161.5736835487436,65.0 161.5736835487436,94.0 136.45894683899488,79.5" fill="#dddddd" stroke="black" />
<polygon points="186.6884202584923,50.5 161.5736835487436,65.0 161.5736835487436,94.0 186.6884202584923,79.5" fill="#bbbbbb" stroke="black" /><polygon points="211.803156968241,36 236.91789367798972,50.5 211.803156968241,65.0 186.6884202584923,50.5" fill="#ffffff" stroke="black" />
<polygon points="186.6884202584923,50.5 211.803156968241,65.0 211.803156968241,94.0 186.6884202584923,79.5" fill="#dddddd" stroke="black" />
<polygon points="236.91789367798972,50.5 211.803156968241,65.0 211.803156968241,94.0 236.91789367798972,79.5" fill="#bbbbbb" stroke="black" /><polygon points="262.03263038773844,36 287.1473670974872,50.5 262.03263038773844,65.0 236.91789367798972,50.5" fill="#ffffff" stroke="black" />
<polygon points="236.91789367798972,50.5 262.03263038773844,65.0 262.03263038773844,94.0 236.91789367798972,79.5" fill="#dddddd" stroke="black" />
<polygon points="287.1473670974872,50.5 262.03263038773844,65.0 262.03263038773844,94.0 287.1473670974872,79.5" fill="#bbbbbb" stroke="black" /><polygon points="312.26210380723586,36 337.3768405169846,50.5 312.26210380723586,65.0 287.1473670974871,50.5" fill="#ffffff" stroke="black" />
<polygon points="287.1473670974871,50.5 312.26210380723586,65.0 312.26210380723586,94.0 287.1473670974871,79.5" fill="#dddddd" stroke="black" />
<polygon points="337.3768405169846,50.5 312.26210380723586,65.0 312.26210380723586,94.0 337.3768405169846,79.5" fill="#bbbbbb" stroke="black" /><polygon points="362.4915772267333,36 387.606313936482,50.5 362.4915772267333,65.0 337.37684051698454,50.5" fill="#ffffff" stroke="black" />
<polygon points="337.37684051698454,50.5 362.4915772267333,65.0 362.4915772267333,94.0 337.37684051698454,79.5" fill="#dddddd" stroke="black" />
<polygon points="387.606313936482,50.5 362.4915772267333,65.0 362.4915772267333,94.0 387.606313936482,79.5" fill="#bbbbbb" stroke="black" /><polygon points="412.7210506462307,36 437.83578735597945,50.5 412.7210506462307,65.0 387.60631393648197,50.5" fill="#ffffff" stroke="black" />
<polygon points="387.60631393648197,50.5 412.7210506462307,65.0 412.7210506462307,94.0 387.60631393648197,79.5" fill="#dddddd" stroke="black" />
<polygon points="437.83578735597945,50.5 412.7210506462307,65.0 412.7210506462307,94.0 437.83578735597945,79.5" fill="#bbbbbb" stroke="black" /><polygon points="462.95052406572813,36 488.0652607754769,50.5 462.95052406572813,65.0 437.8357873559794,50.5" fill="#ffffff" stroke="black" />
<polygon points="437.8357873559794,50.5 462.95052406572813,65.0 462.95052406572813,94.0 437.8357873559794,79.5" fill="#dddddd" stroke="black" />
<polygon points="488.0652607754769,50.5 462.95052406572813,65.0 462.95052406572813,94.0 488.0652607754769,79.5" fill="#bbbbbb" stroke="black" /><polygon points="513.1799974852256,36 538.2947341949744,50.5 513.1799974852256,65.0 488.0652607754769,50.5" fill="#ffffff" stroke="black" />
<polygon points="488.0652607754769,50.5 513.1799974852256,65.0 513.1799974852256,94.0 488.0652607754769,79.5" fill="#dddddd" stroke="black" />
<polygon points="538.2947341949744,50.5 513.1799974852256,65.0 513.1799974852256,94.0 538.2947341949744,79.5" fill="#bbbbbb" stroke="black" /><polygon points="563.4094709047231,36 588.5242076144718,50.5 563.4094709047231,65.0 538.2947341949744,50.5" fill="#ffffff" stroke="black" />
<polygon points="538.2947341949744,50.5 563.4094709047231,65.0 563.4094709047231,94.0 538.2947341949744,79.5" fill="#dddddd" stroke="black" />
<polygon points="588.5242076144718,50.5 563.4094709047231,65.0 563.4094709047231,94.0 588.5242076144718,79.5" fill="#bbbbbb" stroke="black" /><polygon points="86.22947341949744,79.5 111.34421012924616,94.0 86.22947341949744,108.5 61.11473670974872,94.0" fill="#ffffff" stroke="black" />
<polygon points="61.11473670974872,94.0 86.22947341949744,108.5 86.22947341949744,137.5 61.11473670974872,123.0" fill="#dddddd" stroke="black" />
<polygon points="111.34421012924616,94.0 86.22947341949744,108.5 86.22947341949744,137.5 111.34421012924616,123.0" fill="#bbbbbb" stroke="black" /><polygon points="136.45894683899488,79.5 161.5736835487436,94.0 136.45894683899488,108.5 111.34421012924616,94.0" fill="#ffffff" stroke="black" />
<polygon points="111.34421012924616,94.0 136.45894683899488,108.5 136.45894683899488,137.5 111.34421012924616,123.0" fill="#dddddd" stroke="black" />
<polygon points="161.5736835487436,94.0 136.45894683899488,108.5 136.45894683899488,137.5 161.5736835487436,123.0" fill="#bbbbbb" stroke="black" /><polygon points="186.68842025849233,79.5 211.80315696824104,94.0 186.68842025849233,108.5 161.57368354874362,94.0" fill="#ffffff" stroke="black" />
<polygon points="161.57368354874362,94.0 186.68842025849233,108.5 186.68842025849233,137.5 161.57368354874362,123.0" fill="#dddddd" stroke="black" />
<polygon points="211.80315696824104,94.0 186.68842025849233,108.5 186.68842025849233,137.5 211.80315696824104,123.0" fill="#bbbbbb" stroke="black" /><polygon points="236.91789367798975,79.5 262.0326303877385,94.0 236.91789367798975,108.5 211.80315696824104,94.0" fill="#ffffff" stroke="black" />
<polygon points="211.80315696824104,94.0 236.91789367798975,108.5 236.91789367798975,137.5 211.80315696824104,123.0" fill="#dddddd" stroke="black" />
<polygon points="262.0326303877385,94.0 236.91789367798975,108.5 236.91789367798975,137.5 262.0326303877385,123.0" fill="#bbbbbb" stroke="black" /><polygon points="287.1473670974872,79.5 312.2621038072359,94.0 287.1473670974872,108.5 262.03263038773844,94.0" fill="#ffffff" stroke="black" />
<polygon points="262.03263038773844,94.0 287.1473670974872,108.5 287.1473670974872,137.5 262.03263038773844,123.0" fill="#dddddd" stroke="black" />
<polygon points="312.2621038072359,94.0 287.1473670974872,108.5 287.1473670974872,137.5 312.2621038072359,123.0" fill="#bbbbbb" stroke="black" /><polygon points="337.3768405169846,79.5 362.49157722673334,94.0 337.3768405169846,108.5 312.26210380723586,94.0" fill="#ffffff" stroke="black" />
<polygon points="312.26210380723586,94.0 337.3768405169846,108.5 337.3768405169846,137.5 312.26210380723586,123.0" fill="#dddddd" stroke="black" />
<polygon points="362.49157722673334,94.0 337.3768405169846,108.5 337.3768405169846,137.5 362.49157722673334,123.0" fill="#bbbbbb" stroke="black" /><polygon points="387.606313936482,79.5 412.72105064623076,94.0 387.606313936482,108.5 362.4915772267333,94.0" fill="#ffffff" stroke="black" />
<polygon points="362.4915772267333,94.0 387.606313936482,108.5 387.606313936482,137.5 362.4915772267333,123.0" fill="#dddddd" stroke="black" />
<polygon points="412.72105064623076,94.0 387.606313936482,108.5 387.606313936482,137.5 412.72105064623076,123.0" fill="#bbbbbb" stroke="black" /><polygon points="437.83578735597945,79.5 462.9505240657282,94.0 437.83578735597945,108.5 412.7210506462307,94.0" fill="#ffffff" stroke="black" />
<polygon points="412.7210506462307,94.0 437.83578735597945,108.5 437.83578735597945,137.5 412.7210506462307,123.0" fill="#dddddd" stroke="black" />
<polygon points="462.9505240657282,94.0 437.83578735597945,108.5 437.83578735597945,137.5 462.9505240657282,123.0" fill="#bbbbbb" stroke="black" /><polygon points="488.0652607754769,79.5 513.1799974852256,94.0 488.0652607754769,108.5 462.95052406572813,94.0" fill="#ffffff" stroke="black" />
<polygon points="462.95052406572813,94.0 488.0652607754769,108.5 488.0652607754769,137.5 462.95052406572813,123.0" fill="#dddddd" stroke="black" />
<polygon points="513.1799974852256,94.0 488.0652607754769,108.5 488.0652607754769,137.5 513.1799974852256,123.0" fill="#bbbbbb" stroke="black" /><polygon points="538.2947341949744,79.5 563.4094709047231,94.0 538.2947341949744,108.5 513.1799974852256,94.0" fill="#ffffff" stroke="black" />
<polygon points="513.1799974852256,94.0 538.2947341949744,108.5 538.2947341949744,137.5 513.1799974852256,123.0" fill="#dddddd" stroke="black" />
<polygon points="563.4094709047231,94.0 538.2947341949744,108.5 538.2947341949744,137.5 563.4094709047231,123.0" fill="#bbbbbb" stroke="black" /><polygon points="61.11473670974872,123.0 86.22947341949744,137.5 61.11473670974872,152.0 36.0,137.5" fill="#ffffff" stroke="black" />
<polygon points="36.0,137.5 61.11473670974872,152.0 61.11473670974872,181.0 36.0,166.5" fill="#dddddd" stroke="black" />
<polygon points="86.22947341949744,137.5 61.11473670974872,152.0 61.11473670974872,181.0 86.22947341949744,166.5" fill="#bbbbbb" stroke="black" /><polygon points="111.34421012924616,123.0 136.45894683899488,137.5 111.34421012924616,152.0 86.22947341949745,137.5" fill="#ffffff" stroke="black" />
<polygon points="86.22947341949745,137.5 111.34421012924616,152.0 111.34421012924616,181.0 86.22947341949745,166.5" fill="#dddddd" stroke="black" />
<polygon points="136.45894683899488,137.5 111.34421012924616,152.0 111.34421012924616,181.0 136.45894683899488,166.5" fill="#bbbbbb" stroke="black" /><polygon points="161.5736835487436,123.0 186.6884202584923,137.5 161.5736835487436,152.0 136.45894683899488,137.5" fill="#ffffff" stroke="black" />
<polygon points="136.45894683899488,137.5 161.5736835487436,152.0 161.5736835487436,181.0 136.45894683899488,166.5" fill="#dddddd" stroke="black" />
<polygon points="186.6884202584923,137.5 161.5736835487436,152.0 161.5736835487436,181.0 186.6884202584923,166.5" fill="#bbbbbb" stroke="black" /><polygon points="211.803156968241,123.0 236.91789367798972,137.5 211.803156968241,152.0 186.6884202584923,137.5" fill="#ffffff" stroke="black" />
<polygon points="186.6884202584923,137.5 211.803156968241,152.0 211.803156968241,181.0 186.6884202584923,166.5" fill="#dddddd" stroke="black" />
<polygon points="236.91789367798972,137.5 211.803156968241,152.0 211.803156968241,181.0 236.91789367798972,166.5" fill="#bbbbbb" stroke="black" /><polygon points="262.03263038773844,123.0 287.1473670974872,137.5 262.03263038773844,152.0 236.91789367798972,137.5" fill="#ffffff" stroke="black" />
<polygon points="236.91789367798972,137.5 262.03263038773844,152.0 262.03263038773844,181.0 236.91789367798972,166.5" fill="#dddddd" stroke="black" />
<polygon points="287.1473670974872,137.5 262.03263038773844,152.0 262.03263038773844,181.0 287.1473670974872,166.5" fill="#bbbbbb" stroke="black" /><polygon points="312.26210380723586,123.0 337.3768405169846,137.5 312.26210380723586,152.0 287.1473670974871,137.5" fill="#ffffff" stroke="black" />
<polygon points="287.1473670974871,137.5 312.26210380723586,152.0 312.26210380723586,181.0 287.1473670974871,166.5" fill="#dddddd" stroke="black" />
<polygon points="337.3768405169846,137.5 312.26210380723586,152.0 312.26210380723586,181.0 337.3768405169846,166.5" fill="#bbbbbb" stroke="black" /><polygon points="362.4915772267333,123.0 387.606313936482,137.5 362.4915772267333,152.0 337.37684051698454,137.5" fill="#ffffff" stroke="black" />
<polygon points="337.37684051698454,137.5 362.4915772267333,152.0 362.4915772267333,181.0 337.37684051698454,166.5" fill="#dddddd" stroke="black" />
<polygon points="387.606313936482,137.5 362.4915772267333,152.0 362.4915772267333,181.0 387.606313936482,166.5" fill="#bbbbbb" stroke="black" /><polygon points="412.7210506462307,123.0 437.83578735597945,137.5 412.7210506462307,152.0 387.60631393648197,137.5" fill="#ffffff" stroke="black" />
<polygon points="387.60631393648197,137.5 412.7210506462307,152.0 412.7210506462307,181.0 387.60631393648197,166.5" fill="#dddddd" stroke="black" />
<polygon points="437.83578735597945,137.5 412.7210506462307,152.0 412.7210506462307,181.0 437.83578735597945,166.5" fill="#bbbbbb" stroke="black" /><polygon points="462.95052406572813,123.0 488.0652607754769,137.5 462.95052406572813,152.0 437.8357873559794,137.5" fill="#ffffff" stroke="black" />
<polygon points="437.8357873559794,137.5 462.95052406572813,152.0 462.95052406572813,181.0 437.8357873559794,166.5" fill="#dddddd" stroke="black" />
<polygon points="488.0652607754769,137.5 462.95052406572813,152.0 462.95052406572813,181.0 488.0652607754769,166.5" fill="#bbbbbb" stroke="black" /><polygon points="513.1799974852256,123.0 538.2947341949744,137.5 513.1799974852256,152.0 488.0652607754769,137.5" fill="#ffffff" stroke="black" />
<polygon points="488.0652607754769,137.5 513.1799974852256,152.0 513.1799974852256,181.0 488.0652607754769,166.5" fill="#dddddd" stroke="black" />
<polygon points="538.2947341949744,137.5 513.1799974852256,152.0 513.1799974852256,181.0 538.2947341949744,166.5" fill="#bbbbbb" stroke="black" /><polygon points="563.4094709047231,123.0 588.5242076144718,137.5 563.4094709047231,152.0 538.2947341949744,137.5" fill="#ffffff" stroke="black" />
<polygon points="538.2947341949744,137.5 563.4094709047231,152.0 563.4094709047231,181.0 538.2947341949744,166.5" fill="#dddddd" stroke="black" />
<polygon points="588.5242076144718,137.5 563.4094709047231,152.0 563.4094709047231,181.0 588.5242076144718,166.5" fill="#bbbbbb" stroke="black" /><polygon points="86.22947341949744,166.5 111.34421012924616,181.0 86.22947341949744,195.5 61.11473670974872,181.0" fill="#ffffff" stroke="black" />
<polygon points="61.11473670974872,181.0 86.22947341949744,195.5 86.22947341949744,224.5 61.11473670974872,210.0" fill="#dddddd" stroke="black" />
<polygon points="111.34421012924616,181.0 86.22947341949744,195.5 86.22947341949744,224.5 111.34421012924616,210.0" fill="#bbbbbb" stroke="black" /><polygon points="136.45894683899488,166.5 161.5736835487436,181.0 136.45894683899488,195.5 111.34421012924616,181.0" fill="#ffffff" stroke="black" />
<polygon points="111.34421012924616,181.0 136.45894683899488,195.5 136.45894683899488,224.5 111.34421012924616,210.0" fill="#dddddd" stroke="black" />
<polygon points="161.5736835487436,181.0 136.45894683899488,195.5 136.45894683899488,224.5 161.5736835487436,210.0" fill="#bbbbbb" stroke="black" /><polygon points="186.68842025849233,166.5 211.80315696824104,181.0 186.68842025849233,195.5 161.57368354874362,181.0" fill="#ffffff" stroke="black" />
<polygon points="161.57368354874362,181.0 186.68842025849233,195.5 186.68842025849233,224.5 161.57368354874362,210.0" fill="#dddddd" stroke="black" />
<polygon points="211.80315696824104,181.0 186.68842025849233,195.5 186.68842025849233,224.5 211.80315696824104,210.0" fill="#bbbbbb" stroke="black" /><polygon points="236.91789367798975,166.5 262.0326303877385,181.0 236.91789367798975,195.5 211.80315696824104,181.0" fill="#ffffff" stroke="black" />
<polygon points="211.80315696824104,181.0 236.91789367798975,195.5 236.91789367798975,224.5 211.80315696824104,210.0" fill="#dddddd" stroke="black" />
<polygon points="262.0326303877385,181.0 236.91789367798975,195.5 236.91789367798975,224.5 262.0326303877385,210.0" fill="#bbbbbb" stroke="black" /><polygon points="287.1473670974872,166.5 312.2621038072359,181.0 287.1473670974872,195.5 262.03263038773844,181.0" fill="#ffffff" stroke="black" />
<polygon points="262.03263038773844,181.0 287.1473670974872,195.5 287.1473670974872,224.5 262.03263038773844,210.0" fill="#dddddd" stroke="black" />
<polygon points="312.2621038072359,181.0 287.1473670974872,195.5 287.1473670974872,224.5 312.2621038072359,210.0" fill="#bbbbbb" stroke="black" /><polygon points="337.3768405169846,166.5 362.49157722673334,181.0 337.3768405169846,195.5 312.26210380723586,181.0" fill="#ffffff" stroke="black" />
<polygon points="312.26210380723586,181.0 337.3768405169846,195.5 337.3768405169846,224.5 312.26210380723586,210.0" fill="#dddddd" stroke="black" />
<polygon points="362.49157722673334,181.0 337.3768405169846,195.5 337.3768405169846,224.5 362.49157722673334,210.0" fill="#bbbbbb" stroke="black" /><polygon points="387.606313936482,166.5 412.72105064623076,181.0 387.606313936482,195.5 362.4915772267333,181.0" fill="#ffffff" stroke="black" />
<polygon points="362.4915772267333,181.0 387.606313936482,195.5 387.606313936482,224.5 362.4915772267333,210.0" fill="#dddddd" stroke="black" />
<polygon points="412.72105064623076,181.0 387.606313936482,195.5 387.606313936482,224.5 412.72105064623076,210.0" fill="#bbbbbb" stroke="black" /><polygon points="437.83578735597945,166.5 462.9505240657282,181.0 437.83578735597945,195.5 412.7210506462307,181.0" fill="#ffffff" stroke="black" />
<polygon points="412.7210506462307,181.0 437.83578735597945,195.5 437.83578735597945,224.5 412.7210506462307,210.0" fill="#dddddd" stroke="black" />
<polygon points="462.9505240657282,181.0 437.83578735597945,195.5 437.83578735597945,224.5 462.9505240657282,210.0" fill="#bbbbbb" stroke="black" /><polygon points="488.0652607754769,166.5 513.1799974852256,181.0 488.0652607754769,195.5 462.95052406572813,181.0" fill="#ffffff" stroke="black" />
<polygon points="462.95052406572813,181.0 488.0652607754769,195.5 488.0652607754769,224.5 462.95052406572813,210.0" fill="#dddddd" stroke="black" />
<polygon points="513.1799974852256,181.0 488.0652607754769,195.5 488.0652607754769,224.5 513.1799974852256,210.0" fill="#bbbbbb" stroke="black" /><polygon points="538.2947341949744,166.5 563.4094709047231,181.0 538.2947341949744,195.5 513.1799974852256,181.0" fill="#ffffff" stroke="black" />
<polygon points="513.1799974852256,181.0 538.2947341949744,195.5 538.2947341949744,224.5 513.1799974852256,210.0" fill="#dddddd" stroke="black" />
<polygon points="563.4094709047231,181.0 538.2947341949744,195.5 538.2947341949744,224.5 563.4094709047231,210.0" fill="#bbbbbb" stroke="black" /><polygon points="61.11473670974872,210.0 86.22947341949744,224.5 61.11473670974872,239.0 36.0,224.5" fill="#ffffff" stroke="black" />
<polygon points="36.0,224.5 61.11473670974872,239.0 61.11473670974872,268.0 36.0,253.5" fill="#dddddd" stroke="black" />
<polygon points="86.22947341949744,224.5 61.11473670974872,239.0 61.11473670974872,268.0 86.22947341949744,253.5" fill="#bbbbbb" stroke="black" /><polygon points="111.34421012924616,210.0 136.45894683899488,224.5 111.34421012924616,239.0 86.22947341949745,224.5" fill="#ffffff" stroke="black" />
<polygon points="86.22947341949745,224.5 111.34421012924616,239.0 111.34421012924616,268.0 86.22947341949745,253.5" fill="#dddddd" stroke="black" />
<polygon points="136.45894683899488,224.5 111.34421012924616,239.0 111.34421012924616,268.0 136.45894683899488,253.5" fill="#bbbbbb" stroke="black" /><polygon points="161.5736835487436,210.0 186.6884202584923,224.5 161.5736835487436,239.0 136.45894683899488,224.5" fill="#ffffff" stroke="black" />
<polygon points="136.45894683899488,224.5 161.5736835487436,239.0 161.5736835487436,268.0 136.45894683899488,253.5" fill="#dddddd" stroke="black" />
<polygon points="186.6884202584923,224.5 161.5736835487436,239.0 161.5736835487436,268.0 186.6884202584923,253.5" fill="#bbbbbb" stroke="black" /><polygon points="211.803156968241,210.0 236.91789367798972,224.5 211.803156968241,239.0 186.6884202584923,224.5" fill="#ffffff" stroke="black" />
<polygon points="186.6884202584923,224.5 211.803156968241,239.0 211.803156968241,268.0 186.6884202584923,253.5" fill="#dddddd" stroke="black" />
<polygon points="236.91789367798972,224.5 211.803156968241,239.0 211.803156968241,268.0 236.91789367798972,253.5" fill="#bbbbbb" stroke="black" /><polygon points="262.03263038773844,210.0 287.1473670974872,224.5 262.03263038773844,239.0 236.91789367798972,224.5" fill="#ffffff" stroke="black" />
<polygon points="236.91789367798972,224.5 262.03263038773844,239.0 262.03263038773844,268.0 236.91789367798972,253.5" fill="#dddddd" stroke="black" />
<polygon points="287.1473670974872,224.5 262.03263038773844,239.0 262.03263038773844,268.0 287.1473670974872,253.5" fill="#bbbbbb" stroke="black" /><polygon points="312.26210380723586,210.0 337.3768405169846,224.5 312.26210380723586,239.0 287.1473670974871,224.5" fill="#ffffff" stroke="black" />
<polygon points="287.1473670974871,224.5 312.26210380723586,239.0 312.26210380723586,268.0 287.1473670974871,253.5" fill="#dddddd" stroke="black" />
<polygon points="337.3768405169846,224.5 312.26210380723586,239.0 312.26210380723586,268.0 337.3768405169846,253.5" fill="#bbbbbb" stroke="black" /><polygon points="362.4915772267333,210.0 387.606313936482,224.5 362.4915772267333,239.0 337.37684051698454,224.5" fill="#ffffff" stroke="black" />
<polygon points="337.37684051698454,224.5 362.4915772267333,239.0 362.4915772267333,268.0 337.37684051698454,253.5" fill="#dddddd" stroke="black" />
<polygon points="387.606313936482,224.5 362.4915772267333,239.0 362.4915772267333,268.0 387.606313936482,253.5" fill="#bbbbbb" stroke="black" /><polygon points="412.7210506462307,210.0 437.83578735597945,224.5 412.7210506462307,239.0 387.60631393648197,224.5" fill="#ffffff" stroke="black" />
<polygon points="387.60631393648197,224.5 412.7210506462307,239.0 412.7210506462307,268.0 387.60631393648197,253.5" fill="#dddddd" stroke="black" />
<polygon points="437.83578735597945,224.5 412.7210506462307,239.0 412.7210506462307,268.0 437.83578735597945,253.5" fill="#bbbbbb" stroke="black" /><polygon points="462.95052406572813,210.0 488.0652607754769,224.5 462.95052406572813,239.0 437.8357873559794,224.5" fill="#ffffff" stroke="black" />
<polygon points="437.8357873559794,224.5 462.95052406572813,239.0 462.95052406572813,268.0 437.8357873559794,253.5" fill="#dddddd" stroke="black" />
<polygon points="488.0652607754769,224.5 462.95052406572813,239.0 462.95052406572813,268.0 488.0652607754769,253.5" fill="#bbbbbb" stroke="black" /><polygon points="513.1799974852256,210.0 538.2947341949744,224.5 513.1799974852256,239.0 488.0652607754769,224.5" fill="#ffffff" stroke="black" />
<polygon points="488.0652607754769,224.5 513.1799974852256,239.0 513.1799974852256,268.0 488.0652607754769,253.5" fill="#dddddd" stroke="black" />
<polygon points="538.2947341949744,224.5 513.1799974852256,239.0 513.1799974852256,268.0 538.2947341949744,253.5" fill="#bbbbbb" stroke="black" /><polygon points="563.4094709047231,210.0 588.5242076144718,224.5 563.4094709047231,239.0 538.2947341949744,224.5" fill="#ffffff" stroke="black" />
<polygon points="538.2947341949744,224.5 563.4094709047231,239.0 563.4094709047231,268.0 538.2947341949744,253.5" fill="#dddddd" stroke="black" />
<polygon points="588.5242076144718,224.5 563.4094709047231,239.0 563.4094709047231,268.0 588.5242076144718,253.5" fill="#bbbbbb" stroke="black" /><polygon points="86.22947341949744,253.5 111.34421012924616,268.0 86.22947341949744,282.5 61.11473670974872,268.0" fill="#ffffff" stroke="black" />
<polygon points="61.11473670974872,268.0 86.22947341949744,282.5 86.22947341949744,311.5 61.11473670974872,297.0" fill="#dddddd" stroke="black" />
<polygon points="111.34421012924616,268.0 86.22947341949744,282.5 86.22947341949744,311.5 111.34421012924616,297.0" fill="#bbbbbb" stroke="black" /><polygon points="136.45894683899488,253.5 161.5736835487436,268.0 136.45894683899488,282.5 111.34421012924616,268.0" fill="#ffffff" stroke="black" />
<polygon points="111.34421012924616,268.0 136.45894683899488,282.5 136.45894683899488,311.5 111.34421012924616,297.0" fill="#dddddd" stroke="black" />
<polygon points="161.5736835487436,268.0 136.45894683899488,282.5 136.45894683899488,311.5 161.5736835487436,297.0" fill="#bbbbbb" stroke="black" /><polygon points="186.68842025849233,253.5 211.80315696824104,268.0 186.68842025849233,282.5 161.57368354874362,268.0" fill="#ffffff" stroke="black" />
<polygon points="161.57368354874362,268.0 186.68842025849233,282.5 186.68842025849233,311.5 161.57368354874362,297.0" fill="#dddddd" stroke="black" />
<polygon points="211.80315696824104,268.0 186.68842025849233,282.5 186.68842025849233,311.5 211.80315696824104,297.0" fill="#bbbbbb" stroke="black" /><polygon points="236.91789367798975,253.5 262.0326303877385,268.0 236.91789367798975,282.5 211.80315696824104,268.0" fill="#ffffff" stroke="black" />
<polygon points="211.80315696824104,268.0 236.91789367798975,282.5 236.91789367798975,311.5 211.80315696824104,297.0" fill="#dddddd" stroke="black" />
<polygon points="262.0326303877385,268.0 236.91789367798975,282.5 236.91789367798975,311.5 262.0326303877385,297.0" fill="#bbbbbb" stroke="black" /><polygon points="287.1473670974872,253.5 312.2621038072359,268.0 287.1473670974872,282.5 262.03263038773844,268.0" fill="#ffffff" stroke="black" />
<polygon points="262.03263038773844,268.0 287.1473670974872,282.5 287.1473670974872,311.5 262.03263038773844,297.0" fill="#dddddd" stroke="black" />
<polygon points="312.2621038072359,268.0 287.1473670974872,282.5 287.1473670974872,311.5 312.2621038072359,297.0" fill="#bbbbbb" stroke="black" /><polygon points="337.3768405169846,253.5 362.49157722673334,268.0 337.3768405169846,282.5 312.26210380723586,268.0" fill="#ffffff" stroke="black" />
<polygon points="312.26210380723586,268.0 337.3768405169846,282.5 337.3768405169846,311.5 312.26210380723586,297.0" fill="#dddddd" stroke="black" />
<polygon points="362.49157722673334,268.0 337.3768405169846,282.5 337.3768405169846,311.5 362.49157722673334,297.0" fill="#bbbbbb" stroke="black" /><polygon points="387.606313936482,253.5 412.72105064623076,268.0 387.606313936482,282.5 362.4915772267333,268.0" fill="#ffffff" stroke="black" />
<polygon points="362.4915772267333,268.0 387.606313936482,282.5 387.606313936482,311.5 362.4915772267333,297.0" fill="#dddddd" stroke="black" />
<polygon points="412.72105064623076,268.0 387.606313936482,282.5 387.606313936482,311.5 412.72105064623076,297.0" fill="#bbbbbb" stroke="black" /><polygon points="437.83578735597945,253.5 462.9505240657282,268.0 437.83578735597945,282.5 412.7210506462307,268.0" fill="#ffffff" stroke="black" />
<polygon points="412.7210506462307,268.0 437.83578735597945,282.5 437.83578735597945,311.5 412.7210506462307,297.0" fill="#dddddd" stroke="black" />
<polygon points="462.9505240657282,268.0 437.83578735597945,282.5 437.83578735597945,311.5 462.9505240657282,297.0" fill="#bbbbbb" stroke="black" /><polygon points="488.0652607754769,253.5 513.1799974852256,268.0 488.0652607754769,282.5 462.95052406572813,268.0" fill="#ffffff" stroke="black" />
<polygon points="462.95052406572813,268.0 488.0652607754769,282.5 488.0652607754769,311.5 462.95052406572813,297.0" fill="#dddddd" stroke="black" />
<polygon points="513.1799974852256,268.0 488.0652607754769,282.5 488.0652607754769,311.5 513.1799974852256,297.0" fill="#bbbbbb" stroke="black" /><polygon points="538.2947341949744,253.5 563.4094709047231,268.0 538.2947341949744,282.5 513.1799974852256,268.0" fill="#ffffff" stroke="black" />
<polygon points="513.1799974852256,268.0 538.2947341949744,282.5 538.2947341949744,311.5 513.1799974852256,297.0" fill="#dddddd" stroke="black" />
<polygon points="563.4094709047231,268.0 538.2947341949744,282.5 538.2947341949744,311.5 563.4094709047231,297.0" fill="#bbbbbb" stroke="black" /><polygon points="61.11473670974872,297.0 86.22947341949744,311.5 61.11473670974872,326.0 36.0,311.5" fill="#ffffff" stroke="black" />
<polygon points="36.0,311.5 61.11473670974872,326.0 61.11473670974872,355.0 36.0,340.5" fill="#dddddd" stroke="black" />
<polygon points="86.22947341949744,311.5 61.11473670974872,326.0 61.11473670974872,355.0 86.22947341949744,340.5" fill="#bbbbbb" stroke="black" /><polygon points="111.34421012924616,297.0 136.45894683899488,311.5 111.34421012924616,326.0 86.22947341949745,311.5" fill="#ffffff" stroke="black" />
<polygon points="86.22947341949745,311.5 111.34421012924616,326.0 111.34421012924616,355.0 86.22947341949745,340.5" fill="#dddddd" stroke="black" />
<polygon points="136.45894683899488,311.5 111.34421012924616,326.0 111.34421012924616,355.0 136.45894683899488,340.5" fill="#bbbbbb" stroke="black" /><polygon points="161.5736835487436,297.0 186.6884202584923,311.5 161.5736835487436,326.0 136.45894683899488,311.5" fill="#ffffff" stroke="black" />
<polygon points="136.45894683899488,311.5 161.5736835487436,326.0 161.5736835487436,355.0 136.45894683899488,340.5" fill="#dddddd" stroke="black" />
<polygon points="186.6884202584923,311.5 161.5736835487436,326.0 161.5736835487436,355.0 186.6884202584923,340.5" fill="#bbbbbb" stroke="black" /><polygon points="211.803156968241,297.0 236.91789367798972,311.5 211.803156968241,326.0 186.6884202584923,311.5" fill="#ffffff" stroke="black" />
<polygon points="186.6884202584923,311.5 211.803156968241,326.0 211.803156968241,355.0 186.6884202584923,340.5" fill="#dddddd" stroke="black" />
<polygon points="236.91789367798972,311.5 211.803156968241,326.0 211.803156968241,355.0 236.91789367798972,340.5" fill="#bbbbbb" stroke="black" /><polygon points="262.03263038773844,297.0 287.1473670974872,311.5 262.03263038773844,326.0 236.91789367798972,311.5" fill="#ffffff" stroke="black" />
<polygon points="236.91789367798972,311.5 262.03263038773844,326.0 262.03263038773844,355.0 236.91789367798972,340.5" fill="#dddddd" stroke="black" />
<polygon points="287.1473670974872,311.5 262.03263038773844,326.0 262.03263038773844,355.0 287.1473670974872,340.5" fill="#bbbbbb" stroke="black" /><polygon points="312.26210380723586,297.0 337.3768405169846,311.5 312.26210380723586,326.0 287.1473670974871,311.5" fill="#ffffff" stroke="black" />
<polygon points="287.1473670974871,311.5 312.26210380723586,326.0 312.26210380723586,355.0 287.1473670974871,340.5" fill="#dddddd" stroke="black" />
<polygon points="337.3768405169846,311.5 312.26210380723586,326.0 312.26210380723586,355.0 337.3768405169846,340.5" fill="#bbbbbb" stroke="black" /><polygon points="362.4915772267333,297.0 387.606313936482,311.5 362.4915772267333,326.0 337.37684051698454,311.5" fill="#ffffff" stroke="black" />
<polygon points="337.37684051698454,311.5 362.4915772267333,326.0 362.4915772267333,355.0 337.37684051698454,340.5" fill="#dddddd" stroke="black" />
<polygon points="387.606313936482,311.5 362.4915772267333,326.0 362.4915772267333,355.0 387.606313936482,340.5" fill="#bbbbbb" stroke="black" /><polygon points="412.7210506462307,297.0 437.83578735597945,311.5 412.7210506462307,326.0 387.60631393648197,311.5" fill="#ffffff" stroke="black" />
<polygon points="387.60631393648197,311.5 412.7210506462307,326.0 412.7210506462307,355.0 387.60631393648197,340.5" fill="#dddddd" stroke="black" />
<polygon points="437.83578735597945,311.5 412.7210506462307,326.0 412.7210506462307,355.0 437.83578735597945,340.5" fill="#bbbbbb" stroke="black" /><polygon points="462.95052406572813,297.0 488.0652607754769,311.5 462.95052406572813,326.0 437.8357873559794,311.5" fill="#ffffff" stroke="black" />
<polygon points="437.8357873559794,311.5 462.95052406572813,326.0 462.95052406572813,355.0 437.8357873559794,340.5" fill="#dddddd" stroke="black" />
<polygon points="488.0652607754769,311.5 462.95052406572813,326.0 462.95052406572813,355.0 488.0652607754769,340.5" fill="#bbbbbb" stroke="black" /><polygon points="513.1799974852256,297.0 538.2947341949744,311.5 513.1799974852256,326.0 488.0652607754769,311.5" fill="#ffffff" stroke="black" />
<polygon points="488.0652607754769,311.5 513.1799974852256,326.0 513.1799974852256,355.0 488.0652607754769,340.5" fill="#dddddd" stroke="black" />
<polygon points="538.2947341949744,311.5 513.1799974852256,326.0 513.1799974852256,355.0 538.2947341949744,340.5" fill="#bbbbbb" stroke="black" /><polygon points="563.4094709047231,297.0 588.5242076144718,311.5 563.4094709047231,326.0 538.2947341949744,311.5" fill="#ffffff" stroke="black" />
<polygon points="538.2947341949744,311.5 563.4094709047231,326.0 563.4094709047231,355.0 538.2947341949744,340.5" fill="#dddddd" stroke="black" />
<polygon points="588.5242076144718,311.5 563.4094709047231,326.0 563.4094709047231,355.0 588.5242076144718,340.5" fill="#bbbbbb" stroke="black" /><polygon points="86.22947341949744,340.5 111.34421012924616,355.0 86.22947341949744,369.5 61.11473670974872,355.0" fill="#ffffff" stroke="black" />
<polygon points="61.11473670974872,355.0 86.22947341949744,369.5 86.22947341949744,398.5 61.11473670974872,384.0" fill="#dddddd" stroke="black" />
<polygon points="111.34421012924616,355.0 86.22947341949744,369.5 86.22947341949744,398.5 111.34421012924616,384.0" fill="#bbbbbb" stroke="black" /><polygon points="136.45894683899488,340.5 161.5736835487436,355.0 136.45894683899488,369.5 111.34421012924616,355.0" fill="#ffffff" stroke="black" />
<polygon points="111.34421012924616,355.0 136.45894683899488,369.5 136.45894683899488,398.5 111.34421012924616,384.0" fill="#dddddd" stroke="black" />
<polygon points="161.5736835487436,355.0 136.45894683899488,369.5 136.45894683899488,398.5 161.5736835487436,384.0" fill="#bbbbbb" stroke="black" /><polygon points="186.68842025849233,340.5 211.80315696824104,355.0 186.68842025849233,369.5 161.57368354874362,355.0" fill="#ffffff" stroke="black" />
<polygon points="161.57368354874362,355.0 186.68842025849233,369.5 186.68842025849233,398.5 161.57368354874362,384.0" fill="#dddddd" stroke="black" />
<polygon points="211.80315696824104,355.0 186.68842025849233,369.5 186.68842025849233,398.5 211.80315696824104,384.0" fill="#bbbbbb" stroke="black" /><polygon points="236.91789367798975,340.5 262.0326303877385,355.0 236.91789367798975,369.5 211.80315696824104,355.0" fill="#ffffff" stroke="black" />
<polygon points="211.80315696824104,355.0 236.91789367798975,369.5 236.91789367798975,398.5 211.80315696824104,384.0" fill="#dddddd" stroke="black" />
<polygon points="262.0326303877385,355.0 236.91789367798975,369.5 236.91789367798975,398.5 262.0326303877385,384.0" fill="#bbbbbb" stroke="black" /><polygon points="287.1473670974872,340.5 312.2621038072359,355.0 287.1473670974872,369.5 262.03263038773844,355.0" fill="#ffffff" stroke="black" />
<polygon points="262.03263038773844,355.0 287.1473670974872,369.5 287.1473670974872,398.5 262.03263038773844,384.0" fill="#dddddd" stroke="black" />
<polygon points="312.2621038072359,355.0 287.1473670974872,369.5 287.1473670974872,398.5 312.2621038072359,384.0" fill="#bbbbbb" stroke="black" /><polygon points="337.3768405169846,340.5 362.49157722673334,355.0 337.3768405169846,369.5 312.26210380723586,355.0" fill="#ffffff" stroke="black" />
<polygon points="312.26210380723586,355.0 337.3768405169846,369.5 337.3768405169846,398.5 312.26210380723586,384.0" fill="#dddddd" stroke="black" />
<polygon points="362.49157722673334,355.0 337.3768405169846,369.5 337.3768405169846,398.5 362.49157722673334,384.0" fill="#bbbbbb" stroke="black" /><polygon points="387.606313936482,340.5 412.72105064623076,355.0 387.606313936482,369.5 362.4915772267333,355.0" fill="#ffffff" stroke="black" />
<polygon points="362.4915772267333,355.0 387.606313936482,369.5 387.606313936482,398.5 362.4915772267333,384.0" fill="#dddddd" stroke="black" />
<polygon points="412.72105064623076,355.0 387.606313936482,369.5 387.606313936482,398.5 412.72105064623076,384.0" fill="#bbbbbb" stroke="black" /><polygon points="437.83578735597945,340.5 462.9505240657282,355.0 437.83578735597945,369.5 412.7210506462307,355.0" fill="#ffffff" stroke="black" />
<polygon points="412.7210506462307,355.0 437.83578735597945,369.5 437.83578735597945,398.5 412.7210506462307,384.0" fill="#dddddd" stroke="black" />
<polygon points="462.9505240657282,355.0 437.83578735597945,369.5 437.83578735597945,398.5 462.9505240657282,384.0" fill="#bbbbbb" stroke="black" /><polygon points="488.0652607754769,340.5 513.1799974852256,355.0 488.0652607754769,369.5 462.95052406572813,355.0" fill="#ffffff" stroke="black" />
<polygon points="462.95052406572813,355.0 488.0652607754769,369.5 488.0652607754769,398.5 462.95052406572813,384.0" fill="#dddddd" stroke="black" />
<polygon points="513.1799974852256,355.0 488.0652607754769,369.5 488.0652607754769,398.5 513.1799974852256,384.0" fill="#bbbbbb" stroke="black" /><polygon points="538.2947341949744,340.5 563.4094709047231,355.0 538.2947341949744,369.5 513.1799974852256,355.0" fill="#ffffff" stroke="black" />
<polygon points="513.1799974852256,355.0 538.2947341949744,369.5 538.2947341949744,398.5 513.1799974852256,384.0" fill="#dddddd" stroke="black" />
<polygon points="563.4094709047231,355.0 538.2947341949744,369.5 538.2947341949744,398.5 563.4094709047231,384.0" fill="#bbbbbb" stroke="black" /><polygon points="61.11473670974872,384.0 86.22947341949744,398.5 61.11473670974872,413.0 36.0,398.5" fill="#ffffff" stroke="black" />
<polygon points="36.0,398.5 61.11473670974872,413.0 61.11473670974872,442.0 36.0,427.5" fill="#dddddd" stroke="black" />
<polygon points="86.22947341949744,398.5 61.11473670974872,413.0 61.11473670974872,442.0 86.22947341949744,427.5" fill="#bbbbbb" stroke="black" /><polygon points="111.34421012924616,384.0 136.45894683899488,398.5 111.34421012924616,413.0 86.22947341949745,398.5" fill="#ffffff" stroke="black" />
<polygon points="86.22947341949745,398.5 111.34421012924616,413.0 111.34421012924616,442.0 86.22947341949745,427.5" fill="#dddddd" stroke="black" />
<polygon points="136.45894683899488,398.5 111.34421012924616,413.0 111.34421012924616,442.0 136.45894683899488,427.5" fill="#bbbbbb" stroke="black" /><polygon points="161.5736835487436,384.0 186.6884202584923,398.5 161.5736835487436,413.0 136.45894683899488,398.5" fill="#ffffff" stroke="black" />
<polygon points="136.45894683899488,398.5 161.5736835487436,413.0 161.5736835487436,442.0 136.45894683899488,427.5" fill="#dddddd" stroke="black" />
<polygon points="186.6884202584923,398.5 161.5736835487436,413.0 161.5736835487436,442.0 186.6884202584923,427.5" fill="#bbbbbb" stroke="black" /><polygon points="211.803156968241,384.0 236.91789367798972,398.5 211.803156968241,413.0 186.6884202584923,398.5" fill="#ffffff" stroke="black" />
<polygon points="186.6884202584923,398.5 211.803156968241,413.0 211.803156968241,442.0 186.6884202584923,427.5" fill="#dddddd" stroke="black" />
<polygon points="236.91789367798972,398.5 211.803156968241,413.0 211.803156968241,442.0 236.91789367798972,427.5" fill="#bbbbbb" stroke="black" /><polygon points="262.03263038773844,384.0 287.1473670974872,398.5 262.03263038773844,413.0 236.91789367798972,398.5" fill="#ffffff" stroke="black" />
<polygon points="236.91789367798972,398.5 262.03263038773844,413.0 262.03263038773844,442.0 236.91789367798972,427.5" fill="#dddddd" stroke="black" />
<polygon points="287.1473670974872,398.5 262.03263038773844,413.0 262.03263038773844,442.0 287.1473670974872,427.5" fill="#bbbbbb" stroke="black" /><polygon points="312.26210380723586,384.0 337.3768405169846,398.5 312.26210380723586,413.0 287.1473670974871,398.5" fill="#ffffff" stroke="black" />
<polygon points="287.1473670974871,398.5 312.26210380723586,413.0 312.26210380723586,442.0 287.1473670974871,427.5" fill="#dddddd" stroke="black" />
<polygon points="337.3768405169846,398.5 312.26210380723586,413.0 312.26210380723586,442.0 337.3768405169846,427.5" fill="#bbbbbb" stroke="black" /><polygon points="362.4915772267333,384.0 387.606313936482,398.5 362.4915772267333,413.0 337.37684051698454,398.5" fill="#ffffff" stroke="black" />
<polygon points="337.37684051698454,398.5 362.4915772267333,413.0 362.4915772267333,442.0 337.37684051698454,427.5" fill="#dddddd" stroke="black" />
<polygon points="387.606313936482,398.5 362.4915772267333,413.0 362.4915772267333,442.0 387.606313936482,427.5" fill="#bbbbbb" stroke="black" /><polygon points="412.7210506462307,384.0 437.83578735597945,398.5 412.7210506462307,413.0 387.60631393648197,398.5" fill="#ffffff" stroke="black" />
<polygon points="387.60631393648197,398.5 412.7210506462307,413.0 412.7210506462307,442.0 387.60631393648197,427.5" fill="#dddddd" stroke="black" />
<polygon points="437.83578735597945,398.5 412.7210506462307,413.0 412.7210506462307,442.0 437.83578735597945,427.5" fill="#bbbbbb" stroke="black" /><polygon points="462.95052406572813,384.0 488.0652607754769,398.5 462.95052406572813,413.0 437.8357873559794,398.5" fill="#ffffff" stroke="black" />
<polygon points="437.8357873559794,398.5 462.95052406572813,413.0 462.95052406572813,442.0 437.8357873559794,427.5" fill="#dddddd" stroke="black" />
<polygon points="488.0652607754769,398.5 462.95052406572813,413.0 462.95052406572813,442.0 488.0652607754769,427.5" fill="#bbbbbb" stroke="black" /><polygon points="513.1799974852256,384.0 538.2947341949744,398.5 513.1799974852256,413.0 488.0652607754769,398.5" fill="#ffffff" stroke="black" />
<polygon points="488.0652607754769,398.5 513.1799974852256,413.0 513.1799974852256,442.0 488.0652607754769,427.5" fill="#dddddd" stroke="black" />
<polygon points="538.2947341949744,398.5 513.1799974852256,413.0 513.1799974852256,442.0 538.2947341949744,427.5" fill="#bbbbbb" stroke="black" /><polygon points="563.4094709047231,384.0 588.5242076144718,398.5 563.4094709047231,413.0 538.2947341949744,398.5" fill="#ffffff" stroke="black" />
<polygon points="538.2947341949744,398.5 563.4094709047231,413.0 563.4094709047231,442.0 538.2947341949744,427.5" fill="#dddddd" stroke="black" />
<polygon points="588.5242076144718,398.5 563.4094709047231,413.0 563.4094709047231,442.0 588.5242076144718,427.5" fill="#bbbbbb" stroke="black" /><polygon points="86.22947341949744,427.5 111.34421012924616,442.0 86.22947341949744,456.5 61.11473670974872,442.0" fill="#ffffff" stroke="black" />
<polygon points="61.11473670974872,442.0 86.22947341949744,456.5 86.22947341949744,485.5 61.11473670974872,471.0" fill="#dddddd" stroke="black" />
<polygon points="111.34421012924616,442.0 86.22947341949744,456.5 86.22947341949744,485.5 111.34421012924616,471.0" fill="#bbbbbb" stroke="black" /><polygon points="136.45894683899488,427.5 161.5736835487436,442.0 136.45894683899488,456.5 111.34421012924616,442.0" fill="#ffffff" stroke="black" />
<polygon points="111.34421012924616,442.0 136.45894683899488,456.5 136.45894683899488,485.5 111.34421012924616,471.0" fill="#dddddd" stroke="black" />
<polygon points="161.5736835487436,442.0 136.45894683899488,456.5 136.45894683899488,485.5 161.5736835487436,471.0" fill="#bbbbbb" stroke="black" /><polygon points="186.68842025849233,427.5 211.80315696824104,442.0 186.68842025849233,456.5 161.57368354874362,442.0" fill="#ffffff" stroke="black" />
<polygon points="161.57368354874362,442.0 186.68842025849233,456.5 186.68842025849233,485.5 161.57368354874362,471.0" fill="#dddddd" stroke="black" />
<polygon points="211.80315696824104,442.0 186.68842025849233,456.5 186.68842025849233,485.5 211.80315696824104,471.0" fill="#bbbbbb" stroke="black" /><polygon points="236.91789367798975,427.5 262.0326303877385,442.0 236.91789367798975,456.5 211.80315696824104,442.0" fill="#ffffff" stroke="black" />
<polygon points="211.80315696824104,442.0 236.91789367798975,456.5 236.91789367798975,485.5 211.80315696824104,471.0" fill="#dddddd" stroke="black" />
<polygon points="262.0326303877385,442.0 236.91789367798975,456.5 236.91789367798975,485.5 262.0326303877385,471.0" fill="#bbbbbb" stroke="black" /><polygon points="287.1473670974872,427.5 312.2621038072359,442.0 287.1473670974872,456.5 262.03263038773844,442.0" fill="#ffffff" stroke="black" />
<polygon points="262.03263038773844,442.0 287.1473670974872,456.5 287.1473670974872,485.5 262.03263038773844,471.0" fill="#dddddd" stroke="black" />
<polygon points="312.2621038072359,442.0 287.1473670974872,456.5 287.1473670974872,485.5 312.2621038072359,471.0" fill="#bbbbbb" stroke="black" /><polygon points="337.3768405169846,427.5 362.49157722673334,442.0 337.3768405169846,456.5 312.26210380723586,442.0" fill="#ffffff" stroke="black" />
<polygon points="312.26210380723586,442.0 337.3768405169846,456.5 337.3768405169846,485.5 312.26210380723586,471.0" fill="#dddddd" stroke="black" />
<polygon points="362.49157722673334,442.0 337.3768405169846,456.5 337.3768405169846,485.5 362.49157722673334,471.0" fill="#bbbbbb" stroke="black" /><polygon points="387.606313936482,427.5 412.72105064623076,442.0 387.606313936482,456.5 362.4915772267333,442.0" fill="#ffffff" stroke="black" />
<polygon points="362.4915772267333,442.0 387.606313936482,456.5 387.606313936482,485.5 362.4915772267333,471.0" fill="#dddddd" stroke="black" />
<polygon points="412.72105064623076,442.0 387.606313936482,456.5 387.606313936482,485.5 412.72105064623076,471.0" fill="#bbbbbb" stroke="black" /><polygon points="437.83578735597945,427.5 462.9505240657282,442.0 437.83578735597945,456.5 412.7210506462307,442.0" fill="#ffffff" stroke="black" />
<polygon points="412.7210506462307,442.0 437.83578735597945,456.5 437.83578735597945,485.5 412.7210506462307,471.0" fill="#dddddd" stroke="black" />
<polygon points="462.9505240657282,442.0 437.83578735597945,456.5 437.83578735597945,485.5 462.9505240657282,471.0" fill="#bbbbbb" stroke="black" /><polygon points="488.0652607754769,427.5 513.1799974852256,442.0 488.0652607754769,456.5 462.95052406572813,442.0" fill="#ffffff" stroke="black" />
<polygon points="462.95052406572813,442.0 488.0652607754769,456.5 488.0652607754769,485.5 462.95052406572813,471.0" fill="#dddddd" stroke="black" />
<polygon points="513.1799974852256,442.0 488.0652607754769,456.5 488.0652607754769,485.5 513.1799974852256,471.0" fill="#bbbbbb" stroke="black" /><polygon points="538.2947341949744,427.5 563.4094709047231,442.0 538.2947341949744,456.5 513.1799974852256,442.0" fill="#ffffff" stroke="black" />
<polygon points="513.1799974852256,442.0 538.2947341949744,456.5 538.2947341949744,485.5 513.1799974852256,471.0" fill="#dddddd" stroke="black" />
<polygon points="563.4094709047231,442.0 538.2947341949744,456.5 538.2947341949744,485.5 563.4094709047231,471.0" fill="#bbbbbb" stroke="black" /><polygon points="61.11473670974872,471.0 86.22947341949744,485.5 61.11473670974872,500.0 36.0,485.5" fill="#ffffff" stroke="black" />
<polygon points="36.0,485.5 61.11473670974872,500.0 61.11473670974872,529.0 36.0,514.5" fill="#dddddd" stroke="black" />
<polygon points="86.22947341949744,485.5 61.11473670974872,500.0 61.11473670974872,529.0 86.22947341949744,514.5" fill="#bbbbbb" stroke="black" /><polygon points="111.34421012924616,471.0 136.45894683899488,485.5 111.34421012924616,500.0 86.22947341949745,485.5" fill="#ffffff" stroke="black" />
<polygon points="86.22947341949745,485.5 111.34421012924616,500.0 111.34421012924616,529.0 86.22947341949745,514.5" fill="#dddddd" stroke="black" />
<polygon points="136.45894683899488,485.5 111.34421012924616,500.0 111.34421012924616,529.0 136.45894683899488,514.5" fill="#bbbbbb" stroke="black" /><polygon points="161.5736835487436,471.0 186.6884202584923,485.5 161.5736835487436,500.0 136.45894683899488,485.5" fill="#ffffff" stroke="black" />
<polygon points="136.45894683899488,485.5 161.5736835487436,500.0 161.5736835487436,529.0 136.45894683899488,514.5" fill="#dddddd" stroke="black" />
<polygon points="186.6884202584923,485.5 161.5736835487436,500.0 161.5736835487436,529.0 186.6884202584923,514.5" fill="#bbbbbb" stroke="black" /><polygon points="211.803156968241,471.0 236.91789367798972,485.5 211.803156968241,500.0 186.6884202584923,485.5" fill="#ffffff" stroke="black" />
<polygon points="186.6884202584923,485.5 211.803156968241,500.0 211.803156968241,529.0 186.6884202584923,514.5" fill="#dddddd" stroke="black" />
<polygon points="236.91789367798972,485.5 211.803156968241,500.0 211.803156968241,529.0 236.91789367798972,514.5" fill="#bbbbbb" stroke="black" /><polygon points="262.03263038773844,471.0 287.1473670974872,485.5 262.03263038773844,500.0 236.91789367798972,485.5" fill="#ffffff" stroke="black" />
<polygon points="236.91789367798972,485.5 262.03263038773844,500.0 262.03263038773844,529.0 236.91789367798972,514.5" fill="#dddddd" stroke="black" />
<polygon points="287.1473670974872,485.5 262.03263038773844,500.0 262.03263038773844,529.0 287.1473670974872,514.5" fill="#bbbbbb" stroke="black" /><polygon points="312.26210380723586,471.0 337.3768405169846,485.5 312.26210380723586,500.0 287.1473670974871,485.5" fill="#ffffff" stroke="black" />
<polygon points="287.1473670974871,485.5 312.26210380723586,500.0 312.26210380723586,529.0 287.1473670974871,514.5" fill="#dddddd" stroke="black" />
<polygon points="337.3768405169846,485.5 312.26210380723586,500.0 312.26210380723586,529.0 337.3768405169846,514.5" fill="#bbbbbb" stroke="black" /><polygon points="362.4915772267333,471.0 387.606313936482,485.5 362.4915772267333,500.0 337.37684051698454,485.5" fill="#ffffff" stroke="black" />
<polygon points="337.37684051698454,485.5 362.4915772267333,500.0 362.4915772267333,529.0 337.37684051698454,514.5" fill="#dddddd" stroke="black" />
<polygon points="387.606313936482,485.5 362.4915772267333,500.0 362.4915772267333,529.0 387.606313936482,514.5" fill="#bbbbbb" stroke="black" /><polygon points="412.7210506462307,471.0 437.83578735597945,485.5 412.7210506462307,500.0 387.60631393648197,485.5" fill="#ffffff" stroke="black" />
<polygon points="387.60631393648197,485.5 412.7210506462307,500.0 412.7210506462307,529.0 387.60631393648197,514.5" fill="#dddddd" stroke="black" />
<polygon points="437.83578735597945,485.5 412.7210506462307,500.0 412.7210506462307,529.0 437.83578735597945,514.5" fill="#bbbbbb" stroke="black" /><polygon points="462.95052406572813,471.0 488.0652607754769,485.5 462.95052406572813,500.0 437.8357873559794,485.5" fill="#ffffff" stroke="black" />
<polygon points="437.8357873559794,485.5 462.95052406572813,500.0 462.95052406572813,529.0 437.8357873559794,514.5" fill="#dddddd" stroke="black" />
<polygon points="488.0652607754769,485.5 462.95052406572813,500.0 462.95052406572813,529.0 488.0652607754769,514.5" fill="#bbbbbb" stroke="black" /><polygon points="513.1799974852256,471.0 538.2947341949744,485.5 513.1799974852256,500.0 488.0652607754769,485.5" fill="#ffffff" stroke="black" />
<polygon points="488.0652607754769,485.5 513.1799974852256,500.0 513.1799974852256,529.0 488.0652607754769,514.5" fill="#dddddd" stroke="black" />
<polygon points="538.2947341949744,485.5 513.1799974852256,500.0 513.1799974852256,529.0 538.2947341949744,514.5" fill="#bbbbbb" stroke="black" /><polygon points="563.4094709047231,471.0 588.5242076144718,485.5 563.4094709047231,500.0 538.2947341949744,485.5" fill="#ffffff" stroke="black" />
<polygon points="538.2947341949744,485.5 563.4094709047231,500.0 563.4094709047231,529.0 538.2947341949744,514.5" fill="#dddddd" stroke="black" />
<polygon points="588.5242076144718,485.5 563.4094709047231,500.0 563.4094709047231,529.0 588.5242076144718,514.5" fill="#bbbbbb" stroke="black" /><polygon points="86.22947341949744,514.5 111.34421012924616,529.0 86.22947341949744,543.5 61.11473670974872,529.0" fill="#ffffff" stroke="black" />
<polygon points="61.11473670974872,529.0 86.22947341949744,543.5 86.22947341949744,572.5 61.11473670974872,558.0" fill="#dddddd" stroke="black" />
<polygon points="111.34421012924616,529.0 86.22947341949744,543.5 86.22947341949744,572.5 111.34421012924616,558.0" fill="#bbbbbb" stroke="black" /><polygon points="136.45894683899488,514.5 161.5736835487436,529.0 136.45894683899488,543.5 111.34421012924616,529.0" fill="#ffffff" stroke="black" />
<polygon points="111.34421012924616,529.0 136.45894683899488,543.5 136.45894683899488,572.5 111.34421012924616,558.0" fill="#dddddd" stroke="black" />
<polygon points="161.5736835487436,529.0 136.45894683899488,543.5 136.45894683899488,572.5 161.5736835487436,558.0" fill="#bbbbbb" stroke="black" /><polygon points="186.68842025849233,514.5 211.80315696824104,529.0 186.68842025849233,543.5 161.57368354874362,529.0" fill="#ffffff" stroke="black" />
<polygon points="161.57368354874362,529.0 186.68842025849233,543.5 186.68842025849233,572.5 161.57368354874362,558.0" fill="#dddddd" stroke="black" />
<polygon points="211.80315696824104,529.0 186.68842025849233,543.5 186.68842025849233,572.5 211.80315696824104,558.0" fill="#bbbbbb" stroke="black" /><polygon points="236.91789367798975,514.5 262.0326303877385,529.0 236.91789367798975,543.5 211.80315696824104,529.0" fill="#ffffff" stroke="black" />
<polygon points="211.80315696824104,529.0 236.91789367798975,543.5 236.91789367798975,572.5 211.80315696824104,558.0" fill="#dddddd" stroke="black" />
<polygon points="262.0326303877385,529.0 236.91789367798975,543.5 236.91789367798975,572.5 262.0326303877385,558.0" fill="#bbbbbb" stroke="black" /><polygon points="287.1473670974872,514.5 312.2621038072359,529.0 287.1473670974872,543.5 262.03263038773844,529.0" fill="#ffffff" stroke="black" />
<polygon points="262.03263038773844,529.0 287.1473670974872,543.5 287.1473670974872,572.5 262.03263038773844,558.0" fill="#dddddd" stroke="black" />
<polygon points="312.2621038072359,529.0 287.1473670974872,543.5 287.1473670974872,572.5 312.2621038072359,558.0" fill="#bbbbbb" stroke="black" /><polygon points="337.3768405169846,514.5 362.49157722673334,529.0 337.3768405169846,543.5 312.26210380723586,529.0" fill="#ffffff" stroke="black" />
<polygon points="312.26210380723586,529.0 337.3768405169846,543.5 337.3768405169846,572.5 312.26210380723586,558.0" fill="#dddddd" stroke="black" />
<polygon points="362.49157722673334,529.0 337.3768405169846,543.5 337.3768405169846,572.5 362.49157722673334,558.0" fill="#bbbbbb" stroke="black" /><polygon points="387.606313936482,514.5 412.72105064623076,529.0 387.606313936482,543.5 362.4915772267333,529.0" fill="#ffffff" stroke="black" />
<polygon points="362.4915772267333,529.0 387.606313936482,543.5 387.606313936482,572.5 362.4915772267333,558.0" fill="#dddddd" stroke="black" />
<polygon points="412.72105064623076,529.0 387.606313936482,543.5 387.606313936482,572.5 412.72105064623076,558.0" fill="#bbbbbb" stroke="black" /><polygon points="437.83578735597945,514.5 462.9505240657282,529.0 437.83578735597945,543.5 412.7210506462307,529.0" fill="#ffffff" stroke="black" />
<polygon points="412.7210506462307,529.0 437.83578735597945,543.5 437.83578735597945,572.5 412.7210506462307,558.0" fill="#dddddd" stroke="black" />
<polygon points="462.9505240657282,529.0 437.83578735597945,543.5 437.83578735597945,572.5 462.9505240657282,558.0" fill="#bbbbbb" stroke="black" /><polygon points="488.0652607754769,514.5 513.1799974852256,529.0 488.0652607754769,543.5 462.95052406572813,529.0" fill="#ffffff" stroke="black" />
<polygon points="462.95052406572813,529.0 488.0652607754769,543.5 488.0652607754769,572.5 462.95052406572813,558.0" fill="#dddddd" stroke="black" />
<polygon points="513.1799974852256,529.0 488.0652607754769,543.5 488.0652607754769,572.5 513.1799974852256,558.0" fill="#bbbbbb" stroke="black" /><polygon points="538.2947341949744,514.5 563.4094709047231,529.0 538.2947341949744,543.5 513.1799974852256,529.0" fill="#ffffff" stroke="black" />
<polygon points="513.1799974852256,529.0 538.2947341949744,543.5 538.2947341949744,572.5 513.1799974852256,558.0" fill="#dddddd" stroke="black" />
<polygon points="563.4094709047231,529.0 538.2947341949744,543.5 538.2947341949744,572.5 563.4094709047231,558.0" fill="#bbbbbb" stroke="black" /><polygon points="61.11473670974872,558.0 86.22947341949744,572.5 61.11473670974872,587.0 36.0,572.5" fill="#ffffff" stroke="black" />
<polygon points="36.0,572.5 61.11473670974872,587.0 61.11473670974872,616.0 36.0,601.5" fill="#dddddd" stroke="black" />
<polygon points="86.22947341949744,572.5 61.11473670974872,587.0 61.11473670974872,616.0 86.22947341949744,601.5" fill="#bbbbbb" stroke="black" /><polygon points="111.34421012924616,558.0 136.45894683899488,572.5 111.34421012924616,587.0 86.22947341949745,572.5" fill="#ffffff" stroke="black" />
<polygon points="86.22947341949745,572.5 111.34421012924616,587.0 111.34421012924616,616.0 86.22947341949745,601.5" fill="#dddddd" stroke="black" />
<polygon points="136.45894683899488,572.5 111.34421012924616,587.0 111.34421012924616,616.0 136.45894683899488,601.5" fill="#bbbbbb" stroke="black" /><polygon points="161.5736835487436,558.0 186.6884202584923,572.5 161.5736835487436,587.0 136.45894683899488,572.5" fill="#ffffff" stroke="black" />
<polygon points="136.45894683899488,572.5 161.5736835487436,587.0 161.5736835487436,616.0 136.45894683899488,601.5" fill="#dddddd" stroke="black" />
<polygon points="186.6884202584923,572.5 161.5736835487436,587.0 161.5736835487436,616.0 186.6884202584923,601.5" fill="#bbbbbb" stroke="black" /><polygon points="211.803156968241,558.0 236.91789367798972,572.5 211.803156968241,587.0 186.6884202584923,572.5" fill="#ffffff" stroke="black" />
<polygon points="186.6884202584923,572.5 211.803156968241,587.0 211.803156968241,616.0 186.6884202584923,601.5" fill="#dddddd" stroke="black" />
<polygon points="236.91789367798972,572.5 211.803156968241,587.0 211.803156968241,616.0 236.91789367798972,601.5" fill="#bbbbbb" stroke="black" /><polygon points="262.03263038773844,558.0 287.1473670974872,572.5 262.03263038773844,587.0 236.91789367798972,572.5" fill="#ffffff" stroke="black" />
<polygon points="236.91789367798972,572.5 262.03263038773844,587.0 262.03263038773844,616.0 236.91789367798972,601.5" fill="#dddddd" stroke="black" />
<polygon points="287.1473670974872,572.5 262.03263038773844,587.0 262.03263038773844,616.0 287.1473670974872,601.5" fill="#bbbbbb" stroke="black" /><polygon points="312.26210380723586,558.0 337.3768405169846,572.5 312.26210380723586,587.0 287.1473670974871,572.5" fill="#ffffff" stroke="black" />
<polygon points="287.1473670974871,572.5 312.26210380723586,587.0 312.26210380723586,616.0 287.1473670974871,601.5" fill="#dddddd" stroke="black" />
<polygon points="337.3768405169846,572.5 312.26210380723586,587.0 312.26210380723586,616.0 337.3768405169846,601.5" fill="#bbbbbb" stroke="black" /><polygon points="362.4915772267333,558.0 387.606313936482,572.5 362.4915772267333,587.0 337.37684051698454,572.5" fill="#ffffff" stroke="black" />
<polygon points="337.37684051698454,572.5 362.4915772267333,587.0 362.4915772267333,616.0 337.37684051698454,601.5" fill="#dddddd" stroke="black" />
<polygon points="387.606313936482,572.5 362.4915772267333,587.0 362.4915772267333,616.0 387.606313936482,601.5" fill="#bbbbbb" stroke="black" /><polygon points="412.7210506462307,558.0 437.83578735597945,572.5 412.7210506462307,587.0 387.60631393648197,572.5" fill="#ffffff" stroke="black" />
<polygon points="387.60631393648197,572.5 412.7210506462307,587.0 412.7210506462307,616.0 387.60631393648197,601.5" fill="#dddddd" stroke="black" />
<polygon points="437.83578735597945,572.5 412.7210506462307,587.0 412.7210506462307,616.0 437.83578735597945,601.5" fill="#bbbbbb" stroke="black" /><polygon points="462.95052406572813,558.0 488.0652607754769,572.5 462.95052406572813,587.0 437.8357873559794,572.5" fill="#ffffff" stroke="black" />
<polygon points="437.8357873559794,572.5 462.95052406572813,587.0 462.95052406572813,616.0 437.8357873559794,601.5" fill="#dddddd" stroke="black" />
<polygon points="488.0652607754769,572.5 462.95052406572813,587.0 462.95052406572813,616.0 488.0652607754769,601.5" fill="#bbbbbb" stroke="black" /><polygon points="513.1799974852256,558.0 538.2947341949744,572.5 513.1799974852256,587.0 488.0652607754769,572.5" fill="#ffffff" stroke="black" />
<polygon points="488.0652607754769,572.5 513.1799974852256,587.0 513.1799974852256,616.0 488.0652607754769,601.5" fill="#dddddd" stroke="black" />
<polygon points="538.2947341949744,572.5 513.1799974852256,587.0 513.1799974852256,616.0 538.2947341949744,601.5" fill="#bbbbbb" stroke="black" /><polygon points="563.4094709047231,558.0 588.5242076144718,572.5 563.4094709047231,587.0 538.2947341949744,572.5" fill="#ffffff" stroke="black" />
<polygon points="538.2947341949744,572.5 563.4094709047231,587.0 563.4094709047231,616.0 538.2947341949744,601.5" fill="#dddddd" stroke="black" />
<polygon points="588.5242076144718,572.5 563.4094709047231,587.0 563.4094709047231,616.0 588.5242076144718,601.5" fill="#bbbbbb" stroke="black" /><polygon points="86.22947341949744,601.5 111.34421012924616,616.0 86.22947341949744,630.5 61.11473670974872,616.0" fill="#ffffff" stroke="black" />
<polygon points="61.11473670974872,616.0 86.22947341949744,630.5 86.22947341949744,659.5 61.11473670974872,645.0" fill="#dddddd" stroke="black" />
<polygon points="111.34421012924616,616.0 86.22947341949744,630.5 86.22947341949744,659.5 111.34421012924616,645.0" fill="#bbbbbb" stroke="black" /><polygon points="136.45894683899488,601.5 161.5736835487436,616.0 136.45894683899488,630.5 111.34421012924616,616.0" fill="#ffffff" stroke="black" />
<polygon points="111.34421012924616,616.0 136.45894683899488,630.5 136.45894683899488,659.5 111.34421012924616,645.0" fill="#dddddd" stroke="black" />
<polygon points="161.5736835487436,616.0 136.45894683899488,630.5 136.45894683899488,659.5 161.5736835487436,645.0" fill="#bbbbbb" stroke="black" /><polygon points="186.68842025849233,601.5 211.80315696824104,616.0 186.68842025849233,630.5 161.57368354874362,616.0" fill="#ffffff" stroke="black" />
<polygon points="161.57368354874362,616.0 186.68842025849233,630.5 186.68842025849233,659.5 161.57368354874362,645.0" fill="#dddddd" stroke="black" />
<polygon points="211.80315696824104,616.0 186.68842025849233,630.5 186.68842025849233,659.5 211.80315696824104,645.0" fill="#bbbbbb" stroke="black" /><polygon points="236.91789367798975,601.5 262.0326303877385,616.0 236.91789367798975,630.5 211.80315696824104,616.0" fill="#ffffff" stroke="black" />
<polygon points="211.80315696824104,616.0 236.91789367798975,630.5 236.91789367798975,659.5 211.80315696824104,645.0" fill="#dddddd" stroke="black" />
<polygon points="262.0326303877385,616.0 236.91789367798975,630.5 236.91789367798975,659.5 262.0326303877385,645.0" fill="#bbbbbb" stroke="black" /><polygon points="287.1473670974872,601.5 312.2621038072359,616.0 287.1473670974872,630.5 262.03263038773844,616.0" fill="#ffffff" stroke="black" />
<polygon points="262.03263038773844,616.0 287.1473670974872,630.5 287.1473670974872,659.5 262.03263038773844,645.0" fill="#dddddd" stroke="black" />
<polygon points="312.2621038072359,616.0 287.1473670974872,630.5 287.1473670974872,659.5 312.2621038072359,645.0" fill="#bbbbbb" stroke="black" /><polygon points="337.3768405169846,601.5 362.49157722673334,616.0 337.3768405169846,630.5 312.26210380723586,616.0" fill="#ffffff" stroke="black" />
<polygon points="312.26210380723586,616.0 337.3768405169846,630.5 337.3768405169846,659.5 312.26210380723586,645.0" fill="#dddddd" stroke="black" />
<polygon points="362.49157722673334,616.0 337.3768405169846,630.5 337.3768405169846,659.5 362.49157722673334,645.0" fill="#bbbbbb" stroke="black" /><polygon points="387.606313936482,601.5 412.72105064623076,616.0 387.606313936482,630.5 362.4915772267333,616.0" fill="#ffffff" stroke="black" />
<polygon points="362.4915772267333,616.0 387.606313936482,630.5 387.606313936482,659.5 362.4915772267333,645.0" fill="#dddddd" stroke="black" />
<polygon points="412.72105064623076,616.0 387.606313936482,630.5 387.606313936482,659.5 412.72105064623076,645.0" fill="#bbbbbb" stroke="black" /><polygon points="437.83578735597945,601.5 462.9505240657282,616.0 437.83578735597945,630.5 412.7210506462307,616.0" fill="#ffffff" stroke="black" />
<polygon points="412.7210506462307,616.0 437.83578735597945,630.5 437.83578735597945,659.5 412.7210506462307,645.0" fill="#dddddd" stroke="black" />
<polygon points="462.9505240657282,616.0 437.83578735597945,630.5 437.83578735597945,659.5 462.9505240657282,645.0" fill="#bbbbbb" stroke="black" /><polygon points="488.0652607754769,601.5 513.1799974852256,616.0 488.0652607754769,630.5 462.95052406572813,616.0" fill="#ffffff" stroke="black" />
<polygon points="462.95052406572813,616.0 488.0652607754769,630.5 488.0652607754769,659.5 462.95052406572813,645.0" fill="#dddddd" stroke="black" />
<polygon points="513.1799974852256,616.0 488.0652607754769,630.5 488.0652607754769,659.5 513.1799974852256,645.0" fill="#bbbbbb" stroke="black" /><polygon points="538.2947341949744,601.5 563.4094709047231,616.0 538.2947341949744,630.5 513.1799974852256,616.0" fill="#ffffff" stroke="black" />
<polygon points="513.1799974852256,616.0 538.2947341949744,630.5 538.2947341949744,659.5 513.1799974852256,645.0" fill="#dddddd" stroke="black" />
<polygon points="563.4094709047231,616.0 538.2947341949744,630.5 538.2947341949744,659.5 563.4094709047231,645.0" fill="#bbbbbb" stroke="black" /><polygon points="61.11473670974872,645.0 86.22947341949744,659.5 61.11473670974872,674.0 36.0,659.5" fill="#ffffff" stroke="black" />
<polygon points="36.0,659.5 61.11473670974872,674.0 61.11473670974872,703.0 36.0,688.5" fill="#dddddd" stroke="black" />
<polygon points="86.22947341949744,659.5 61.11473670974872,674.0 61.11473670974872,703.0 86.22947341949744,688.5" fill="#bbbbbb" stroke="black" /><polygon points="111.34421012924616,645.0 136.45894683899488,659.5 111.34421012924616,674.0 86.22947341949745,659.5" fill="#ffffff" stroke="black" />
<polygon points="86.22947341949745,659.5 111.34421012924616,674.0 111.34421012924616,703.0 86.22947341949745,688.5" fill="#dddddd" stroke="black" />
<polygon points="136.45894683899488,659.5 111.34421012924616,674.0 111.34421012924616,703.0 136.45894683899488,688.5" fill="#bbbbbb" stroke="black" /><polygon points="161.5736835487436,645.0 186.6884202584923,659.5 161.5736835487436,674.0 136.45894683899488,659.5" fill="#ffffff" stroke="black" />
<polygon points="136.45894683899488,659.5 161.5736835487436,674.0 161.5736835487436,703.0 136.45894683899488,688.5" fill="#dddddd" stroke="black" />
<polygon points="186.6884202584923,659.5 161.5736835487436,674.0 161.5736835487436,703.0 186.6884202584923,688.5" fill="#bbbbbb" stroke="black" /><polygon points="211.803156968241,645.0 236.91789367798972,659.5 211.803156968241,674.0 186.6884202584923,659.5" fill="#ffffff" stroke="black" />
<polygon points="186.6884202584923,659.5 211.803156968241,674.0 211.803156968241,703.0 186.6884202584923,688.5" fill="#dddddd" stroke="black" />
<polygon points="236.91789367798972,659.5 211.803156968241,674.0 211.803156968241,703.0 236.91789367798972,688.5" fill="#bbbbbb" stroke="black" /><polygon points="262.03263038773844,645.0 287.1473670974872,659.5 262.03263038773844,674.0 236.91789367798972,659.5" fill="#ffffff" stroke="black" />
<polygon points="236.91789367798972,659.5 262.03263038773844,674.0 262.03263038773844,703.0 236.91789367798972,688.5" fill="#dddddd" stroke="black" />
<polygon points="287.1473670974872,659.5 262.03263038773844,674.0 262.03263038773844,703.0 287.1473670974872,688.5" fill="#bbbbbb" stroke="black" /><polygon points="312.26210380723586,645.0 337.3768405169846,659.5 312.26210380723586,674.0 287.1473670974871,659.5" fill="#ffffff" stroke="black" />
<polygon points="287.1473670974871,659.5 312.26210380723586,674.0 312.26210380723586,703.0 287.1473670974871,688.5" fill="#dddddd" stroke="black" />
<polygon points="337.3768405169846,659.5 312.26210380723586,674.0 312.26210380723586,703.0 337.3768405169846,688.5" fill="#bbbbbb" stroke="black" /><polygon points="362.4915772267333,645.0 387.606313936482,659.5 362.4915772267333,674.0 337.37684051698454,659.5" fill="#ffffff" stroke="black" />
<polygon points="337.37684051698454,659.5 362.4915772267333,674.0 362.4915772267333,703.0 337.37684051698454,688.5" fill="#dddddd" stroke="black" />
<polygon points="387.606313936482,659.5 362.4915772267333,674.0 362.4915772267333,703.0 387.606313936482,688.5" fill="#bbbbbb" stroke="black" /><polygon points="412.7210506462307,645.0 437.83578735597945,659.5 412.7210506462307,674.0 387.60631393648197,659.5" fill="#ffffff" stroke="black" />
<polygon points="387.60631393648197,659.5 412.7210506462307,674.0 412.7210506462307,703.0 387.60631393648197,688.5" fill="#dddddd" stroke="black" />
<polygon points="437.83578735597945,659.5 412.7210506462307,674.0 412.7210506462307,703.0 437.83578735597945,688.5" fill="#bbbbbb" stroke="black" /><polygon points="462.95052406572813,645.0 488.0652607754769,659.5 462.95052406572813,674.0 437.8357873559794,659.5" fill="#ffffff" stroke="black" />
<polygon points="437.8357873559794,659.5 462.95052406572813,674.0 462.95052406572813,703.0 437.8357873559794,688.5" fill="#dddddd" stroke="black" />
<polygon points="488.0652607754769,659.5 462.95052406572813,674.0 462.95052406572813,703.0 488.0652607754769,688.5" fill="#bbbbbb" stroke="black" /><polygon points="513.1799974852256,645.0 538.2947341949744,659.5 513.1799974852256,674.0 488.0652607754769,659.5" fill="#ffffff" stroke="black" />
<polygon points="488.0652607754769,659.5 513.1799974852256,674.0 513.1799974852256,703.0 488.0652607754769,688.5" fill="#dddddd" stroke="black" />
<polygon points="538.2947341949744,659.5 513.1799974852256,674.0 513.1799974852256,703.0 538.2947341949744,688.5" fill="#bbbbbb" stroke="black" /><polygon points="563.4094709047231,645.0 588.5242076144718,659.5 563.4094709047231,674.0 538.2947341949744,659.5" fill="#ffffff" stroke="black" />
<polygon points="538.2947341949744,659.5 563.4094709047231,674.0 563.4094709047231,703.0 538.2947341949744,688.5" fill="#dddddd" stroke="black" />
<polygon points="588.5242076144718,659.5 563.4094709047231,674.0 563.4094709047231,703.0 588.5242076144718,688.5" fill="#bbbbbb" stroke="black" /><polygon points="86.22947341949744,688.5 111.34421012924616,703.0 86.22947341949744,717.5 61.11473670974872,703.0" fill="#ffffff" stroke="black" />
<polygon points="61.11473670974872,703.0 86.22947341949744,717.5 86.22947341949744,746.5 61.11473670974872,732.0" fill="#dddddd" stroke="black" />
<polygon points="111.34421012924616,703.0 86.22947341949744,717.5 86.22947341949744,746.5 111.34421012924616,732.0" fill="#bbbbbb" stroke="black" /><polygon points="136.45894683899488,688.5 161.5736835487436,703.0 136.45894683899488,717.5 111.34421012924616,703.0" fill="#ffffff" stroke="black" />
<polygon points="111.34421012924616,703.0 136.45894683899488,717.5 136.45894683899488,746.5 111.34421012924616,732.0" fill="#dddddd" stroke="black" />
<polygon points="161.5736835487436,703.0 136.45894683899488,717.5 136.45894683899488,746.5 161.5736835487436,732.0" fill="#bbbbbb" stroke="black" /><polygon points="186.68842025849233,688.5 211.80315696824104,703.0 186.68842025849233,717.5 161.57368354874362,703.0" fill="#ffffff" stroke="black" />
<polygon points="161.57368354874362,703.0 186.68842025849233,717.5 186.68842025849233,746.5 161.57368354874362,732.0" fill="#dddddd" stroke="black" />
<polygon points="211.80315696824104,703.0 186.68842025849233,717.5 186.68842025849233,746.5 211.80315696824104,732.0" fill="#bbbbbb" stroke="black" /><polygon points="236.91789367798975,688.5 262.0326303877385,703.0 236.91789367798975,717.5 211.80315696824104,703.0" fill="#ffffff" stroke="black" />
<polygon points="211.80315696824104,703.0 236.91789367798975,717.5 236.91789367798975,746.5 211.80315696824104,732.0" fill="#dddddd" stroke="black" />
<polygon points="262.0326303877385,703.0 236.91789367798975,717.5 236.91789367798975,746.5 262.0326303877385,732.0" fill="#bbbbbb" stroke="black" /><polygon points="287.1473670974872,688.5 312.2621038072359,703.0 287.1473670974872,717.5 262.03263038773844,703.0" fill="#ffffff" stroke="black" />
<polygon points="262.03263038773844,703.0 287.1473670974872,717.5 287.1473670974872,746.5 262.03263038773844,732.0" fill="#dddddd" stroke="black" />
<polygon points="312.2621038072359,703.0 287.1473670974872,717.5 287.1473670974872,746.5 312.2621038072359,732.0" fill="#bbbbbb" stroke="black" /><polygon points="337.3768405169846,688.5 362.49157722673334,703.0 337.3768405169846,717.5 312.26210380723586,703.0" fill="#ffffff" stroke="black" />
<polygon points="312.26210380723586,703.0 337.3768405169846,717.5 337.3768405169846,746.5 312.26210380723586,732.0" fill="#dddddd" stroke="black" />
<polygon points="362.49157722673334,703.0 337.3768405169846,717.5 337.3768405169846,746.5 362.49157722673334,732.0" fill="#bbbbbb" stroke="black" /><polygon points="387.606313936482,688.5 412.72105064623076,703.0 387.606313936482,717.5 362.4915772267333,703.0" fill="#ffffff" stroke="black" />
<polygon points="362.4915772267333,703.0 387.606313936482,717.5 387.606313936482,746.5 362.4915772267333,732.0" fill="#dddddd" stroke="black" />
<polygon points="412.72105064623076,703.0 387.606313936482,717.5 387.606313936482,746.5 412.72105064623076,732.0" fill="#bbbbbb" stroke="black" /><polygon points="437.83578735597945,688.5 462.9505240657282,703.0 437.83578735597945,717.5 412.7210506462307,703.0" fill="#ffffff" stroke="black" />
<polygon points="412.7210506462307,703.0 437.83578735597945,717.5 437.83578735597945,746.5 412.7210506462307,732.0" fill="#dddddd" stroke="black" />
<polygon points="462.9505240657282,703.0 437.83578735597945,717.5 437.83578735597945,746.5 462.9505240657282,732.0" fill="#bbbbbb" stroke="black" /><polygon points="488.0652607754769,688.5 513.1799974852256,703.0 488.0652607754769,717.5 462.95052406572813,703.0" fill="#ffffff" stroke="black" />
<polygon points="462.95052406572813,703.0 488.0652607754769,717.5 488.0652607754769,746.5 462.95052406572813,732.0" fill="#dddddd" stroke="black" />
<polygon points="513.1799974852256,703.0 488.0652607754769,717.5 488.0652607754769,746.5 513.1799974852256,732.0" fill="#bbbbbb" stroke="black" /><polygon points="538.2947341949744,688.5 563.4094709047231,703.0 538.2947341949744,717.5 513.1799974852256,703.0" fill="#ffffff" stroke="black" />
<polygon points="513.1799974852256,703.0 538.2947341949744,717.5 538.2947341949744,746.5 513.1799974852256,732.0" fill="#dddddd" stroke="black" />
<polygon points="563.4094709047231,703.0 538.2947341949744,717.5 538.2947341949744,746.5 563.4094709047231,732.0" fill="#bbbbbb" stroke="black" /></svg>