<svg width="612" height="792" 
     viewBox="0 0 612 792" 
     xmlns="http://www.w3.org/2000/svg">
  <rect width="612" height="792" fill="white"/>
  <polygon points="79.30127018922192,23.5 122.60254037844385,48.5 79.30127018922192,73.5 35.99999999999999,48.5" fill="#e0e0e0" stroke="#000000" stroke-width="0.5"/>
  <polygon points="35.99999999999999,48.5 79.30127018922192,73.5 35.99999999999999,98.5 35.99999999999999,48.5" fill="#b0b0b0" stroke="#000000" stroke-width="0.5"/>
  <polygon points="122.60254037844385,48.5 122.60254037844385,48.5 122.60254037844385,98.5 79.30127018922192,73.5" fill="#808080" stroke="#000000" stroke-width="0.5"/>
  <polygon points="165.9038105676658,23.5 209.20508075688772,48.5 165.9038105676658,73.5 122.60254037844388,48.5" fill="#e0e0e0" stroke="#000000" stroke-width="0.5"/>
  <polygon points="122.60254037844388,48.5 165.9038105676658,73.5 122.60254037844388,98.5 122.60254037844388,48.5" fill="#b0b0b0" stroke="#000000" stroke-width="0.5"/>
  <polygon points="209.20508075688772,48.5 209.20508075688772,48.5 209.20508075688772,98.5 165.9038105676658,73.5" fill="#808080" stroke="#000000" stroke-width="0.5"/>
  <polygon points="252.50635094610965,23.5 295.8076211353316,48.5 252.50635094610965,73.5 209.20508075688772,48.5" fill="#e0e0e0" stroke="#000000" stroke-width="0.5"/>
  <polygon points="209.20508075688772,48.5 252.50635094610965,73.5 209.20508075688772,98.5 209.20508075688772,48.5" fill="#b0b0b0" stroke="#000000" stroke-width="0.5"/>
  <polygon points="295.8076211353316,48.5 295.8076211353316,48.5 295.8076211353316,98.5 252.50635094610965,73.5" fill="#808080" stroke="#000000" stroke-width="0.5"/>
  <polygon points="339.10889132455355,23.5 382.4101615137755,48.5 339.10889132455355,73.5 295.8076211353316,48.5" fill="#e0e0e0" stroke="#000000" stroke-width="0.5"/>
  <polygon points="295.8076211353316,48.5 339.10889132455355,73.5 295.8076211353316,98.5 295.8076211353316,48.5" fill="#b0b0b0" stroke="#000000" stroke-width="0.5"/>
  <polygon points="382.4101615137755,48.5 382.4101615137755,48.5 382.4101615137755,98.5 339.10889132455355,73.5" fill="#808080" stroke="#000000" stroke-width="0.5"/>
  <polygon points="425.7114317029974,23.5 469.01270189221935,48.5 425.7114317029974,73.5 382.41016151377545,48.5" fill="#e0e0e0" stroke="#000000" stroke-width="0.5"/>
  <polygon points="382.41016151377545,48.5 425.7114317029974,73.5 382.41016151377545,98.5 382.41016151377545,48.5" fill="#b0b0b0" stroke="#000000" stroke-width="0.5"/>
  <polygon points="469.01270189221935,48.5 469.01270189221935,48.5 469.01270189221935,98.5 425.7114317029974,73.5" fill="#808080" stroke="#000000" stroke-width="0.5"/>
  <polygon points="512.3139720814412,23.5 555.6152422706631,48.5 512.3139720814412,73.5 469.01270189221924,48.5" fill="#e0e0e0" stroke="#000000" stroke-width="0.5"/>
  <polygon points="469.01270189221924,48.5 512.3139720814412,73.5 469.01270189221924,98.5 469.01270189221924,48.5" fill="#b0b0b0" stroke="#000000" stroke-width="0.5"/>
  <polygon points="555.6152422706631,48.5 555.6152422706631,48.5 555.6152422706631,98.5 512.3139720814412,73.5" fill="#808080" stroke="#000000" stroke-width="0.5"/>
  <polygon points="598.9165124598851,23.5 642.217782649107,48.5 598.9165124598851,73.5 555.6152422706632,48.5" fill="#e0e0e0" stroke="#000000" stroke-width="0.5"/>
  <polygon points="555.6152422706632,48.5 598.9165124598851,73.5 555.6152422706632,98.5 555.6152422706632,48.5" fill="#b0b0b0" stroke="#000000" stroke-width="0.5"/>
  <polygon points="642.217782649107,48.5 642.217782649107,48.5 642.217782649107,98.5 598.9165124598851,73.5" fill="#808080" stroke="#000000" stroke-width="0.5"/>
  <polygon points="122.60254037844385,98.5 165.90381056766577,123.5 122.60254037844385,148.5 79.30127018922192,123.5" fill="#e0e0e0" stroke="#000000" stroke-width="0.5"/>
  <polygon points="79.30127018922192,123.5 122.60254037844385,148.5 79.30127018922192,173.5 79.30127018922192,123.5" fill="#b0b0b0" stroke="#000000" stroke-width="0.5"/>
  <polygon points="165.90381056766577,123.5 165.90381056766577,123.5 165.90381056766577,173.5 122.60254037844385,148.5" fill="#808080" stroke="#000000" stroke-width="0.5"/>
  <polygon points="209.20508075688772,98.5 252.50635094610965,123.5 209.20508075688772,148.5 165.9038105676658,123.5" fill="#e0e0e0" stroke="#000000" stroke-width="0.5"/>
  <polygon points="165.9038105676658,123.5 209.20508075688772,148.5 165.9038105676658,173.5 165.9038105676658,123.5" fill="#b0b0b0" stroke="#000000" stroke-width="0.5"/>
  <polygon points="252.50635094610965,123.5 252.50635094610965,123.5 252.50635094610965,173.5 209.20508075688772,148.5" fill="#808080" stroke="#000000" stroke-width="0.5"/>
  <polygon points="295.8076211353316,98.5 339.10889132455355,123.5 295.8076211353316,148.5 252.50635094610968,123.5" fill="#e0e0e0" stroke="#000000" stroke-width="0.5"/>
  <polygon points="252.50635094610968,123.5 295.8076211353316,148.5 252.50635094610968,173.5 252.50635094610968,123.5" fill="#b0b0b0" stroke="#000000" stroke-width="0.5"/>
  <polygon points="339.10889132455355,123.5 339.10889132455355,123.5 339.10889132455355,173.5 295.8076211353316,148.5" fill="#808080" stroke="#000000" stroke-width="0.5"/>
  <polygon points="382.41016151377545,98.5 425.7114317029974,123.5 382.41016151377545,148.5 339.1088913245535,123.5" fill="#e0e0e0" stroke="#000000" stroke-width="0.5"/>
  <polygon points="339.1088913245535,123.5 382.41016151377545,148.5 339.1088913245535,173.5 339.1088913245535,123.5" fill="#b0b0b0" stroke="#000000" stroke-width="0.5"/>
  <polygon points="425.7114317029974,123.5 425.7114317029974,123.5 425.7114317029974,173.5 382.41016151377545,148.5" fill="#808080" stroke="#000000" stroke-width="0.5"/>
  <polygon points="469.0127018922193,98.5 512.3139720814412,123.5 469.0127018922193,148.5 425.71143170299734,123.5" fill="#e0e0e0" stroke="#000000" stroke-width="0.5"/>
  <polygon points="425.71143170299734,123.5 469.0127018922193,148.5 425.71143170299734,173.5 425.71143170299734,123.5" fill="#b0b0b0" stroke="#000000" stroke-width="0.5"/>
  <polygon points="512.3139720814412,123.5 512.3139720814412,123.5 512.3139720814412,173.5 469.0127018922193,148.5" fill="#808080" stroke="#000000" stroke-width="0.5"/>
  <polygon points="555.6152422706631,98.5 598.916512459885,123.5 555.6152422706631,148.5 512.3139720814412,123.5" fill="#e0e0e0" stroke="#000000" stroke-width="0.5"/>
  <polygon points="512.3139720814412,123.5 555.6152422706631,148.5 512.3139720814412,173.5 512.3139720814412,123.5" fill="#b0b0b0" stroke="#000000" stroke-width="0.5"/>
  <polygon points="598.916512459885,123.5 598.916512459885,123.5 598.916512459885,173.5 555.6152422706631,148.5" fill="#808080" stroke="#000000" stroke-width="0.5"/>
  <polygon points="79.30127018922192,173.5 122.60254037844385,198.5 79.30127018922192,223.5 35.99999999999999,198.5" fill="#e0e0e0" stroke="#000000" stroke-width="0.5"/>
  <polygon points="35.99999999999999,198.5 79.30127018922192,223.5 35.99999999999999,248.5 35.99999999999999,198.5" fill="#b0b0b0" stroke="#000000" stroke-width="0.5"/>
  <polygon points="122.60254037844385,198.5 122.60254037844385,198.5 122.60254037844385,248.5 79.30127018922192,223.5" fill="#808080" stroke="#000000" stroke-width="0.5"/>
  <polygon points="165.9038105676658,173.5 209.20508075688772,198.5 165.9038105676658,223.5 122.60254037844388,198.5" fill="#e0e0e0" stroke="#000000" stroke-width="0.5"/>
  <polygon points="122.60254037844388,198.5 165.9038105676658,223.5 122.60254037844388,248.5 122.60254037844388,198.5" fill="#b0b0b0" stroke="#000000" stroke-width="0.5"/>
  <polygon points="209.20508075688772,198.5 209.20508075688772,198.5 209.20508075688772,248.5 165.9038105676658,223.5" fill="#808080" stroke="#000000" stroke-width="0.5"/>
  <polygon points="252.50635094610965,173.5 295.8076211353316,198.5 252.50635094610965,223.5 209.20508075688772,198.5" fill="#e0e0e0" stroke="#000000" stroke-width="0.5"/>
  <polygon points="209.20508075688772,198.5 252.50635094610965,223.5 209.20508075688772,248.5 209.20508075688772,198.5" fill="#b0b0b0" stroke="#000000" stroke-width="0.5"/>
  <polygon points="295.8076211353316,198.5 295.8076211353316,198.5 295.8076211353316,248.5 252.50635094610965,223.5" fill="#808080" stroke="#000000" stroke-width="0.5"/>
  <polygon points="339.10889132455355,173.5 382.4101615137755,198.5 339.10889132455355,223.5 295.8076211353316,198.5" fill="#e0e0e0" stroke="#000000" stroke-width="0.5"/>
  <polygon points="295.8076211353316,198.5 339.10889132455355,223.5 295.8076211353316,248.5 295.8076211353316,198.5" fill="#b0b0b0" stroke="#000000" stroke-width="0.5"/>
  <polygon points="382.4101615137755,198.5 382.4101615137755,198.5 382.4101615137755,248.5 339.10889132455355,223.5" fill="#808080" stroke="#000000" stroke-width="0.5"/>
  <polygon points="425.7114317029974,173.5 469.01270189221935,198.5 425.7114317029974,223.5 382.41016151377545,198.5" fill="#e0e0e0" stroke="#000000" stroke-width="0.5"/>
  <polygon points="382.41016151377545,198.5 425.7114317029974,223.5 382.41016151377545,248.5 382.41016151377545,198.5" fill="#b0b0b0" stroke="#000000" stroke-width="0.5"/>
  <polygon points="469.01270189221935,198.5 469.01270189221935,198.5 469.01270189221935,248.5 425.7114317029974,223.5" fill="#808080" stroke="#000000" stroke-width="0.5"/>
  <polygon points="512.3139720814412,173.5 555.6152422706631,198.5 512.3139720814412,223.5 469.01270189221924,198.5" fill="#e0e0e0" stroke="#000000" stroke-width="0.5"/>
  <polygon points="469.01270189221924,198.5 512.3139720814412,223.5 469.01270189221924,248.5 469.01270189221924,198.5" fill="#b0b0b0" stroke="#000000" stroke-width="0.5"/>
  <polygon points="555.6152422706631,198.5 555.6152422706631,198.5 555.6152422706631,248.5 512.3139720814412,223.5" fill="#808080" stroke="#000000" stroke-width="0.5"/>
  <polygon points="598.9165124598851,173.5 642.217782649107,198.5 598.9165124598851,223.5 555.6152422706632,198.5" fill="#e0e0e0" stroke="#000000" stroke-width="0.5"/>
  <polygon points="555.6152422706632,198.5 598.9165124598851,223.5 555.6152422706632,248.5 555.6152422706632,198.5" fill="#b0b0b0" stroke="#000000" stroke-width="0.5"/>
  <polygon points="642.217782649107,198.5 642.217782649107,198.5 642.217782649107,248.5 598.9165124598851,223.5" fill="#808080" stroke="#000000" stroke-width="0.5"/>
  <polygon points="122.60254037844385,248.5 165.90381056766577,273.5 122.60254037844385,298.5 79.30127018922192,273.5" fill="#e0e0e0" stroke="#000000" stroke-width="0.5"/>
  <polygon points="79.30127018922192,273.5 122.60254037844385,298.5 79.30127018922192,323.5 79.30127018922192,273.5" fill="#b0b0b0" stroke="#000000" stroke-width="0.5"/>
  <polygon points="165.90381056766577,273.5 165.90381056766577,273.5 165.90381056766577,323.5 122.60254037844385,298.5" fill="#808080" stroke="#000000" stroke-width="0.5"/>
  <polygon points="209.20508075688772,248.5 252.50635094610965,273.5 209.20508075688772,298.5 165.9038105676658,273.5" fill="#e0e0e0" stroke="#000000" stroke-width="0.5"/>
  <polygon points="165.9038105676658,273.5 209.20508075688772,298.5 165.9038105676658,323.5 165.9038105676658,273.5" fill="#b0b0b0" stroke="#000000" stroke-width="0.5"/>
  <polygon points="252.50635094610965,273.5 252.50635094610965,273.5 252.50635094610965,323.5 209.20508075688772,298.5" fill="#808080" stroke="#000000" stroke-width="0.5"/>
  <polygon points="295.8076211353316,248.5 339.10889132455355,273.5 295.8076211353316,298.5 252.50635094610968,273.5" fill="#e0e0e0" stroke="#000000" stroke-width="0.5"/>
  <polygon points="252.50635094610968,273.5 295.8076211353316,298.5 252.50635094610968,323.5 252.50635094610968,273.5" fill="#b0b0b0" stroke="#000000" stroke-width="0.5"/>
  <polygon points="339.10889132455355,273.5 339.10889132455355,273.5 339.10889132455355,323.5 295.8076211353316,298.5" fill="#808080" stroke="#000000" stroke-width="0.5"/>
  <polygon points="382.41016151377545,248.5 425.7114317029974,273.5 382.41016151377545,298.5 339.1088913245535,273.5" fill="#e0e0e0" stroke="#000000" stroke-width="0.5"/>
  <polygon points="339.1088913245535,273.5 382.41016151377545,298.5 339.1088913245535,323.5 339.1088913245535,273.5" fill="#b0b0b0" stroke="#000000" stroke-width="0.5"/>
  <polygon points="425.7114317029974,273.5 425.7114317029974,273.5 425.7114317029974,323.5 382.41016151377545,298.5" fill="#808080" stroke="#000000" stroke-width="0.5"/>
  <polygon points="469.0127018922193,248.5 512.3139720814412,273.5 469.0127018922193,298.5 425.71143170299734,273.5" fill="#e0e0e0" stroke="#000000" stroke-width="0.5"/>
  <polygon points="425.71143170299734,273.5 469.0127018922193,298.5 425.71143170299734,323.5 425.71143170299734,273.5" fill="#b0b0b0" stroke="#000000" stroke-width="0.5"/>
  <polygon points="512.3139720814412,273.5 512.3139720814412,273.5 512.3139720814412,323.5 469.0127018922193,298.5" fill="#808080" stroke="#000000" stroke-width="0.5"/>
  <polygon points="555.6152422706631,248.5 598.916512459885,273.5 555.6152422706631,298.5 512.3139720814412,273.5" fill="#e0e0e0" stroke="#000000" stroke-width="0.5"/>
  <polygon points="512.3139720814412,273.5 555.6152422706631,298.5 512.3139720814412,323.5 512.3139720814412,273.5" fill="#b0b0b0" stroke="#000000" stroke-width="0.5"/>
  <polygon points="598.916512459885,273.5 598.916512459885,273.5 598.916512459885,323.5 555.6152422706631,298.5" fill="#808080" stroke="#000000" stroke-width="0.5"/>
  <polygon points="79.30127018922192,323.5 122.60254037844385,348.5 79.30127018922192,373.5 35.99999999999999,348.5" fill="#e0e0e0" stroke="#000000" stroke-width="0.5"/>
  <polygon points="35.99999999999999,348.5 79.30127018922192,373.5 35.99999999999999,398.5 35.99999999999999,348.5" fill="#b0b0b0" stroke="#000000" stroke-width="0.5"/>
  <polygon points="122.60254037844385,348.5 122.60254037844385,348.5 122.60254037844385,398.5 79.30127018922192,373.5" fill="#808080" stroke="#000000" stroke-width="0.5"/>
  <polygon points="165.9038105676658,323.5 209.20508075688772,348.5 165.9038105676658,373.5 122.60254037844388,348.5" fill="#e0e0e0" stroke="#000000" stroke-width="0.5"/>
  <polygon points="122.60254037844388,348.5 165.9038105676658,373.5 122.60254037844388,398.5 122.60254037844388,348.5" fill="#b0b0b0" stroke="#000000" stroke-width="0.5"/>
  <polygon points="209.20508075688772,348.5 209.20508075688772,348.5 209.20508075688772,398.5 165.9038105676658,373.5" fill="#808080" stroke="#000000" stroke-width="0.5"/>
  <polygon points="252.50635094610965,323.5 295.8076211353316,348.5 252.50635094610965,373.5 209.20508075688772,348.5" fill="#e0e0e0" stroke="#000000" stroke-width="0.5"/>
  <polygon points="209.20508075688772,348.5 252.50635094610965,373.5 209.20508075688772,398.5 209.20508075688772,348.5" fill="#b0b0b0" stroke="#000000" stroke-width="0.5"/>
  <polygon points="295.8076211353316,348.5 295.8076211353316,348.5 295.8076211353316,398.5 252.50635094610965,373.5" fill="#808080" stroke="#000000" stroke-width="0.5"/>
  <polygon points="339.10889132455355,323.5 382.4101615137755,348.5 339.10889132455355,373.5 295.8076211353316,348.5" fill="#e0e0e0" stroke="#000000" stroke-width="0.5"/>
  <polygon points="295.8076211353316,348.5 339.10889132455355,373.5 295.8076211353316,398.5 295.8076211353316,348.5" fill="#b0b0b0" stroke="#000000" stroke-width="0.5"/>
  <polygon points="382.4101615137755,348.5 382.4101615137755,348.5 382.4101615137755,398.5 339.10889132455355,373.5" fill="#808080" stroke="#000000" stroke-width="0.5"/>
  <polygon points="425.7114317029974,323.5 469.01270189221935,348.5 425.7114317029974,373.5 382.41016151377545,348.5" fill="#e0e0e0" stroke="#000000" stroke-width="0.5"/>
  <polygon points="382.41016151377545,348.5 425.7114317029974,373.5 382.41016151377545,398.5 382.41016151377545,348.5" fill="#b0b0b0" stroke="#000000" stroke-width="0.5"/>
  <polygon points="469.01270189221935,348.5 469.01270189221935,348.5 469.01270189221935,398.5 425.7114317029974,373.5" fill="#808080" stroke="#000000" stroke-width="0.5"/>
  <polygon points="512.3139720814412,323.5 555.6152422706631,348.5 512.3139720814412,373.5 469.01270189221924,348.5" fill="#e0e0e0" stroke="#000000" stroke-width="0.5"/>
  <polygon points="469.01270189221924,348.5 512.3139720814412,373.5 469.01270189221924,398.5 469.01270189221924,348.5" fill="#b0b0b0" stroke="#000000" stroke-width="0.5"/>
  <polygon points="555.6152422706631,348.5 555.6152422706631,348.5 555.6152422706631,398.5 512.3139720814412,373.5" fill="#808080" stroke="#000000" stroke-width="0.5"/>
  <polygon points="598.9165124598851,323.5 642.217782649107,348.5 598.9165124598851,373.5 555.6152422706632,348.5" fill="#e0e0e0" stroke="#000000" stroke-width="0.5"/>
  <polygon points="555.6152422706632,348.5 598.9165124598851,373.5 555.6152422706632,398.5 555.6152422706632,348.5" fill="#b0b0b0" stroke="#000000" stroke-width="0.5"/>
  <polygon points="642.217782649107,348.5 642.217782649107,348.5 642.217782649107,398.5 598.9165124598851,373.5" fill="#808080" stroke="#000000" stroke-width="0.5"/>
  <polygon points="122.60254037844385,398.5 165.90381056766577,423.5 122.60254037844385,448.5 79.30127018922192,423.5" fill="#e0e0e0" stroke="#000000" stroke-width="0.5"/>
  <polygon points="79.30127018922192,423.5 122.60254037844385,448.5 79.30127018922192,473.5 79.30127018922192,423.5" fill="#b0b0b0" stroke="#000000" stroke-width="0.5"/>
  <polygon points="165.90381056766577,423.5 165.90381056766577,423.5 165.90381056766577,473.5 122.60254037844385,448.5" fill="#808080" stroke="#000000" stroke-width="0.5"/>
  <polygon points="209.20508075688772,398.5 252.50635094610965,423.5 209.20508075688772,448.5 165.9038105676658,423.5" fill="#e0e0e0" stroke="#000000" stroke-width="0.5"/>
  <polygon points="165.9038105676658,423.5 209.20508075688772,448.5 165.9038105676658,473.5 165.9038105676658,423.5" fill="#b0b0b0" stroke="#000000" stroke-width="0.5"/>
  <polygon points="252.50635094610965,423.5 252.50635094610965,423.5 252.50635094610965,473.5 209.20508075688772,448.5" fill="#808080" stroke="#000000" stroke-width="0.5"/>
  <polygon points="295.8076211353316,398.5 339.10889132455355,423.5 295.8076211353316,448.5 252.50635094610968,423.5" fill="#e0e0e0" stroke="#000000" stroke-width="0.5"/>
  <polygon points="252.50635094610968,423.5 295.8076211353316,448.5 252.50635094610968,473.5 252.50635094610968,423.5" fill="#b0b0b0" stroke="#000000" stroke-width="0.5"/>
  <polygon points="339.10889132455355,423.5 339.10889132455355,423.5 339.10889132455355,473.5 295.8076211353316,448.5" fill="#808080" stroke="#000000" stroke-width="0.5"/>
  <polygon points="382.41016151377545,398.5 425.7114317029974,423.5 382.41016151377545,448.5 339.1088913245535,423.5" fill="#e0e0e0" stroke="#000000" stroke-width="0.5"/>
  <polygon points="339.1088913245535,423.5 382.41016151377545,448.5 339.1088913245535,473.5 339.1088913245535,423.5" fill="#b0b0b0" stroke="#000000" stroke-width="0.5"/>
  <polygon points="425.7114317029974,423.5 425.7114317029974,423.5 425.7114317029974,473.5 382.41016151377545,448.5" fill="#808080" stroke="#000000" stroke-width="0.5"/>
  <polygon points="469.0127018922193,398.5 512.3139720814412,423.5 469.0127018922193,448.5 425.71143170299734,423.5" fill="#e0e0e0" stroke="#000000" stroke-width="0.5"/>
  <polygon points="425.71143170299734,423.5 469.0127018922193,448.5 425.71143170299734,473.5 425.71143170299734,423.5" fill="#b0b0b0" stroke="#000000" stroke-width="0.5"/>
  <polygon points="512.3139720814412,423.5 512.3139720814412,423.5 512.3139720814412,473.5 469.0127018922193,448.5" fill="#808080" stroke="#000000" stroke-width="0.5"/>
  <polygon points="555.6152422706631,398.5 598.916512459885,423.5 555.6152422706631,448.5 512.3139720814412,423.5" fill="#e0e0e0" stroke="#000000" stroke-width="0.5"/>
  <polygon points="512.3139720814412,423.5 555.6152422706631,448.5 512.3139720814412,473.5 512.3139720814412,423.5" fill="#b0b0b0" stroke="#000000" stroke-width="0.5"/>
  <polygon points="598.916512459885,423.5 598.916512459885,423.5 598.916512459885,473.5 555.6152422706631,448.5" fill="#808080" stroke="#000000" stroke-width="0.5"/>
  <polygon points="79.30127018922192,473.5 122.60254037844385,498.5 79.30127018922192,523.5 35.99999999999999,498.5" fill="#e0e0e0" stroke="#000000" stroke-width="0.5"/>
  <polygon points="35.99999999999999,498.5 79.30127018922192,523.5 35.99999999999999,548.5 35.99999999999999,498.5" fill="#b0b0b0" stroke="#000000" stroke-width="0.5"/>
  <polygon points="122.60254037844385,498.5 122.60254037844385,498.5 122.60254037844385,548.5 79.30127018922192,523.5" fill="#808080" stroke="#000000" stroke-width="0.5"/>
  <polygon points="165.9038105676658,473.5 209.20508075688772,498.5 165.9038105676658,523.5 122.60254037844388,498.5" fill="#e0e0e0" stroke="#000000" stroke-width="0.5"/>
  <polygon points="122.60254037844388,498.5 165.9038105676658,523.5 122.60254037844388,548.5 122.60254037844388,498.5" fill="#b0b0b0" stroke="#000000" stroke-width="0.5"/>
  <polygon points="209.20508075688772,498.5 209.20508075688772,498.5 209.20508075688772,548.5 165.9038105676658,523.5" fill="#808080" stroke="#000000" stroke-width="0.5"/>
  <polygon points="252.50635094610965,473.5 295.8076211353316,498.5 252.50635094610965,523.5 209.20508075688772,498.5" fill="#e0e0e0" stroke="#000000" stroke-width="0.5"/>
  <polygon points="209.20508075688772,498.5 252.50635094610965,523.5 209.20508075688772,548.5 209.20508075688772,498.5" fill="#b0b0b0" stroke="#000000" stroke-width="0.5"/>
  <polygon points="295.8076211353316,498.5 295.8076211353316,498.5 295.8076211353316,548.5 252.50635094610965,523.5" fill="#808080" stroke="#000000" stroke-width="0.5"/>
  <polygon points="339.10889132455355,473.5 382.4101615137755,498.5 339.10889132455355,523.5 295.8076211353316,498.5" fill="#e0e0e0" stroke="#000000" stroke-width="0.5"/>
  <polygon points="295.8076211353316,498.5 339.10889132455355,523.5 295.8076211353316,548.5 295.8076211353316,498.5" fill="#b0b0b0" stroke="#000000" stroke-width="0.5"/>
  <polygon points="382.4101615137755,498.5 382.4101615137755,498.5 382.4101615137755,548.5 339.10889132455355,523.5" fill="#808080" stroke="#000000" stroke-width="0.5"/>
  <polygon points="425.7114317029974,473.5 469.01270189221935,498.5 425.7114317029974,523.5 382.41016151377545,498.5" fill="#e0e0e0" stroke="#000000" stroke-width="0.5"/>
  <polygon points="382.41016151377545,498.5 425.7114317029974,523.5 382.41016151377545,548.5 382.41016151377545,498.5" fill="#b0b0b0" stroke="#000000" stroke-width="0.5"/>
  <polygon points="469.01270189221935,498.5 469.01270189221935,498.5 469.01270189221935,548.5 425.7114317029974,523.5" fill="#808080" stroke="#000000" stroke-width="0.5"/>
  <polygon points="512.3139720814412,473.5 555.6152422706631,498.5 512.3139720814412,523.5 469.01270189221924,498.5" fill="#e0e0e0" stroke="#000000" stroke-width="0.5"/>
  <polygon points="469.01270189221924,498.5 512.3139720814412,523.5 469.01270189221924,548.5 469.01270189221924,498.5" fill="#b0b0b0" stroke="#000000" stroke-width="0.5"/>
  <polygon points="555.6152422706631,498.5 555.6152422706631,498.5 555.6152422706631,548.5 512.3139720814412,523.5" fill="#808080" stroke="#000000" stroke-width="0.5"/>
  <polygon points="598.9165124598851,473.5 642.217782649107,498.5 598.9165124598851,523.5 555.6152422706632,498.5" fill="#e0e0e0" stroke="#000000" stroke-width="0.5"/>
  <polygon points="555.6152422706632,498.5 598.9165124598851,523.5 555.6152422706632,548.5 555.6152422706632,498.5" fill="#b0b0b0" stroke="#000000" stroke-width="0.5"/>
  <polygon points="642.217782649107,498.5 642.217782649107,498.5 642.217782649107,548.5 598.9165124598851,523.5" fill="#808080" stroke="#000000" stroke-width="0.5"/>
  <polygon points="122.60254037844385,548.5 165.90381056766577,573.5 122.60254037844385,598.5 79.30127018922192,573.5" fill="#e0e0e0" stroke="#000000" stroke-width="0.5"/>
  <polygon points="79.30127018922192,573.5 122.60254037844385,598.5 79.30127018922192,623.5 79.30127018922192,573.5" fill="#b0b0b0" stroke="#000000" stroke-width="0.5"/>
  <polygon points="165.90381056766577,573.5 165.90381056766577,573.5 165.90381056766577,623.5 122.60254037844385,598.5" fill="#808080" stroke="#000000" stroke-width="0.5"/>
  <polygon points="209.20508075688772,548.5 252.50635094610965,573.5 209.20508075688772,598.5 165.9038105676658,573.5" fill="#e0e0e0" stroke="#000000" stroke-width="0.5"/>
  <polygon points="165.9038105676658,573.5 209.20508075688772,598.5 165.9038105676658,623.5 165.9038105676658,573.5" fill="#b0b0b0" stroke="#000000" stroke-width="0.5"/>
  <polygon points="252.50635094610965,573.5 252.50635094610965,573.5 252.50635094610965,623.5 209.20508075688772,598.5" fill="#808080" stroke="#000000" stroke-width="0.5"/>
  <polygon points="295.8076211353316,548.5 339.10889132455355,573.5 295.8076211353316,598.5 252.50635094610968,573.5" fill="#e0e0e0" stroke="#000000" stroke-width="0.5"/>
  <polygon points="252.50635094610968,573.5 295.8076211353316,598.5 252.50635094610968,623.5 252.50635094610968,573.5" fill="#b0b0b0" stroke="#000000" stroke-width="0.5"/>
  <polygon points="339.10889132455355,573.5 339.10889132455355,573.5 339.10889132455355,623.5 295.8076211353316,598.5" fill="#808080" stroke="#000000" stroke-width="0.5"/>
  <polygon points="382.41016151377545,548.5 425.7114317029974,573.5 382.41016151377545,598.5 339.1088913245535,573.5" fill="#e0e0e0" stroke="#000000" stroke-width="0.5"/>
  <polygon points="339.1088913245535,573.5 382.41016151377545,598.5 339.1088913245535,623.5 339.1088913245535,573.5" fill="#b0b0b0" stroke="#000000" stroke-width="0.5"/>
  <polygon points="425.7114317029974,573.5 425.7114317029974,573.5 425.7114317029974,623.5 382.41016151377545,598.5" fill="#808080" stroke="#000000" stroke-width="0.5"/>
  <polygon points="469.0127018922193,548.5 512.3139720814412,573.5 469.0127018922193,598.5 425.71143170299734,573.5" fill="#e0e0e0" stroke="#000000" stroke-width="0.5"/>
  <polygon points="425.71143170299734,573.5 469.0127018922193,598.5 425.71143170299734,623.5 425.71143170299734,573.5" fill="#b0b0b0" stroke="#000000" stroke-width="0.5"/>
  <polygon points="512.3139720814412,573.5 512.3139720814412,573.5 512.3139720814412,623.5 469.0127018922193,598.5" fill="#808080" stroke="#000000" stroke-width="0.5"/>
  <polygon points="555.6152422706631,548.5 598.916512459885,573.5 555.6152422706631,598.5 512.3139720814412,573.5" fill="#e0e0e0" stroke="#000000" stroke-width="0.5"/>
  <polygon points="512.3139720814412,573.5 555.6152422706631,598.5 512.3139720814412,623.5 512.3139720814412,573.5" fill="#b0b0b0" stroke="#000000" stroke-width="0.5"/>
  <polygon points="598.916512459885,573.5 598.916512459885,573.5 598.916512459885,623.5 555.6152422706631,598.5" fill="#808080" stroke="#000000" stroke-width="0.5"/>
  <polygon points="79.30127018922192,623.5 122.60254037844385,648.5 79.30127018922192,673.5 35.99999999999999,648.5" fill="#e0e0e0" stroke="#000000" stroke-width="0.5"/>
  <polygon points="35.99999999999999,648.5 79.30127018922192,673.5 35.99999999999999,698.5 35.99999999999999,648.5" fill="#b0b0b0" stroke="#000000" stroke-width="0.5"/>
  <polygon points="122.60254037844385,648.5 122.60254037844385,648.5 122.60254037844385,698.5 79.30127018922192,673.5" fill="#808080" stroke="#000000" stroke-width="0.5"/>
  <polygon points="165.9038105676658,623.5 209.20508075688772,648.5 165.9038105676658,673.5 122.60254037844388,648.5" fill="#e0e0e0" stroke="#000000" stroke-width="0.5"/>
  <polygon points="122.60254037844388,648.5 165.9038105676658,673.5 122.60254037844388,698.5 122.60254037844388,648.5" fill="#b0b0b0" stroke="#000000" stroke-width="0.5"/>
  <polygon points="209.20508075688772,648.5 209.20508075688772,648.5 209.20508075688772,698.5 165.9038105676658,673.5" fill="#808080" stroke="#000000" stroke-width="0.5"/>
  <polygon points="252.50635094610965,623.5 295.8076211353316,648.5 252.50635094610965,673.5 209.20508075688772,648.5" fill="#e0e0e0" stroke="#000000" stroke-width="0.5"/>
  <polygon points="209.20508075688772,648.5 252.50635094610965,673.5 209.20508075688772,698.5 209.20508075688772,648.5" fill="#b0b0b0" stroke="#000000" stroke-width="0.5"/>
  <polygon points="295.8076211353316,648.5 295.8076211353316,648.5 295.8076211353316,698.5 252.50635094610965,673.5" fill="#808080" stroke="#000000" stroke-width="0.5"/>
  <polygon points="339.10889132455355,623.5 382.4101615137755,648.5 339.10889132455355,673.5 295.8076211353316,648.5" fill="#e0e0e0" stroke="#000000" stroke-width="0.5"/>
  <polygon points="295.8076211353316,648.5 339.10889132455355,673.5 295.8076211353316,698.5 295.8076211353316,648.5" fill="#b0b0b0" stroke="#000000" stroke-width="0.5"/>
  <polygon points="382.4101615137755,648.5 382.4101615137755,648.5 382.4101615137755,698.5 339.10889132455355,673.5" fill="#808080" stroke="#000000" stroke-width="0.5"/>
  <polygon points="425.7114317029974,623.5 469.01270189221935,648.5 425.7114317029974,673.5 382.41016151377545,648.5" fill="#e0e0e0" stroke="#000000" stroke-width="0.5"/>
  <polygon points="382.41016151377545,648.5 425.7114317029974,673.5 382.41016151377545,698.5 382.41016151377545,648.5" fill="#b0b0b0" stroke="#000000" stroke-width="0.5"/>
  <polygon points="469.01270189221935,648.5 469.01270189221935,648.5 469.01270189221935,698.5 425.7114317029974,673.5" fill="#808080" stroke="#000000" stroke-width="0.5"/>
  <polygon points="512.3139720814412,623.5 555.6152422706631,648.5 512.3139720814412,673.5 469.01270189221924,648.5" fill="#e0e0e0" stroke="#000000" stroke-width="0.5"/>
  <polygon points="469.01270189221924,648.5 512.3139720814412,673.5 469.01270189221924,698.5 469.01270189221924,648.5" fill="#b0b0b0" stroke="#000000" stroke-width="0.5"/>
  <polygon points="555.6152422706631,648.5 555.6152422706631,648.5 555.6152422706631,698.5 512.3139720814412,673.5" fill="#808080" stroke="#000000" stroke-width="0.5"/>
  <polygon points="598.9165124598851,623.5 642.217782649107,648.5 598.9165124598851,673.5 555.6152422706632,648.5" fill="#e0e0e0" stroke="#000000" stroke-width="0.5"/>
  <polygon points="555.6152422706632,648.5 598.9165124598851,673.5 555.6152422706632,698.5 555.6152422706632,648.5" fill="#b0b0b0" stroke="#000000" stroke-width="0.5"/>
  <polygon points="642.217782649107,648.5 642.217782649107,648.5 642.217782649107,698.5 598.9165124598851,673.5" fill="#808080" stroke="#000000" stroke-width="0.5"/>
  <polygon points="122.60254037844385,698.5 165.90381056766577,723.5 122.60254037844385,748.5 79.30127018922192,723.5" fill="#e0e0e0" stroke="#000000" stroke-width="0.5"/>
  <polygon points="79.30127018922192,723.5 122.60254037844385,748.5 79.30127018922192,773.5 79.30127018922192,723.5" fill="#b0b0b0" stroke="#000000" stroke-width="0.5"/>
  <polygon points="165.90381056766577,723.5 165.90381056766577,723.5 165.90381056766577,773.5 122.60254037844385,748.5" fill="#808080" stroke="#000000" stroke-width="0.5"/>
  <polygon points="209.20508075688772,698.5 252.50635094610965,723.5 209.20508075688772,748.5 165.9038105676658,723.5" fill="#e0e0e0" stroke="#000000" stroke-width="0.5"/>
  <polygon points="165.9038105676658,723.5 209.20508075688772,748.5 165.9038105676658,773.5 165.9038105676658,723.5" fill="#b0b0b0" stroke="#000000" stroke-width="0.5"/>
  <polygon points="252.50635094610965,723.5 252.50635094610965,723.5 252.50635094610965,773.5 209.20508075688772,748.5" fill="#808080" stroke="#000000" stroke-width="0.5"/>
  <polygon points="295.8076211353316,698.5 339.10889132455355,723.5 295.8076211353316,748.5 252.50635094610968,723.5" fill="#e0e0e0" stroke="#000000" stroke-width="0.5"/>
  <polygon points="252.50635094610968,723.5 295.8076211353316,748.5 252.50635094610968,773.5 252.50635094610968,723.5" fill="#b0b0b0" stroke="#000000" stroke-width="0.5"/>
  <polygon points="339.10889132455355,723.5 339.10889132455355,723.5 339.10889132455355,773.5 295.8076211353316,748.5" fill="#808080" stroke="#000000" stroke-width="0.5"/>
  <polygon points="382.41016151377545,698.5 425.7114317029974,723.5 382.41016151377545,748.5 339.1088913245535,723.5" fill="#e0e0e0" stroke="#000000" stroke-width="0.5"/>
  <polygon points="339.1088913245535,723.5 382.41016151377545,748.5 339.1088913245535,773.5 339.1088913245535,723.5" fill="#b0b0b0" stroke="#000000" stroke-width="0.5"/>
  <polygon points="425.7114317029974,723.5 425.7114317029974,723.5 425.7114317029974,773.5 382.41016151377545,748.5" fill="#808080" stroke="#000000" stroke-width="0.5"/>
  <polygon points="469.0127018922193,698.5 512.3139720814412,723.5 469.0127018922193,748.5 425.71143170299734,723.5" fill="#e0e0e0" stroke="#000000" stroke-width="0.5"/>
  <polygon points="425.71143170299734,723.5 469.0127018922193,748.5 425.71143170299734,773.5 425.71143170299734,723.5" fill="#b0b0b0" stroke="#000000" stroke-width="0.5"/>
  <polygon points="512.3139720814412,723.5 512.3139720814412,723.5 512.3139720814412,773.5 469.0127018922193,748.5" fill="#808080" stroke="#000000" stroke-width="0.5"/>
  <polygon points="555.6152422706631,698.5 598.916512459885,723.5 555.6152422706631,748.5 512.3139720814412,723.5" fill="#e0e0e0" stroke="#000000" stroke-width="0.5"/>
  <polygon points="512.3139720814412,723.5 555.6152422706631,748.5 512.3139720814412,773.5 512.3139720814412,723.5" fill="#b0b0b0" stroke="#000000" stroke-width="0.5"/>
  <polygon points="598.916512459885,723.5 598.916512459885,723.5 598.916512459885,773.5 555.6152422706631,748.5" fill="#808080" stroke="#000000" stroke-width="0.5"/>
</svg>