<svg width="612" height="792" 
     viewBox="0 0 612 792" 
     xmlns="http://www.w3.org/2000/svg">
  <rect width="612" height="792" fill="white"/>
  <line x1="0" y1="72" x2="612" y2="72" stroke="#0066cc" stroke-width="0.5" opacity="0.3"/>
  <line x1="0" y1="94" x2="612" y2="94" stroke="#0066cc" stroke-width="0.5" opacity="0.3"/>
  <line x1="0" y1="116" x2="612" y2="116" stroke="#0066cc" stroke-width="0.5" opacity="0.3"/>
  <line x1="0" y1="138" x2="612" y2="138" stroke="#0066cc" stroke-width="0.5" opacity="0.3"/>
  <line x1="0" y1="160" x2="612" y2="160" stroke="#0066cc" stroke-width="0.5" opacity="0.3"/>
  <line x1="0" y1="182" x2="612" y2="182" stroke="#0066cc" stroke-width="0.5" opacity="0.3"/>
  <line x1="0" y1="204" x2="612" y2="204" stroke="#0066cc" stroke-width="0.5" opacity="0.3"/>
  <line x1="0" y1="226" x2="612" y2="226" stroke="#0066cc" stroke-width="0.5" opacity="0.3"/>
  <line x1="0" y1="248" x2="612" y2="248" stroke="#0066cc" stroke-width="0.5" opacity="0.3"/>
  <line x1="0" y1="270" x2="612" y2="270" stroke="#0066cc" stroke-width="0.5" opacity="0.3"/>
  <line x1="0" y1="292" x2="612" y2="292" stroke="#0066cc" stroke-width="0.5" opacity="0.3"/>
  <line x1="0" y1="314" x2="612" y2="314" stroke="#0066cc" stroke-width="0.5" opacity="0.3"/>
  <line x1="0" y1="336" x2="612" y2="336" stroke="#0066cc" stroke-width="0.5" opacity="0.3"/>
  <line x1="0" y1="358" x2="612" y2="358" stroke="#0066cc" stroke-width="0.5" opacity="0.3"/>
  <line x1="0" y1="380" x2="612" y2="380" stroke="#0066cc" stroke-width="0.5" opacity="0.3"/>
  <line x1="0" y1="402" x2="612" y2="402" stroke="#0066cc" stroke-width="0.5" opacity="0.3"/>
  <line x1="0" y1="424" x2="612" y2="424" stroke="#0066cc" stroke-width="0.5" opacity="0.3"/>
  <line x1="0" y1="446" x2="612" y2="446" stroke="#0066cc" stroke-width="0.5" opacity="0.3"/>
  <line x1="0" y1="468" x2="612" y2="468" stroke="#0066cc" stroke-width="0.5" opacity="0.3"/>
  <line x1="0" y1="490" x2="612" y2="490" stroke="#0066cc" stroke-width="0.5" opacity="0.3"/>
  <line x1="0" y1="512" x2="612" y2="512" stroke="#0066cc" stroke-width="0.5" opacity="0.3"/>
  <line x1="0" y1="534" x2="612" y2="534" stroke="#0066cc" stroke-width="0.5" opacity="0.3"/>
  <line x1="0" y1="556" x2="612" y2="556" stroke="#0066cc" stroke-width="0.5" opacity="0.3"/>
  <line x1="0" y1="578" x2="612" y2="578" stroke="#0066cc" stroke-width="0.5" opacity="0.3"/>
  <line x1="0" y1="600" x2="612" y2="600" stroke="#0066cc" stroke-width="0.5" opacity="0.3"/>
  <line x1="0" y1="622" x2="612" y2="622" stroke="#0066cc" stroke-width="0.5" opacity="0.3"/>
  <line x1="0" y1="644" x2="612" y2="644" stroke="#0066cc" stroke-width="0.5" opacity="0.3"/>
  <line x1="0" y1="666" x2="612" y2="666" stroke="#0066cc" stroke-width="0.5" opacity="0.3"/>
  <line x1="0" y1="688" x2="612" y2="688" stroke="#0066cc" stroke-width="0.5" opacity="0.3"/>
  <line x1="0" y1="710" x2="612" y2="710" stroke="#0066cc" stroke-width="0.5" opacity="0.3"/>
  <line x1="72" y1="72" x2="72" y2="720" stroke="#cc0000" stroke-width="1" opacity="0.5"/>
</svg>