<svg width="612" height="792" 
     viewBox="0 0 612 792" 
     xmlns="http://www.w3.org/2000/svg">
  <rect width="612" height="792" fill="white"/>
  <line x1="72" y1="92.3076923076923" x2="576" y2="92.3076923076923" stroke="#000000" stroke-width="1"/>
  <line x1="72" y1="100.3076923076923" x2="576" y2="100.3076923076923" stroke="#000000" stroke-width="1"/>
  <line x1="72" y1="108.3076923076923" x2="576" y2="108.3076923076923" stroke="#000000" stroke-width="1"/>
  <line x1="72" y1="116.3076923076923" x2="576" y2="116.3076923076923" stroke="#000000" stroke-width="1"/>
  <line x1="72" y1="124.3076923076923" x2="576" y2="124.3076923076923" stroke="#000000" stroke-width="1"/>
  <line x1="72" y1="144.6153846153846" x2="576" y2="144.6153846153846" stroke="#000000" stroke-width="1"/>
  <line x1="72" y1="152.6153846153846" x2="576" y2="152.6153846153846" stroke="#000000" stroke-width="1"/>
  <line x1="72" y1="160.6153846153846" x2="576" y2="160.6153846153846" stroke="#000000" stroke-width="1"/>
  <line x1="72" y1="168.6153846153846" x2="576" y2="168.6153846153846" stroke="#000000" stroke-width="1"/>
  <line x1="72" y1="176.6153846153846" x2="576" y2="176.6153846153846" stroke="#000000" stroke-width="1"/>
  <line x1="72" y1="196.9230769230769" x2="576" y2="196.9230769230769" stroke="#000000" stroke-width="1"/>
  <line x1="72" y1="204.9230769230769" x2="576" y2="204.9230769230769" stroke="#000000" stroke-width="1"/>
  <line x1="72" y1="212.9230769230769" x2="576" y2="212.9230769230769" stroke="#000000" stroke-width="1"/>
  <line x1="72" y1="220.9230769230769" x2="576" y2="220.9230769230769" stroke="#000000" stroke-width="1"/>
  <line x1="72" y1="228.9230769230769" x2="576" y2="228.9230769230769" stroke="#000000" stroke-width="1"/>
  <line x1="72" y1="249.23076923076923" x2="576" y2="249.23076923076923" stroke="#000000" stroke-width="1"/>
  <line x1="72" y1="257.2307692307692" x2="576" y2="257.2307692307692" stroke="#000000" stroke-width="1"/>
  <line x1="72" y1="265.2307692307692" x2="576" y2="265.2307692307692" stroke="#000000" stroke-width="1"/>
  <line x1="72" y1="273.2307692307692" x2="576" y2="273.2307692307692" stroke="#000000" stroke-width="1"/>
  <line x1="72" y1="281.2307692307692" x2="576" y2="281.2307692307692" stroke="#000000" stroke-width="1"/>
  <line x1="72" y1="301.53846153846155" x2="576" y2="301.53846153846155" stroke="#000000" stroke-width="1"/>
  <line x1="72" y1="309.53846153846155" x2="576" y2="309.53846153846155" stroke="#000000" stroke-width="1"/>
  <line x1="72" y1="317.53846153846155" x2="576" y2="317.53846153846155" stroke="#000000" stroke-width="1"/>
  <line x1="72" y1="325.53846153846155" x2="576" y2="325.53846153846155" stroke="#000000" stroke-width="1"/>
  <line x1="72" y1="333.53846153846155" x2="576" y2="333.53846153846155" stroke="#000000" stroke-width="1"/>
  <line x1="72" y1="353.84615384615387" x2="576" y2="353.84615384615387" stroke="#000000" stroke-width="1"/>
  <line x1="72" y1="361.84615384615387" x2="576" y2="361.84615384615387" stroke="#000000" stroke-width="1"/>
  <line x1="72" y1="369.84615384615387" x2="576" y2="369.84615384615387" stroke="#000000" stroke-width="1"/>
  <line x1="72" y1="377.84615384615387" x2="576" y2="377.84615384615387" stroke="#000000" stroke-width="1"/>
  <line x1="72" y1="385.84615384615387" x2="576" y2="385.84615384615387" stroke="#000000" stroke-width="1"/>
  <line x1="72" y1="406.15384615384613" x2="576" y2="406.15384615384613" stroke="#000000" stroke-width="1"/>
  <line x1="72" y1="414.15384615384613" x2="576" y2="414.15384615384613" stroke="#000000" stroke-width="1"/>
  <line x1="72" y1="422.15384615384613" x2="576" y2="422.15384615384613" stroke="#000000" stroke-width="1"/>
  <line x1="72" y1="430.15384615384613" x2="576" y2="430.15384615384613" stroke="#000000" stroke-width="1"/>
  <line x1="72" y1="438.15384615384613" x2="576" y2="438.15384615384613" stroke="#000000" stroke-width="1"/>
  <line x1="72" y1="458.46153846153845" x2="576" y2="458.46153846153845" stroke="#000000" stroke-width="1"/>
  <line x1="72" y1="466.46153846153845" x2="576" y2="466.46153846153845" stroke="#000000" stroke-width="1"/>
  <line x1="72" y1="474.46153846153845" x2="576" y2="474.46153846153845" stroke="#000000" stroke-width="1"/>
  <line x1="72" y1="482.46153846153845" x2="576" y2="482.46153846153845" stroke="#000000" stroke-width="1"/>
  <line x1="72" y1="490.46153846153845" x2="576" y2="490.46153846153845" stroke="#000000" stroke-width="1"/>
  <line x1="72" y1="510.7692307692308" x2="576" y2="510.7692307692308" stroke="#000000" stroke-width="1"/>
  <line x1="72" y1="518.7692307692307" x2="576" y2="518.7692307692307" stroke="#000000" stroke-width="1"/>
  <line x1="72" y1="526.7692307692307" x2="576" y2="526.7692307692307" stroke="#000000" stroke-width="1"/>
  <line x1="72" y1="534.7692307692307" x2="576" y2="534.7692307692307" stroke="#000000" stroke-width="1"/>
  <line x1="72" y1="542.7692307692307" x2="576" y2="542.7692307692307" stroke="#000000" stroke-width="1"/>
  <line x1="72" y1="563.0769230769231" x2="576" y2="563.0769230769231" stroke="#000000" stroke-width="1"/>
  <line x1="72" y1="571.0769230769231" x2="576" y2="571.0769230769231" stroke="#000000" stroke-width="1"/>
  <line x1="72" y1="579.0769230769231" x2="576" y2="579.0769230769231" stroke="#000000" stroke-width="1"/>
  <line x1="72" y1="587.0769230769231" x2="576" y2="587.0769230769231" stroke="#000000" stroke-width="1"/>
  <line x1="72" y1="595.0769230769231" x2="576" y2="595.0769230769231" stroke="#000000" stroke-width="1"/>
  <line x1="72" y1="615.3846153846154" x2="576" y2="615.3846153846154" stroke="#000000" stroke-width="1"/>
  <line x1="72" y1="623.3846153846154" x2="576" y2="623.3846153846154" stroke="#000000" stroke-width="1"/>
  <line x1="72" y1="631.3846153846154" x2="576" y2="631.3846153846154" stroke="#000000" stroke-width="1"/>
  <line x1="72" y1="639.3846153846154" x2="576" y2="639.3846153846154" stroke="#000000" stroke-width="1"/>
  <line x1="72" y1="647.3846153846154" x2="576" y2="647.3846153846154" stroke="#000000" stroke-width="1"/>
  <line x1="72" y1="667.6923076923076" x2="576" y2="667.6923076923076" stroke="#000000" stroke-width="1"/>
  <line x1="72" y1="675.6923076923076" x2="576" y2="675.6923076923076" stroke="#000000" stroke-width="1"/>
  <line x1="72" y1="683.6923076923076" x2="576" y2="683.6923076923076" stroke="#000000" stroke-width="1"/>
  <line x1="72" y1="691.6923076923076" x2="576" y2="691.6923076923076" stroke="#000000" stroke-width="1"/>
  <line x1="72" y1="699.6923076923076" x2="576" y2="699.6923076923076" stroke="#000000" stroke-width="1"/>
</svg>