<svg width="612" height="792" 
     viewBox="0 0 612 792" 
     xmlns="http://www.w3.org/2000/svg">
  <rect width="612" height="792" fill="white"/>
  <polygon points="105.9999999905452,56.50252532085797 105.9999999905452,85.49747467914203 85.49747467914203,105.9999999905452 56.50252532085798,105.9999999905452 36.00000000945479,85.49747467914203 36.00000000945479,56.50252532085798 56.502525320857984,36.00000000945479 85.49747467914203,36.000000009454794" fill="none" stroke="#0066cc" stroke-width="0.5" opacity="0.3"/>
  <polygon points="175.9999999905452,56.50252532085797 175.9999999905452,85.49747467914203 155.49747467914202,105.9999999905452 126.50252532085798,105.9999999905452 106.0000000094548,85.49747467914203 106.0000000094548,56.50252532085798 126.50252532085798,36.00000000945479 155.49747467914204,36.000000009454794" fill="none" stroke="#0066cc" stroke-width="0.5" opacity="0.3"/>
  <polygon points="245.9999999905452,56.50252532085797 245.9999999905452,85.49747467914203 225.49747467914202,105.9999999905452 196.50252532085798,105.9999999905452 176.0000000094548,85.49747467914203 176.0000000094548,56.50252532085798 196.50252532085798,36.00000000945479 225.49747467914204,36.000000009454794" fill="none" stroke="#0066cc" stroke-width="0.5" opacity="0.3"/>
  <polygon points="315.99999999054523,56.50252532085797 315.99999999054523,85.49747467914203 295.49747467914204,105.9999999905452 266.50252532085796,105.9999999905452 246.0000000094548,85.49747467914203 246.0000000094548,56.50252532085798 266.502525320858,36.00000000945479 295.49747467914204,36.000000009454794" fill="none" stroke="#0066cc" stroke-width="0.5" opacity="0.3"/>
  <polygon points="385.99999999054523,56.50252532085797 385.99999999054523,85.49747467914203 365.49747467914204,105.9999999905452 336.50252532085796,105.9999999905452 316.00000000945477,85.49747467914203 316.00000000945477,56.50252532085798 336.502525320858,36.00000000945479 365.49747467914204,36.000000009454794" fill="none" stroke="#0066cc" stroke-width="0.5" opacity="0.3"/>
  <polygon points="455.99999999054523,56.50252532085797 455.99999999054523,85.49747467914203 435.49747467914204,105.9999999905452 406.50252532085796,105.9999999905452 386.00000000945477,85.49747467914203 386.00000000945477,56.50252532085798 406.502525320858,36.00000000945479 435.49747467914204,36.000000009454794" fill="none" stroke="#0066cc" stroke-width="0.5" opacity="0.3"/>
  <polygon points="525.9999999905452,56.50252532085797 525.9999999905452,85.49747467914203 505.49747467914204,105.9999999905452 476.50252532085796,105.9999999905452 456.00000000945477,85.49747467914203 456.00000000945477,56.50252532085798 476.502525320858,36.00000000945479 505.49747467914204,36.000000009454794" fill="none" stroke="#0066cc" stroke-width="0.5" opacity="0.3"/>
  <polygon points="595.9999999905452,56.50252532085797 595.9999999905452,85.49747467914203 575.497474679142,105.9999999905452 546.502525320858,105.9999999905452 526.0000000094548,85.49747467914203 526.0000000094548,56.50252532085798 546.502525320858,36.00000000945479 575.497474679142,36.000000009454794" fill="none" stroke="#0066cc" stroke-width="0.5" opacity="0.3"/>
  <polygon points="105.9999999905452,126.50252532085797 105.9999999905452,155.49747467914202 85.49747467914203,175.9999999905452 56.50252532085798,175.9999999905452 36.00000000945479,155.49747467914204 36.00000000945479,126.50252532085798 56.502525320857984,106.0000000094548 85.49747467914203,106.0000000094548" fill="none" stroke="#0066cc" stroke-width="0.5" opacity="0.3"/>
  <polygon points="175.9999999905452,126.50252532085797 175.9999999905452,155.49747467914202 155.49747467914202,175.9999999905452 126.50252532085798,175.9999999905452 106.0000000094548,155.49747467914204 106.0000000094548,126.50252532085798 126.50252532085798,106.0000000094548 155.49747467914204,106.0000000094548" fill="none" stroke="#0066cc" stroke-width="0.5" opacity="0.3"/>
  <polygon points="245.9999999905452,126.50252532085797 245.9999999905452,155.49747467914202 225.49747467914202,175.9999999905452 196.50252532085798,175.9999999905452 176.0000000094548,155.49747467914204 176.0000000094548,126.50252532085798 196.50252532085798,106.0000000094548 225.49747467914204,106.0000000094548" fill="none" stroke="#0066cc" stroke-width="0.5" opacity="0.3"/>
  <polygon points="315.99999999054523,126.50252532085797 315.99999999054523,155.49747467914202 295.49747467914204,175.9999999905452 266.50252532085796,175.9999999905452 246.0000000094548,155.49747467914204 246.0000000094548,126.50252532085798 266.502525320858,106.0000000094548 295.49747467914204,106.0000000094548" fill="none" stroke="#0066cc" stroke-width="0.5" opacity="0.3"/>
  <polygon points="385.99999999054523,126.50252532085797 385.99999999054523,155.49747467914202 365.49747467914204,175.9999999905452 336.50252532085796,175.9999999905452 316.00000000945477,155.49747467914204 316.00000000945477,126.50252532085798 336.502525320858,106.0000000094548 365.49747467914204,106.0000000094548" fill="none" stroke="#0066cc" stroke-width="0.5" opacity="0.3"/>
  <polygon points="455.99999999054523,126.50252532085797 455.99999999054523,155.49747467914202 435.49747467914204,175.9999999905452 406.50252532085796,175.9999999905452 386.00000000945477,155.49747467914204 386.00000000945477,126.50252532085798 406.502525320858,106.0000000094548 435.49747467914204,106.0000000094548" fill="none" stroke="#0066cc" stroke-width="0.5" opacity="0.3"/>
  <polygon points="525.9999999905452,126.50252532085797 525.9999999905452,155.49747467914202 505.49747467914204,175.9999999905452 476.50252532085796,175.9999999905452 456.00000000945477,155.49747467914204 456.00000000945477,126.50252532085798 476.502525320858,106.0000000094548 505.49747467914204,106.0000000094548" fill="none" stroke="#0066cc" stroke-width="0.5" opacity="0.3"/>
  <polygon points="595.9999999905452,126.50252532085797 595.9999999905452,155.49747467914202 575.497474679142,175.9999999905452 546.502525320858,175.9999999905452 526.0000000094548,155.49747467914204 526.0000000094548,126.50252532085798 546.502525320858,106.0000000094548 575.497474679142,106.0000000094548" fill="none" stroke="#0066cc" stroke-width="0.5" opacity="0.3"/>
  <polygon points="105.9999999905452,196.50252532085798 105.9999999905452,225.49747467914202 85.49747467914203,245.9999999905452 56.50252532085798,245.9999999905452 36.00000000945479,225.49747467914204 36.00000000945479,196.50252532085798 56.502525320857984,176.0000000094548 85.49747467914203,176.0000000094548" fill="none" stroke="#0066cc" stroke-width="0.5" opacity="0.3"/>
  <polygon points="175.9999999905452,196.50252532085798 175.9999999905452,225.49747467914202 155.49747467914202,245.9999999905452 126.50252532085798,245.9999999905452 106.0000000094548,225.49747467914204 106.0000000094548,196.50252532085798 126.50252532085798,176.0000000094548 155.49747467914204,176.0000000094548" fill="none" stroke="#0066cc" stroke-width="0.5" opacity="0.3"/>
  <polygon points="245.9999999905452,196.50252532085798 245.9999999905452,225.49747467914202 225.49747467914202,245.9999999905452 196.50252532085798,245.9999999905452 176.0000000094548,225.49747467914204 176.0000000094548,196.50252532085798 196.50252532085798,176.0000000094548 225.49747467914204,176.0000000094548" fill="none" stroke="#0066cc" stroke-width="0.5" opacity="0.3"/>
  <polygon points="315.99999999054523,196.50252532085798 315.99999999054523,225.49747467914202 295.49747467914204,245.9999999905452 266.50252532085796,245.9999999905452 246.0000000094548,225.49747467914204 246.0000000094548,196.50252532085798 266.502525320858,176.0000000094548 295.49747467914204,176.0000000094548" fill="none" stroke="#0066cc" stroke-width="0.5" opacity="0.3"/>
  <polygon points="385.99999999054523,196.50252532085798 385.99999999054523,225.49747467914202 365.49747467914204,245.9999999905452 336.50252532085796,245.9999999905452 316.00000000945477,225.49747467914204 316.00000000945477,196.50252532085798 336.502525320858,176.0000000094548 365.49747467914204,176.0000000094548" fill="none" stroke="#0066cc" stroke-width="0.5" opacity="0.3"/>
  <polygon points="455.99999999054523,196.50252532085798 455.99999999054523,225.49747467914202 435.49747467914204,245.9999999905452 406.50252532085796,245.9999999905452 386.00000000945477,225.49747467914204 386.00000000945477,196.50252532085798 406.502525320858,176.0000000094548 435.49747467914204,176.0000000094548" fill="none" stroke="#0066cc" stroke-width="0.5" opacity="0.3"/>
  <polygon points="525.9999999905452,196.50252532085798 525.9999999905452,225.49747467914202 505.49747467914204,245.9999999905452 476.50252532085796,245.9999999905452 456.00000000945477,225.49747467914204 456.00000000945477,196.50252532085798 476.502525320858,176.0000000094548 505.49747467914204,176.0000000094548" fill="none" stroke="#0066cc" stroke-width="0.5" opacity="0.3"/>
  <polygon points="595.9999999905452,196.50252532085798 595.9999999905452,225.49747467914202 575.497474679142,245.9999999905452 546.502525320858,245.9999999905452 526.0000000094548,225.49747467914204 526.0000000094548,196.50252532085798 546.502525320858,176.0000000094548 575.497474679142,176.0000000094548" fill="none" stroke="#0066cc" stroke-width="0.5" opacity="0.3"/>
  <polygon points="105.9999999905452,266.50252532085796 105.9999999905452,295.49747467914204 85.49747467914203,315.99999999054523 56.50252532085798,315.99999999054523 36.00000000945479,295.49747467914204 36.00000000945479,266.50252532085796 56.502525320857984,246.0000000094548 85.49747467914203,246.0000000094548" fill="none" stroke="#0066cc" stroke-width="0.5" opacity="0.3"/>
  <polygon points="175.9999999905452,266.50252532085796 175.9999999905452,295.49747467914204 155.49747467914202,315.99999999054523 126.50252532085798,315.99999999054523 106.0000000094548,295.49747467914204 106.0000000094548,266.50252532085796 126.50252532085798,246.0000000094548 155.49747467914204,246.0000000094548" fill="none" stroke="#0066cc" stroke-width="0.5" opacity="0.3"/>
  <polygon points="245.9999999905452,266.50252532085796 245.9999999905452,295.49747467914204 225.49747467914202,315.99999999054523 196.50252532085798,315.99999999054523 176.0000000094548,295.49747467914204 176.0000000094548,266.50252532085796 196.50252532085798,246.0000000094548 225.49747467914204,246.0000000094548" fill="none" stroke="#0066cc" stroke-width="0.5" opacity="0.3"/>
  <polygon points="315.99999999054523,266.50252532085796 315.99999999054523,295.49747467914204 295.49747467914204,315.99999999054523 266.50252532085796,315.99999999054523 246.0000000094548,295.49747467914204 246.0000000094548,266.50252532085796 266.502525320858,246.0000000094548 295.49747467914204,246.0000000094548" fill="none" stroke="#0066cc" stroke-width="0.5" opacity="0.3"/>
  <polygon points="385.99999999054523,266.50252532085796 385.99999999054523,295.49747467914204 365.49747467914204,315.99999999054523 336.50252532085796,315.99999999054523 316.00000000945477,295.49747467914204 316.00000000945477,266.50252532085796 336.502525320858,246.0000000094548 365.49747467914204,246.0000000094548" fill="none" stroke="#0066cc" stroke-width="0.5" opacity="0.3"/>
  <polygon points="455.99999999054523,266.50252532085796 455.99999999054523,295.49747467914204 435.49747467914204,315.99999999054523 406.50252532085796,315.99999999054523 386.00000000945477,295.49747467914204 386.00000000945477,266.50252532085796 406.502525320858,246.0000000094548 435.49747467914204,246.0000000094548" fill="none" stroke="#0066cc" stroke-width="0.5" opacity="0.3"/>
  <polygon points="525.9999999905452,266.50252532085796 525.9999999905452,295.49747467914204 505.49747467914204,315.99999999054523 476.50252532085796,315.99999999054523 456.00000000945477,295.49747467914204 456.00000000945477,266.50252532085796 476.502525320858,246.0000000094548 505.49747467914204,246.0000000094548" fill="none" stroke="#0066cc" stroke-width="0.5" opacity="0.3"/>
  <polygon points="595.9999999905452,266.50252532085796 595.9999999905452,295.49747467914204 575.497474679142,315.99999999054523 546.502525320858,315.99999999054523 526.0000000094548,295.49747467914204 526.0000000094548,266.50252532085796 546.502525320858,246.0000000094548 575.497474679142,246.0000000094548" fill="none" stroke="#0066cc" stroke-width="0.5" opacity="0.3"/>
  <polygon points="105.9999999905452,336.50252532085796 105.9999999905452,365.49747467914204 85.49747467914203,385.99999999054523 56.50252532085798,385.99999999054523 36.00000000945479,365.49747467914204 36.00000000945479,336.50252532085796 56.502525320857984,316.00000000945477 85.49747467914203,316.00000000945477" fill="none" stroke="#0066cc" stroke-width="0.5" opacity="0.3"/>
  <polygon points="175.9999999905452,336.50252532085796 175.9999999905452,365.49747467914204 155.49747467914202,385.99999999054523 126.50252532085798,385.99999999054523 106.0000000094548,365.49747467914204 106.0000000094548,336.50252532085796 126.50252532085798,316.00000000945477 155.49747467914204,316.00000000945477" fill="none" stroke="#0066cc" stroke-width="0.5" opacity="0.3"/>
  <polygon points="245.9999999905452,336.50252532085796 245.9999999905452,365.49747467914204 225.49747467914202,385.99999999054523 196.50252532085798,385.99999999054523 176.0000000094548,365.49747467914204 176.0000000094548,336.50252532085796 196.50252532085798,316.00000000945477 225.49747467914204,316.00000000945477" fill="none" stroke="#0066cc" stroke-width="0.5" opacity="0.3"/>
  <polygon points="315.99999999054523,336.50252532085796 315.99999999054523,365.49747467914204 295.49747467914204,385.99999999054523 266.50252532085796,385.99999999054523 246.0000000094548,365.49747467914204 246.0000000094548,336.50252532085796 266.502525320858,316.00000000945477 295.49747467914204,316.00000000945477" fill="none" stroke="#0066cc" stroke-width="0.5" opacity="0.3"/>
  <polygon points="385.99999999054523,336.50252532085796 385.99999999054523,365.49747467914204 365.49747467914204,385.99999999054523 336.50252532085796,385.99999999054523 316.00000000945477,365.49747467914204 316.00000000945477,336.50252532085796 336.502525320858,316.00000000945477 365.49747467914204,316.00000000945477" fill="none" stroke="#0066cc" stroke-width="0.5" opacity="0.3"/>
  <polygon points="455.99999999054523,336.50252532085796 455.99999999054523,365.49747467914204 435.49747467914204,385.99999999054523 406.50252532085796,385.99999999054523 386.00000000945477,365.49747467914204 386.00000000945477,336.50252532085796 406.502525320858,316.00000000945477 435.49747467914204,316.00000000945477" fill="none" stroke="#0066cc" stroke-width="0.5" opacity="0.3"/>
  <polygon points="525.9999999905452,336.50252532085796 525.9999999905452,365.49747467914204 505.49747467914204,385.99999999054523 476.50252532085796,385.99999999054523 456.00000000945477,365.49747467914204 456.00000000945477,336.50252532085796 476.502525320858,316.00000000945477 505.49747467914204,316.00000000945477" fill="none" stroke="#0066cc" stroke-width="0.5" opacity="0.3"/>
  <polygon points="595.9999999905452,336.50252532085796 595.9999999905452,365.49747467914204 575.497474679142,385.99999999054523 546.502525320858,385.99999999054523 526.0000000094548,365.49747467914204 526.0000000094548,336.50252532085796 546.502525320858,316.00000000945477 575.497474679142,316.00000000945477" fill="none" stroke="#0066cc" stroke-width="0.5" opacity="0.3"/>
  <polygon points="105.9999999905452,406.50252532085796 105.9999999905452,435.49747467914204 85.49747467914203,455.99999999054523 56.50252532085798,455.99999999054523 36.00000000945479,435.49747467914204 36.00000000945479,406.50252532085796 56.502525320857984,386.00000000945477 85.49747467914203,386.00000000945477" fill="none" stroke="#0066cc" stroke-width="0.5" opacity="0.3"/>
  <polygon points="175.9999999905452,406.50252532085796 175.9999999905452,435.49747467914204 155.49747467914202,455.99999999054523 126.50252532085798,455.99999999054523 106.0000000094548,435.49747467914204 106.0000000094548,406.50252532085796 126.50252532085798,386.00000000945477 155.49747467914204,386.00000000945477" fill="none" stroke="#0066cc" stroke-width="0.5" opacity="0.3"/>
  <polygon points="245.9999999905452,406.50252532085796 245.9999999905452,435.49747467914204 225.49747467914202,455.99999999054523 196.50252532085798,455.99999999054523 176.0000000094548,435.49747467914204 176.0000000094548,406.50252532085796 196.50252532085798,386.00000000945477 225.49747467914204,386.00000000945477" fill="none" stroke="#0066cc" stroke-width="0.5" opacity="0.3"/>
  <polygon points="315.99999999054523,406.50252532085796 315.99999999054523,435.49747467914204 295.49747467914204,455.99999999054523 266.50252532085796,455.99999999054523 246.0000000094548,435.49747467914204 246.0000000094548,406.50252532085796 266.502525320858,386.00000000945477 295.49747467914204,386.00000000945477" fill="none" stroke="#0066cc" stroke-width="0.5" opacity="0.3"/>
  <polygon points="385.99999999054523,406.50252532085796 385.99999999054523,435.49747467914204 365.49747467914204,455.99999999054523 336.50252532085796,455.99999999054523 316.00000000945477,435.49747467914204 316.00000000945477,406.50252532085796 336.502525320858,386.00000000945477 365.49747467914204,386.00000000945477" fill="none" stroke="#0066cc" stroke-width="0.5" opacity="0.3"/>
  <polygon points="455.99999999054523,406.50252532085796 455.99999999054523,435.49747467914204 435.49747467914204,455.99999999054523 406.50252532085796,455.99999999054523 386.00000000945477,435.49747467914204 386.00000000945477,406.50252532085796 406.502525320858,386.00000000945477 435.49747467914204,386.00000000945477" fill="none" stroke="#0066cc" stroke-width="0.5" opacity="0.3"/>
  <polygon points="525.9999999905452,406.50252532085796 525.9999999905452,435.49747467914204 505.49747467914204,455.99999999054523 476.50252532085796,455.99999999054523 456.00000000945477,435.49747467914204 456.00000000945477,406.50252532085796 476.502525320858,386.00000000945477 505.49747467914204,386.00000000945477" fill="none" stroke="#0066cc" stroke-width="0.5" opacity="0.3"/>
  <polygon points="595.9999999905452,406.50252532085796 595.9999999905452,435.49747467914204 575.497474679142,455.99999999054523 546.502525320858,455.99999999054523 526.0000000094548,435.49747467914204 526.0000000094548,406.50252532085796 546.502525320858,386.00000000945477 575.497474679142,386.00000000945477" fill="none" stroke="#0066cc" stroke-width="0.5" opacity="0.3"/>
  <polygon points="105.9999999905452,476.50252532085796 105.9999999905452,505.49747467914204 85.49747467914203,525.9999999905452 56.50252532085798,525.9999999905452 36.00000000945479,505.49747467914204 36.00000000945479,476.50252532085796 56.502525320857984,456.00000000945477 85.49747467914203,456.00000000945477" fill="none" stroke="#0066cc" stroke-width="0.5" opacity="0.3"/>
  <polygon points="175.9999999905452,476.50252532085796 175.9999999905452,505.49747467914204 155.49747467914202,525.9999999905452 126.50252532085798,525.9999999905452 106.0000000094548,505.49747467914204 106.0000000094548,476.50252532085796 126.50252532085798,456.00000000945477 155.49747467914204,456.00000000945477" fill="none" stroke="#0066cc" stroke-width="0.5" opacity="0.3"/>
  <polygon points="245.9999999905452,476.50252532085796 245.9999999905452,505.49747467914204 225.49747467914202,525.9999999905452 196.50252532085798,525.9999999905452 176.0000000094548,505.49747467914204 176.0000000094548,476.50252532085796 196.50252532085798,456.00000000945477 225.49747467914204,456.00000000945477" fill="none" stroke="#0066cc" stroke-width="0.5" opacity="0.3"/>
  <polygon points="315.99999999054523,476.50252532085796 315.99999999054523,505.49747467914204 295.49747467914204,525.9999999905452 266.50252532085796,525.9999999905452 246.0000000094548,505.49747467914204 246.0000000094548,476.50252532085796 266.502525320858,456.00000000945477 295.49747467914204,456.00000000945477" fill="none" stroke="#0066cc" stroke-width="0.5" opacity="0.3"/>
  <polygon points="385.99999999054523,476.50252532085796 385.99999999054523,505.49747467914204 365.49747467914204,525.9999999905452 336.50252532085796,525.9999999905452 316.00000000945477,505.49747467914204 316.00000000945477,476.50252532085796 336.502525320858,456.00000000945477 365.49747467914204,456.00000000945477" fill="none" stroke="#0066cc" stroke-width="0.5" opacity="0.3"/>
  <polygon points="455.99999999054523,476.50252532085796 455.99999999054523,505.49747467914204 435.49747467914204,525.9999999905452 406.50252532085796,525.9999999905452 386.00000000945477,505.49747467914204 386.00000000945477,476.50252532085796 406.502525320858,456.00000000945477 435.49747467914204,456.00000000945477" fill="none" stroke="#0066cc" stroke-width="0.5" opacity="0.3"/>
  <polygon points="525.9999999905452,476.50252532085796 525.9999999905452,505.49747467914204 505.49747467914204,525.9999999905452 476.50252532085796,525.9999999905452 456.00000000945477,505.49747467914204 456.00000000945477,476.50252532085796 476.502525320858,456.00000000945477 505.49747467914204,456.00000000945477" fill="none" stroke="#0066cc" stroke-width="0.5" opacity="0.3"/>
  <polygon points="595.9999999905452,476.50252532085796 595.9999999905452,505.49747467914204 575.497474679142,525.9999999905452 546.502525320858,525.9999999905452 526.0000000094548,505.49747467914204 526.0000000094548,476.50252532085796 546.502525320858,456.00000000945477 575.497474679142,456.00000000945477" fill="none" stroke="#0066cc" stroke-width="0.5" opacity="0.3"/>
  <polygon points="105.9999999905452,546.502525320858 105.9999999905452,575.497474679142 85.49747467914203,595.9999999905452 56.50252532085798,595.9999999905452 36.00000000945479,575.497474679142 36.00000000945479,546.502525320858 56.502525320857984,526.0000000094548 85.49747467914203,526.0000000094548" fill="none" stroke="#0066cc" stroke-width="0.5" opacity="0.3"/>
  <polygon points="175.9999999905452,546.502525320858 175.9999999905452,575.497474679142 155.49747467914202,595.9999999905452 126.50252532085798,595.9999999905452 106.0000000094548,575.497474679142 106.0000000094548,546.502525320858 126.50252532085798,526.0000000094548 155.49747467914204,526.0000000094548" fill="none" stroke="#0066cc" stroke-width="0.5" opacity="0.3"/>
  <polygon points="245.9999999905452,546.502525320858 245.9999999905452,575.497474679142 225.49747467914202,595.9999999905452 196.50252532085798,595.9999999905452 176.0000000094548,575.497474679142 176.0000000094548,546.502525320858 196.50252532085798,526.0000000094548 225.49747467914204,526.0000000094548" fill="none" stroke="#0066cc" stroke-width="0.5" opacity="0.3"/>
  <polygon points="315.99999999054523,546.502525320858 315.99999999054523,575.497474679142 295.49747467914204,595.9999999905452 266.50252532085796,595.9999999905452 246.0000000094548,575.497474679142 246.0000000094548,546.502525320858 266.502525320858,526.0000000094548 295.49747467914204,526.0000000094548" fill="none" stroke="#0066cc" stroke-width="0.5" opacity="0.3"/>
  <polygon points="385.99999999054523,546.502525320858 385.99999999054523,575.497474679142 365.49747467914204,595.9999999905452 336.50252532085796,595.9999999905452 316.00000000945477,575.497474679142 316.00000000945477,546.502525320858 336.502525320858,526.0000000094548 365.49747467914204,526.0000000094548" fill="none" stroke="#0066cc" stroke-width="0.5" opacity="0.3"/>
  <polygon points="455.99999999054523,546.502525320858 455.99999999054523,575.497474679142 435.49747467914204,595.9999999905452 406.50252532085796,595.9999999905452 386.00000000945477,575.497474679142 386.00000000945477,546.502525320858 406.502525320858,526.0000000094548 435.49747467914204,526.0000000094548" fill="none" stroke="#0066cc" stroke-width="0.5" opacity="0.3"/>
  <polygon points="525.9999999905452,546.502525320858 525.9999999905452,575.497474679142 505.49747467914204,595.9999999905452 476.50252532085796,595.9999999905452 456.00000000945477,575.497474679142 456.00000000945477,546.502525320858 476.502525320858,526.0000000094548 505.49747467914204,526.0000000094548" fill="none" stroke="#0066cc" stroke-width="0.5" opacity="0.3"/>
  <polygon points="595.9999999905452,546.502525320858 595.9999999905452,575.497474679142 575.497474679142,595.9999999905452 546.502525320858,595.9999999905452 526.0000000094548,575.497474679142 526.0000000094548,546.502525320858 546.502525320858,526.0000000094548 575.497474679142,526.0000000094548" fill="none" stroke="#0066cc" stroke-width="0.5" opacity="0.3"/>
  <polygon points="105.9999999905452,616.502525320858 105.9999999905452,645.497474679142 85.49747467914203,665.9999999905452 56.50252532085798,665.9999999905452 36.00000000945479,645.497474679142 36.00000000945479,616.502525320858 56.502525320857984,596.0000000094548 85.49747467914203,596.0000000094548" fill="none" stroke="#0066cc" stroke-width="0.5" opacity="0.3"/>
  <polygon points="175.9999999905452,616.502525320858 175.9999999905452,645.497474679142 155.49747467914202,665.9999999905452 126.50252532085798,665.9999999905452 106.0000000094548,645.497474679142 106.0000000094548,616.502525320858 126.50252532085798,596.0000000094548 155.49747467914204,596.0000000094548" fill="none" stroke="#0066cc" stroke-width="0.5" opacity="0.3"/>
  <polygon points="245.9999999905452,616.502525320858 245.9999999905452,645.497474679142 225.49747467914202,665.9999999905452 196.50252532085798,665.9999999905452 176.0000000094548,645.497474679142 176.0000000094548,616.502525320858 196.50252532085798,596.0000000094548 225.49747467914204,596.0000000094548" fill="none" stroke="#0066cc" stroke-width="0.5" opacity="0.3"/>
  <polygon points="315.99999999054523,616.502525320858 315.99999999054523,645.497474679142 295.49747467914204,665.9999999905452 266.50252532085796,665.9999999905452 246.0000000094548,645.497474679142 246.0000000094548,616.502525320858 266.502525320858,596.0000000094548 295.49747467914204,596.0000000094548" fill="none" stroke="#0066cc" stroke-width="0.5" opacity="0.3"/>
  <polygon points="385.99999999054523,616.502525320858 385.99999999054523,645.497474679142 365.49747467914204,665.9999999905452 336.50252532085796,665.9999999905452 316.00000000945477,645.497474679142 316.00000000945477,616.502525320858 336.502525320858,596.0000000094548 365.49747467914204,596.0000000094548" fill="none" stroke="#0066cc" stroke-width="0.5" opacity="0.3"/>
  <polygon points="455.99999999054523,616.502525320858 455.99999999054523,645.497474679142 435.49747467914204,665.9999999905452 406.50252532085796,665.9999999905452 386.00000000945477,645.497474679142 386.00000000945477,616.502525320858 406.502525320858,596.0000000094548 435.49747467914204,596.0000000094548" fill="none" stroke="#0066cc" stroke-width="0.5" opacity="0.3"/>
  <polygon points="525.9999999905452,616.502525320858 525.9999999905452,645.497474679142 505.49747467914204,665.9999999905452 476.50252532085796,665.9999999905452 456.00000000945477,645.497474679142 456.00000000945477,616.502525320858 476.502525320858,596.0000000094548 505.49747467914204,596.0000000094548" fill="none" stroke="#0066cc" stroke-width="0.5" opacity="0.3"/>
  <polygon points="595.9999999905452,616.502525320858 595.9999999905452,645.497474679142 575.497474679142,665.9999999905452 546.502525320858,665.9999999905452 526.0000000094548,645.497474679142 526.0000000094548,616.502525320858 546.502525320858,596.0000000094548 575.497474679142,596.0000000094548" fill="none" stroke="#0066cc" stroke-width="0.5" opacity="0.3"/>
  <polygon points="105.9999999905452,686.502525320858 105.9999999905452,715.497474679142 85.49747467914203,735.9999999905452 56.50252532085798,735.9999999905452 36.00000000945479,715.497474679142 36.00000000945479,686.502525320858 56.502525320857984,666.0000000094548 85.49747467914203,666.0000000094548" fill="none" stroke="#0066cc" stroke-width="0.5" opacity="0.3"/>
  <polygon points="175.9999999905452,686.502525320858 175.9999999905452,715.497474679142 155.49747467914202,735.9999999905452 126.50252532085798,735.9999999905452 106.0000000094548,715.497474679142 106.0000000094548,686.502525320858 126.50252532085798,666.0000000094548 155.49747467914204,666.0000000094548" fill="none" stroke="#0066cc" stroke-width="0.5" opacity="0.3"/>
  <polygon points="245.9999999905452,686.502525320858 245.9999999905452,715.497474679142 225.49747467914202,735.9999999905452 196.50252532085798,735.9999999905452 176.0000000094548,715.497474679142 176.0000000094548,686.502525320858 196.50252532085798,666.0000000094548 225.49747467914204,666.0000000094548" fill="none" stroke="#0066cc" stroke-width="0.5" opacity="0.3"/>
  <polygon points="315.99999999054523,686.502525320858 315.99999999054523,715.497474679142 295.49747467914204,735.9999999905452 266.50252532085796,735.9999999905452 246.0000000094548,715.497474679142 246.0000000094548,686.502525320858 266.502525320858,666.0000000094548 295.49747467914204,666.0000000094548" fill="none" stroke="#0066cc" stroke-width="0.5" opacity="0.3"/>
  <polygon points="385.99999999054523,686.502525320858 385.99999999054523,715.497474679142 365.49747467914204,735.9999999905452 336.50252532085796,735.9999999905452 316.00000000945477,715.497474679142 316.00000000945477,686.502525320858 336.502525320858,666.0000000094548 365.49747467914204,666.0000000094548" fill="none" stroke="#0066cc" stroke-width="0.5" opacity="0.3"/>
  <polygon points="455.99999999054523,686.502525320858 455.99999999054523,715.497474679142 435.49747467914204,735.9999999905452 406.50252532085796,735.9999999905452 386.00000000945477,715.497474679142 386.00000000945477,686.502525320858 406.502525320858,666.0000000094548 435.49747467914204,666.0000000094548" fill="none" stroke="#0066cc" stroke-width="0.5" opacity="0.3"/>
  <polygon points="525.9999999905452,686.502525320858 525.9999999905452,715.497474679142 505.49747467914204,735.9999999905452 476.50252532085796,735.9999999905452 456.00000000945477,715.497474679142 456.00000000945477,686.502525320858 476.502525320858,666.0000000094548 505.49747467914204,666.0000000094548" fill="none" stroke="#0066cc" stroke-width="0.5" opacity="0.3"/>
  <polygon points="595.9999999905452,686.502525320858 595.9999999905452,715.497474679142 575.497474679142,735.9999999905452 546.502525320858,735.9999999905452 526.0000000094548,715.497474679142 526.0000000094548,686.502525320858 546.502525320858,666.0000000094548 575.497474679142,666.0000000094548" fill="none" stroke="#0066cc" stroke-width="0.5" opacity="0.3"/>
</svg>