<svg width="612" height="792" 
     viewBox="0 0 612 792" 
     xmlns="http://www.w3.org/2000/svg">
  <rect width="612" height="792" fill="white"/>
  <polygon points="105.9999999905452,56.50252532085797 105.9999999905452,85.49747467914203 85.49747467914203,105.9999999905452 56.50252532085798,105.9999999905452 36.00000000945479,85.49747467914203 36.00000000945479,56.50252532085798 56.502525320857984,36.00000000945479 85.49747467914203,36.000000009454794" fill="none" stroke="#0066cc" stroke-width="0.5" opacity="0.3"/>
  <polygon points="134.99494936611666,85.49747468305833 106.0,85.49747468305833 106.0,56.50252531694167 134.99494936611666,56.50252531694167" fill="none" stroke="#0066cc" stroke-width="0.5" opacity="0.3"/>
  <polygon points="85.49747468305833,134.99494936611666 56.50252531694167,134.99494936611666 56.50252531694167,106.0 85.49747468305833,106.0" fill="none" stroke="#0066cc" stroke-width="0.5" opacity="0.3"/>
  <polygon points="204.99494935666186,56.50252532085797 204.99494935666186,85.49747467914203 184.49242404525867,105.9999999905452 155.49747468697464,105.9999999905452 134.99494937557145,85.49747467914203 134.99494937557145,56.50252532085798 155.49747468697464,36.00000000945479 184.4924240452587,36.000000009454794" fill="none" stroke="#0066cc" stroke-width="0.5" opacity="0.3"/>
  <polygon points="233.9898987322333,85.49747468305833 204.99494936611666,85.49747468305833 204.99494936611666,56.50252531694167 233.9898987322333,56.50252531694167" fill="none" stroke="#0066cc" stroke-width="0.5" opacity="0.3"/>
  <polygon points="184.49242404917499,134.99494936611666 155.49747468305833,134.99494936611666 155.49747468305833,106.0 184.49242404917499,106.0" fill="none" stroke="#0066cc" stroke-width="0.5" opacity="0.3"/>
  <polygon points="303.98989872277855,56.50252532085797 303.98989872277855,85.49747467914203 283.48737341137536,105.9999999905452 254.4924240530913,105.9999999905452 233.9898987416881,85.49747467914203 233.9898987416881,56.50252532085798 254.4924240530913,36.00000000945479 283.48737341137536,36.000000009454794" fill="none" stroke="#0066cc" stroke-width="0.5" opacity="0.3"/>
  <polygon points="332.98484809834997,85.49747468305833 303.9898987322333,85.49747468305833 303.9898987322333,56.50252531694167 332.98484809834997,56.50252531694167" fill="none" stroke="#0066cc" stroke-width="0.5" opacity="0.3"/>
  <polygon points="283.48737341529164,134.99494936611666 254.49242404917499,134.99494936611666 254.49242404917499,106.0 283.48737341529164,106.0" fill="none" stroke="#0066cc" stroke-width="0.5" opacity="0.3"/>
  <polygon points="402.9848480888952,56.50252532085797 402.9848480888952,85.49747467914203 382.482322777492,105.9999999905452 353.4873734192079,105.9999999905452 332.98484810780474,85.49747467914203 332.98484810780474,56.50252532085798 353.487373419208,36.00000000945479 382.482322777492,36.000000009454794" fill="none" stroke="#0066cc" stroke-width="0.5" opacity="0.3"/>
  <polygon points="431.9797974644666,85.49747468305833 402.98484809834997,85.49747468305833 402.98484809834997,56.50252531694167 431.9797974644666,56.50252531694167" fill="none" stroke="#0066cc" stroke-width="0.5" opacity="0.3"/>
  <polygon points="382.4823227814083,134.99494936611666 353.48737341529164,134.99494936611666 353.48737341529164,106.0 382.4823227814083,106.0" fill="none" stroke="#0066cc" stroke-width="0.5" opacity="0.3"/>
  <polygon points="501.97979745501186,56.50252532085797 501.97979745501186,85.49747467914203 481.4772721436087,105.9999999905452 452.4823227853246,105.9999999905452 431.9797974739214,85.49747467914203 431.9797974739214,56.50252532085798 452.48232278532464,36.00000000945479 481.4772721436087,36.000000009454794" fill="none" stroke="#0066cc" stroke-width="0.5" opacity="0.3"/>
  <polygon points="530.9747468305832,85.49747468305833 501.97979746446657,85.49747468305833 501.97979746446657,56.50252531694167 530.9747468305832,56.50252531694167" fill="none" stroke="#0066cc" stroke-width="0.5" opacity="0.3"/>
  <polygon points="481.47727214752496,134.99494936611666 452.4823227814083,134.99494936611666 452.4823227814083,106.0 481.47727214752496,106.0" fill="none" stroke="#0066cc" stroke-width="0.5" opacity="0.3"/>
  <polygon points="600.9747468211285,56.50252532085797 600.9747468211285,85.49747467914203 580.4722215097253,105.9999999905452 551.4772721514413,105.9999999905452 530.974746840038,85.49747467914203 530.974746840038,56.50252532085798 551.4772721514413,36.00000000945479 580.4722215097253,36.000000009454794" fill="none" stroke="#0066cc" stroke-width="0.5" opacity="0.3"/>
  <polygon points="580.4722215136417,134.99494936611666 551.477272147525,134.99494936611666 551.4772721475249,106.0 580.4722215136416,106.0" fill="none" stroke="#0066cc" stroke-width="0.5" opacity="0.3"/>
  <polygon points="105.9999999905452,155.49747468697464 105.9999999905452,184.49242404525867 85.49747467914203,204.99494935666186 56.50252532085798,204.99494935666186 36.00000000945479,184.4924240452587 36.00000000945479,155.49747468697464 56.502525320857984,134.99494937557145 85.49747467914203,134.99494937557145" fill="none" stroke="#0066cc" stroke-width="0.5" opacity="0.3"/>
  <polygon points="134.99494936611666,184.49242404917499 106.0,184.49242404917499 106.0,155.49747468305833 134.99494936611666,155.49747468305833" fill="none" stroke="#0066cc" stroke-width="0.5" opacity="0.3"/>
  <polygon points="85.49747468305833,233.9898987322333 56.50252531694167,233.9898987322333 56.50252531694167,204.99494936611666 85.49747468305833,204.99494936611666" fill="none" stroke="#0066cc" stroke-width="0.5" opacity="0.3"/>
  <polygon points="204.99494935666186,155.49747468697464 204.99494935666186,184.49242404525867 184.49242404525867,204.99494935666186 155.49747468697464,204.99494935666186 134.99494937557145,184.4924240452587 134.99494937557145,155.49747468697464 155.49747468697464,134.99494937557145 184.4924240452587,134.99494937557145" fill="none" stroke="#0066cc" stroke-width="0.5" opacity="0.3"/>
  <polygon points="233.9898987322333,184.49242404917499 204.99494936611666,184.49242404917499 204.99494936611666,155.49747468305833 233.9898987322333,155.49747468305833" fill="none" stroke="#0066cc" stroke-width="0.5" opacity="0.3"/>
  <polygon points="184.49242404917499,233.9898987322333 155.49747468305833,233.9898987322333 155.49747468305833,204.99494936611666 184.49242404917499,204.99494936611666" fill="none" stroke="#0066cc" stroke-width="0.5" opacity="0.3"/>
  <polygon points="303.98989872277855,155.49747468697464 303.98989872277855,184.49242404525867 283.48737341137536,204.99494935666186 254.4924240530913,204.99494935666186 233.9898987416881,184.4924240452587 233.9898987416881,155.49747468697464 254.4924240530913,134.99494937557145 283.48737341137536,134.99494937557145" fill="none" stroke="#0066cc" stroke-width="0.5" opacity="0.3"/>
  <polygon points="332.98484809834997,184.49242404917499 303.9898987322333,184.49242404917499 303.9898987322333,155.49747468305833 332.98484809834997,155.49747468305833" fill="none" stroke="#0066cc" stroke-width="0.5" opacity="0.3"/>
  <polygon points="283.48737341529164,233.9898987322333 254.49242404917499,233.9898987322333 254.49242404917499,204.99494936611666 283.48737341529164,204.99494936611666" fill="none" stroke="#0066cc" stroke-width="0.5" opacity="0.3"/>
  <polygon points="402.9848480888952,155.49747468697464 402.9848480888952,184.49242404525867 382.482322777492,204.99494935666186 353.4873734192079,204.99494935666186 332.98484810780474,184.4924240452587 332.98484810780474,155.49747468697464 353.487373419208,134.99494937557145 382.482322777492,134.99494937557145" fill="none" stroke="#0066cc" stroke-width="0.5" opacity="0.3"/>
  <polygon points="431.9797974644666,184.49242404917499 402.98484809834997,184.49242404917499 402.98484809834997,155.49747468305833 431.9797974644666,155.49747468305833" fill="none" stroke="#0066cc" stroke-width="0.5" opacity="0.3"/>
  <polygon points="382.4823227814083,233.9898987322333 353.48737341529164,233.9898987322333 353.48737341529164,204.99494936611666 382.4823227814083,204.99494936611666" fill="none" stroke="#0066cc" stroke-width="0.5" opacity="0.3"/>
  <polygon points="501.97979745501186,155.49747468697464 501.97979745501186,184.49242404525867 481.4772721436087,204.99494935666186 452.4823227853246,204.99494935666186 431.9797974739214,184.4924240452587 431.9797974739214,155.49747468697464 452.48232278532464,134.99494937557145 481.4772721436087,134.99494937557145" fill="none" stroke="#0066cc" stroke-width="0.5" opacity="0.3"/>
  <polygon points="530.9747468305832,184.49242404917499 501.97979746446657,184.49242404917499 501.97979746446657,155.49747468305833 530.9747468305832,155.49747468305833" fill="none" stroke="#0066cc" stroke-width="0.5" opacity="0.3"/>
  <polygon points="481.47727214752496,233.9898987322333 452.4823227814083,233.9898987322333 452.4823227814083,204.99494936611666 481.47727214752496,204.99494936611666" fill="none" stroke="#0066cc" stroke-width="0.5" opacity="0.3"/>
  <polygon points="600.9747468211285,155.49747468697464 600.9747468211285,184.49242404525867 580.4722215097253,204.99494935666186 551.4772721514413,204.99494935666186 530.974746840038,184.4924240452587 530.974746840038,155.49747468697464 551.4772721514413,134.99494937557145 580.4722215097253,134.99494937557145" fill="none" stroke="#0066cc" stroke-width="0.5" opacity="0.3"/>
  <polygon points="580.4722215136417,233.9898987322333 551.477272147525,233.9898987322333 551.4772721475249,204.99494936611666 580.4722215136416,204.99494936611666" fill="none" stroke="#0066cc" stroke-width="0.5" opacity="0.3"/>
  <polygon points="105.9999999905452,254.4924240530913 105.9999999905452,283.48737341137536 85.49747467914203,303.98989872277855 56.50252532085798,303.98989872277855 36.00000000945479,283.48737341137536 36.00000000945479,254.4924240530913 56.502525320857984,233.9898987416881 85.49747467914203,233.9898987416881" fill="none" stroke="#0066cc" stroke-width="0.5" opacity="0.3"/>
  <polygon points="134.99494936611666,283.48737341529164 106.0,283.48737341529164 106.0,254.49242404917499 134.99494936611666,254.49242404917499" fill="none" stroke="#0066cc" stroke-width="0.5" opacity="0.3"/>
  <polygon points="85.49747468305833,332.98484809834997 56.50252531694167,332.98484809834997 56.50252531694167,303.9898987322333 85.49747468305833,303.9898987322333" fill="none" stroke="#0066cc" stroke-width="0.5" opacity="0.3"/>
  <polygon points="204.99494935666186,254.4924240530913 204.99494935666186,283.48737341137536 184.49242404525867,303.98989872277855 155.49747468697464,303.98989872277855 134.99494937557145,283.48737341137536 134.99494937557145,254.4924240530913 155.49747468697464,233.9898987416881 184.4924240452587,233.9898987416881" fill="none" stroke="#0066cc" stroke-width="0.5" opacity="0.3"/>
  <polygon points="233.9898987322333,283.48737341529164 204.99494936611666,283.48737341529164 204.99494936611666,254.49242404917499 233.9898987322333,254.49242404917499" fill="none" stroke="#0066cc" stroke-width="0.5" opacity="0.3"/>
  <polygon points="184.49242404917499,332.98484809834997 155.49747468305833,332.98484809834997 155.49747468305833,303.9898987322333 184.49242404917499,303.9898987322333" fill="none" stroke="#0066cc" stroke-width="0.5" opacity="0.3"/>
  <polygon points="303.98989872277855,254.4924240530913 303.98989872277855,283.48737341137536 283.48737341137536,303.98989872277855 254.4924240530913,303.98989872277855 233.9898987416881,283.48737341137536 233.9898987416881,254.4924240530913 254.4924240530913,233.9898987416881 283.48737341137536,233.9898987416881" fill="none" stroke="#0066cc" stroke-width="0.5" opacity="0.3"/>
  <polygon points="332.98484809834997,283.48737341529164 303.9898987322333,283.48737341529164 303.9898987322333,254.49242404917499 332.98484809834997,254.49242404917499" fill="none" stroke="#0066cc" stroke-width="0.5" opacity="0.3"/>
  <polygon points="283.48737341529164,332.98484809834997 254.49242404917499,332.98484809834997 254.49242404917499,303.9898987322333 283.48737341529164,303.9898987322333" fill="none" stroke="#0066cc" stroke-width="0.5" opacity="0.3"/>
  <polygon points="402.9848480888952,254.4924240530913 402.9848480888952,283.48737341137536 382.482322777492,303.98989872277855 353.4873734192079,303.98989872277855 332.98484810780474,283.48737341137536 332.98484810780474,254.4924240530913 353.487373419208,233.9898987416881 382.482322777492,233.9898987416881" fill="none" stroke="#0066cc" stroke-width="0.5" opacity="0.3"/>
  <polygon points="431.9797974644666,283.48737341529164 402.98484809834997,283.48737341529164 402.98484809834997,254.49242404917499 431.9797974644666,254.49242404917499" fill="none" stroke="#0066cc" stroke-width="0.5" opacity="0.3"/>
  <polygon points="382.4823227814083,332.98484809834997 353.48737341529164,332.98484809834997 353.48737341529164,303.9898987322333 382.4823227814083,303.9898987322333" fill="none" stroke="#0066cc" stroke-width="0.5" opacity="0.3"/>
  <polygon points="501.97979745501186,254.4924240530913 501.97979745501186,283.48737341137536 481.4772721436087,303.98989872277855 452.4823227853246,303.98989872277855 431.9797974739214,283.48737341137536 431.9797974739214,254.4924240530913 452.48232278532464,233.9898987416881 481.4772721436087,233.9898987416881" fill="none" stroke="#0066cc" stroke-width="0.5" opacity="0.3"/>
  <polygon points="530.9747468305832,283.48737341529164 501.97979746446657,283.48737341529164 501.97979746446657,254.49242404917499 530.9747468305832,254.49242404917499" fill="none" stroke="#0066cc" stroke-width="0.5" opacity="0.3"/>
  <polygon points="481.47727214752496,332.98484809834997 452.4823227814083,332.98484809834997 452.4823227814083,303.9898987322333 481.47727214752496,303.9898987322333" fill="none" stroke="#0066cc" stroke-width="0.5" opacity="0.3"/>
  <polygon points="600.9747468211285,254.4924240530913 600.9747468211285,283.48737341137536 580.4722215097253,303.98989872277855 551.4772721514413,303.98989872277855 530.974746840038,283.48737341137536 530.974746840038,254.4924240530913 551.4772721514413,233.9898987416881 580.4722215097253,233.9898987416881" fill="none" stroke="#0066cc" stroke-width="0.5" opacity="0.3"/>
  <polygon points="580.4722215136417,332.98484809834997 551.477272147525,332.98484809834997 551.4772721475249,303.9898987322333 580.4722215136416,303.9898987322333" fill="none" stroke="#0066cc" stroke-width="0.5" opacity="0.3"/>
  <polygon points="105.9999999905452,353.4873734192079 105.9999999905452,382.482322777492 85.49747467914203,402.9848480888952 56.50252532085798,402.9848480888952 36.00000000945479,382.482322777492 36.00000000945479,353.4873734192079 56.502525320857984,332.98484810780474 85.49747467914203,332.98484810780474" fill="none" stroke="#0066cc" stroke-width="0.5" opacity="0.3"/>
  <polygon points="134.99494936611666,382.4823227814083 106.0,382.4823227814083 106.0,353.48737341529164 134.99494936611666,353.48737341529164" fill="none" stroke="#0066cc" stroke-width="0.5" opacity="0.3"/>
  <polygon points="85.49747468305833,431.9797974644666 56.50252531694167,431.9797974644666 56.50252531694167,402.98484809834997 85.49747468305833,402.98484809834997" fill="none" stroke="#0066cc" stroke-width="0.5" opacity="0.3"/>
  <polygon points="204.99494935666186,353.4873734192079 204.99494935666186,382.482322777492 184.49242404525867,402.9848480888952 155.49747468697464,402.9848480888952 134.99494937557145,382.482322777492 134.99494937557145,353.4873734192079 155.49747468697464,332.98484810780474 184.4924240452587,332.98484810780474" fill="none" stroke="#0066cc" stroke-width="0.5" opacity="0.3"/>
  <polygon points="233.9898987322333,382.4823227814083 204.99494936611666,382.4823227814083 204.99494936611666,353.48737341529164 233.9898987322333,353.48737341529164" fill="none" stroke="#0066cc" stroke-width="0.5" opacity="0.3"/>
  <polygon points="184.49242404917499,431.9797974644666 155.49747468305833,431.9797974644666 155.49747468305833,402.98484809834997 184.49242404917499,402.98484809834997" fill="none" stroke="#0066cc" stroke-width="0.5" opacity="0.3"/>
  <polygon points="303.98989872277855,353.4873734192079 303.98989872277855,382.482322777492 283.48737341137536,402.9848480888952 254.4924240530913,402.9848480888952 233.9898987416881,382.482322777492 233.9898987416881,353.4873734192079 254.4924240530913,332.98484810780474 283.48737341137536,332.98484810780474" fill="none" stroke="#0066cc" stroke-width="0.5" opacity="0.3"/>
  <polygon points="332.98484809834997,382.4823227814083 303.9898987322333,382.4823227814083 303.9898987322333,353.48737341529164 332.98484809834997,353.48737341529164" fill="none" stroke="#0066cc" stroke-width="0.5" opacity="0.3"/>
  <polygon points="283.48737341529164,431.9797974644666 254.49242404917499,431.9797974644666 254.49242404917499,402.98484809834997 283.48737341529164,402.98484809834997" fill="none" stroke="#0066cc" stroke-width="0.5" opacity="0.3"/>
  <polygon points="402.9848480888952,353.4873734192079 402.9848480888952,382.482322777492 382.482322777492,402.9848480888952 353.4873734192079,402.9848480888952 332.98484810780474,382.482322777492 332.98484810780474,353.4873734192079 353.487373419208,332.98484810780474 382.482322777492,332.98484810780474" fill="none" stroke="#0066cc" stroke-width="0.5" opacity="0.3"/>
  <polygon points="431.9797974644666,382.4823227814083 402.98484809834997,382.4823227814083 402.98484809834997,353.48737341529164 431.9797974644666,353.48737341529164" fill="none" stroke="#0066cc" stroke-width="0.5" opacity="0.3"/>
  <polygon points="382.4823227814083,431.9797974644666 353.48737341529164,431.9797974644666 353.48737341529164,402.98484809834997 382.4823227814083,402.98484809834997" fill="none" stroke="#0066cc" stroke-width="0.5" opacity="0.3"/>
  <polygon points="501.97979745501186,353.4873734192079 501.97979745501186,382.482322777492 481.4772721436087,402.9848480888952 452.4823227853246,402.9848480888952 431.9797974739214,382.482322777492 431.9797974739214,353.4873734192079 452.48232278532464,332.98484810780474 481.4772721436087,332.98484810780474" fill="none" stroke="#0066cc" stroke-width="0.5" opacity="0.3"/>
  <polygon points="530.9747468305832,382.4823227814083 501.97979746446657,382.4823227814083 501.97979746446657,353.48737341529164 530.9747468305832,353.48737341529164" fill="none" stroke="#0066cc" stroke-width="0.5" opacity="0.3"/>
  <polygon points="481.47727214752496,431.9797974644666 452.4823227814083,431.9797974644666 452.4823227814083,402.98484809834997 481.47727214752496,402.98484809834997" fill="none" stroke="#0066cc" stroke-width="0.5" opacity="0.3"/>
  <polygon points="600.9747468211285,353.4873734192079 600.9747468211285,382.482322777492 580.4722215097253,402.9848480888952 551.4772721514413,402.9848480888952 530.974746840038,382.482322777492 530.974746840038,353.4873734192079 551.4772721514413,332.98484810780474 580.4722215097253,332.98484810780474" fill="none" stroke="#0066cc" stroke-width="0.5" opacity="0.3"/>
  <polygon points="580.4722215136417,431.9797974644666 551.477272147525,431.9797974644666 551.4772721475249,402.98484809834997 580.4722215136416,402.98484809834997" fill="none" stroke="#0066cc" stroke-width="0.5" opacity="0.3"/>
  <polygon points="105.9999999905452,452.4823227853246 105.9999999905452,481.4772721436087 85.49747467914203,501.97979745501186 56.50252532085798,501.97979745501186 36.00000000945479,481.4772721436087 36.00000000945479,452.4823227853246 56.502525320857984,431.9797974739214 85.49747467914203,431.9797974739214" fill="none" stroke="#0066cc" stroke-width="0.5" opacity="0.3"/>
  <polygon points="134.99494936611666,481.47727214752496 106.0,481.47727214752496 106.0,452.4823227814083 134.99494936611666,452.4823227814083" fill="none" stroke="#0066cc" stroke-width="0.5" opacity="0.3"/>
  <polygon points="85.49747468305833,530.9747468305832 56.50252531694167,530.9747468305832 56.50252531694167,501.97979746446657 85.49747468305833,501.97979746446657" fill="none" stroke="#0066cc" stroke-width="0.5" opacity="0.3"/>
  <polygon points="204.99494935666186,452.4823227853246 204.99494935666186,481.4772721436087 184.49242404525867,501.97979745501186 155.49747468697464,501.97979745501186 134.99494937557145,481.4772721436087 134.99494937557145,452.4823227853246 155.49747468697464,431.9797974739214 184.4924240452587,431.9797974739214" fill="none" stroke="#0066cc" stroke-width="0.5" opacity="0.3"/>
  <polygon points="233.9898987322333,481.47727214752496 204.99494936611666,481.47727214752496 204.99494936611666,452.4823227814083 233.9898987322333,452.4823227814083" fill="none" stroke="#0066cc" stroke-width="0.5" opacity="0.3"/>
  <polygon points="184.49242404917499,530.9747468305832 155.49747468305833,530.9747468305832 155.49747468305833,501.97979746446657 184.49242404917499,501.97979746446657" fill="none" stroke="#0066cc" stroke-width="0.5" opacity="0.3"/>
  <polygon points="303.98989872277855,452.4823227853246 303.98989872277855,481.4772721436087 283.48737341137536,501.97979745501186 254.4924240530913,501.97979745501186 233.9898987416881,481.4772721436087 233.9898987416881,452.4823227853246 254.4924240530913,431.9797974739214 283.48737341137536,431.9797974739214" fill="none" stroke="#0066cc" stroke-width="0.5" opacity="0.3"/>
  <polygon points="332.98484809834997,481.47727214752496 303.9898987322333,481.47727214752496 303.9898987322333,452.4823227814083 332.98484809834997,452.4823227814083" fill="none" stroke="#0066cc" stroke-width="0.5" opacity="0.3"/>
  <polygon points="283.48737341529164,530.9747468305832 254.49242404917499,530.9747468305832 254.49242404917499,501.97979746446657 283.48737341529164,501.97979746446657" fill="none" stroke="#0066cc" stroke-width="0.5" opacity="0.3"/>
  <polygon points="402.9848480888952,452.4823227853246 402.9848480888952,481.4772721436087 382.482322777492,501.97979745501186 353.4873734192079,501.97979745501186 332.98484810780474,481.4772721436087 332.98484810780474,452.4823227853246 353.487373419208,431.9797974739214 382.482322777492,431.9797974739214" fill="none" stroke="#0066cc" stroke-width="0.5" opacity="0.3"/>
  <polygon points="431.9797974644666,481.47727214752496 402.98484809834997,481.47727214752496 402.98484809834997,452.4823227814083 431.9797974644666,452.4823227814083" fill="none" stroke="#0066cc" stroke-width="0.5" opacity="0.3"/>
  <polygon points="382.4823227814083,530.9747468305832 353.48737341529164,530.9747468305832 353.48737341529164,501.97979746446657 382.4823227814083,501.97979746446657" fill="none" stroke="#0066cc" stroke-width="0.5" opacity="0.3"/>
  <polygon points="501.97979745501186,452.4823227853246 501.97979745501186,481.4772721436087 481.4772721436087,501.97979745501186 452.4823227853246,501.97979745501186 431.9797974739214,481.4772721436087 431.9797974739214,452.4823227853246 452.48232278532464,431.9797974739214 481.4772721436087,431.9797974739214" fill="none" stroke="#0066cc" stroke-width="0.5" opacity="0.3"/>
  <polygon points="530.9747468305832,481.47727214752496 501.97979746446657,481.47727214752496 501.97979746446657,452.4823227814083 530.9747468305832,452.4823227814083" fill="none" stroke="#0066cc" stroke-width="0.5" opacity="0.3"/>
  <polygon points="481.47727214752496,530.9747468305832 452.4823227814083,530.9747468305832 452.4823227814083,501.97979746446657 481.47727214752496,501.97979746446657" fill="none" stroke="#0066cc" stroke-width="0.5" opacity="0.3"/>
  <polygon points="600.9747468211285,452.4823227853246 600.9747468211285,481.4772721436087 580.4722215097253,501.97979745501186 551.4772721514413,501.97979745501186 530.974746840038,481.4772721436087 530.974746840038,452.4823227853246 551.4772721514413,431.9797974739214 580.4722215097253,431.9797974739214" fill="none" stroke="#0066cc" stroke-width="0.5" opacity="0.3"/>
  <polygon points="580.4722215136417,530.9747468305832 551.477272147525,530.9747468305832 551.4772721475249,501.97979746446657 580.4722215136416,501.97979746446657" fill="none" stroke="#0066cc" stroke-width="0.5" opacity="0.3"/>
  <polygon points="105.9999999905452,551.4772721514413 105.9999999905452,580.4722215097253 85.49747467914203,600.9747468211285 56.50252532085798,600.9747468211285 36.00000000945479,580.4722215097253 36.00000000945479,551.4772721514413 56.502525320857984,530.974746840038 85.49747467914203,530.974746840038" fill="none" stroke="#0066cc" stroke-width="0.5" opacity="0.3"/>
  <polygon points="134.99494936611666,580.4722215136416 106.0,580.4722215136417 106.0,551.477272147525 134.99494936611666,551.4772721475249" fill="none" stroke="#0066cc" stroke-width="0.5" opacity="0.3"/>
  <polygon points="85.49747468305833,629.9696961966998 56.50252531694167,629.9696961966999 56.50252531694167,600.9747468305833 85.49747468305833,600.9747468305832" fill="none" stroke="#0066cc" stroke-width="0.5" opacity="0.3"/>
  <polygon points="204.99494935666186,551.4772721514413 204.99494935666186,580.4722215097253 184.49242404525867,600.9747468211285 155.49747468697464,600.9747468211285 134.99494937557145,580.4722215097253 134.99494937557145,551.4772721514413 155.49747468697464,530.974746840038 184.4924240452587,530.974746840038" fill="none" stroke="#0066cc" stroke-width="0.5" opacity="0.3"/>
  <polygon points="233.9898987322333,580.4722215136416 204.99494936611666,580.4722215136417 204.99494936611666,551.477272147525 233.9898987322333,551.4772721475249" fill="none" stroke="#0066cc" stroke-width="0.5" opacity="0.3"/>
  <polygon points="184.49242404917499,629.9696961966998 155.49747468305833,629.9696961966999 155.49747468305833,600.9747468305833 184.49242404917499,600.9747468305832" fill="none" stroke="#0066cc" stroke-width="0.5" opacity="0.3"/>
  <polygon points="303.98989872277855,551.4772721514413 303.98989872277855,580.4722215097253 283.48737341137536,600.9747468211285 254.4924240530913,600.9747468211285 233.9898987416881,580.4722215097253 233.9898987416881,551.4772721514413 254.4924240530913,530.974746840038 283.48737341137536,530.974746840038" fill="none" stroke="#0066cc" stroke-width="0.5" opacity="0.3"/>
  <polygon points="332.98484809834997,580.4722215136416 303.9898987322333,580.4722215136417 303.9898987322333,551.477272147525 332.98484809834997,551.4772721475249" fill="none" stroke="#0066cc" stroke-width="0.5" opacity="0.3"/>
  <polygon points="283.48737341529164,629.9696961966998 254.49242404917499,629.9696961966999 254.49242404917499,600.9747468305833 283.48737341529164,600.9747468305832" fill="none" stroke="#0066cc" stroke-width="0.5" opacity="0.3"/>
  <polygon points="402.9848480888952,551.4772721514413 402.9848480888952,580.4722215097253 382.482322777492,600.9747468211285 353.4873734192079,600.9747468211285 332.98484810780474,580.4722215097253 332.98484810780474,551.4772721514413 353.487373419208,530.974746840038 382.482322777492,530.974746840038" fill="none" stroke="#0066cc" stroke-width="0.5" opacity="0.3"/>
  <polygon points="431.9797974644666,580.4722215136416 402.98484809834997,580.4722215136417 402.98484809834997,551.477272147525 431.9797974644666,551.4772721475249" fill="none" stroke="#0066cc" stroke-width="0.5" opacity="0.3"/>
  <polygon points="382.4823227814083,629.9696961966998 353.48737341529164,629.9696961966999 353.48737341529164,600.9747468305833 382.4823227814083,600.9747468305832" fill="none" stroke="#0066cc" stroke-width="0.5" opacity="0.3"/>
  <polygon points="501.97979745501186,551.4772721514413 501.97979745501186,580.4722215097253 481.4772721436087,600.9747468211285 452.4823227853246,600.9747468211285 431.9797974739214,580.4722215097253 431.9797974739214,551.4772721514413 452.48232278532464,530.974746840038 481.4772721436087,530.974746840038" fill="none" stroke="#0066cc" stroke-width="0.5" opacity="0.3"/>
  <polygon points="530.9747468305832,580.4722215136416 501.97979746446657,580.4722215136417 501.97979746446657,551.477272147525 530.9747468305832,551.4772721475249" fill="none" stroke="#0066cc" stroke-width="0.5" opacity="0.3"/>
  <polygon points="481.47727214752496,629.9696961966998 452.4823227814083,629.9696961966999 452.4823227814083,600.9747468305833 481.47727214752496,600.9747468305832" fill="none" stroke="#0066cc" stroke-width="0.5" opacity="0.3"/>
  <polygon points="600.9747468211285,551.4772721514413 600.9747468211285,580.4722215097253 580.4722215097253,600.9747468211285 551.4772721514413,600.9747468211285 530.974746840038,580.4722215097253 530.974746840038,551.4772721514413 551.4772721514413,530.974746840038 580.4722215097253,530.974746840038" fill="none" stroke="#0066cc" stroke-width="0.5" opacity="0.3"/>
  <polygon points="580.4722215136417,629.9696961966998 551.477272147525,629.9696961966999 551.4772721475249,600.9747468305833 580.4722215136416,600.9747468305832" fill="none" stroke="#0066cc" stroke-width="0.5" opacity="0.3"/>
  <polygon points="105.9999999905452,650.472221517558 105.9999999905452,679.4671708758419 85.49747467914203,699.9696961872452 56.50252532085798,699.9696961872452 36.00000000945479,679.4671708758419 36.00000000945479,650.472221517558 56.502525320857984,629.9696962061547 85.49747467914203,629.9696962061547" fill="none" stroke="#0066cc" stroke-width="0.5" opacity="0.3"/>
  <polygon points="134.99494936611666,679.4671708797582 106.0,679.4671708797582 106.0,650.4722215136417 134.99494936611666,650.4722215136416" fill="none" stroke="#0066cc" stroke-width="0.5" opacity="0.3"/>
  <polygon points="204.99494935666186,650.472221517558 204.99494935666186,679.4671708758419 184.49242404525867,699.9696961872452 155.49747468697464,699.9696961872452 134.99494937557145,679.4671708758419 134.99494937557145,650.472221517558 155.49747468697464,629.9696962061547 184.4924240452587,629.9696962061547" fill="none" stroke="#0066cc" stroke-width="0.5" opacity="0.3"/>
  <polygon points="233.9898987322333,679.4671708797582 204.99494936611666,679.4671708797582 204.99494936611666,650.4722215136417 233.9898987322333,650.4722215136416" fill="none" stroke="#0066cc" stroke-width="0.5" opacity="0.3"/>
  <polygon points="303.98989872277855,650.472221517558 303.98989872277855,679.4671708758419 283.48737341137536,699.9696961872452 254.4924240530913,699.9696961872452 233.9898987416881,679.4671708758419 233.9898987416881,650.472221517558 254.4924240530913,629.9696962061547 283.48737341137536,629.9696962061547" fill="none" stroke="#0066cc" stroke-width="0.5" opacity="0.3"/>
  <polygon points="332.98484809834997,679.4671708797582 303.9898987322333,679.4671708797582 303.9898987322333,650.4722215136417 332.98484809834997,650.4722215136416" fill="none" stroke="#0066cc" stroke-width="0.5" opacity="0.3"/>
  <polygon points="402.9848480888952,650.472221517558 402.9848480888952,679.4671708758419 382.482322777492,699.9696961872452 353.4873734192079,699.9696961872452 332.98484810780474,679.4671708758419 332.98484810780474,650.472221517558 353.487373419208,629.9696962061547 382.482322777492,629.9696962061547" fill="none" stroke="#0066cc" stroke-width="0.5" opacity="0.3"/>
  <polygon points="431.9797974644666,679.4671708797582 402.98484809834997,679.4671708797582 402.98484809834997,650.4722215136417 431.9797974644666,650.4722215136416" fill="none" stroke="#0066cc" stroke-width="0.5" opacity="0.3"/>
  <polygon points="501.97979745501186,650.472221517558 501.97979745501186,679.4671708758419 481.4772721436087,699.9696961872452 452.4823227853246,699.9696961872452 431.9797974739214,679.4671708758419 431.9797974739214,650.472221517558 452.48232278532464,629.9696962061547 481.4772721436087,629.9696962061547" fill="none" stroke="#0066cc" stroke-width="0.5" opacity="0.3"/>
  <polygon points="530.9747468305832,679.4671708797582 501.97979746446657,679.4671708797582 501.97979746446657,650.4722215136417 530.9747468305832,650.4722215136416" fill="none" stroke="#0066cc" stroke-width="0.5" opacity="0.3"/>
  <polygon points="600.9747468211285,650.472221517558 600.9747468211285,679.4671708758419 580.4722215097253,699.9696961872452 551.4772721514413,699.9696961872452 530.974746840038,679.4671708758419 530.974746840038,650.472221517558 551.4772721514413,629.9696962061547 580.4722215097253,629.9696962061547" fill="none" stroke="#0066cc" stroke-width="0.5" opacity="0.3"/>
</svg>