<svg width="612" height="792" 
     viewBox="0 0 612 792" 
     xmlns="http://www.w3.org/2000/svg">
  <rect width="612" height="792" fill="white"/>
  <line x1="36" y1="396.0" x2="576" y2="396.0" stroke="#cc0000" stroke-width="1.5" opacity="0.7"/>
  <circle cx="306.0" cy="396.0" r="4" fill="#cc0000" opacity="0.7"/>
  <line x1="36" y1="36" x2="36" y2="756" stroke="#0066cc" stroke-width="0.5" opacity="0.3"/>
  <line x1="72" y1="36" x2="72" y2="756" stroke="#0066cc" stroke-width="0.5" opacity="0.3"/>
  <line x1="108" y1="36" x2="108" y2="756" stroke="#0066cc" stroke-width="0.5" opacity="0.3"/>
  <line x1="144" y1="36" x2="144" y2="756" stroke="#0066cc" stroke-width="0.5" opacity="0.3"/>
  <line x1="180" y1="36" x2="180" y2="756" stroke="#0066cc" stroke-width="0.5" opacity="0.3"/>
  <line x1="216" y1="36" x2="216" y2="756" stroke="#0066cc" stroke-width="0.5" opacity="0.3"/>
  <line x1="252" y1="36" x2="252" y2="756" stroke="#0066cc" stroke-width="0.5" opacity="0.3"/>
  <line x1="288" y1="36" x2="288" y2="756" stroke="#0066cc" stroke-width="0.5" opacity="0.3"/>
  <line x1="324" y1="36" x2="324" y2="756" stroke="#0066cc" stroke-width="0.5" opacity="0.3"/>
  <line x1="360" y1="36" x2="360" y2="756" stroke="#0066cc" stroke-width="0.5" opacity="0.3"/>
  <line x1="396" y1="36" x2="396" y2="756" stroke="#0066cc" stroke-width="0.5" opacity="0.3"/>
  <line x1="432" y1="36" x2="432" y2="756" stroke="#0066cc" stroke-width="0.5" opacity="0.3"/>
  <line x1="468" y1="36" x2="468" y2="756" stroke="#0066cc" stroke-width="0.5" opacity="0.3"/>
  <line x1="504" y1="36" x2="504" y2="756" stroke="#0066cc" stroke-width="0.5" opacity="0.3"/>
  <line x1="540" y1="36" x2="540" y2="756" stroke="#0066cc" stroke-width="0.5" opacity="0.3"/>
  <line x1="576" y1="36" x2="576" y2="756" stroke="#0066cc" stroke-width="0.5" opacity="0.3"/>
  <line x1="36" y1="36" x2="576" y2="36" stroke="#0066cc" stroke-width="0.5" opacity="0.3"/>
  <line x1="36" y1="72" x2="576" y2="72" stroke="#0066cc" stroke-width="0.5" opacity="0.3"/>
  <line x1="36" y1="108" x2="576" y2="108" stroke="#0066cc" stroke-width="0.5" opacity="0.3"/>
  <line x1="36" y1="144" x2="576" y2="144" stroke="#0066cc" stroke-width="0.5" opacity="0.3"/>
  <line x1="36" y1="180" x2="576" y2="180" stroke="#0066cc" stroke-width="0.5" opacity="0.3"/>
  <line x1="36" y1="216" x2="576" y2="216" stroke="#0066cc" stroke-width="0.5" opacity="0.3"/>
  <line x1="36" y1="252" x2="576" y2="252" stroke="#0066cc" stroke-width="0.5" opacity="0.3"/>
  <line x1="36" y1="288" x2="576" y2="288" stroke="#0066cc" stroke-width="0.5" opacity="0.3"/>
  <line x1="36" y1="324" x2="576" y2="324" stroke="#0066cc" stroke-width="0.5" opacity="0.3"/>
  <line x1="36" y1="360" x2="576" y2="360" stroke="#0066cc" stroke-width="0.5" opacity="0.3"/>
  <line x1="36" y1="432" x2="576" y2="432" stroke="#0066cc" stroke-width="0.5" opacity="0.3"/>
  <line x1="36" y1="468" x2="576" y2="468" stroke="#0066cc" stroke-width="0.5" opacity="0.3"/>
  <line x1="36" y1="504" x2="576" y2="504" stroke="#0066cc" stroke-width="0.5" opacity="0.3"/>
  <line x1="36" y1="540" x2="576" y2="540" stroke="#0066cc" stroke-width="0.5" opacity="0.3"/>
  <line x1="36" y1="576" x2="576" y2="576" stroke="#0066cc" stroke-width="0.5" opacity="0.3"/>
  <line x1="36" y1="612" x2="576" y2="612" stroke="#0066cc" stroke-width="0.5" opacity="0.3"/>
  <line x1="36" y1="648" x2="576" y2="648" stroke="#0066cc" stroke-width="0.5" opacity="0.3"/>
  <line x1="36" y1="684" x2="576" y2="684" stroke="#0066cc" stroke-width="0.5" opacity="0.3"/>
  <line x1="36" y1="720" x2="576" y2="720" stroke="#0066cc" stroke-width="0.5" opacity="0.3"/>
  <line x1="36" y1="756" x2="576" y2="756" stroke="#0066cc" stroke-width="0.5" opacity="0.3"/>
  <line x1="306.0" y1="396.0" x2="36" y2="36" stroke="#0066cc" stroke-width="0.5" opacity="0.2"/>
  <line x1="306.0" y1="396.0" x2="576" y2="36" stroke="#0066cc" stroke-width="0.5" opacity="0.2"/>
  <line x1="306.0" y1="396.0" x2="36" y2="756" stroke="#0066cc" stroke-width="0.5" opacity="0.2"/>
  <line x1="306.0" y1="396.0" x2="576" y2="756" stroke="#0066cc" stroke-width="0.5" opacity="0.2"/>
  <line x1="306.0" y1="396.0" x2="36.0" y2="36" stroke="#0066cc" stroke-width="0.5" opacity="0.2"/>
  <line x1="306.0" y1="396.0" x2="36.0" y2="756" stroke="#0066cc" stroke-width="0.5" opacity="0.2"/>
  <line x1="306.0" y1="396.0" x2="36" y2="36.0" stroke="#0066cc" stroke-width="0.5" opacity="0.2"/>
  <line x1="306.0" y1="396.0" x2="576" y2="36.0" stroke="#0066cc" stroke-width="0.5" opacity="0.2"/>
  <line x1="306.0" y1="396.0" x2="103.5" y2="36" stroke="#0066cc" stroke-width="0.5" opacity="0.2"/>
  <line x1="306.0" y1="396.0" x2="103.5" y2="756" stroke="#0066cc" stroke-width="0.5" opacity="0.2"/>
  <line x1="306.0" y1="396.0" x2="36" y2="126.0" stroke="#0066cc" stroke-width="0.5" opacity="0.2"/>
  <line x1="306.0" y1="396.0" x2="576" y2="126.0" stroke="#0066cc" stroke-width="0.5" opacity="0.2"/>
  <line x1="306.0" y1="396.0" x2="171.0" y2="36" stroke="#0066cc" stroke-width="0.5" opacity="0.2"/>
  <line x1="306.0" y1="396.0" x2="171.0" y2="756" stroke="#0066cc" stroke-width="0.5" opacity="0.2"/>
  <line x1="306.0" y1="396.0" x2="36" y2="216.0" stroke="#0066cc" stroke-width="0.5" opacity="0.2"/>
  <line x1="306.0" y1="396.0" x2="576" y2="216.0" stroke="#0066cc" stroke-width="0.5" opacity="0.2"/>
  <line x1="306.0" y1="396.0" x2="238.5" y2="36" stroke="#0066cc" stroke-width="0.5" opacity="0.2"/>
  <line x1="306.0" y1="396.0" x2="238.5" y2="756" stroke="#0066cc" stroke-width="0.5" opacity="0.2"/>
  <line x1="306.0" y1="396.0" x2="36" y2="306.0" stroke="#0066cc" stroke-width="0.5" opacity="0.2"/>
  <line x1="306.0" y1="396.0" x2="576" y2="306.0" stroke="#0066cc" stroke-width="0.5" opacity="0.2"/>
  <line x1="306.0" y1="396.0" x2="306.0" y2="36" stroke="#0066cc" stroke-width="0.5" opacity="0.2"/>
  <line x1="306.0" y1="396.0" x2="306.0" y2="756" stroke="#0066cc" stroke-width="0.5" opacity="0.2"/>
  <line x1="306.0" y1="396.0" x2="373.5" y2="36" stroke="#0066cc" stroke-width="0.5" opacity="0.2"/>
  <line x1="306.0" y1="396.0" x2="373.5" y2="756" stroke="#0066cc" stroke-width="0.5" opacity="0.2"/>
  <line x1="306.0" y1="396.0" x2="36" y2="486.0" stroke="#0066cc" stroke-width="0.5" opacity="0.2"/>
  <line x1="306.0" y1="396.0" x2="576" y2="486.0" stroke="#0066cc" stroke-width="0.5" opacity="0.2"/>
  <line x1="306.0" y1="396.0" x2="441.0" y2="36" stroke="#0066cc" stroke-width="0.5" opacity="0.2"/>
  <line x1="306.0" y1="396.0" x2="441.0" y2="756" stroke="#0066cc" stroke-width="0.5" opacity="0.2"/>
  <line x1="306.0" y1="396.0" x2="36" y2="576.0" stroke="#0066cc" stroke-width="0.5" opacity="0.2"/>
  <line x1="306.0" y1="396.0" x2="576" y2="576.0" stroke="#0066cc" stroke-width="0.5" opacity="0.2"/>
  <line x1="306.0" y1="396.0" x2="508.5" y2="36" stroke="#0066cc" stroke-width="0.5" opacity="0.2"/>
  <line x1="306.0" y1="396.0" x2="508.5" y2="756" stroke="#0066cc" stroke-width="0.5" opacity="0.2"/>
  <line x1="306.0" y1="396.0" x2="36" y2="666.0" stroke="#0066cc" stroke-width="0.5" opacity="0.2"/>
  <line x1="306.0" y1="396.0" x2="576" y2="666.0" stroke="#0066cc" stroke-width="0.5" opacity="0.2"/>
  <line x1="306.0" y1="396.0" x2="576.0" y2="36" stroke="#0066cc" stroke-width="0.5" opacity="0.2"/>
  <line x1="306.0" y1="396.0" x2="576.0" y2="756" stroke="#0066cc" stroke-width="0.5" opacity="0.2"/>
  <line x1="306.0" y1="396.0" x2="36" y2="756.0" stroke="#0066cc" stroke-width="0.5" opacity="0.2"/>
  <line x1="306.0" y1="396.0" x2="576" y2="756.0" stroke="#0066cc" stroke-width="0.5" opacity="0.2"/>
</svg>