<svg width="612" height="792" 
     viewBox="0 0 612 792" 
     xmlns="http://www.w3.org/2000/svg">
  <rect width="612" height="792" fill="white"/>
  <line x1="36" y1="396.0" x2="576" y2="396.0" stroke="#cc0000" stroke-width="1.5" opacity="0.7"/>
  <circle cx="117.0" cy="396.0" r="4" fill="#cc0000" opacity="0.7"/>
  <circle cx="495.0" cy="396.0" r="4" fill="#cc0000" opacity="0.7"/>
  <line x1="36" y1="36" x2="36" y2="756" stroke="#0066cc" stroke-width="0.5" opacity="0.3"/>
  <line x1="72" y1="36" x2="72" y2="756" stroke="#0066cc" stroke-width="0.5" opacity="0.3"/>
  <line x1="108" y1="36" x2="108" y2="756" stroke="#0066cc" stroke-width="0.5" opacity="0.3"/>
  <line x1="144" y1="36" x2="144" y2="756" stroke="#0066cc" stroke-width="0.5" opacity="0.3"/>
  <line x1="180" y1="36" x2="180" y2="756" stroke="#0066cc" stroke-width="0.5" opacity="0.3"/>
  <line x1="216" y1="36" x2="216" y2="756" stroke="#0066cc" stroke-width="0.5" opacity="0.3"/>
  <line x1="252" y1="36" x2="252" y2="756" stroke="#0066cc" stroke-width="0.5" opacity="0.3"/>
  <line x1="288" y1="36" x2="288" y2="756" stroke="#0066cc" stroke-width="0.5" opacity="0.3"/>
  <line x1="324" y1="36" x2="324" y2="756" stroke="#0066cc" stroke-width="0.5" opacity="0.3"/>
  <line x1="360" y1="36" x2="360" y2="756" stroke="#0066cc" stroke-width="0.5" opacity="0.3"/>
  <line x1="396" y1="36" x2="396" y2="756" stroke="#0066cc" stroke-width="0.5" opacity="0.3"/>
  <line x1="432" y1="36" x2="432" y2="756" stroke="#0066cc" stroke-width="0.5" opacity="0.3"/>
  <line x1="468" y1="36" x2="468" y2="756" stroke="#0066cc" stroke-width="0.5" opacity="0.3"/>
  <line x1="504" y1="36" x2="504" y2="756" stroke="#0066cc" stroke-width="0.5" opacity="0.3"/>
  <line x1="540" y1="36" x2="540" y2="756" stroke="#0066cc" stroke-width="0.5" opacity="0.3"/>
  <line x1="576" y1="36" x2="576" y2="756" stroke="#0066cc" stroke-width="0.5" opacity="0.3"/>
  <line x1="117.0" y1="396.0" x2="36.0" y2="36" stroke="#0066cc" stroke-width="0.5" opacity="0.15"/>
  <line x1="117.0" y1="396.0" x2="36.0" y2="756" stroke="#0066cc" stroke-width="0.5" opacity="0.15"/>
  <line x1="117.0" y1="396.0" x2="90.0" y2="36" stroke="#0066cc" stroke-width="0.5" opacity="0.15"/>
  <line x1="117.0" y1="396.0" x2="90.0" y2="756" stroke="#0066cc" stroke-width="0.5" opacity="0.15"/>
  <line x1="117.0" y1="396.0" x2="144.0" y2="36" stroke="#0066cc" stroke-width="0.5" opacity="0.15"/>
  <line x1="117.0" y1="396.0" x2="144.0" y2="756" stroke="#0066cc" stroke-width="0.5" opacity="0.15"/>
  <line x1="117.0" y1="396.0" x2="198.0" y2="36" stroke="#0066cc" stroke-width="0.5" opacity="0.15"/>
  <line x1="117.0" y1="396.0" x2="198.0" y2="756" stroke="#0066cc" stroke-width="0.5" opacity="0.15"/>
  <line x1="117.0" y1="396.0" x2="252.0" y2="36" stroke="#0066cc" stroke-width="0.5" opacity="0.15"/>
  <line x1="117.0" y1="396.0" x2="252.0" y2="756" stroke="#0066cc" stroke-width="0.5" opacity="0.15"/>
  <line x1="117.0" y1="396.0" x2="306.0" y2="36" stroke="#0066cc" stroke-width="0.5" opacity="0.15"/>
  <line x1="117.0" y1="396.0" x2="306.0" y2="756" stroke="#0066cc" stroke-width="0.5" opacity="0.15"/>
  <line x1="117.0" y1="396.0" x2="360.0" y2="36" stroke="#0066cc" stroke-width="0.5" opacity="0.15"/>
  <line x1="117.0" y1="396.0" x2="360.0" y2="756" stroke="#0066cc" stroke-width="0.5" opacity="0.15"/>
  <line x1="117.0" y1="396.0" x2="414.0" y2="36" stroke="#0066cc" stroke-width="0.5" opacity="0.15"/>
  <line x1="117.0" y1="396.0" x2="414.0" y2="756" stroke="#0066cc" stroke-width="0.5" opacity="0.15"/>
  <line x1="117.0" y1="396.0" x2="468.0" y2="36" stroke="#0066cc" stroke-width="0.5" opacity="0.15"/>
  <line x1="117.0" y1="396.0" x2="468.0" y2="756" stroke="#0066cc" stroke-width="0.5" opacity="0.15"/>
  <line x1="117.0" y1="396.0" x2="522.0" y2="36" stroke="#0066cc" stroke-width="0.5" opacity="0.15"/>
  <line x1="117.0" y1="396.0" x2="522.0" y2="756" stroke="#0066cc" stroke-width="0.5" opacity="0.15"/>
  <line x1="117.0" y1="396.0" x2="576.0" y2="36" stroke="#0066cc" stroke-width="0.5" opacity="0.15"/>
  <line x1="117.0" y1="396.0" x2="576.0" y2="756" stroke="#0066cc" stroke-width="0.5" opacity="0.15"/>
  <line x1="117.0" y1="396.0" x2="36" y2="36.0" stroke="#0066cc" stroke-width="0.5" opacity="0.15"/>
  <line x1="117.0" y1="396.0" x2="36" y2="108.0" stroke="#0066cc" stroke-width="0.5" opacity="0.15"/>
  <line x1="117.0" y1="396.0" x2="36" y2="180.0" stroke="#0066cc" stroke-width="0.5" opacity="0.15"/>
  <line x1="117.0" y1="396.0" x2="36" y2="252.0" stroke="#0066cc" stroke-width="0.5" opacity="0.15"/>
  <line x1="117.0" y1="396.0" x2="36" y2="324.0" stroke="#0066cc" stroke-width="0.5" opacity="0.15"/>
  <line x1="117.0" y1="396.0" x2="36" y2="468.0" stroke="#0066cc" stroke-width="0.5" opacity="0.15"/>
  <line x1="117.0" y1="396.0" x2="36" y2="540.0" stroke="#0066cc" stroke-width="0.5" opacity="0.15"/>
  <line x1="117.0" y1="396.0" x2="36" y2="612.0" stroke="#0066cc" stroke-width="0.5" opacity="0.15"/>
  <line x1="117.0" y1="396.0" x2="36" y2="684.0" stroke="#0066cc" stroke-width="0.5" opacity="0.15"/>
  <line x1="117.0" y1="396.0" x2="36" y2="756.0" stroke="#0066cc" stroke-width="0.5" opacity="0.15"/>
  <line x1="495.0" y1="396.0" x2="36.0" y2="36" stroke="#00cc66" stroke-width="0.5" opacity="0.15"/>
  <line x1="495.0" y1="396.0" x2="36.0" y2="756" stroke="#00cc66" stroke-width="0.5" opacity="0.15"/>
  <line x1="495.0" y1="396.0" x2="90.0" y2="36" stroke="#00cc66" stroke-width="0.5" opacity="0.15"/>
  <line x1="495.0" y1="396.0" x2="90.0" y2="756" stroke="#00cc66" stroke-width="0.5" opacity="0.15"/>
  <line x1="495.0" y1="396.0" x2="144.0" y2="36" stroke="#00cc66" stroke-width="0.5" opacity="0.15"/>
  <line x1="495.0" y1="396.0" x2="144.0" y2="756" stroke="#00cc66" stroke-width="0.5" opacity="0.15"/>
  <line x1="495.0" y1="396.0" x2="198.0" y2="36" stroke="#00cc66" stroke-width="0.5" opacity="0.15"/>
  <line x1="495.0" y1="396.0" x2="198.0" y2="756" stroke="#00cc66" stroke-width="0.5" opacity="0.15"/>
  <line x1="495.0" y1="396.0" x2="252.0" y2="36" stroke="#00cc66" stroke-width="0.5" opacity="0.15"/>
  <line x1="495.0" y1="396.0" x2="252.0" y2="756" stroke="#00cc66" stroke-width="0.5" opacity="0.15"/>
  <line x1="495.0" y1="396.0" x2="306.0" y2="36" stroke="#00cc66" stroke-width="0.5" opacity="0.15"/>
  <line x1="495.0" y1="396.0" x2="306.0" y2="756" stroke="#00cc66" stroke-width="0.5" opacity="0.15"/>
  <line x1="495.0" y1="396.0" x2="360.0" y2="36" stroke="#00cc66" stroke-width="0.5" opacity="0.15"/>
  <line x1="495.0" y1="396.0" x2="360.0" y2="756" stroke="#00cc66" stroke-width="0.5" opacity="0.15"/>
  <line x1="495.0" y1="396.0" x2="414.0" y2="36" stroke="#00cc66" stroke-width="0.5" opacity="0.15"/>
  <line x1="495.0" y1="396.0" x2="414.0" y2="756" stroke="#00cc66" stroke-width="0.5" opacity="0.15"/>
  <line x1="495.0" y1="396.0" x2="468.0" y2="36" stroke="#00cc66" stroke-width="0.5" opacity="0.15"/>
  <line x1="495.0" y1="396.0" x2="468.0" y2="756" stroke="#00cc66" stroke-width="0.5" opacity="0.15"/>
  <line x1="495.0" y1="396.0" x2="522.0" y2="36" stroke="#00cc66" stroke-width="0.5" opacity="0.15"/>
  <line x1="495.0" y1="396.0" x2="522.0" y2="756" stroke="#00cc66" stroke-width="0.5" opacity="0.15"/>
  <line x1="495.0" y1="396.0" x2="576.0" y2="36" stroke="#00cc66" stroke-width="0.5" opacity="0.15"/>
  <line x1="495.0" y1="396.0" x2="576.0" y2="756" stroke="#00cc66" stroke-width="0.5" opacity="0.15"/>
  <line x1="495.0" y1="396.0" x2="576" y2="36.0" stroke="#00cc66" stroke-width="0.5" opacity="0.15"/>
  <line x1="495.0" y1="396.0" x2="576" y2="108.0" stroke="#00cc66" stroke-width="0.5" opacity="0.15"/>
  <line x1="495.0" y1="396.0" x2="576" y2="180.0" stroke="#00cc66" stroke-width="0.5" opacity="0.15"/>
  <line x1="495.0" y1="396.0" x2="576" y2="252.0" stroke="#00cc66" stroke-width="0.5" opacity="0.15"/>
  <line x1="495.0" y1="396.0" x2="576" y2="324.0" stroke="#00cc66" stroke-width="0.5" opacity="0.15"/>
  <line x1="495.0" y1="396.0" x2="576" y2="468.0" stroke="#00cc66" stroke-width="0.5" opacity="0.15"/>
  <line x1="495.0" y1="396.0" x2="576" y2="540.0" stroke="#00cc66" stroke-width="0.5" opacity="0.15"/>
  <line x1="495.0" y1="396.0" x2="576" y2="612.0" stroke="#00cc66" stroke-width="0.5" opacity="0.15"/>
  <line x1="495.0" y1="396.0" x2="576" y2="684.0" stroke="#00cc66" stroke-width="0.5" opacity="0.15"/>
  <line x1="495.0" y1="396.0" x2="576" y2="756.0" stroke="#00cc66" stroke-width="0.5" opacity="0.15"/>
</svg>