<svg width="612" height="792" 
     viewBox="0 0 612 792" 
     xmlns="http://www.w3.org/2000/svg">
  <rect width="612" height="792" fill="white"/>
  <circle cx="306.0" cy="396.0" r="25.5" fill="none" stroke="#0066cc" stroke-width="0.5" opacity="0.3"/>
  <circle cx="306.0" cy="396.0" r="51.0" fill="none" stroke="#0066cc" stroke-width="0.5" opacity="0.3"/>
  <circle cx="306.0" cy="396.0" r="76.5" fill="none" stroke="#0066cc" stroke-width="0.5" opacity="0.3"/>
  <circle cx="306.0" cy="396.0" r="102.0" fill="none" stroke="#0066cc" stroke-width="0.5" opacity="0.3"/>
  <circle cx="306.0" cy="396.0" r="127.5" fill="none" stroke="#0066cc" stroke-width="0.5" opacity="0.3"/>
  <circle cx="306.0" cy="396.0" r="153.0" fill="none" stroke="#0066cc" stroke-width="0.5" opacity="0.3"/>
  <circle cx="306.0" cy="396.0" r="178.5" fill="none" stroke="#0066cc" stroke-width="0.5" opacity="0.3"/>
  <circle cx="306.0" cy="396.0" r="204.0" fill="none" stroke="#0066cc" stroke-width="0.5" opacity="0.3"/>
  <circle cx="306.0" cy="396.0" r="229.5" fill="none" stroke="#0066cc" stroke-width="0.5" opacity="0.3"/>
  <circle cx="306.0" cy="396.0" r="255.0" fill="none" stroke="#0066cc" stroke-width="0.5" opacity="0.3"/>
  <circle cx="306.0" cy="396.0" r="280.5" fill="none" stroke="#0066cc" stroke-width="0.5" opacity="0.3"/>
  <circle cx="306.0" cy="396.0" r="306.0" fill="none" stroke="#0066cc" stroke-width="0.5" opacity="0.3"/>
  <line x1="306.0" y1="396.0" x2="306.0" y2="90.0" stroke="#0066cc" stroke-width="1.5" opacity="0.5"/>
  <line x1="306.0" y1="396.0" x2="332.6696572807834" y2="91.16442238392585" stroke="#0066cc" stroke-width="0.5" opacity="0.3"/>
  <line x1="306.0" y1="396.0" x2="359.1363423660807" y2="94.64882757826433" stroke="#0066cc" stroke-width="0.5" opacity="0.3"/>
  <line x1="306.0" y1="396.0" x2="385.19862780137134" y2="100.42669715554507" stroke="#0066cc" stroke-width="0.5" opacity="0.3"/>
  <line x1="306.0" y1="396.0" x2="410.65816385765464" y2="108.45405803951206" stroke="#0066cc" stroke-width="0.5" opacity="0.3"/>
  <line x1="306.0" y1="396.0" x2="435.32118809265404" y2="118.6698171667851" stroke="#0066cc" stroke-width="0.5" opacity="0.3"/>
  <line x1="306.0" y1="396.0" x2="459.0" y2="130.99622644196177" stroke="#0066cc" stroke-width="0.5" opacity="0.3"/>
  <line x1="306.0" y1="396.0" x2="481.51438952342005" y2="145.3394744475685" stroke="#0066cc" stroke-width="0.5" opacity="0.3"/>
  <line x1="306.0" y1="396.0" x2="502.6930085640811" y2="161.59040040559273" stroke="#0066cc" stroke-width="0.5" opacity="0.3"/>
  <line x1="306.0" y1="396.0" x2="522.3746750430836" y2="179.62532495691647" stroke="#0066cc" stroke-width="0.5" opacity="0.3"/>
  <line x1="306.0" y1="396.0" x2="540.4095995944073" y2="199.306991435919" stroke="#0066cc" stroke-width="0.5" opacity="0.3"/>
  <line x1="306.0" y1="396.0" x2="556.6605255524315" y2="220.48561047657992" stroke="#0066cc" stroke-width="0.5" opacity="0.3"/>
  <line x1="306.0" y1="396.0" x2="571.0037735580382" y2="243.00000000000003" stroke="#0066cc" stroke-width="0.5" opacity="0.3"/>
  <line x1="306.0" y1="396.0" x2="583.3301828332148" y2="266.67881190734596" stroke="#0066cc" stroke-width="0.5" opacity="0.3"/>
  <line x1="306.0" y1="396.0" x2="593.545941960488" y2="291.34183614234536" stroke="#0066cc" stroke-width="0.5" opacity="0.3"/>
  <line x1="306.0" y1="396.0" x2="601.5733028444549" y2="316.80137219862866" stroke="#0066cc" stroke-width="0.5" opacity="0.3"/>
  <line x1="306.0" y1="396.0" x2="607.3511724217357" y2="342.86365763391933" stroke="#0066cc" stroke-width="0.5" opacity="0.3"/>
  <line x1="306.0" y1="396.0" x2="610.8355776160741" y2="369.3303427192166" stroke="#0066cc" stroke-width="0.5" opacity="0.3"/>
  <line x1="306.0" y1="396.0" x2="612.0" y2="396.0" stroke="#0066cc" stroke-width="1.5" opacity="0.5"/>
  <line x1="306.0" y1="396.0" x2="610.8355776160741" y2="422.6696572807834" stroke="#0066cc" stroke-width="0.5" opacity="0.3"/>
  <line x1="306.0" y1="396.0" x2="607.3511724217357" y2="449.13634236608067" stroke="#0066cc" stroke-width="0.5" opacity="0.3"/>
  <line x1="306.0" y1="396.0" x2="601.5733028444549" y2="475.19862780137134" stroke="#0066cc" stroke-width="0.5" opacity="0.3"/>
  <line x1="306.0" y1="396.0" x2="593.545941960488" y2="500.65816385765464" stroke="#0066cc" stroke-width="0.5" opacity="0.3"/>
  <line x1="306.0" y1="396.0" x2="583.3301828332148" y2="525.321188092654" stroke="#0066cc" stroke-width="0.5" opacity="0.3"/>
  <line x1="306.0" y1="396.0" x2="571.0037735580382" y2="549.0" stroke="#0066cc" stroke-width="0.5" opacity="0.3"/>
  <line x1="306.0" y1="396.0" x2="556.6605255524315" y2="571.51438952342" stroke="#0066cc" stroke-width="0.5" opacity="0.3"/>
  <line x1="306.0" y1="396.0" x2="540.4095995944073" y2="592.693008564081" stroke="#0066cc" stroke-width="0.5" opacity="0.3"/>
  <line x1="306.0" y1="396.0" x2="522.3746750430836" y2="612.3746750430835" stroke="#0066cc" stroke-width="0.5" opacity="0.3"/>
  <line x1="306.0" y1="396.0" x2="502.6930085640811" y2="630.4095995944073" stroke="#0066cc" stroke-width="0.5" opacity="0.3"/>
  <line x1="306.0" y1="396.0" x2="481.51438952342005" y2="646.6605255524315" stroke="#0066cc" stroke-width="0.5" opacity="0.3"/>
  <line x1="306.0" y1="396.0" x2="459.0" y2="661.0037735580382" stroke="#0066cc" stroke-width="0.5" opacity="0.3"/>
  <line x1="306.0" y1="396.0" x2="435.32118809265404" y2="673.3301828332148" stroke="#0066cc" stroke-width="0.5" opacity="0.3"/>
  <line x1="306.0" y1="396.0" x2="410.65816385765464" y2="683.5459419604879" stroke="#0066cc" stroke-width="0.5" opacity="0.3"/>
  <line x1="306.0" y1="396.0" x2="385.19862780137134" y2="691.5733028444549" stroke="#0066cc" stroke-width="0.5" opacity="0.3"/>
  <line x1="306.0" y1="396.0" x2="359.1363423660807" y2="697.3511724217357" stroke="#0066cc" stroke-width="0.5" opacity="0.3"/>
  <line x1="306.0" y1="396.0" x2="332.6696572807834" y2="700.8355776160741" stroke="#0066cc" stroke-width="0.5" opacity="0.3"/>
  <line x1="306.0" y1="396.0" x2="306.0" y2="702.0" stroke="#0066cc" stroke-width="1.5" opacity="0.5"/>
  <line x1="306.0" y1="396.0" x2="279.33034271921656" y2="700.8355776160741" stroke="#0066cc" stroke-width="0.5" opacity="0.3"/>
  <line x1="306.0" y1="396.0" x2="252.86365763391933" y2="697.3511724217357" stroke="#0066cc" stroke-width="0.5" opacity="0.3"/>
  <line x1="306.0" y1="396.0" x2="226.8013721986286" y2="691.5733028444549" stroke="#0066cc" stroke-width="0.5" opacity="0.3"/>
  <line x1="306.0" y1="396.0" x2="201.34183614234536" y2="683.545941960488" stroke="#0066cc" stroke-width="0.5" opacity="0.3"/>
  <line x1="306.0" y1="396.0" x2="176.67881190734602" y2="673.3301828332148" stroke="#0066cc" stroke-width="0.5" opacity="0.3"/>
  <line x1="306.0" y1="396.0" x2="153.00000000000006" y2="661.0037735580382" stroke="#0066cc" stroke-width="0.5" opacity="0.3"/>
  <line x1="306.0" y1="396.0" x2="130.48561047657986" y2="646.6605255524314" stroke="#0066cc" stroke-width="0.5" opacity="0.3"/>
  <line x1="306.0" y1="396.0" x2="109.30699143591895" y2="630.4095995944073" stroke="#0066cc" stroke-width="0.5" opacity="0.3"/>
  <line x1="306.0" y1="396.0" x2="89.62532495691647" y2="612.3746750430836" stroke="#0066cc" stroke-width="0.5" opacity="0.3"/>
  <line x1="306.0" y1="396.0" x2="71.59040040559276" y2="592.6930085640811" stroke="#0066cc" stroke-width="0.5" opacity="0.3"/>
  <line x1="306.0" y1="396.0" x2="55.33947444756848" y2="571.51438952342" stroke="#0066cc" stroke-width="0.5" opacity="0.3"/>
  <line x1="306.0" y1="396.0" x2="40.99622644196177" y2="549.0" stroke="#0066cc" stroke-width="0.5" opacity="0.3"/>
  <line x1="306.0" y1="396.0" x2="28.669817166785094" y2="525.321188092654" stroke="#0066cc" stroke-width="0.5" opacity="0.3"/>
  <line x1="306.0" y1="396.0" x2="18.454058039512063" y2="500.6581638576547" stroke="#0066cc" stroke-width="0.5" opacity="0.3"/>
  <line x1="306.0" y1="396.0" x2="10.426697155545128" y2="475.19862780137146" stroke="#0066cc" stroke-width="0.5" opacity="0.3"/>
  <line x1="306.0" y1="396.0" x2="4.648827578264331" y2="449.13634236608067" stroke="#0066cc" stroke-width="0.5" opacity="0.3"/>
  <line x1="306.0" y1="396.0" x2="1.164422383925853" y2="422.6696572807834" stroke="#0066cc" stroke-width="0.5" opacity="0.3"/>
  <line x1="306.0" y1="396.0" x2="0.0" y2="396.00000000000006" stroke="#0066cc" stroke-width="1.5" opacity="0.5"/>
  <line x1="306.0" y1="396.0" x2="1.164422383925853" y2="369.3303427192167" stroke="#0066cc" stroke-width="0.5" opacity="0.3"/>
  <line x1="306.0" y1="396.0" x2="4.648827578264331" y2="342.8636576339193" stroke="#0066cc" stroke-width="0.5" opacity="0.3"/>
  <line x1="306.0" y1="396.0" x2="10.426697155545071" y2="316.80137219862866" stroke="#0066cc" stroke-width="0.5" opacity="0.3"/>
  <line x1="306.0" y1="396.0" x2="18.454058039512006" y2="291.3418361423454" stroke="#0066cc" stroke-width="0.5" opacity="0.3"/>
  <line x1="306.0" y1="396.0" x2="28.669817166785094" y2="266.678811907346" stroke="#0066cc" stroke-width="0.5" opacity="0.3"/>
  <line x1="306.0" y1="396.0" x2="40.99622644196177" y2="242.99999999999997" stroke="#0066cc" stroke-width="0.5" opacity="0.3"/>
  <line x1="306.0" y1="396.0" x2="55.339474447568506" y2="220.48561047657986" stroke="#0066cc" stroke-width="0.5" opacity="0.3"/>
  <line x1="306.0" y1="396.0" x2="71.59040040559273" y2="199.306991435919" stroke="#0066cc" stroke-width="0.5" opacity="0.3"/>
  <line x1="306.0" y1="396.0" x2="89.62532495691642" y2="179.62532495691647" stroke="#0066cc" stroke-width="0.5" opacity="0.3"/>
  <line x1="306.0" y1="396.0" x2="109.30699143591892" y2="161.59040040559276" stroke="#0066cc" stroke-width="0.5" opacity="0.3"/>
  <line x1="306.0" y1="396.0" x2="130.4856104765798" y2="145.3394744475686" stroke="#0066cc" stroke-width="0.5" opacity="0.3"/>
  <line x1="306.0" y1="396.0" x2="152.99999999999986" y2="130.99622644196188" stroke="#0066cc" stroke-width="0.5" opacity="0.3"/>
  <line x1="306.0" y1="396.0" x2="176.67881190734605" y2="118.6698171667851" stroke="#0066cc" stroke-width="0.5" opacity="0.3"/>
  <line x1="306.0" y1="396.0" x2="201.34183614234541" y2="108.454058039512" stroke="#0066cc" stroke-width="0.5" opacity="0.3"/>
  <line x1="306.0" y1="396.0" x2="226.80137219862868" y2="100.42669715554507" stroke="#0066cc" stroke-width="0.5" opacity="0.3"/>
  <line x1="306.0" y1="396.0" x2="252.86365763391933" y2="94.64882757826433" stroke="#0066cc" stroke-width="0.5" opacity="0.3"/>
  <line x1="306.0" y1="396.0" x2="279.33034271921656" y2="91.16442238392585" stroke="#0066cc" stroke-width="0.5" opacity="0.3"/>
</svg>