<svg width="612" height="792" 
     viewBox="0 0 612 792" 
     xmlns="http://www.w3.org/2000/svg">
  <rect width="612" height="792" fill="white"/>
  <line x1="72.0" y1="72" x2="72.0" y2="720" stroke="#0066cc" stroke-width="1.5" opacity="0.5"/>
  <line x1="118.80000000000001" y1="72" x2="118.80000000000001" y2="720" stroke="#0066cc" stroke-width="0.5" opacity="0.3"/>
  <line x1="165.60000000000002" y1="72" x2="165.60000000000002" y2="720" stroke="#0066cc" stroke-width="0.5" opacity="0.3"/>
  <line x1="212.4" y1="72" x2="212.4" y2="720" stroke="#0066cc" stroke-width="0.5" opacity="0.3"/>
  <line x1="259.20000000000005" y1="72" x2="259.20000000000005" y2="720" stroke="#0066cc" stroke-width="0.5" opacity="0.3"/>
  <line x1="306.0" y1="72" x2="306.0" y2="720" stroke="#0066cc" stroke-width="1.5" opacity="0.5"/>
  <line x1="352.8" y1="72" x2="352.8" y2="720" stroke="#0066cc" stroke-width="0.5" opacity="0.3"/>
  <line x1="399.59999999999997" y1="72" x2="399.59999999999997" y2="720" stroke="#0066cc" stroke-width="0.5" opacity="0.3"/>
  <line x1="446.40000000000003" y1="72" x2="446.40000000000003" y2="720" stroke="#0066cc" stroke-width="0.5" opacity="0.3"/>
  <line x1="493.2" y1="72" x2="493.2" y2="720" stroke="#0066cc" stroke-width="0.5" opacity="0.3"/>
  <line x1="540.0" y1="72" x2="540.0" y2="720" stroke="#0066cc" stroke-width="1.5" opacity="0.5"/>
  <line x1="72" y1="720.0" x2="540" y2="720.0" stroke="#0066cc" stroke-width="1.5" opacity="0.5"/>
  <line x1="72" y1="671.2331407024351" x2="540" y2="671.2331407024351" stroke="#0066cc" stroke-width="0.5" opacity="0.3"/>
  <line x1="72" y1="642.7063567354147" x2="540" y2="642.7063567354147" stroke="#0066cc" stroke-width="0.5" opacity="0.3"/>
  <line x1="72" y1="622.4662814048701" x2="540" y2="622.4662814048701" stroke="#0066cc" stroke-width="0.5" opacity="0.3"/>
  <line x1="72" y1="606.7668592975649" x2="540" y2="606.7668592975649" stroke="#0066cc" stroke-width="0.5" opacity="0.3"/>
  <line x1="72" y1="593.9394974378497" x2="540" y2="593.9394974378497" stroke="#0066cc" stroke-width="0.5" opacity="0.3"/>
  <line x1="72" y1="583.0941175176904" x2="540" y2="583.0941175176904" stroke="#0066cc" stroke-width="0.5" opacity="0.3"/>
  <line x1="72" y1="573.6994221073052" x2="540" y2="573.6994221073052" stroke="#0066cc" stroke-width="0.5" opacity="0.3"/>
  <line x1="72" y1="565.4127134708294" x2="540" y2="565.4127134708294" stroke="#0066cc" stroke-width="0.5" opacity="0.3"/>
  <line x1="72" y1="558.0" x2="540" y2="558.0" stroke="#0066cc" stroke-width="1.5" opacity="0.5"/>
  <line x1="72" y1="509.23314070243504" x2="540" y2="509.23314070243504" stroke="#0066cc" stroke-width="0.5" opacity="0.3"/>
  <line x1="72" y1="480.7063567354147" x2="540" y2="480.7063567354147" stroke="#0066cc" stroke-width="0.5" opacity="0.3"/>
  <line x1="72" y1="460.4662814048701" x2="540" y2="460.4662814048701" stroke="#0066cc" stroke-width="0.5" opacity="0.3"/>
  <line x1="72" y1="444.76685929756496" x2="540" y2="444.76685929756496" stroke="#0066cc" stroke-width="0.5" opacity="0.3"/>
  <line x1="72" y1="431.93949743784975" x2="540" y2="431.93949743784975" stroke="#0066cc" stroke-width="0.5" opacity="0.3"/>
  <line x1="72" y1="421.0941175176904" x2="540" y2="421.0941175176904" stroke="#0066cc" stroke-width="0.5" opacity="0.3"/>
  <line x1="72" y1="411.69942210730517" x2="540" y2="411.69942210730517" stroke="#0066cc" stroke-width="0.5" opacity="0.3"/>
  <line x1="72" y1="403.4127134708294" x2="540" y2="403.4127134708294" stroke="#0066cc" stroke-width="0.5" opacity="0.3"/>
  <line x1="72" y1="396.0" x2="540" y2="396.0" stroke="#0066cc" stroke-width="1.5" opacity="0.5"/>
  <line x1="72" y1="347.23314070243504" x2="540" y2="347.23314070243504" stroke="#0066cc" stroke-width="0.5" opacity="0.3"/>
  <line x1="72" y1="318.7063567354147" x2="540" y2="318.7063567354147" stroke="#0066cc" stroke-width="0.5" opacity="0.3"/>
  <line x1="72" y1="298.4662814048701" x2="540" y2="298.4662814048701" stroke="#0066cc" stroke-width="0.5" opacity="0.3"/>
  <line x1="72" y1="282.76685929756496" x2="540" y2="282.76685929756496" stroke="#0066cc" stroke-width="0.5" opacity="0.3"/>
  <line x1="72" y1="269.93949743784975" x2="540" y2="269.93949743784975" stroke="#0066cc" stroke-width="0.5" opacity="0.3"/>
  <line x1="72" y1="259.0941175176904" x2="540" y2="259.0941175176904" stroke="#0066cc" stroke-width="0.5" opacity="0.3"/>
  <line x1="72" y1="249.69942210730514" x2="540" y2="249.69942210730514" stroke="#0066cc" stroke-width="0.5" opacity="0.3"/>
  <line x1="72" y1="241.41271347082937" x2="540" y2="241.41271347082937" stroke="#0066cc" stroke-width="0.5" opacity="0.3"/>
  <line x1="72" y1="234.0" x2="540" y2="234.0" stroke="#0066cc" stroke-width="1.5" opacity="0.5"/>
  <line x1="72" y1="185.23314070243504" x2="540" y2="185.23314070243504" stroke="#0066cc" stroke-width="0.5" opacity="0.3"/>
  <line x1="72" y1="156.7063567354147" x2="540" y2="156.7063567354147" stroke="#0066cc" stroke-width="0.5" opacity="0.3"/>
  <line x1="72" y1="136.46628140487007" x2="540" y2="136.46628140487007" stroke="#0066cc" stroke-width="0.5" opacity="0.3"/>
  <line x1="72" y1="120.76685929756495" x2="540" y2="120.76685929756495" stroke="#0066cc" stroke-width="0.5" opacity="0.3"/>
  <line x1="72" y1="107.93949743784974" x2="540" y2="107.93949743784974" stroke="#0066cc" stroke-width="0.5" opacity="0.3"/>
  <line x1="72" y1="97.09411751769039" x2="540" y2="97.09411751769039" stroke="#0066cc" stroke-width="0.5" opacity="0.3"/>
  <line x1="72" y1="87.69942210730514" x2="540" y2="87.69942210730514" stroke="#0066cc" stroke-width="0.5" opacity="0.3"/>
  <line x1="72" y1="79.41271347082937" x2="540" y2="79.41271347082937" stroke="#0066cc" stroke-width="0.5" opacity="0.3"/>
  <rect x="72" y="72" width="468" height="648" fill="none" stroke="#000000" stroke-width="2"/>
</svg>