<svg xmlns="http://www.w3.org/2000/svg" xmlns:xlink="http://www.w3.org/1999/xlink" width="831.496" height="831.496" viewBox="0 0 220 220" xmlns:v="https://vecta.io/nano"><style><![CDATA[.B{fill:red}.C{fill:#ff0}.D{fill:#0f0}.E{fill:#00f}]]></style><g fill="#fff"><path d="M-110 110h220v220h-220z"/><path d="M0 110.001c60.94 0 110.001 49.059 110.001 109.999S60.94 330.001 0 330.001-110.001 280.941-110.001 220-60.939 110.001 0 110.001z"/></g><g stroke="#000" stroke-width=".75"><path d="M120.832 125.996l-9.448 3.273-9.82-1.889-7.558-6.547-3.274-9.448 1.889-9.82 6.547-7.558 9.45-3.274 9.819 1.889 7.56 6.547 3.273 9.45-1.889 9.819z" class="E"/><path d="M114.657 138.718l-6.546 7.559-9.82-1.889-3.273-9.449 6.545-7.559 9.82 1.889z" class="D"/><path d="M108.111 146.276l7.559 6.547 6.546-7.56-7.559-6.546z" class="B"/><path d="M108.111 146.276l7.559 6.547-9.449 3.273z" class="C"/><path d="M106.221 156.096l-9.82-1.889 1.891-9.82 9.82 1.889zm17.885-20.651l-9.449 3.273-3.273-9.449 9.448-3.273z" class="B"/><path d="M122.216 145.264l-7.559-6.546 9.449-3.274z" class="C"/><path d="M140.472 129.774l-6.547 7.56-9.819-1.891-3.274-9.448 6.547-7.56 9.82 1.891z" class="D"/><path d="M132.035 147.153l-9.82-1.889 1.891-9.82 9.819 1.891z" class="B"/><path d="M133.925 137.334l7.56 6.546-9.45 3.273z" class="C"/><path d="M133.925 137.334l7.56 6.546 6.545-7.559-7.558-6.547zm3.274-17.008l-9.82-1.891 1.889-9.819 9.82 1.889zm-38.907 24.061l-9.449 3.273-3.273-9.448 9.448-3.274z" class="B"/><path d="M98.292 144.387l-9.449 3.273 7.559 6.547z" class="C"/><path d="M87.459 128.392l7.559 6.546 6.547-7.559-7.56-6.545z" class="B"/><path d="M85.57 138.212l9.448-3.274-7.559-6.546z" class="C"/><path d="M74.366 117.054l3.273 9.448 9.82 1.891 6.546-7.56-3.273-9.448-9.82-1.891z" class="D"/><path d="M75.75 136.321l9.82 1.891 1.889-9.82-9.82-1.891z" class="B"/><path d="M77.639 126.501l-9.448 3.274 7.559 6.546z" class="C"/><use xlink:href="#B" class="B"/><path d="M64.917 120.326l9.449-3.273-7.559-6.547z" class="C"/><path d="M66.806 110.507l7.56 6.547 6.545-7.56-7.558-6.546z" class="B"/><path d="M82.802 99.674l-9.449 3.274 7.558 6.546z" class="C"/><path d="M80.912 109.494l9.82 1.891 1.889-9.82-9.819-1.889z" class="B"/><path d="M124.983 85.062l-3.273-9.449-9.82-1.889-6.546 7.559 3.273 9.449 9.819 1.889z" class="D"/><path d="M132.541 91.608l-7.559-6.546-6.547 7.559 7.56 6.547z" class="B"/><path d="M145.634 102.946l-3.273-9.448-9.82-1.891-6.546 7.56 3.273 9.45 9.82 1.889z" class="D"/><use xlink:href="#C" class="B"/><path d="M79.528 90.226l6.547-7.56 9.82 1.891 3.273 9.448-6.547 7.56-9.819-1.891z" class="D"/><path d="M70.08 93.499l9.448-3.273 3.274 9.448-9.449 3.274z" class="B"/><path d="M193.113 125.994l-9.448 3.273-9.82-1.889-7.559-6.545-3.274-9.45 1.891-9.82 6.546-7.559 9.449-3.273 9.819 1.889 7.56 6.546 3.273 9.449-1.889 9.82z" class="E"/><path d="M186.938 138.716l-6.545 7.56-9.82-1.891-3.273-9.448 6.546-7.56 9.82 1.891z" class="D"/><path d="M180.393 146.276l7.558 6.545 6.547-7.558-7.56-6.547z" class="B"/><path d="M180.393 146.275l7.558 6.547-9.449 3.273z" class="C"/><path d="M178.502 156.095l-9.819-1.889 1.889-9.82 9.82 1.891zm17.885-20.651l-9.45 3.273-3.273-9.449 9.448-3.273z" class="B"/><path d="M194.498 145.264l-7.56-6.547 9.45-3.273z" class="C"/><path d="M212.753 129.774l-6.547 7.559-9.819-1.889-3.274-9.45 6.547-7.558 9.82 1.889z" class="D"/><path d="M204.317 147.153l-9.82-1.889 1.891-9.82 9.819 1.889z" class="B"/><path d="M206.206 137.333l7.56 6.546-9.449 3.274z" class="C"/><g class="B"><path d="M206.206 137.333l7.56 6.546 6.546-7.559-7.559-6.546z"/><use xlink:href="#D"/><path d="M170.573 144.386l-9.449 3.274-3.273-9.45 9.448-3.273z"/></g><path d="M170.573 144.386l-9.449 3.274 7.558 6.545z" class="C"/><path d="M159.74 128.391l7.558 6.547 6.547-7.56-7.56-6.545z" class="B"/><path d="M157.85 138.211l9.448-3.273-7.558-6.547z" class="C"/><path d="M146.647 117.052l3.273 9.449 9.82 1.889 6.545-7.558-3.273-9.45-9.82-1.889z" class="D"/><path d="M148.03 136.321l9.82 1.889 1.889-9.82-9.82-1.889z" class="B"/><path d="M149.92 126.501l-9.448 3.273 7.558 6.547z" class="C"/><use xlink:href="#B" x="72.281" y="-0.002" class="B"/><path d="M137.198 120.326l9.449-3.274-7.558-6.546z" class="C"/><path d="M139.089 110.507l7.558 6.546 6.546-7.559-7.559-6.547z" class="B"/><path d="M155.083 99.674l-9.449 3.273 7.559 6.547z" class="C"/><path d="M153.193 109.494l9.82 1.889 1.891-9.82-9.82-1.889z" class="B"/><use xlink:href="#E" class="D"/><path d="M204.822 91.608l-7.559-6.547-6.547 7.56 7.56 6.546z" class="B"/><use xlink:href="#F" class="D"/><path d="M168.175 84.555l9.449-3.274 3.273 9.45-9.448 3.273z" class="B"/><path d="M151.809 90.225l6.547-7.559 9.82 1.889 3.273 9.449-6.547 7.559-9.819-1.889z" class="D"/><path d="M142.361 93.497l9.448-3.273 3.274 9.449-9.449 3.273z" class="B"/><path d="M156.974 188.593l-9.449 3.273-9.819-1.889-7.56-6.546-3.273-9.449 1.889-9.82 6.547-7.559 9.448-3.274 9.82 1.891 7.559 6.546 3.274 9.449-1.889 9.819z" class="E"/><path d="M150.799 201.315l-6.547 7.559-9.819-1.889-3.274-9.45 6.547-7.558 9.82 1.889z" class="D"/><path d="M144.252 208.874l7.56 6.547 6.546-7.56-7.559-6.546z" class="B"/><path d="M144.252 208.874l7.56 6.547-9.449 3.273z" class="C"/><g class="B"><path d="M142.363 218.694l-9.82-1.889 1.891-9.82 9.819 1.889z"/><use xlink:href="#B" x="82.608" y="71.539"/></g><path d="M158.358 207.861l-7.559-6.546 9.449-3.273z" class="C"/><path d="M176.612 192.372l-6.546 7.56-9.82-1.891-3.273-9.448 6.547-7.56 9.819 1.891z" class="D"/><path d="M168.178 209.751l-9.82-1.891 1.889-9.82 9.82 1.891z" class="B"/><path d="M170.067 199.931l7.56 6.546-9.449 3.274z" class="C"/><path d="M170.067 199.931l7.559 6.546 6.547-7.559-7.56-6.547zm3.272-17.007l-9.819-1.891 1.889-9.819 9.82 1.889zm-38.907 24.061l-9.448 3.273-3.274-9.448 9.449-3.274z" class="B"/><path d="M134.432 206.985l-9.448 3.273 7.559 6.547z" class="C"/><path d="M123.601 190.99l7.559 6.545 6.546-7.558-7.559-6.546z" class="B"/><path d="M121.71 200.81l9.449-3.274-7.559-6.545z" class="C"/><path d="M110.508 179.651l3.273 9.449 9.82 1.889 6.546-7.56-3.273-9.448-9.82-1.889z" class="D"/><path d="M111.891 198.919l9.819 1.891 1.891-9.82-9.82-1.889z" class="B"/><path d="M113.781 189.099l-9.449 3.274 7.56 6.545z" class="C"/><path d="M113.781 189.1l-9.449 3.273-3.273-9.45 9.449-3.273z" class="B"/><path d="M101.059 182.924l9.449-3.273-7.56-6.547z" class="C"/><path d="M102.948 173.105l7.56 6.546 6.546-7.559-7.559-6.547z" class="B"/><path d="M118.943 162.272l-9.448 3.273 7.559 6.547z" class="C"/><path d="M117.054 172.092l9.82 1.889 1.889-9.82-9.82-1.889z" class="B"/><path d="M161.124 147.66l-3.274-9.45-9.819-1.889-6.547 7.559 3.273 9.449 9.82 1.889z" class="D"/><path d="M168.683 154.205l-7.559-6.545-6.547 7.558 7.559 6.547z" class="B"/><path d="M181.776 165.546l-3.273-9.449-9.82-1.889-6.547 7.559 3.274 9.449 9.819 1.889z" class="D"/><path d="M132.035 147.153l9.45-3.273 3.273 9.449-9.449 3.273z" class="B"/><path d="M115.67 152.823l6.546-7.56 9.82 1.891 3.273 9.448-6.546 7.56-9.82-1.891z" class="D"/><path d="M106.221 156.096l9.449-3.273 3.273 9.448-9.448 3.274z" class="B"/><path d="M229.255 188.592l-9.449 3.274-9.819-1.891-7.56-6.546-3.273-9.449 1.889-9.82 6.547-7.559 9.448-3.273 9.82 1.889 7.558 6.546 3.274 9.449-1.889 9.82z" class="E"/><path d="M223.08 201.314l-6.546 7.56-9.82-1.891-3.273-9.448 6.545-7.56 9.82 1.891z" class="D"/><path d="M216.533 208.874l7.56 6.546 6.545-7.559-7.558-6.547z" class="B"/><path d="M216.533 208.874l7.56 6.546-9.449 3.273z" class="C"/><g class="B"><path d="M214.644 218.692l-9.82-1.889 1.891-9.82 9.819 1.891zm17.885-20.651l-9.449 3.273-3.274-9.448 9.449-3.274z"/><use xlink:href="#B" x="129.074" y="80.482"/></g><path d="M206.713 206.983l-9.448 3.274 7.559 6.546z" class="C"/><path d="M195.882 190.988l7.559 6.547 6.547-7.56-7.56-6.546z" class="B"/><path d="M193.991 200.808l9.449-3.273-7.559-6.547z" class="C"/><path d="M182.789 179.65l3.273 9.449 9.82 1.889 6.546-7.559-3.273-9.449-9.82-1.889z" class="D"/><path d="M184.173 198.919l9.819 1.889 1.891-9.82-9.82-1.889z" class="B"/><path d="M186.062 189.099l-9.449 3.273 7.56 6.547z" class="C"/><path d="M186.062 189.099l-9.448 3.273-3.274-9.448 9.45-3.274z" class="B"/><path d="M173.339 182.924l9.45-3.274-7.56-6.545z" class="C"/><path d="M175.229 173.104l7.56 6.545 6.545-7.559-7.558-6.545z" class="B"/><path d="M191.225 162.271l-9.449 3.273 7.558 6.547z" class="C"/><path d="M189.334 172.091l9.82 1.889 1.889-9.82-9.82-1.889z" class="B"/><path d="M233.406 147.659l-3.274-9.448-9.819-1.891-6.547 7.56 3.274 9.449 9.819 1.889z" class="D"/><path d="M204.317 147.153l9.449-3.273 3.273 9.448-9.448 3.274z" class="B"/><path d="M187.951 152.822l6.547-7.558 9.819 1.889 3.274 9.449-6.547 7.559-9.82-1.889z" class="D"/><use xlink:href="#C" x="82.608" y="71.54" class="B"/><path d="M84.693 188.593l-9.449 3.274-9.82-1.891-7.559-6.546-3.273-9.449 1.889-9.819 6.546-7.56 9.449-3.273 9.82 1.889 7.559 6.547 3.274 9.448-1.891 9.82z" class="E"/><path d="M78.518 201.316l-6.547 7.559-9.82-1.889-3.273-9.449 6.547-7.558 9.819 1.889z" class="D"/><path d="M71.971 208.875l7.559 6.546 6.547-7.559-7.559-6.546z" class="B"/><path d="M71.971 208.875l7.559 6.546-9.448 3.274z" class="C"/><path d="M70.082 218.695l-9.82-1.891 1.889-9.819 9.82 1.889zm17.884-20.653l-9.448 3.274-3.274-9.449 9.449-3.273z" class="B"/><path d="M86.077 207.862l-7.559-6.546 9.448-3.274z" class="C"/><path d="M104.331 192.373l-6.545 7.558-9.82-1.889-3.273-9.449 6.546-7.559 9.82 1.889z" class="D"/><use xlink:href="#D" x="-113.583" y="89.426" class="B"/><path d="M97.786 199.931l7.558 6.547-9.448 3.273z" class="C"/><path d="M97.786 199.931l7.558 6.547 6.547-7.56-7.56-6.545zm3.273-17.007l-9.82-1.889 1.891-9.82 9.819 1.891zm-38.908 24.062l-9.449 3.273-3.273-9.449 9.449-3.273z" class="B"/><path d="M62.151 206.986l-9.449 3.273 7.56 6.546z" class="C"/><path d="M51.318 190.991l7.56 6.545 6.546-7.558-7.559-6.547z" class="B"/><path d="M49.429 200.81l9.449-3.273-7.56-6.547z" class="C"/><path d="M38.227 179.652L41.5 189.1l9.819 1.889 6.547-7.559-3.273-9.449-9.82-1.889z" class="D"/><path d="M39.609 198.92l9.82 1.889 1.889-9.82L41.5 189.1z" class="B"/><path d="M41.5 189.1l-9.449 3.273 7.558 6.547z" class="C"/><path d="M41.5 189.1l-9.449 3.273-3.273-9.448 9.449-3.273z" class="B"/><path d="M28.778 182.925l9.449-3.273-7.56-6.547z" class="C"/><path d="M30.667 173.105l7.558 6.546 6.547-7.559-7.56-6.545z" class="B"/><path d="M46.662 162.272l-9.45 3.274 7.56 6.545z" class="C"/><path d="M44.773 172.092l9.82 1.889 1.889-9.819-9.82-1.891z" class="B"/><use xlink:href="#F" x="-129.073" y="44.715" class="D"/><path d="M96.402 154.207l-7.56-6.546-6.546 7.559 7.559 6.546z" class="B"/><path d="M109.495 165.546l-3.274-9.449-9.819-1.889-6.547 7.56 3.273 9.448 9.82 1.891z" class="D"/><path d="M59.755 147.154l9.449-3.273 3.273 9.449-9.449 3.273z" class="B"/><path d="M43.389 152.823l6.546-7.559 9.82 1.889 3.273 9.449-6.546 7.559-9.82-1.889z" class="D"/><path d="M33.94 156.097l9.449-3.274 3.273 9.449-9.45 3.273z" class="B"/><path d="M48.551 125.996l-9.449 3.274-9.819-1.891-7.56-6.545-3.273-9.45 1.889-9.819 6.547-7.56 9.448-3.273 9.82 1.889 7.559 6.545 3.274 9.45-1.889 9.82z" class="E"/><path d="M42.376 138.718l-6.547 7.56-9.819-1.889-3.273-9.449 6.546-7.56 9.82 1.891z" class="D"/><path d="M35.829 146.278l7.56 6.545 6.546-7.559-7.559-6.547z" class="B"/><path d="M35.829 146.278l7.56 6.545-9.449 3.274z" class="C"/><path d="M33.94 156.097l-9.82-1.891 1.891-9.82 9.819 1.891zm17.885-20.652l-9.449 3.273-3.274-9.448 9.449-3.274z" class="B"/><path d="M49.935 145.265l-7.559-6.547 9.449-3.273z" class="C"/><path d="M68.191 129.776l-6.547 7.559-9.82-1.889-3.273-9.45 6.547-7.558 9.819 1.889z" class="D"/><use xlink:href="#D" x="-149.725" y="26.829" class="B"/><path d="M61.644 137.334l7.56 6.547-9.449 3.273z" class="C"/><g class="B"><path d="M61.644 137.334l7.559 6.547 6.547-7.56-7.559-6.546zm3.273-17.008l-9.819-1.889 1.889-9.82 9.82 1.889z"/><use xlink:href="#B" x="-51.63" y="17.885"/></g><path d="M26.009 144.387l-9.448 3.274 7.559 6.546z" class="C"/><path d="M15.178 128.393l7.559 6.546 6.547-7.559-7.56-6.547z" class="B"/><path d="M13.287 138.212l9.449-3.273-7.559-6.547z" class="C"/><path d="M2.085 117.054l3.273 9.449 9.82 1.889 6.546-7.558-3.273-9.45-9.82-1.889z" class="D"/><path d="M3.469 136.323l9.819 1.889 1.891-9.82-9.82-1.889z" class="B"/><path d="M5.358 126.503l-9.45 3.273 7.56 6.547z" class="C"/><path d="M5.358 126.503l-9.45 3.273-3.273-9.448 9.449-3.274z" class="B"/><path d="M-7.364 120.328l9.449-3.274-7.56-6.546z" class="C"/><path d="M-5.475 110.508l7.56 6.546 6.546-7.559-7.559-6.546z" class="B"/><path d="M10.52 99.675l-9.448 3.273 7.559 6.547z" class="C"/><path d="M8.631 109.495l9.82 1.889 1.889-9.819-9.82-1.891z" class="B"/><path d="M52.702 85.064l-3.274-9.449-9.819-1.889-6.547 7.559 3.274 9.449 9.819 1.889z" class="D"/><path d="M60.26 91.61l-7.558-6.546-6.547 7.559 7.56 6.545z" class="B"/><path d="M73.353 102.948l-3.273-9.449-9.82-1.889-6.547 7.558 3.274 9.45 9.819 1.889z" class="D"/><path d="M23.613 84.557l9.449-3.273 3.273 9.448-9.448 3.274z" class="B"/><path d="M7.247 90.226l6.547-7.559 9.819 1.889 3.274 9.449-6.547 7.558-9.82-1.889z" class="D"/><use xlink:href="#C" x="-98.096" y="8.944" class="B"/><path d="M12.412 188.595l-9.45 3.273-9.82-1.889-7.558-6.546-3.274-9.449 1.891-9.82 6.546-7.559 9.449-3.274 9.82 1.891 7.558 6.546 3.273 9.449-1.889 9.82z" class="E"/><path d="M6.236 201.316l-6.546 7.56-9.82-1.891-3.273-9.448 6.545-7.56 9.82 1.889z" class="D"/><path d="M-.31 208.877l7.559 6.546 6.547-7.56-7.56-6.546z" class="B"/><path d="M-.31 208.875l7.559 6.547-9.448 3.273z" class="C"/><path d="M-2.199 218.695l-9.82-1.889 1.889-9.82 9.82 1.891z" fill="none"/><path d="M15.685 198.044l-9.449 3.273-3.273-9.449 9.45-3.273z" class="B"/><path d="M13.796 207.864l-7.56-6.547 9.449-3.273z" class="C"/><path d="M32.051 192.375l-6.546 7.558-9.82-1.889-3.273-9.449 6.545-7.559 9.82 1.889z" class="D"/><path d="M23.614 209.753l-9.819-1.891 1.889-9.819 9.82 1.889z" class="B"/><path d="M25.505 199.933l7.559 6.546-9.449 3.274z" class="C"/><g class="B"><path d="M25.504 199.933l7.56 6.546 6.545-7.559-7.558-6.545z"/><use xlink:href="#D" x="-180.702" y="62.6"/></g><use xlink:href="#E" x="-180.703" y="62.6" class="D"/><path d="M24.121 154.208l-7.56-6.547-6.545 7.56 7.558 6.546z" class="B"/><path d="M37.213 165.547l-3.273-9.45-9.82-1.889-6.546 7.559 3.273 9.449 9.82 1.889z" class="D"/><path d="M-12.526 147.156l9.448-3.274 3.274 9.449-9.449 3.273z" class="B"/><path d="M48.553 251.192l-9.448 3.273-9.82-1.889-7.56-6.546-3.273-9.449 1.889-9.82 6.547-7.559 9.448-3.274 9.82 1.891 7.56 6.545 3.273 9.449-1.889 9.82z" class="E"/><path d="M52.703 210.259l-3.274-9.449-9.819-1.889-6.547 7.56 3.274 9.448 9.819 1.891z" class="D"/><path d="M60.262 216.806l-7.558-6.547-6.547 7.56 7.56 6.545z" class="B"/><path d="M73.355 228.144l-3.273-9.449-9.82-1.889-6.545 7.559 3.273 9.449 9.82 1.889z" class="D"/><path d="M23.614 209.753l9.449-3.274 3.273 9.449-9.448 3.273z" class="B"/><path d="M7.249 215.422l6.547-7.56 9.819 1.891 3.274 9.448-6.547 7.56-9.82-1.889z" class="D"/><use xlink:href="#C" x="-98.094" y="134.14" class="B"/><path d="M120.835 251.192l-9.449 3.273-9.82-1.889-7.558-6.547-3.274-9.448 1.891-9.82 6.545-7.56 9.45-3.273 9.819 1.889 7.56 6.547 3.273 9.448-1.889 9.82z" class="E"/><use xlink:href="#F" x="-92.931" y="107.313" class="D"/><path d="M132.543 216.805l-7.559-6.546-6.546 7.559 7.559 6.547z" class="B"/><use xlink:href="#E" x="-51.629" y="143.082" class="D"/><path d="M95.897 209.751l9.448-3.273 3.274 9.449-9.45 3.273z" class="B"/><path d="M79.531 215.421l6.546-7.559 9.82 1.889 3.273 9.449-6.545 7.559-9.82-1.889z" class="D"/><path d="M70.082 218.695l9.448-3.274 3.274 9.449-9.449 3.273z" class="B"/><path d="M193.116 251.19l-9.449 3.273-9.82-1.889-7.559-6.546-3.273-9.449 1.889-9.82 6.546-7.559 9.449-3.274 9.82 1.891 7.559 6.545 3.274 9.449-1.891 9.82z" class="E"/><path d="M197.265 210.257l-3.273-9.449-9.82-1.889-6.546 7.56 3.273 9.448 9.82 1.891z" class="D"/><path d="M204.825 216.805l-7.56-6.547-6.546 7.56 7.559 6.545z" class="B"/><path d="M217.916 228.143l-3.273-9.449-9.819-1.889-6.547 7.558 3.273 9.449 9.82 1.889z" class="D"/><path d="M168.178 209.751l9.448-3.274 3.274 9.449-9.449 3.273z" class="B"/><path d="M151.812 215.421l6.546-7.56 9.82 1.891 3.273 9.448-6.546 7.56-9.82-1.889z" class="D"/><path d="M142.363 218.694l9.449-3.273 3.273 9.449-9.449 3.273zm72.281-.002l9.449-3.273 3.273 9.449-9.449 3.273z" class="B"/><path d="M218.929 117.052l3.273 9.449 9.82 1.889 6.546-7.558-3.273-9.45-9.82-1.889z" class="D"/><path d="M220.313 136.32l9.82 1.891 1.889-9.82-9.82-1.889z" fill="none"/><path d="M222.202 126.501l-9.449 3.273 7.56 6.546z" class="C"/><use xlink:href="#B" x="144.563" y="-0.002" class="B"/><path d="M209.48 120.325l9.449-3.273-7.559-6.547z" class="C"/><path d="M211.369 110.507l7.56 6.546 6.546-7.559-7.559-6.547z" class="B"/><path d="M227.366 99.674l-9.449 3.273 7.559 6.547z" class="C"/><g class="B"><use xlink:href="#C" x="118.748" y="8.942"/><path d="M-10.637 137.336l7.558 6.546 6.547-7.559-7.56-6.547z"/></g><path d="M1.072 102.949L-2.202 93.5l-9.819-1.889-6.547 7.558 3.273 9.45 9.82 1.889z" class="D"/><path d="M12.411 63.398l-9.449 3.274-9.819-1.889-7.56-6.547-3.273-9.449 1.889-9.819 6.547-7.56 9.448-3.273 9.82 1.889 7.559 6.547 3.274 9.448-1.891 9.82z" class="E"/><path d="M6.236 76.122L-.311 83.68l-9.819-1.889-3.274-9.449 6.547-7.559 9.82 1.889z" class="D"/><path d="M-.311 83.68l7.56 6.546 6.546-7.559-7.559-6.546z" class="B"/><path d="M-.311 83.68l7.56 6.546L-2.2 93.5z" class="C"/><path d="M-2.2 93.5l-9.82-1.891 1.889-9.819 9.82 1.889z" fill="none"/><path d="M15.684 72.847l-9.448 3.274-3.274-9.449 9.449-3.273z" class="B"/><path d="M13.795 82.667l-7.559-6.546 9.448-3.274z" class="C"/><path d="M32.049 67.178l-6.546 7.559-9.82-1.889-3.273-9.449 6.545-7.559 9.82 1.889z" class="D"/><use xlink:href="#D" x="-185.866" y="-35.768" class="B"/><path d="M25.504 74.737l7.56 6.547-9.449 3.273z" class="C"/><path d="M25.504 74.737l7.559 6.547 6.547-7.56-7.56-6.545zm3.272-17.008l-9.82-1.889 1.891-9.82 9.82 1.891z" class="B"/><path d="M16.561 22.467l-3.274-9.45-9.819-1.889-6.547 7.559 3.273 9.449 9.82 1.889z" class="D"/><path d="M24.12 29.012l-7.559-6.545-6.547 7.558 7.559 6.546z" class="B"/><path d="M37.213 40.351l-3.273-9.449-9.82-1.889-6.547 7.56 3.274 9.448 9.819 1.891z" class="D"/><path d="M-12.528 21.959l9.449-3.273 3.273 9.449-9.449 3.273z" class="B"/><path d="M84.692 63.398l-9.448 3.273-9.82-1.889-7.56-6.546-3.273-9.449 1.889-9.82 6.547-7.559 9.448-3.274 9.82 1.891 7.56 6.546 3.273 9.449-1.889 9.819z" class="E"/><path d="M78.517 76.12l-6.545 7.559-9.82-1.889-3.273-9.449 6.546-7.559 9.82 1.889z" class="D"/><path d="M71.97 83.679l7.56 6.547 6.545-7.56-7.559-6.546z" class="B"/><path d="M71.97 83.679l7.56 6.547-9.45 3.273z" class="C"/><path d="M70.08 93.499l-9.82-1.889 1.891-9.82 9.819 1.889zm17.886-20.652l-9.45 3.273-3.273-9.449 9.448-3.273z" class="B"/><path d="M86.075 82.666l-7.559-6.546 9.45-3.273z" class="C"/><path d="M104.331 67.177l-6.547 7.56-9.819-1.889-3.274-9.449 6.547-7.56 9.819 1.891z" class="D"/><path d="M95.895 84.557l-9.82-1.891 1.891-9.819 9.819 1.889z" class="B"/><path d="M97.785 74.737l7.56 6.545-9.449 3.274z" class="C"/><path d="M97.785 74.737l7.56 6.545 6.546-7.559-7.559-6.547zm3.272-17.008l-9.819-1.891 1.889-9.819 9.82 1.889zM62.151 81.79l-9.449 3.273-3.274-9.448 9.45-3.274z" class="B"/><path d="M62.151 81.79l-9.449 3.273 7.558 6.547z" class="C"/><path d="M51.318 65.795l7.559 6.546 6.547-7.559-7.56-6.546z" class="B"/><path d="M49.428 75.615l9.45-3.274-7.559-6.546z" class="C"/><path d="M38.225 54.456l3.273 9.449 9.82 1.889 6.545-7.559-3.273-9.449-9.82-1.889z" class="D"/><path d="M39.609 73.724l9.82 1.891 1.889-9.82-9.82-1.889z" class="B"/><path d="M41.499 63.904l-9.449 3.274 7.56 6.545z" class="C"/><use xlink:href="#B" x="-36.14" y="-62.598" class="B"/><path d="M28.776 57.729l9.449-3.273-7.558-6.547z" class="C"/><path d="M30.666 47.911l7.56 6.545 6.546-7.558-7.559-6.547z" class="B"/><path d="M46.662 37.078l-9.45 3.273 7.559 6.547z" class="C"/><path d="M44.771 46.898l9.82 1.889 1.889-9.82-9.819-1.889z" class="B"/><path d="M88.842 22.465l-3.273-9.449-9.82-1.889-6.547 7.559 3.274 9.449 9.819 1.889z" class="D"/><path d="M96.401 29.011l-7.559-6.545-6.547 7.558 7.56 6.547z" class="B"/><use xlink:href="#F" x="-108.421" y="-62.595" class="D"/><use xlink:href="#C" x="-36.141" y="-62.597" class="B"/><path d="M43.388 27.628l6.547-7.56 9.819 1.891 3.274 9.448-6.547 7.56-9.819-1.891z" class="D"/><path d="M33.938 30.901l9.449-3.273 3.274 9.448-9.45 3.274z" class="B"/><path d="M156.974 63.397l-9.449 3.274-9.82-1.891-7.559-6.546-3.274-9.449 1.891-9.819 6.546-7.56 9.449-3.273 9.819 1.889 7.56 6.546 3.273 9.449-1.889 9.82z" class="E"/><path d="M150.798 76.119l-6.546 7.56-9.82-1.891-3.273-9.448 6.546-7.56 9.82 1.891z" class="D"/><path d="M144.252 83.679l7.559 6.546 6.547-7.559-7.56-6.547z" class="B"/><path d="M144.252 83.679l7.559 6.546-9.449 3.273z" class="C"/><path d="M142.361 93.497l-9.819-1.889 1.889-9.82 9.82 1.891zm17.886-20.651l-9.449 3.273-3.273-9.448 9.449-3.274z" class="B"/><path d="M158.358 82.666l-7.56-6.547 9.449-3.273z" class="C"/><path d="M176.612 67.177l-6.546 7.559-9.82-1.889-3.273-9.449 6.546-7.559 9.82 1.889z" class="D"/><path d="M168.176 84.555l-9.82-1.889 1.891-9.82 9.82 1.889z" class="B"/><path d="M170.067 74.736l7.559 6.547-9.449 3.273z" class="C"/><g class="B"><path d="M170.065 74.736l7.56 6.547 6.546-7.56-7.559-6.546z"/><use xlink:href="#D" x="-36.141" y="-62.597"/><path d="M134.432 81.79l-9.449 3.273-3.273-9.449 9.448-3.273z"/></g><path d="M134.432 81.788l-9.449 3.274 7.559 6.546z" class="C"/><path d="M123.599 65.793l7.559 6.547 6.547-7.56-7.56-6.546z" class="B"/><path d="M121.71 75.613l9.448-3.273-7.559-6.547z" class="C"/><path d="M110.506 54.455l3.273 9.45 9.82 1.889 6.547-7.559-3.274-9.449-9.819-1.889z" class="D"/><path d="M111.89 73.724l9.82 1.889 1.889-9.82-9.82-1.889z" class="B"/><path d="M113.779 63.904l-9.448 3.273 7.559 6.547z" class="C"/><path d="M113.781 63.904l-9.449 3.273-3.274-9.448 9.449-3.274z" class="B"/><path d="M101.057 57.729l9.449-3.274-7.559-6.545z" class="C"/><path d="M102.948 47.909l7.559 6.545 6.547-7.558-7.56-6.546z" class="B"/><path d="M118.943 37.076l-9.449 3.273 7.56 6.547z" class="C"/><path d="M117.054 46.896l9.819 1.889 1.891-9.82-9.82-1.889z" class="B"/><path d="M161.123 22.464l-3.273-9.448-9.82-1.891-6.545 7.56 3.273 9.449 9.82 1.889z" class="D"/><path d="M168.682 29.011l-7.558-6.547-6.547 7.56 7.56 6.546z" class="B"/><path d="M181.775 40.349l-3.273-9.449-9.82-1.889-6.545 7.559 3.273 9.449 9.82 1.889z" class="D"/><path d="M132.035 21.958l9.448-3.273 3.274 9.448-9.449 3.274z" class="B"/><path d="M115.67 27.627l6.546-7.559 9.82 1.889 3.273 9.449-6.547 7.559-9.819-1.889z" class="D"/><path d="M106.221 30.9l9.448-3.273 3.274 9.449-9.449 3.273z" class="B"/><path d="M229.255 63.397l-9.449 3.273-9.82-1.889-7.558-6.546-3.274-9.449 1.891-9.82 6.545-7.559 9.45-3.274 9.819 1.891 7.56 6.546 3.273 9.449-1.889 9.819z" class="E"/><path d="M223.079 76.119l-6.546 7.558-9.82-1.889-3.273-9.449 6.545-7.559 9.82 1.889z" class="D"/><path d="M216.533 83.677l7.559 6.547 6.547-7.56-7.56-6.545z" class="B"/><path d="M216.533 83.677l7.559 6.547-9.449 3.273z" class="C"/><g class="B"><path d="M214.642 93.497l-9.819-1.889 1.889-9.82 9.82 1.889zm17.886-20.651l-9.449 3.273-3.273-9.45 9.449-3.273z"/><path d="M206.713 81.788l-9.449 3.273-3.273-9.448 9.448-3.274z"/></g><path d="M206.713 81.788l-9.449 3.273 7.559 6.547z" class="C"/><path d="M195.88 65.793l7.559 6.546 6.547-7.559-7.558-6.546z" class="B"/><path d="M193.991 75.613l9.448-3.274-7.559-6.546z" class="C"/><path d="M182.788 54.455l3.273 9.45 9.82 1.889 6.547-7.56-3.274-9.448-9.819-1.889z" class="D"/><path d="M184.171 73.723l9.82 1.891 1.889-9.82-9.82-1.889z" class="B"/><path d="M186.06 63.903l-9.448 3.274 7.559 6.546z" class="C"/><path d="M186.062 63.904l-9.449 3.273-3.273-9.449 9.448-3.273z" class="B"/><path d="M173.338 57.728l9.449-3.273-7.559-6.547z" class="C"/><path d="M175.229 47.909l7.559 6.545 6.547-7.558-7.56-6.547z" class="B"/><path d="M191.224 37.076l-9.449 3.273 7.56 6.547z" class="C"/><path d="M189.334 46.895l9.819 1.891 1.891-9.82-9.82-1.889z" class="B"/><use xlink:href="#F" x="15.489" y="-80.482" class="D"/><path d="M204.317 21.956l9.448-3.273 3.274 9.449-9.45 3.273z" class="B"/><path d="M187.951 27.627l6.546-7.56 9.82 1.891 3.273 9.448-6.545 7.56-9.82-1.891z" class="D"/><path d="M178.502 30.9l9.448-3.273 3.274 9.448-9.449 3.274zm-189.14-18.761l7.56 6.547 6.546-7.56-7.559-6.546z" class="B"/><path d="M48.551.801l-9.449 3.273-9.82-1.889-7.559-6.547-3.274-9.448 1.891-9.82 6.546-7.559 9.449-3.274 9.819 1.889 7.56 6.547 3.273 9.449-1.889 9.819z" class="E"/><path d="M42.375 13.523l-6.545 7.559-9.82-1.889-3.273-9.449 6.546-7.559 9.82 1.889z" class="D"/><path d="M35.829 21.082l7.558 6.547 6.547-7.56-7.56-6.546z" class="B"/><path d="M35.829 21.082l7.558 6.547-9.449 3.273z" class="C"/><path d="M33.938 30.901l-9.819-1.889 1.889-9.82 9.82 1.889zM51.824 10.25l-9.449 3.273-3.273-9.449L48.551.801z" class="B"/><path d="M49.935 20.069l-7.56-6.546 9.449-3.274z" class="C"/><path d="M68.19 4.579l-6.546 7.56-9.82-1.891L48.551.801l6.546-7.56 9.82 1.891z" class="D"/><path d="M59.753 21.958l-9.819-1.889 1.889-9.82 9.82 1.891z" class="B"/><path d="M61.644 12.139l7.559 6.546-9.449 3.273z" class="C"/><path d="M61.643 12.139l7.56 6.546 6.546-7.559-7.559-6.547zm-35.634 7.053l-9.45 3.273-3.273-9.448 9.448-3.274z" class="B"/><path d="M26.009 19.192l-9.45 3.273 7.56 6.547z" class="C"/><path d="M15.177 3.197l7.558 6.545 6.547-7.559-7.559-6.545z" class="B"/><path d="M13.287 13.017l9.448-3.274-7.558-6.545z" class="C"/><path d="M2.084-8.141l3.273 9.449 9.82 1.889 6.547-7.56-3.274-9.448-9.819-1.891z" class="D"/><path d="M3.467 11.126l9.82 1.891 1.889-9.82-9.82-1.889z" class="B"/><path d="M5.357 1.307l-9.448 3.274 7.559 6.546z" class="C"/><path d="M5.358 1.308l-9.45 3.273-3.273-9.449 9.448-3.273z" class="B"/><path d="M120.832.8l-9.448 3.274-9.82-1.891-7.558-6.546-3.274-9.449 1.889-9.819 6.547-7.56 9.45-3.273 9.819 1.889 7.56 6.547 3.273 9.448-1.889 9.82z" class="E"/><path d="M114.657 13.521l-6.546 7.56-9.82-1.889-3.273-9.449 6.545-7.559 9.82 1.889z" class="D"/><path d="M108.111 21.082l7.559 6.546 6.547-7.559-7.56-6.547z" class="B"/><path d="M108.111 21.082l7.559 6.546-9.449 3.274z" class="C"/><path d="M106.221 30.901l-9.819-1.891 1.889-9.819 9.82 1.889zm17.885-20.652l-9.449 3.273-3.273-9.448 9.448-3.273z" class="B"/><path d="M122.217 20.069l-7.56-6.547 9.449-3.273z" class="C"/><path d="M140.472 4.579l-6.547 7.559-9.819-1.889L120.832.8l6.547-7.559 9.82 1.889z" class="D"/><path d="M132.035 21.958l-9.82-1.889 1.891-9.82 9.819 1.889z" class="B"/><path d="M133.925 12.138l7.56 6.547-9.45 3.273z" class="C"/><path d="M133.925 12.138l7.56 6.547 6.545-7.56-7.558-6.546zm-35.633 7.054l-9.449 3.273-3.273-9.449 9.448-3.273z" class="B"/><path d="M98.292 19.192l-9.449 3.273 7.559 6.545z" class="C"/><path d="M87.459 3.197l7.559 6.545 6.547-7.559-7.56-6.547z" class="B"/><path d="M85.57 13.016l9.448-3.273-7.559-6.547z" class="C"/><path d="M74.366-8.143l3.273 9.449 9.82 1.889 6.546-7.559-3.273-9.449-9.82-1.889z" class="D"/><path d="M75.75 11.126l9.82 1.889 1.889-9.82-9.82-1.889z" class="B"/><path d="M77.639 1.307l-9.448 3.273 7.559 6.547z" class="C"/><path d="M77.639 1.307l-9.448 3.273-3.274-9.448 9.449-3.274z" class="B"/><path d="M193.114.8l-9.449 3.273-9.82-1.889-7.559-6.547-3.274-9.448 1.891-9.82 6.546-7.559 9.449-3.274 9.819 1.891 7.56 6.546 3.273 9.449-1.889 9.819z" class="E"/><path d="M186.938 13.521l-6.545 7.559-9.82-1.889-3.273-9.449 6.546-7.558 9.82 1.889z" class="D"/><path d="M180.393 21.08l7.558 6.547 6.547-7.56-7.56-6.546z" class="B"/><path d="M180.393 21.08l7.558 6.547-9.449 3.273z" class="C"/><path d="M178.502 30.9l-9.819-1.889 1.889-9.82 9.82 1.889zm17.885-20.651l-9.45 3.273-3.273-9.449L193.113.8z" class="B"/><path d="M194.498 20.067l-7.56-6.546 9.45-3.274z" class="C"/><path d="M212.753 4.578l-6.547 7.56-9.819-1.891L193.114.8l6.546-7.56 9.82 1.891z" class="D"/><path d="M204.317 21.958l-9.82-1.891 1.891-9.82 9.819 1.891z" class="B"/><path d="M206.207 12.138l7.559 6.546-9.449 3.274z" class="C"/><path d="M206.206 12.138l7.56 6.546 6.546-7.559-7.559-6.547zm-35.633 7.053l-9.449 3.273-3.273-9.448 9.448-3.274z" class="B"/><path d="M170.573 19.191l-9.449 3.273 7.558 6.547z" class="C"/><path d="M159.74 3.196l7.558 6.545 6.547-7.558-7.56-6.546z" class="B"/><path d="M157.85 13.016l9.448-3.274-7.558-6.545z" class="C"/><path d="M146.647-8.143l3.273 9.449 9.82 1.889 6.545-7.56-3.273-9.448-9.82-1.891z" class="D"/><path d="M148.03 11.125l9.82 1.891 1.889-9.82-9.82-1.889z" class="B"/><path d="M149.92 1.305l-9.448 3.274 7.558 6.546z" class="C"/><path d="M149.921 1.307l-9.449 3.273-3.274-9.449 9.449-3.273z" class="B"/><path d="M218.928-8.143l3.273 9.448 9.82 1.891 6.546-7.56-3.273-9.449-9.82-1.889z" class="D"/><path d="M220.311 11.125l9.82 1.889 1.889-9.819-9.82-1.891z" fill="none"/><path d="M222.201 1.305l-9.448 3.273 7.559 6.547z" class="C"/><path d="M222.202 1.305l-9.449 3.274-3.274-9.449 9.449-3.273z" class="B"/><path d="M1.074 228.144l-3.274-9.449-9.819-1.889-6.547 7.56 3.274 9.448 9.819 1.889z" class="D"/></g><defs ><path id="B" d="M77.639 126.503l-9.448 3.273-3.274-9.449 9.449-3.273z"/><path id="C" d="M95.894 84.555l9.449-3.273 3.273 9.449-9.448 3.273z"/><path id="D" d="M209.48 120.325l-9.82-1.889 1.889-9.82 9.82 1.889z"/><path id="E" d="M197.264 85.061l-3.273-9.448-9.82-1.891-6.546 7.56 3.273 9.448 9.82 1.891z"/><path id="F" d="M217.915 102.946l-3.273-9.449-9.82-1.889-6.546 7.559 3.273 9.449 9.82 1.889z"/></defs></svg>