<svg width="612" height="792" 
     viewBox="0 0 612 792" 
     xmlns="http://www.w3.org/2000/svg">
  <rect width="612" height="792" fill="white"/>
  <line x1="36" y1="36" x2="36" y2="756" stroke="#0066cc" stroke-width="1.5" opacity="0.6"/>
  <line x1="54" y1="36" x2="54" y2="756" stroke="#0066cc" stroke-width="0.5" opacity="0.3"/>
  <line x1="72" y1="36" x2="72" y2="756" stroke="#0066cc" stroke-width="0.5" opacity="0.3"/>
  <line x1="90" y1="36" x2="90" y2="756" stroke="#0066cc" stroke-width="0.5" opacity="0.3"/>
  <line x1="108" y1="36" x2="108" y2="756" stroke="#0066cc" stroke-width="0.5" opacity="0.3"/>
  <line x1="126" y1="36" x2="126" y2="756" stroke="#0066cc" stroke-width="1.5" opacity="0.6"/>
  <line x1="144" y1="36" x2="144" y2="756" stroke="#0066cc" stroke-width="0.5" opacity="0.3"/>
  <line x1="162" y1="36" x2="162" y2="756" stroke="#0066cc" stroke-width="0.5" opacity="0.3"/>
  <line x1="180" y1="36" x2="180" y2="756" stroke="#0066cc" stroke-width="0.5" opacity="0.3"/>
  <line x1="198" y1="36" x2="198" y2="756" stroke="#0066cc" stroke-width="0.5" opacity="0.3"/>
  <line x1="216" y1="36" x2="216" y2="756" stroke="#0066cc" stroke-width="1.5" opacity="0.6"/>
  <line x1="234" y1="36" x2="234" y2="756" stroke="#0066cc" stroke-width="0.5" opacity="0.3"/>
  <line x1="252" y1="36" x2="252" y2="756" stroke="#0066cc" stroke-width="0.5" opacity="0.3"/>
  <line x1="270" y1="36" x2="270" y2="756" stroke="#0066cc" stroke-width="0.5" opacity="0.3"/>
  <line x1="288" y1="36" x2="288" y2="756" stroke="#0066cc" stroke-width="0.5" opacity="0.3"/>
  <line x1="306" y1="36" x2="306" y2="756" stroke="#0066cc" stroke-width="1.5" opacity="0.6"/>
  <line x1="324" y1="36" x2="324" y2="756" stroke="#0066cc" stroke-width="0.5" opacity="0.3"/>
  <line x1="342" y1="36" x2="342" y2="756" stroke="#0066cc" stroke-width="0.5" opacity="0.3"/>
  <line x1="360" y1="36" x2="360" y2="756" stroke="#0066cc" stroke-width="0.5" opacity="0.3"/>
  <line x1="378" y1="36" x2="378" y2="756" stroke="#0066cc" stroke-width="0.5" opacity="0.3"/>
  <line x1="396" y1="36" x2="396" y2="756" stroke="#0066cc" stroke-width="1.5" opacity="0.6"/>
  <line x1="414" y1="36" x2="414" y2="756" stroke="#0066cc" stroke-width="0.5" opacity="0.3"/>
  <line x1="432" y1="36" x2="432" y2="756" stroke="#0066cc" stroke-width="0.5" opacity="0.3"/>
  <line x1="450" y1="36" x2="450" y2="756" stroke="#0066cc" stroke-width="0.5" opacity="0.3"/>
  <line x1="468" y1="36" x2="468" y2="756" stroke="#0066cc" stroke-width="0.5" opacity="0.3"/>
  <line x1="486" y1="36" x2="486" y2="756" stroke="#0066cc" stroke-width="1.5" opacity="0.6"/>
  <line x1="504" y1="36" x2="504" y2="756" stroke="#0066cc" stroke-width="0.5" opacity="0.3"/>
  <line x1="522" y1="36" x2="522" y2="756" stroke="#0066cc" stroke-width="0.5" opacity="0.3"/>
  <line x1="540" y1="36" x2="540" y2="756" stroke="#0066cc" stroke-width="0.5" opacity="0.3"/>
  <line x1="558" y1="36" x2="558" y2="756" stroke="#0066cc" stroke-width="0.5" opacity="0.3"/>
  <line x1="576" y1="36" x2="576" y2="756" stroke="#0066cc" stroke-width="1.5" opacity="0.6"/>
  <line x1="36" y1="36" x2="576" y2="36" stroke="#0066cc" stroke-width="1.5" opacity="0.6"/>
  <line x1="36" y1="54" x2="576" y2="54" stroke="#0066cc" stroke-width="0.5" opacity="0.3"/>
  <line x1="36" y1="72" x2="576" y2="72" stroke="#0066cc" stroke-width="0.5" opacity="0.3"/>
  <line x1="36" y1="90" x2="576" y2="90" stroke="#0066cc" stroke-width="0.5" opacity="0.3"/>
  <line x1="36" y1="108" x2="576" y2="108" stroke="#0066cc" stroke-width="0.5" opacity="0.3"/>
  <line x1="36" y1="126" x2="576" y2="126" stroke="#0066cc" stroke-width="1.5" opacity="0.6"/>
  <line x1="36" y1="144" x2="576" y2="144" stroke="#0066cc" stroke-width="0.5" opacity="0.3"/>
  <line x1="36" y1="162" x2="576" y2="162" stroke="#0066cc" stroke-width="0.5" opacity="0.3"/>
  <line x1="36" y1="180" x2="576" y2="180" stroke="#0066cc" stroke-width="0.5" opacity="0.3"/>
  <line x1="36" y1="198" x2="576" y2="198" stroke="#0066cc" stroke-width="0.5" opacity="0.3"/>
  <line x1="36" y1="216" x2="576" y2="216" stroke="#0066cc" stroke-width="1.5" opacity="0.6"/>
  <line x1="36" y1="234" x2="576" y2="234" stroke="#0066cc" stroke-width="0.5" opacity="0.3"/>
  <line x1="36" y1="252" x2="576" y2="252" stroke="#0066cc" stroke-width="0.5" opacity="0.3"/>
  <line x1="36" y1="270" x2="576" y2="270" stroke="#0066cc" stroke-width="0.5" opacity="0.3"/>
  <line x1="36" y1="288" x2="576" y2="288" stroke="#0066cc" stroke-width="0.5" opacity="0.3"/>
  <line x1="36" y1="306" x2="576" y2="306" stroke="#0066cc" stroke-width="1.5" opacity="0.6"/>
  <line x1="36" y1="324" x2="576" y2="324" stroke="#0066cc" stroke-width="0.5" opacity="0.3"/>
  <line x1="36" y1="342" x2="576" y2="342" stroke="#0066cc" stroke-width="0.5" opacity="0.3"/>
  <line x1="36" y1="360" x2="576" y2="360" stroke="#0066cc" stroke-width="0.5" opacity="0.3"/>
  <line x1="36" y1="378" x2="576" y2="378" stroke="#0066cc" stroke-width="0.5" opacity="0.3"/>
  <line x1="36" y1="396" x2="576" y2="396" stroke="#0066cc" stroke-width="1.5" opacity="0.6"/>
  <line x1="36" y1="414" x2="576" y2="414" stroke="#0066cc" stroke-width="0.5" opacity="0.3"/>
  <line x1="36" y1="432" x2="576" y2="432" stroke="#0066cc" stroke-width="0.5" opacity="0.3"/>
  <line x1="36" y1="450" x2="576" y2="450" stroke="#0066cc" stroke-width="0.5" opacity="0.3"/>
  <line x1="36" y1="468" x2="576" y2="468" stroke="#0066cc" stroke-width="0.5" opacity="0.3"/>
  <line x1="36" y1="486" x2="576" y2="486" stroke="#0066cc" stroke-width="1.5" opacity="0.6"/>
  <line x1="36" y1="504" x2="576" y2="504" stroke="#0066cc" stroke-width="0.5" opacity="0.3"/>
  <line x1="36" y1="522" x2="576" y2="522" stroke="#0066cc" stroke-width="0.5" opacity="0.3"/>
  <line x1="36" y1="540" x2="576" y2="540" stroke="#0066cc" stroke-width="0.5" opacity="0.3"/>
  <line x1="36" y1="558" x2="576" y2="558" stroke="#0066cc" stroke-width="0.5" opacity="0.3"/>
  <line x1="36" y1="576" x2="576" y2="576" stroke="#0066cc" stroke-width="1.5" opacity="0.6"/>
  <line x1="36" y1="594" x2="576" y2="594" stroke="#0066cc" stroke-width="0.5" opacity="0.3"/>
  <line x1="36" y1="612" x2="576" y2="612" stroke="#0066cc" stroke-width="0.5" opacity="0.3"/>
  <line x1="36" y1="630" x2="576" y2="630" stroke="#0066cc" stroke-width="0.5" opacity="0.3"/>
  <line x1="36" y1="648" x2="576" y2="648" stroke="#0066cc" stroke-width="0.5" opacity="0.3"/>
  <line x1="36" y1="666" x2="576" y2="666" stroke="#0066cc" stroke-width="1.5" opacity="0.6"/>
  <line x1="36" y1="684" x2="576" y2="684" stroke="#0066cc" stroke-width="0.5" opacity="0.3"/>
  <line x1="36" y1="702" x2="576" y2="702" stroke="#0066cc" stroke-width="0.5" opacity="0.3"/>
  <line x1="36" y1="720" x2="576" y2="720" stroke="#0066cc" stroke-width="0.5" opacity="0.3"/>
  <line x1="36" y1="738" x2="576" y2="738" stroke="#0066cc" stroke-width="0.5" opacity="0.3"/>
  <line x1="36" y1="756" x2="576" y2="756" stroke="#0066cc" stroke-width="1.5" opacity="0.6"/>
</svg>