<svg width="612" height="792" 
     viewBox="0 0 612 792" 
     xmlns="http://www.w3.org/2000/svg">
  <rect width="612" height="792" fill="white"/>
  <line x1="72" y1="72" x2="540" y2="72" stroke="#0066cc" stroke-width="0.5" opacity="0.3"/>
  <line x1="72" y1="96" x2="540" y2="96" stroke="#0066cc" stroke-width="0.5" opacity="0.3"/>
  <line x1="72" y1="120" x2="540" y2="120" stroke="#0066cc" stroke-width="0.5" opacity="0.3"/>
  <line x1="72" y1="144" x2="540" y2="144" stroke="#0066cc" stroke-width="0.5" opacity="0.3"/>
  <line x1="72" y1="168" x2="540" y2="168" stroke="#0066cc" stroke-width="0.5" opacity="0.3"/>
  <line x1="72" y1="192" x2="540" y2="192" stroke="#0066cc" stroke-width="0.5" opacity="0.3"/>
  <line x1="72" y1="216" x2="540" y2="216" stroke="#0066cc" stroke-width="0.5" opacity="0.3"/>
  <line x1="72" y1="240" x2="540" y2="240" stroke="#0066cc" stroke-width="0.5" opacity="0.3"/>
  <line x1="72" y1="264" x2="540" y2="264" stroke="#0066cc" stroke-width="0.5" opacity="0.3"/>
  <line x1="72" y1="288" x2="540" y2="288" stroke="#0066cc" stroke-width="0.5" opacity="0.3"/>
  <line x1="72" y1="312" x2="540" y2="312" stroke="#0066cc" stroke-width="0.5" opacity="0.3"/>
  <line x1="72" y1="336" x2="540" y2="336" stroke="#0066cc" stroke-width="0.5" opacity="0.3"/>
  <line x1="72" y1="360" x2="540" y2="360" stroke="#0066cc" stroke-width="0.5" opacity="0.3"/>
  <line x1="72" y1="384" x2="540" y2="384" stroke="#0066cc" stroke-width="0.5" opacity="0.3"/>
  <line x1="72" y1="408" x2="540" y2="408" stroke="#0066cc" stroke-width="0.5" opacity="0.3"/>
  <line x1="72" y1="432" x2="540" y2="432" stroke="#0066cc" stroke-width="0.5" opacity="0.3"/>
  <line x1="72" y1="456" x2="540" y2="456" stroke="#0066cc" stroke-width="0.5" opacity="0.3"/>
  <line x1="72" y1="480" x2="540" y2="480" stroke="#0066cc" stroke-width="0.5" opacity="0.3"/>
  <line x1="72" y1="504" x2="540" y2="504" stroke="#0066cc" stroke-width="0.5" opacity="0.3"/>
  <line x1="72" y1="528" x2="540" y2="528" stroke="#0066cc" stroke-width="0.5" opacity="0.3"/>
  <line x1="72" y1="552" x2="540" y2="552" stroke="#0066cc" stroke-width="0.5" opacity="0.3"/>
  <line x1="72" y1="576" x2="540" y2="576" stroke="#0066cc" stroke-width="0.5" opacity="0.3"/>
  <line x1="72" y1="600" x2="540" y2="600" stroke="#0066cc" stroke-width="0.5" opacity="0.3"/>
  <line x1="72" y1="624" x2="540" y2="624" stroke="#0066cc" stroke-width="0.5" opacity="0.3"/>
  <line x1="72" y1="648" x2="540" y2="648" stroke="#0066cc" stroke-width="0.5" opacity="0.3"/>
  <line x1="72" y1="672" x2="540" y2="672" stroke="#0066cc" stroke-width="0.5" opacity="0.3"/>
  <line x1="72" y1="696" x2="540" y2="696" stroke="#0066cc" stroke-width="0.5" opacity="0.3"/>
  <line x1="72" y1="720" x2="540" y2="720" stroke="#0066cc" stroke-width="0.5" opacity="0.3"/>
  <line x1="72" y1="72" x2="72" y2="720" stroke="#cc0000" stroke-width="1" opacity="0.5"/>
</svg>