<?xml version="1.0" encoding="UTF-8" standalone="no"?>
<!-- Created with Inkscape (http://www.inkscape.org/) -->

<svg
   xmlns:dc="http://purl.org/dc/elements/1.1/"
   xmlns:cc="http://creativecommons.org/ns#"
   xmlns:rdf="http://www.w3.org/1999/02/22-rdf-syntax-ns#"
   xmlns:svg="http://www.w3.org/2000/svg"
   xmlns="http://www.w3.org/2000/svg"
   xmlns:sodipodi="http://sodipodi.sourceforge.net/DTD/sodipodi-0.dtd"
   xmlns:inkscape="http://www.inkscape.org/namespaces/inkscape"
   width="8.5in"
   height="11in"
   viewBox="0 0 215.9 279.4"
   version="1.1"
   id="svg8"
   sodipodi:docname="jigsaw-01.svg"
   inkscape:version="0.92.2 5c3e80d, 2017-08-06">
  <defs
     id="defs2" />
  <sodipodi:namedview
     id="base"
     pagecolor="#ffffff"
     bordercolor="#666666"
     borderopacity="1.0"
     inkscape:pageopacity="0.0"
     inkscape:pageshadow="2"
     inkscape:zoom="1.3933055"
     inkscape:cx="400.58702"
     inkscape:cy="524.68211"
     inkscape:document-units="mm"
     inkscape:current-layer="layer1"
     showgrid="true"
     showguides="false"
     inkscape:guide-bbox="true"
     units="in"
     inkscape:window-width="1442"
     inkscape:window-height="803"
     inkscape:window-x="0"
     inkscape:window-y="1"
     inkscape:window-maximized="0"
     gridtolerance="5"
     guidetolerance="5">
    <sodipodi:guide
       position="50.567504,49.771165"
       orientation="0,1"
       id="guide815"
       inkscape:locked="false" />
    <sodipodi:guide
       position="50.169335,211.02974"
       orientation="1,0"
       id="guide817"
       inkscape:locked="false" />
    <sodipodi:guide
       position="99.940497,193.90846"
       orientation="1,0"
       id="guide819"
       inkscape:locked="false" />
    <inkscape:grid
       type="xygrid"
       id="grid821"
       units="in"
       spacingx="6.35"
       spacingy="6.35"
       snapvisiblegridlinesonly="false"
       dotted="false" />
  </sodipodi:namedview>
  <metadata
     id="metadata5">
    <rdf:RDF>
      <cc:Work
         rdf:about="">
        <dc:format>image/svg+xml</dc:format>
        <dc:type
           rdf:resource="http://purl.org/dc/dcmitype/StillImage" />
        <dc:title></dc:title>
      </cc:Work>
    </rdf:RDF>
  </metadata>
  <g
     inkscape:label="Layer 1"
     inkscape:groupmode="layer"
     id="layer1"
     transform="translate(0,-17.6)">
    <rect
       style="fill:none;fill-rule:evenodd;stroke:#000000;stroke-width:0.268;stroke-linecap:butt;stroke-linejoin:miter;stroke-opacity:1;stroke-miterlimit:4;stroke-dasharray:none"
       id="rect4512"
       width="158.75"
       height="222.25"
       x="31.75"
       y="43" />
    <path
       style="fill:none;fill-rule:evenodd;stroke:#000000;stroke-width:0.26458332px;stroke-linecap:butt;stroke-linejoin:miter;stroke-opacity:1"
       d="m 31.75,74.749999 h 6.35 6.349999 c 0,0 4.233333,0 6.35,0 -6.264618,-6.464074 12.700001,-6.349999 6.35,0 2.116667,0 6.35,0 6.35,0 h 6.35 6.35 C 69.85,62.05 88.9,62.05 82.549999,74.749999 h 6.35 6.35 L 101.6,74.75 c 0,6.35 12.7,12.7 6.35,0 h 6.35 6.35 l 6.35,-10e-7 h 6.35 6.35 c -6.35,-6.349999 12.7,-6.349999 6.35,0 h 6.35 6.35 l 6.35,10e-7 h 6.35 6.35 c 0,12.7 12.7,7.785742 6.35,0 h 6.35"
       id="path4575"
       inkscape:connector-curvature="0"
       sodipodi:nodetypes="cccccccccccccccccccccccccc" />
    <path
       style="fill:none;fill-rule:evenodd;stroke:#000000;stroke-width:0.26458332px;stroke-linecap:butt;stroke-linejoin:miter;stroke-opacity:1"
       d="m 63.499999,43 v 6.35 c -12.699999,0 -6.349999,6.35 0,6.35 v 6.349999 6.35 6.35 6.35 6.35 C 69.85,81.1 69.85,93.8 63.499999,93.799999 v 6.350001 6.35 6.35 6.35 6.35 c 6.350001,-6.35 12.700001,6.35 0,6.35 v 6.35 6.35 6.35 c -7.595846,0 -12.699999,12.7 0,6.35 v 6.35 6.35 6.35 6.35 c -12.699999,0 -12.699999,12.7 0,6.35 v 6.35 6.35 6.35 6.35 c 0,0 0,4.23333 0,6.35 6.350001,-6.35 6.350001,6.35 0,6.35 0,2.11667 0,6.35 0,6.35 v 6.35 6.35 c 0,0 0,4.23333 0,6.35 -12.699999,-6.35 -12.699999,6.35 0,6.35 0,2.11667 0,6.35 0,6.35"
       id="path4577"
       inkscape:connector-curvature="0"
       sodipodi:nodetypes="cccccccccccccccccccccccccccccccccccc" />
    <path
       sodipodi:nodetypes="cccccccccccccccccccccccccc"
       inkscape:connector-curvature="0"
       id="path4589"
       d="m 190.5,106.5 h -6.35 -6.35 -6.35 c 6.26462,6.46407 -12.7,6.35 -6.35,0 h -6.35 -6.35 -6.35 c 6.35,12.7 -12.7,6.35 -6.35,0 h -6.35 -6.35 -6.35 c 0,6.35 -12.7,12.7 -6.35,0 h -6.35 -6.35 -6.35 -6.35 -6.35 c 6.35,6.35 -12.7,6.35 -6.35,0 H 69.85 63.5 57.15 50.8 44.45 c 0,-12.700001 -12.7,-7.785743 -6.35,0 h -6.35"
       style="fill:none;fill-rule:evenodd;stroke:#000000;stroke-width:0.26458332px;stroke-linecap:butt;stroke-linejoin:miter;stroke-opacity:1" />
    <path
       style="fill:none;fill-rule:evenodd;stroke:#000000;stroke-width:0.26458332px;stroke-linecap:butt;stroke-linejoin:miter;stroke-opacity:1"
       d="m 31.750001,170 h 6.35 H 44.45 c 0,0 4.233333,0 6.35,0 -6.264618,6.46407 12.700001,6.35 6.35,0 2.116667,0 6.35,0 6.35,0 h 6.35 6.35 c -6.349999,12.7 12.700001,12.7 6.35,0 h 6.35 6.35 l 6.35,0 c 0,-6.35 12.7,-12.7 6.35,0 h 6.35 6.35 l 6.35,0 h 6.35 6.35 c -6.35,6.35 12.7,6.35 6.35,0 h 6.35 6.35 l 6.35,0 h 6.35 6.35 c 0,-12.7 12.7,-7.78574 6.35,0 h 6.35"
       id="path4591"
       inkscape:connector-curvature="0"
       sodipodi:nodetypes="cccccccccccccccccccccccccc" />
    <path
       sodipodi:nodetypes="cccccccccccccccccccccccccc"
       inkscape:connector-curvature="0"
       id="path4593"
       d="m 190.5,138.25 h -6.35 -6.35 -6.35 c 6.35,-12.7 -12.7,-6.35 -6.35,0 h -6.35 -6.35 -6.35 c 6.35,-12.7 -12.7,-12.7 -6.35,0 h -6.35 -6.35 -6.35 c 0,6.35 -12.7,12.7 -6.35,0 h -6.35 -6.35 -6.35 -6.35 -6.35 c 6.35,-6.35 -12.7,-6.35 -6.35,0 H 69.85 63.5 57.15 50.8 44.45 c 6.35,6.35 -12.7,7.78574 -6.35,0 h -6.35"
       style="fill:none;fill-rule:evenodd;stroke:#000000;stroke-width:0.26458332px;stroke-linecap:butt;stroke-linejoin:miter;stroke-opacity:1" />
    <path
       sodipodi:nodetypes="cccccccccccccccccccccccccc"
       inkscape:connector-curvature="0"
       id="path4595"
       d="m 31.750001,201.75 h 6.35 H 44.45 50.8 c 0,12.7 12.700001,6.35 6.35,0 h 6.35 6.35 6.35 c -6.349999,12.7 6.35,6.35 6.35,0 h 6.35 6.35 6.35 c 0,-6.35 12.7,-12.7 6.35,0 h 6.35 6.35 6.35 6.35 6.35 c 0,-6.35 6.35,-6.35 6.35,0 h 6.35 6.35 6.35 6.35 6.35 c -6.35,12.7 12.7,12.7 6.35,0 h 6.35"
       style="fill:none;fill-rule:evenodd;stroke:#000000;stroke-width:0.26458332px;stroke-linecap:butt;stroke-linejoin:miter;stroke-opacity:1" />
    <path
       sodipodi:nodetypes="cccccccccccccccccccccccccc"
       inkscape:connector-curvature="0"
       id="path4599"
       d="m 31.750001,233.5 h 6.35 H 44.45 50.8 c -6.35,-6.35 0,-6.35 6.35,0 h 6.35 6.35 6.35 c -6.35,6.35 12.700001,12.7 6.35,0 h 6.35 6.35 6.35 c -6.35,6.35 12.7,12.7 6.35,0 h 6.35 6.35 6.35 6.35 6.35 c -12.7,6.35 12.7,6.35 6.35,0 h 6.35 6.35 6.35 6.35 6.35 c -6.35,-6.35 12.7,-7.78574 6.35,0 h 6.35"
       style="fill:none;fill-rule:evenodd;stroke:#000000;stroke-width:0.26458332px;stroke-linecap:butt;stroke-linejoin:miter;stroke-opacity:1" />
    <path
       sodipodi:nodetypes="cccccccccccccccccccccccccccccccccccc"
       inkscape:connector-curvature="0"
       id="path4601"
       d="m 127,265.25 v -6.35 c -12.7,0 -6.35,-6.35 0,-6.35 v -6.35 -6.35 -6.35 -6.35 -6.35 c 6.35,6.35 6.35,-6.35 0,-6.35 v -6.35 -6.35 -6.35 -6.35 -6.35 c 6.35,6.35 12.7,-6.35 0,-6.35 V 170 163.65 157.3 c -7.59585,0 -12.7,-12.7 0,-6.35 v -6.35 -6.35 -6.35 -6.35 c -12.7,0 -12.7,-12.7 0,-6.35 v -6.35 -6.35 -6.35 -6.35 c 0,0 0,-4.23333 0,-6.35 6.35,6.35 6.35,-6.35 0,-6.35 0,-2.11667 0,-6.35 0,-6.35 V 68.4 62.05 c 0,0 0,-4.23333 0,-6.35 -12.7,6.35 -12.7,-6.35 0,-6.35 0,-2.11667 0,-6.35 0,-6.35"
       style="fill:none;fill-rule:evenodd;stroke:#000000;stroke-width:0.26458332px;stroke-linecap:butt;stroke-linejoin:miter;stroke-opacity:1" />
    <path
       style="fill:none;fill-rule:evenodd;stroke:#000000;stroke-width:0.26458332px;stroke-linecap:butt;stroke-linejoin:miter;stroke-opacity:1"
       d="m 158.75,265.25 v -6.35 c 12.7,0 12.7,-6.35 0,-6.35 v -6.35 -6.35 -6.35 -6.35 -6.35 c -12.7,6.35 -6.35,-6.35 0,-6.35 v -6.35 -6.35 -6.35 -6.35 -6.35 c -6.35,6.35 -12.7,-6.35 0,-6.35 V 170 163.65 157.3 c 6.35,6.35 12.7,-12.7 0,-6.35 v -6.35 -6.35 -6.35 -6.35 c 12.7,0 12.7,-12.7 0,-6.35 v -6.35 -6.35 -6.35 -6.35 -6.35 c -6.35,6.35 -6.35,-6.35 0,-6.35 V 74.75 68.4 62.05 55.7 c 12.7,6.35 12.7,-6.35 0,-6.35 V 43"
       id="path4603"
       inkscape:connector-curvature="0"
       sodipodi:nodetypes="cccccccccccccccccccccccccccccccccccc" />
    <path
       style="fill:none;fill-rule:evenodd;stroke:#000000;stroke-width:0.26458332px;stroke-linecap:butt;stroke-linejoin:miter;stroke-opacity:1"
       d="m 95.25,43 v 6.35 c 12.7,0 6.35,12.7 0,6.35 v 6.35 6.35 6.35 6.35 6.35 c 6.35,-6.35 12.7,6.35 0,6.35 v 6.35 6.35 6.35 6.35 6.35 c 6.35,-6.35 19.05,6.35 0,6.35 v 6.35 6.35 6.35 c 6.35,-6.35 10.23135,12.7 0,6.35 v 6.35 6.35 6.35 6.35 c 12.7,0 12.7,12.7 0,6.35 v 6.35 6.35 6.35 6.35 6.35 c -6.35,-6.35 -12.7,6.35 0,6.35 v 6.35 6.35 6.35 6.35 c 12.7,-6.35 12.7,12.7 0,6.35 v 6.35"
       id="path4605"
       inkscape:connector-curvature="0"
       sodipodi:nodetypes="cccccccccccccccccccccccccccccccccccc" />
  </g>
</svg>
