<?xml version="1.0" encoding="UTF-8" standalone="yes"?>
<!DOCTYPE svg PUBLIC "-//W3C//DTD SVG 1.0//EN" "http://www.w3.org/TR/2001/REC-SVG-20010904/DTD/svg10.dtd">
<svg height="280" width="190" xmlns="http://www.w3.org/2000/svg" xmlns:svg="http://www.w3.org/2000/svg" xmlns:xlink="http://www.w3.org/1999/xlink">
  <g id="Puzzle" style="fill: none; fill-rule: evenodd; stroke: #000000; stroke-dasharray: none; stroke-linecap: butt; stroke-linejoin: miter; stroke-miterlimit: 4; stroke-opacity: 1; stroke-width: 0.268">
    <rect height="240" id="outline" width="150" x="20" y="20" />
    <path d="M 20.000000 50.000000  C 23.000000 47.500000  47.000000 52.500000  50.000000 50.000000  C 53.000000 47.500000  77.000000 52.500000  80.000000 50.000000  C 83.000000 47.500000  107.000000 52.500000  110.000000 50.000000  C 113.000000 47.500000  137.000000 52.500000  140.000000 50.000000  C 143.000000 47.500000  167.000000 52.500000  170.000000 50.000000  " id="horizontal-01" />
    <path d="M 20.000000 80.000000  C 23.000000 77.500000  47.000000 82.500000  50.000000 80.000000  C 53.000000 77.500000  77.000000 82.500000  80.000000 80.000000  C 83.000000 77.500000  107.000000 82.500000  110.000000 80.000000  C 113.000000 77.500000  137.000000 82.500000  140.000000 80.000000  C 143.000000 77.500000  167.000000 82.500000  170.000000 80.000000  " id="horizontal-02" />
    <path d="M 20.000000 110.000000  C 23.000000 107.500000  47.000000 112.500000  50.000000 110.000000  C 53.000000 107.500000  77.000000 112.500000  80.000000 110.000000  C 83.000000 107.500000  107.000000 112.500000  110.000000 110.000000  C 113.000000 107.500000  137.000000 112.500000  140.000000 110.000000  C 143.000000 107.500000  167.000000 112.500000  170.000000 110.000000  " id="horizontal-03" />
    <path d="M 20.000000 140.000000  C 23.000000 137.500000  47.000000 142.500000  50.000000 140.000000  C 53.000000 137.500000  77.000000 142.500000  80.000000 140.000000  C 83.000000 137.500000  107.000000 142.500000  110.000000 140.000000  C 113.000000 137.500000  137.000000 142.500000  140.000000 140.000000  C 143.000000 137.500000  167.000000 142.500000  170.000000 140.000000  " id="horizontal-04" />
    <path d="M 20.000000 170.000000  C 23.000000 167.500000  47.000000 172.500000  50.000000 170.000000  C 53.000000 167.500000  77.000000 172.500000  80.000000 170.000000  C 83.000000 167.500000  107.000000 172.500000  110.000000 170.000000  C 113.000000 167.500000  137.000000 172.500000  140.000000 170.000000  C 143.000000 167.500000  167.000000 172.500000  170.000000 170.000000  " id="horizontal-05" />
    <path d="M 20.000000 200.000000  C 23.000000 197.500000  47.000000 202.500000  50.000000 200.000000  C 53.000000 197.500000  77.000000 202.500000  80.000000 200.000000  C 83.000000 197.500000  107.000000 202.500000  110.000000 200.000000  C 113.000000 197.500000  137.000000 202.500000  140.000000 200.000000  C 143.000000 197.500000  167.000000 202.500000  170.000000 200.000000  " id="horizontal-06" />
    <path d="M 20.000000 230.000000  C 23.000000 227.500000  47.000000 232.500000  50.000000 230.000000  C 53.000000 227.500000  77.000000 232.500000  80.000000 230.000000  C 83.000000 227.500000  107.000000 232.500000  110.000000 230.000000  C 113.000000 227.500000  137.000000 232.500000  140.000000 230.000000  C 143.000000 227.500000  167.000000 232.500000  170.000000 230.000000  " id="horizontal-07" />
    <path d="M 50.000000 20.000000  C 51.500000 16.500000  48.500000 53.500000  50.000000 50.000000  C 51.500000 46.500000  48.500000 83.500000  50.000000 80.000000  C 51.500000 76.500000  48.500000 113.500000  50.000000 110.000000  C 51.500000 106.500000  48.500000 143.500000  50.000000 140.000000  C 51.500000 136.500000  48.500000 173.500000  50.000000 170.000000  C 51.500000 166.500000  48.500000 203.500000  50.000000 200.000000  C 51.500000 196.500000  48.500000 233.500000  50.000000 230.000000  C 51.500000 226.500000  48.500000 263.500000  50.000000 260.000000  " id="vertical-01" />
    <path d="M 80.000000 20.000000  C 81.500000 16.500000  78.500000 53.500000  80.000000 50.000000  C 81.500000 46.500000  78.500000 83.500000  80.000000 80.000000  C 81.500000 76.500000  78.500000 113.500000  80.000000 110.000000  C 81.500000 106.500000  78.500000 143.500000  80.000000 140.000000  C 81.500000 136.500000  78.500000 173.500000  80.000000 170.000000  C 81.500000 166.500000  78.500000 203.500000  80.000000 200.000000  C 81.500000 196.500000  78.500000 233.500000  80.000000 230.000000  C 81.500000 226.500000  78.500000 263.500000  80.000000 260.000000  " id="vertical-02" />
    <path d="M 110.000000 20.000000  C 111.500000 16.500000  108.500000 53.500000  110.000000 50.000000  C 111.500000 46.500000  108.500000 83.500000  110.000000 80.000000  C 111.500000 76.500000  108.500000 113.500000  110.000000 110.000000  C 111.500000 106.500000  108.500000 143.500000  110.000000 140.000000  C 111.500000 136.500000  108.500000 173.500000  110.000000 170.000000  C 111.500000 166.500000  108.500000 203.500000  110.000000 200.000000  C 111.500000 196.500000  108.500000 233.500000  110.000000 230.000000  C 111.500000 226.500000  108.500000 263.500000  110.000000 260.000000  " id="vertical-03" />
    <path d="M 140.000000 20.000000  C 141.500000 16.500000  138.500000 53.500000  140.000000 50.000000  C 141.500000 46.500000  138.500000 83.500000  140.000000 80.000000  C 141.500000 76.500000  138.500000 113.500000  140.000000 110.000000  C 141.500000 106.500000  138.500000 143.500000  140.000000 140.000000  C 141.500000 136.500000  138.500000 173.500000  140.000000 170.000000  C 141.500000 166.500000  138.500000 203.500000  140.000000 200.000000  C 141.500000 196.500000  138.500000 233.500000  140.000000 230.000000  C 141.500000 226.500000  138.500000 263.500000  140.000000 260.000000  " id="vertical-04" />
  </g>
  <!--
	Generated using the Perl SVG Module V2.82
	by Ronan Oger
	Info: http://www.roitsystems.com/
	-->
</svg>
