<?xml version="1.0" encoding="UTF-8" standalone="yes"?>
<!DOCTYPE svg PUBLIC "-//W3C//DTD SVG 1.0//EN" "http://www.w3.org/TR/2001/REC-SVG-20010904/DTD/svg10.dtd">
<svg height="280" width="190" xmlns="http://www.w3.org/2000/svg" xmlns:svg="http://www.w3.org/2000/svg" xmlns:xlink="http://www.w3.org/1999/xlink">
  <g id="Puzzle" style="fill: none; fill-rule: evenodd; stroke: #000000; stroke-dasharray: none; stroke-linecap: butt; stroke-linejoin: miter; stroke-miterlimit: 4; stroke-opacity: 1; stroke-width: 0.268">
    <rect height="240" id="outline" width="150" x="20" y="20" />
    <path d="M  20.0  50.0  C  22.3  51.7   47.7  48.3   50.0  50.0  C  52.3  51.7   77.7  48.3   80.0  50.0  C  82.3  51.7  107.7  51.7  110.0  50.0  C 112.3  48.3  137.7  48.3  140.0  50.0  C 142.3  51.7  167.7  51.7  170.0  50.0  " id="horizontal-01" />
    <path d="M  20.0  80.0  C  22.3  81.7   47.7  81.7   50.0  80.0  C  52.3  78.3   77.7  81.7   80.0  80.0  C  82.3  78.3  107.7  78.3  110.0  80.0  C 112.3  81.7  137.7  81.7  140.0  80.0  C 142.3  78.3  167.7  78.3  170.0  80.0  " id="horizontal-02" />
    <path d="M  20.0 110.0  C  22.3 108.3   47.7 111.7   50.0 110.0  C  52.3 108.3   77.7 111.7   80.0 110.0  C  82.3 108.3  107.7 111.7  110.0 110.0  C 112.3 108.3  137.7 111.7  140.0 110.0  C 142.3 108.3  167.7 111.7  170.0 110.0  " id="horizontal-03" />
    <path d="M  20.0 140.0  C  22.3 138.3   47.7 141.7   50.0 140.0  C  52.3 138.3   77.7 141.7   80.0 140.0  C  82.3 138.3  107.7 141.7  110.0 140.0  C 112.3 138.3  137.7 141.7  140.0 140.0  C 142.3 138.3  167.7 141.7  170.0 140.0  " id="horizontal-04" />
    <path d="M  20.0 170.0  C  22.3 168.3   47.7 171.7   50.0 170.0  C  52.3 168.3   77.7 168.3   80.0 170.0  C  82.3 171.7  107.7 171.7  110.0 170.0  C 112.3 168.3  137.7 168.3  140.0 170.0  C 142.3 171.7  167.7 171.7  170.0 170.0  " id="horizontal-05" />
    <path d="M  20.0 200.0  C  22.3 201.7   47.7 201.7   50.0 200.0  C  52.3 198.3   77.7 198.3   80.0 200.0  C  82.3 201.7  107.7 201.7  110.0 200.0  C 112.3 198.3  137.7 201.7  140.0 200.0  C 142.3 198.3  167.7 201.7  170.0 200.0  " id="horizontal-06" />
    <path d="M  20.0 230.0  C  22.3 228.3   47.7 231.7   50.0 230.0  C  52.3 228.3   77.7 231.7   80.0 230.0  C  82.3 228.3  107.7 231.7  110.0 230.0  C 112.3 228.3  137.7 231.7  140.0 230.0  C 142.3 228.3  167.7 228.3  170.0 230.0  " id="horizontal-07" />
    <path d="M  50.0  20.0  C  48.9  22.5   48.9  47.5   50.0  50.0  C  51.1  52.5   48.9  77.5   50.0  80.0  C  51.1  82.5   48.9 107.5   50.0 110.0  C  51.1 112.5   48.9 137.5   50.0 140.0  C  51.1 142.5   48.9 167.5   50.0 170.0  C  51.1 172.5   51.1 197.5   50.0 200.0  C  48.9 202.5   48.9 227.5   50.0 230.0  C  51.1 232.5   51.1 257.5   50.0 260.0  " id="vertical-01" />
    <path d="M  80.0  20.0  C  81.1  22.5   78.9  47.5   80.0  50.0  C  81.1  52.5   81.1  77.5   80.0  80.0  C  78.9  82.5   81.1 107.5   80.0 110.0  C  78.9 112.5   78.9 137.5   80.0 140.0  C  81.1 142.5   78.9 167.5   80.0 170.0  C  81.1 172.5   78.9 197.5   80.0 200.0  C  81.1 202.5   78.9 227.5   80.0 230.0  C  81.1 232.5   81.1 257.5   80.0 260.0  " id="vertical-02" />
    <path d="M 110.0  20.0  C 111.1  22.5  108.9  47.5  110.0  50.0  C 111.1  52.5  108.9  77.5  110.0  80.0  C 111.1  82.5  111.1 107.5  110.0 110.0  C 108.9 112.5  108.9 137.5  110.0 140.0  C 111.1 142.5  108.9 167.5  110.0 170.0  C 111.1 172.5  108.9 197.5  110.0 200.0  C 111.1 202.5  108.9 227.5  110.0 230.0  C 111.1 232.5  108.9 257.5  110.0 260.0  " id="vertical-03" />
    <path d="M 140.0  20.0  C 141.1  22.5  138.9  47.5  140.0  50.0  C 141.1  52.5  141.1  77.5  140.0  80.0  C 138.9  82.5  138.9 107.5  140.0 110.0  C 141.1 112.5  138.9 137.5  140.0 140.0  C 141.1 142.5  141.1 167.5  140.0 170.0  C 138.9 172.5  141.1 197.5  140.0 200.0  C 138.9 202.5  141.1 227.5  140.0 230.0  C 138.9 232.5  141.1 257.5  140.0 260.0  " id="vertical-04" />
  </g>
  <!--
	Generated using the Perl SVG Module V2.82
	by Ronan Oger
	Info: http://www.roitsystems.com/
	-->
</svg>
