<?xml version="1.0" encoding="UTF-8" standalone="no"?>
<svg
   xmlns:dc="http://purl.org/dc/elements/1.1/"
   xmlns:cc="http://creativecommons.org/ns#"
   xmlns:rdf="http://www.w3.org/1999/02/22-rdf-syntax-ns#"
   xmlns:svg="http://www.w3.org/2000/svg"
   xmlns="http://www.w3.org/2000/svg"
   xmlns:sodipodi="http://sodipodi.sourceforge.net/DTD/sodipodi-0.dtd"
   xmlns:inkscape="http://www.inkscape.org/namespaces/inkscape"
   height="280"
   width="190"
   version="1.1"
   id="svg849"
   sodipodi:docname="puzzle-03.svg">
  <metadata
     id="metadata855">
    <rdf:RDF>
      <cc:Work
         rdf:about="">
        <dc:format>image/svg+xml</dc:format>
        <dc:type
           rdf:resource="http://purl.org/dc/dcmitype/StillImage" />
      </cc:Work>
    </rdf:RDF>
  </metadata>
  <defs
     id="defs853" />
  <sodipodi:namedview
     pagecolor="#ffffff"
     bordercolor="#666666"
     borderopacity="1"
     objecttolerance="10"
     gridtolerance="10"
     guidetolerance="10"
     inkscape:pageopacity="0"
     inkscape:pageshadow="2"
     inkscape:window-width="640"
     inkscape:window-height="480"
     id="namedview851"
     showgrid="false" />
  <g
     id="Puzzle"
     style="fill: none; fill-rule: evenodd; stroke: #000000; stroke-dasharray: none; stroke-linecap: butt; stroke-linejoin: miter; stroke-miterlimit: 4; stroke-opacity: 1; stroke-width: 0.268">
    <rect
       height="240"
       id="outline"
       width="150"
       x="20"
       y="20" />
    <path
       d="m 20,50 c 2.260167,2.094569 8.87002,-1.741875 8.5,0 0,2.3 7.5,2.3 7.5,0 14,0 11.7,-1.7 14,0 2.3,1.7 0,0 11,0 0,2.3 7.5,2.3 7.5,0 11.5,0 9.2,-1.7 11.5,0 2.3,1.7 0,0 12.4,0 0,2.3 7.5,2.3 7.5,0 10.1,0 7.8,1.7 10.1,0 2.3,-1.7 0,0 9.1,0 0,2.3 7.5,2.3 7.5,0 13.4,0 11.1,-1.7 13.4,0 2.3,1.7 0,0 9.9,0 0,2.3 7.5,2.3 7.5,0 12.6,0 10.3,1.7 12.6,0"
       id="horizontal-01"
       inkscape:connector-curvature="0"
       sodipodi:nodetypes="cccsccsccsccsccc" />
    <path
       d="M  20.0  80.0  C  22.3  81.7   20.0  80.0   28.9  80.0  C  28.9  82.3   36.4  82.3   36.4  80.0  C  50.0  80.0   47.7  78.3   50.0  80.0  C  52.3  81.7   50.0  80.0   64.9  80.0  C  64.9  82.3   72.4  82.3   72.4  80.0  C  80.0  80.0   77.7  81.7   80.0  80.0  C  82.3  78.3   80.0  80.0   93.0  80.0  C  93.0  82.3  100.5  82.3  100.5  80.0  C 110.0  80.0  107.7  78.3  110.0  80.0  C 112.3  81.7  110.0  80.0  118.5  80.0  C 118.5  82.3  126.0  82.3  126.0  80.0  C 140.0  80.0  137.7  78.3  140.0  80.0  C 142.3  81.7  140.0  80.0  154.7  80.0  C 154.7  82.3  162.2  82.3  162.2  80.0  C 170.0  80.0  167.7  81.7  170.0  80.0  "
       id="horizontal-02" />
    <path
       d="M  20.0 110.0  C  22.3 108.3   20.0 110.0   30.7 110.0  C  30.7 112.3   38.2 112.3   38.2 110.0  C  50.0 110.0   47.7 108.3   50.0 110.0  C  52.3 111.7   50.0 110.0   58.4 110.0  C  58.4 112.3   65.9 112.3   65.9 110.0  C  80.0 110.0   77.7 108.3   80.0 110.0  C  82.3 111.7   80.0 110.0   91.1 110.0  C  91.1 112.3   98.6 112.3   98.6 110.0  C 110.0 110.0  107.7 108.3  110.0 110.0  C 112.3 111.7  110.0 110.0  123.4 110.0  C 123.4 112.3  130.9 112.3  130.9 110.0  C 140.0 110.0  137.7 111.7  140.0 110.0  C 142.3 108.3  140.0 110.0  148.8 110.0  C 148.8 112.3  156.3 112.3  156.3 110.0  C 170.0 110.0  167.7 108.3  170.0 110.0  "
       id="horizontal-03" />
    <path
       d="M  20.0 140.0  C  22.3 138.3   20.0 140.0   28.8 140.0  C  28.8 142.3   36.3 142.3   36.3 140.0  C  50.0 140.0   47.7 138.3   50.0 140.0  C  52.3 141.7   50.0 140.0   63.8 140.0  C  63.8 142.3   71.3 142.3   71.3 140.0  C  80.0 140.0   77.7 141.7   80.0 140.0  C  82.3 138.3   80.0 140.0   90.3 140.0  C  90.3 142.3   97.8 142.3   97.8 140.0  C 110.0 140.0  107.7 141.7  110.0 140.0  C 112.3 138.3  110.0 140.0  118.9 140.0  C 118.9 142.3  126.4 142.3  126.4 140.0  C 140.0 140.0  137.7 138.3  140.0 140.0  C 142.3 141.7  140.0 140.0  153.7 140.0  C 153.7 142.3  161.2 142.3  161.2 140.0  C 170.0 140.0  167.7 141.7  170.0 140.0  "
       id="horizontal-04" />
    <path
       d="M  20.0 170.0  C  22.3 168.3   20.0 170.0   28.2 170.0  C  28.2 172.3   35.7 172.3   35.7 170.0  C  50.0 170.0   47.7 168.3   50.0 170.0  C  52.3 171.7   50.0 170.0   62.6 170.0  C  62.6 172.3   70.1 172.3   70.1 170.0  C  80.0 170.0   77.7 168.3   80.0 170.0  C  82.3 171.7   80.0 170.0   89.3 170.0  C  89.3 172.3   96.8 172.3   96.8 170.0  C 110.0 170.0  107.7 168.3  110.0 170.0  C 112.3 171.7  110.0 170.0  122.2 170.0  C 122.2 172.3  129.7 172.3  129.7 170.0  C 140.0 170.0  137.7 171.7  140.0 170.0  C 142.3 168.3  140.0 170.0  154.0 170.0  C 154.0 172.3  161.5 172.3  161.5 170.0  C 170.0 170.0  167.7 168.3  170.0 170.0  "
       id="horizontal-05" />
    <path
       d="M  20.0 200.0  C  22.3 198.3   20.0 200.0   30.0 200.0  C  30.0 202.3   37.5 202.3   37.5 200.0  C  50.0 200.0   47.7 198.3   50.0 200.0  C  52.3 201.7   50.0 200.0   58.0 200.0  C  58.0 202.3   65.5 202.3   65.5 200.0  C  80.0 200.0   77.7 201.7   80.0 200.0  C  82.3 198.3   80.0 200.0   91.4 200.0  C  91.4 202.3   98.9 202.3   98.9 200.0  C 110.0 200.0  107.7 198.3  110.0 200.0  C 112.3 201.7  110.0 200.0  119.1 200.0  C 119.1 202.3  126.6 202.3  126.6 200.0  C 140.0 200.0  137.7 201.7  140.0 200.0  C 142.3 198.3  140.0 200.0  148.5 200.0  C 148.5 202.3  156.0 202.3  156.0 200.0  C 170.0 200.0  167.7 201.7  170.0 200.0  "
       id="horizontal-06" />
    <path
       d="M  20.0 230.0  C  22.3 231.7   20.0 230.0   27.6 230.0  C  27.6 232.3   35.1 232.3   35.1 230.0  C  50.0 230.0   47.7 228.3   50.0 230.0  C  52.3 231.7   50.0 230.0   62.0 230.0  C  62.0 232.3   69.5 232.3   69.5 230.0  C  80.0 230.0   77.7 228.3   80.0 230.0  C  82.3 231.7   80.0 230.0   91.2 230.0  C  91.2 232.3   98.7 232.3   98.7 230.0  C 110.0 230.0  107.7 228.3  110.0 230.0  C 112.3 231.7  110.0 230.0  124.6 230.0  C 124.6 232.3  132.1 232.3  132.1 230.0  C 140.0 230.0  137.7 231.7  140.0 230.0  C 142.3 228.3  140.0 230.0  150.7 230.0  C 150.7 232.3  158.2 232.3  158.2 230.0  C 170.0 230.0  167.7 228.3  170.0 230.0  "
       id="horizontal-07" />
    <path
       d="M  50.0  20.0  C  48.9  22.5   51.1  47.5   50.0  50.0  C  48.9  52.5   48.9  77.5   50.0  80.0  C  51.1  82.5   48.9 107.5   50.0 110.0  C  51.1 112.5   51.1 137.5   50.0 140.0  C  48.9 142.5   51.1 167.5   50.0 170.0  C  48.9 172.5   48.9 197.5   50.0 200.0  C  51.1 202.5   51.1 227.5   50.0 230.0  C  48.9 232.5   51.1 257.5   50.0 260.0  "
       id="vertical-01" />
    <path
       d="M  80.0  20.0  C  78.9  22.5   78.9  47.5   80.0  50.0  C  81.1  52.5   78.9  77.5   80.0  80.0  C  81.1  82.5   78.9 107.5   80.0 110.0  C  81.1 112.5   81.1 137.5   80.0 140.0  C  78.9 142.5   81.1 167.5   80.0 170.0  C  78.9 172.5   81.1 197.5   80.0 200.0  C  78.9 202.5   78.9 227.5   80.0 230.0  C  81.1 232.5   78.9 257.5   80.0 260.0  "
       id="vertical-02" />
    <path
       d="M 110.0  20.0  C 108.9  22.5  111.1  47.5  110.0  50.0  C 108.9  52.5  111.1  77.5  110.0  80.0  C 108.9  82.5  111.1 107.5  110.0 110.0  C 108.9 112.5  111.1 137.5  110.0 140.0  C 108.9 142.5  111.1 167.5  110.0 170.0  C 108.9 172.5  111.1 197.5  110.0 200.0  C 108.9 202.5  108.9 227.5  110.0 230.0  C 111.1 232.5  108.9 257.5  110.0 260.0  "
       id="vertical-03" />
    <path
       d="M 140.0  20.0  C 138.9  22.5  141.1  47.5  140.0  50.0  C 138.9  52.5  141.1  77.5  140.0  80.0  C 138.9  82.5  138.9 107.5  140.0 110.0  C 141.1 112.5  141.1 137.5  140.0 140.0  C 138.9 142.5  138.9 167.5  140.0 170.0  C 141.1 172.5  138.9 197.5  140.0 200.0  C 141.1 202.5  138.9 227.5  140.0 230.0  C 141.1 232.5  141.1 257.5  140.0 260.0  "
       id="vertical-04" />
  </g>
  <!--
	Generated using the Perl SVG Module V2.82
	by Ronan Oger
	Info: http://www.roitsystems.com/
	-->
</svg>
